G04 #@! TF.GenerationSoftware,KiCad,Pcbnew,10.0.3*
G04 #@! TF.CreationDate,2026-05-26T11:20:20-04:00*
G04 #@! TF.ProjectId,Esp32 Can+IMU,45737033-3220-4436-916e-2b494d552e6b,rev?*
G04 #@! TF.SameCoordinates,Original*
G04 #@! TF.FileFunction,Legend,Top*
G04 #@! TF.FilePolarity,Positive*
%FSLAX46Y46*%
G04 Gerber Fmt 4.6, Leading zero omitted, Abs format (unit mm)*
G04 Created by KiCad (PCBNEW 10.0.3) date 2026-05-26 11:20:20*
%MOMM*%
%LPD*%
G01*
G04 APERTURE LIST*
G04 Aperture macros list*
%AMRoundRect*
0 Rectangle with rounded corners*
0 $1 Rounding radius*
0 $2 $3 $4 $5 $6 $7 $8 $9 X,Y pos of 4 corners*
0 Add a 4 corners polygon primitive as box body*
4,1,4,$2,$3,$4,$5,$6,$7,$8,$9,$2,$3,0*
0 Add four circle primitives for the rounded corners*
1,1,$1+$1,$2,$3*
1,1,$1+$1,$4,$5*
1,1,$1+$1,$6,$7*
1,1,$1+$1,$8,$9*
0 Add four rect primitives between the rounded corners*
20,1,$1+$1,$2,$3,$4,$5,0*
20,1,$1+$1,$4,$5,$6,$7,0*
20,1,$1+$1,$6,$7,$8,$9,0*
20,1,$1+$1,$8,$9,$2,$3,0*%
G04 Aperture macros list end*
%ADD10C,0.150000*%
%ADD11C,0.120000*%
%ADD12C,0.203200*%
%ADD13C,0.152400*%
%ADD14C,0.000000*%
%ADD15C,0.254000*%
%ADD16C,1.100000*%
%ADD17RoundRect,0.075000X-0.075000X-0.425000X0.075000X-0.425000X0.075000X0.425000X-0.075000X0.425000X0*%
%ADD18O,1.000000X0.580000*%
%ADD19C,0.660000*%
%ADD20RoundRect,0.218750X0.256250X-0.218750X0.256250X0.218750X-0.256250X0.218750X-0.256250X-0.218750X0*%
%ADD21RoundRect,0.135000X0.185000X-0.135000X0.185000X0.135000X-0.185000X0.135000X-0.185000X-0.135000X0*%
%ADD22RoundRect,0.140000X-0.140000X-0.170000X0.140000X-0.170000X0.140000X0.170000X-0.140000X0.170000X0*%
%ADD23C,0.600000*%
%ADD24R,3.900000X3.900000*%
%ADD25R,0.900000X1.500000*%
%ADD26R,1.500000X0.900000*%
%ADD27R,1.700000X1.700000*%
%ADD28C,1.700000*%
%ADD29RoundRect,0.135000X-0.185000X0.135000X-0.185000X-0.135000X0.185000X-0.135000X0.185000X0.135000X0*%
%ADD30R,0.700000X1.000000*%
%ADD31R,1.000000X1.000000*%
%ADD32RoundRect,0.250000X-0.650000X0.325000X-0.650000X-0.325000X0.650000X-0.325000X0.650000X0.325000X0*%
%ADD33R,1.257300X0.482600*%
%ADD34R,2.400000X3.099999*%
%ADD35RoundRect,0.250000X1.000000X0.650000X-1.000000X0.650000X-1.000000X-0.650000X1.000000X-0.650000X0*%
%ADD36RoundRect,0.140000X0.140000X0.170000X-0.140000X0.170000X-0.140000X-0.170000X0.140000X-0.170000X0*%
%ADD37RoundRect,0.250000X0.325000X0.650000X-0.325000X0.650000X-0.325000X-0.650000X0.325000X-0.650000X0*%
%ADD38RoundRect,0.093750X-0.093750X0.156250X-0.093750X-0.156250X0.093750X-0.156250X0.093750X0.156250X0*%
%ADD39RoundRect,0.075000X-0.075000X0.250000X-0.075000X-0.250000X0.075000X-0.250000X0.075000X0.250000X0*%
%ADD40C,3.000000*%
%ADD41RoundRect,0.750000X-0.750000X0.750000X-0.750000X-0.750000X0.750000X-0.750000X0.750000X0.750000X0*%
%ADD42RoundRect,0.250000X0.250000X1.100000X-0.250000X1.100000X-0.250000X-1.100000X0.250000X-1.100000X0*%
%ADD43RoundRect,0.150000X0.150000X0.700000X-0.150000X0.700000X-0.150000X-0.700000X0.150000X-0.700000X0*%
%ADD44RoundRect,0.250000X-1.000000X-0.650000X1.000000X-0.650000X1.000000X0.650000X-1.000000X0.650000X0*%
%ADD45RoundRect,0.140000X0.170000X-0.140000X0.170000X0.140000X-0.170000X0.140000X-0.170000X-0.140000X0*%
%ADD46R,0.304800X0.533400*%
%ADD47R,0.533400X0.304800*%
%ADD48RoundRect,0.250000X-0.312500X-1.450000X0.312500X-1.450000X0.312500X1.450000X-0.312500X1.450000X0*%
%ADD49RoundRect,0.135000X0.135000X0.185000X-0.135000X0.185000X-0.135000X-0.185000X0.135000X-0.185000X0*%
%ADD50RoundRect,0.250000X1.000000X0.900000X-1.000000X0.900000X-1.000000X-0.900000X1.000000X-0.900000X0*%
%ADD51RoundRect,0.150000X-0.512500X-0.150000X0.512500X-0.150000X0.512500X0.150000X-0.512500X0.150000X0*%
%ADD52RoundRect,0.135000X-0.135000X-0.185000X0.135000X-0.185000X0.135000X0.185000X-0.135000X0.185000X0*%
%ADD53RoundRect,0.250000X0.650000X-1.000000X0.650000X1.000000X-0.650000X1.000000X-0.650000X-1.000000X0*%
%ADD54R,0.508000X1.257300*%
%ADD55RoundRect,0.250000X-0.300000X-1.600000X0.300000X-1.600000X0.300000X1.600000X-0.300000X1.600000X0*%
%ADD56RoundRect,0.760000X-1.140000X1.140000X-1.140000X-1.140000X1.140000X-1.140000X1.140000X1.140000X0*%
%ADD57C,4.000000*%
%ADD58R,2.000000X1.200000*%
%ADD59R,1.550000X0.600000*%
%ADD60C,5.700000*%
G04 APERTURE END LIST*
D10*
X114140476Y-102594819D02*
X114140476Y-103309104D01*
X114140476Y-103309104D02*
X114092857Y-103451961D01*
X114092857Y-103451961D02*
X113997619Y-103547200D01*
X113997619Y-103547200D02*
X113854762Y-103594819D01*
X113854762Y-103594819D02*
X113759524Y-103594819D01*
X115140476Y-103594819D02*
X114569048Y-103594819D01*
X114854762Y-103594819D02*
X114854762Y-102594819D01*
X114854762Y-102594819D02*
X114759524Y-102737676D01*
X114759524Y-102737676D02*
X114664286Y-102832914D01*
X114664286Y-102832914D02*
X114569048Y-102880533D01*
X115521429Y-102690057D02*
X115569048Y-102642438D01*
X115569048Y-102642438D02*
X115664286Y-102594819D01*
X115664286Y-102594819D02*
X115902381Y-102594819D01*
X115902381Y-102594819D02*
X115997619Y-102642438D01*
X115997619Y-102642438D02*
X116045238Y-102690057D01*
X116045238Y-102690057D02*
X116092857Y-102785295D01*
X116092857Y-102785295D02*
X116092857Y-102880533D01*
X116092857Y-102880533D02*
X116045238Y-103023390D01*
X116045238Y-103023390D02*
X115473810Y-103594819D01*
X115473810Y-103594819D02*
X116092857Y-103594819D01*
X117464819Y-112172857D02*
X116988628Y-112506190D01*
X117464819Y-112744285D02*
X116464819Y-112744285D01*
X116464819Y-112744285D02*
X116464819Y-112363333D01*
X116464819Y-112363333D02*
X116512438Y-112268095D01*
X116512438Y-112268095D02*
X116560057Y-112220476D01*
X116560057Y-112220476D02*
X116655295Y-112172857D01*
X116655295Y-112172857D02*
X116798152Y-112172857D01*
X116798152Y-112172857D02*
X116893390Y-112220476D01*
X116893390Y-112220476D02*
X116941009Y-112268095D01*
X116941009Y-112268095D02*
X116988628Y-112363333D01*
X116988628Y-112363333D02*
X116988628Y-112744285D01*
X116560057Y-111791904D02*
X116512438Y-111744285D01*
X116512438Y-111744285D02*
X116464819Y-111649047D01*
X116464819Y-111649047D02*
X116464819Y-111410952D01*
X116464819Y-111410952D02*
X116512438Y-111315714D01*
X116512438Y-111315714D02*
X116560057Y-111268095D01*
X116560057Y-111268095D02*
X116655295Y-111220476D01*
X116655295Y-111220476D02*
X116750533Y-111220476D01*
X116750533Y-111220476D02*
X116893390Y-111268095D01*
X116893390Y-111268095D02*
X117464819Y-111839523D01*
X117464819Y-111839523D02*
X117464819Y-111220476D01*
X116464819Y-110887142D02*
X116464819Y-110268095D01*
X116464819Y-110268095D02*
X116845771Y-110601428D01*
X116845771Y-110601428D02*
X116845771Y-110458571D01*
X116845771Y-110458571D02*
X116893390Y-110363333D01*
X116893390Y-110363333D02*
X116941009Y-110315714D01*
X116941009Y-110315714D02*
X117036247Y-110268095D01*
X117036247Y-110268095D02*
X117274342Y-110268095D01*
X117274342Y-110268095D02*
X117369580Y-110315714D01*
X117369580Y-110315714D02*
X117417200Y-110363333D01*
X117417200Y-110363333D02*
X117464819Y-110458571D01*
X117464819Y-110458571D02*
X117464819Y-110744285D01*
X117464819Y-110744285D02*
X117417200Y-110839523D01*
X117417200Y-110839523D02*
X117369580Y-110887142D01*
X107661905Y-113044819D02*
X107661905Y-112044819D01*
X107661905Y-112044819D02*
X107900000Y-112044819D01*
X107900000Y-112044819D02*
X108042857Y-112092438D01*
X108042857Y-112092438D02*
X108138095Y-112187676D01*
X108138095Y-112187676D02*
X108185714Y-112282914D01*
X108185714Y-112282914D02*
X108233333Y-112473390D01*
X108233333Y-112473390D02*
X108233333Y-112616247D01*
X108233333Y-112616247D02*
X108185714Y-112806723D01*
X108185714Y-112806723D02*
X108138095Y-112901961D01*
X108138095Y-112901961D02*
X108042857Y-112997200D01*
X108042857Y-112997200D02*
X107900000Y-113044819D01*
X107900000Y-113044819D02*
X107661905Y-113044819D01*
X108614286Y-112140057D02*
X108661905Y-112092438D01*
X108661905Y-112092438D02*
X108757143Y-112044819D01*
X108757143Y-112044819D02*
X108995238Y-112044819D01*
X108995238Y-112044819D02*
X109090476Y-112092438D01*
X109090476Y-112092438D02*
X109138095Y-112140057D01*
X109138095Y-112140057D02*
X109185714Y-112235295D01*
X109185714Y-112235295D02*
X109185714Y-112330533D01*
X109185714Y-112330533D02*
X109138095Y-112473390D01*
X109138095Y-112473390D02*
X108566667Y-113044819D01*
X108566667Y-113044819D02*
X109185714Y-113044819D01*
X106473719Y-92472454D02*
X107283242Y-92472454D01*
X107283242Y-92472454D02*
X107378480Y-92424835D01*
X107378480Y-92424835D02*
X107426100Y-92377216D01*
X107426100Y-92377216D02*
X107473719Y-92281978D01*
X107473719Y-92281978D02*
X107473719Y-92091502D01*
X107473719Y-92091502D02*
X107426100Y-91996264D01*
X107426100Y-91996264D02*
X107378480Y-91948645D01*
X107378480Y-91948645D02*
X107283242Y-91901026D01*
X107283242Y-91901026D02*
X106473719Y-91901026D01*
X107473719Y-90901026D02*
X107473719Y-91472454D01*
X107473719Y-91186740D02*
X106473719Y-91186740D01*
X106473719Y-91186740D02*
X106616576Y-91281978D01*
X106616576Y-91281978D02*
X106711814Y-91377216D01*
X106711814Y-91377216D02*
X106759433Y-91472454D01*
X150285566Y-93365369D02*
X150285566Y-94079654D01*
X150285566Y-94079654D02*
X150237947Y-94222511D01*
X150237947Y-94222511D02*
X150142709Y-94317750D01*
X150142709Y-94317750D02*
X149999852Y-94365369D01*
X149999852Y-94365369D02*
X149904614Y-94365369D01*
X150666519Y-93365369D02*
X151333185Y-93365369D01*
X151333185Y-93365369D02*
X150904614Y-94365369D01*
X142285566Y-93385369D02*
X142285566Y-94099654D01*
X142285566Y-94099654D02*
X142237947Y-94242511D01*
X142237947Y-94242511D02*
X142142709Y-94337750D01*
X142142709Y-94337750D02*
X141999852Y-94385369D01*
X141999852Y-94385369D02*
X141904614Y-94385369D01*
X142809376Y-94385369D02*
X142999852Y-94385369D01*
X142999852Y-94385369D02*
X143095090Y-94337750D01*
X143095090Y-94337750D02*
X143142709Y-94290130D01*
X143142709Y-94290130D02*
X143237947Y-94147273D01*
X143237947Y-94147273D02*
X143285566Y-93956797D01*
X143285566Y-93956797D02*
X143285566Y-93575845D01*
X143285566Y-93575845D02*
X143237947Y-93480607D01*
X143237947Y-93480607D02*
X143190328Y-93432988D01*
X143190328Y-93432988D02*
X143095090Y-93385369D01*
X143095090Y-93385369D02*
X142904614Y-93385369D01*
X142904614Y-93385369D02*
X142809376Y-93432988D01*
X142809376Y-93432988D02*
X142761757Y-93480607D01*
X142761757Y-93480607D02*
X142714138Y-93575845D01*
X142714138Y-93575845D02*
X142714138Y-93813940D01*
X142714138Y-93813940D02*
X142761757Y-93909178D01*
X142761757Y-93909178D02*
X142809376Y-93956797D01*
X142809376Y-93956797D02*
X142904614Y-94004416D01*
X142904614Y-94004416D02*
X143095090Y-94004416D01*
X143095090Y-94004416D02*
X143190328Y-93956797D01*
X143190328Y-93956797D02*
X143237947Y-93909178D01*
X143237947Y-93909178D02*
X143285566Y-93813940D01*
X111693333Y-103639580D02*
X111645714Y-103687200D01*
X111645714Y-103687200D02*
X111502857Y-103734819D01*
X111502857Y-103734819D02*
X111407619Y-103734819D01*
X111407619Y-103734819D02*
X111264762Y-103687200D01*
X111264762Y-103687200D02*
X111169524Y-103591961D01*
X111169524Y-103591961D02*
X111121905Y-103496723D01*
X111121905Y-103496723D02*
X111074286Y-103306247D01*
X111074286Y-103306247D02*
X111074286Y-103163390D01*
X111074286Y-103163390D02*
X111121905Y-102972914D01*
X111121905Y-102972914D02*
X111169524Y-102877676D01*
X111169524Y-102877676D02*
X111264762Y-102782438D01*
X111264762Y-102782438D02*
X111407619Y-102734819D01*
X111407619Y-102734819D02*
X111502857Y-102734819D01*
X111502857Y-102734819D02*
X111645714Y-102782438D01*
X111645714Y-102782438D02*
X111693333Y-102830057D01*
X112169524Y-103734819D02*
X112360000Y-103734819D01*
X112360000Y-103734819D02*
X112455238Y-103687200D01*
X112455238Y-103687200D02*
X112502857Y-103639580D01*
X112502857Y-103639580D02*
X112598095Y-103496723D01*
X112598095Y-103496723D02*
X112645714Y-103306247D01*
X112645714Y-103306247D02*
X112645714Y-102925295D01*
X112645714Y-102925295D02*
X112598095Y-102830057D01*
X112598095Y-102830057D02*
X112550476Y-102782438D01*
X112550476Y-102782438D02*
X112455238Y-102734819D01*
X112455238Y-102734819D02*
X112264762Y-102734819D01*
X112264762Y-102734819D02*
X112169524Y-102782438D01*
X112169524Y-102782438D02*
X112121905Y-102830057D01*
X112121905Y-102830057D02*
X112074286Y-102925295D01*
X112074286Y-102925295D02*
X112074286Y-103163390D01*
X112074286Y-103163390D02*
X112121905Y-103258628D01*
X112121905Y-103258628D02*
X112169524Y-103306247D01*
X112169524Y-103306247D02*
X112264762Y-103353866D01*
X112264762Y-103353866D02*
X112455238Y-103353866D01*
X112455238Y-103353866D02*
X112550476Y-103306247D01*
X112550476Y-103306247D02*
X112598095Y-103258628D01*
X112598095Y-103258628D02*
X112645714Y-103163390D01*
X147390000Y-68174819D02*
X147961428Y-68174819D01*
X147675714Y-69174819D02*
X147675714Y-68174819D01*
X148294762Y-69174819D02*
X148294762Y-68174819D01*
X148294762Y-68174819D02*
X148675714Y-68174819D01*
X148675714Y-68174819D02*
X148770952Y-68222438D01*
X148770952Y-68222438D02*
X148818571Y-68270057D01*
X148818571Y-68270057D02*
X148866190Y-68365295D01*
X148866190Y-68365295D02*
X148866190Y-68508152D01*
X148866190Y-68508152D02*
X148818571Y-68603390D01*
X148818571Y-68603390D02*
X148770952Y-68651009D01*
X148770952Y-68651009D02*
X148675714Y-68698628D01*
X148675714Y-68698628D02*
X148294762Y-68698628D01*
X149056667Y-69270057D02*
X149818571Y-69270057D01*
X149961429Y-68174819D02*
X150580476Y-68174819D01*
X150580476Y-68174819D02*
X150247143Y-68555771D01*
X150247143Y-68555771D02*
X150390000Y-68555771D01*
X150390000Y-68555771D02*
X150485238Y-68603390D01*
X150485238Y-68603390D02*
X150532857Y-68651009D01*
X150532857Y-68651009D02*
X150580476Y-68746247D01*
X150580476Y-68746247D02*
X150580476Y-68984342D01*
X150580476Y-68984342D02*
X150532857Y-69079580D01*
X150532857Y-69079580D02*
X150485238Y-69127200D01*
X150485238Y-69127200D02*
X150390000Y-69174819D01*
X150390000Y-69174819D02*
X150104286Y-69174819D01*
X150104286Y-69174819D02*
X150009048Y-69127200D01*
X150009048Y-69127200D02*
X149961429Y-69079580D01*
X150913810Y-68508152D02*
X151151905Y-69174819D01*
X151151905Y-69174819D02*
X151390000Y-68508152D01*
X151675715Y-68174819D02*
X152294762Y-68174819D01*
X152294762Y-68174819D02*
X151961429Y-68555771D01*
X151961429Y-68555771D02*
X152104286Y-68555771D01*
X152104286Y-68555771D02*
X152199524Y-68603390D01*
X152199524Y-68603390D02*
X152247143Y-68651009D01*
X152247143Y-68651009D02*
X152294762Y-68746247D01*
X152294762Y-68746247D02*
X152294762Y-68984342D01*
X152294762Y-68984342D02*
X152247143Y-69079580D01*
X152247143Y-69079580D02*
X152199524Y-69127200D01*
X152199524Y-69127200D02*
X152104286Y-69174819D01*
X152104286Y-69174819D02*
X151818572Y-69174819D01*
X151818572Y-69174819D02*
X151723334Y-69127200D01*
X151723334Y-69127200D02*
X151675715Y-69079580D01*
X128170952Y-112334819D02*
X128742380Y-112334819D01*
X128456666Y-113334819D02*
X128456666Y-112334819D01*
X129075714Y-113334819D02*
X129075714Y-112334819D01*
X129075714Y-112334819D02*
X129456666Y-112334819D01*
X129456666Y-112334819D02*
X129551904Y-112382438D01*
X129551904Y-112382438D02*
X129599523Y-112430057D01*
X129599523Y-112430057D02*
X129647142Y-112525295D01*
X129647142Y-112525295D02*
X129647142Y-112668152D01*
X129647142Y-112668152D02*
X129599523Y-112763390D01*
X129599523Y-112763390D02*
X129551904Y-112811009D01*
X129551904Y-112811009D02*
X129456666Y-112858628D01*
X129456666Y-112858628D02*
X129075714Y-112858628D01*
X129837619Y-113430057D02*
X130599523Y-113430057D01*
X131409047Y-113239580D02*
X131361428Y-113287200D01*
X131361428Y-113287200D02*
X131218571Y-113334819D01*
X131218571Y-113334819D02*
X131123333Y-113334819D01*
X131123333Y-113334819D02*
X130980476Y-113287200D01*
X130980476Y-113287200D02*
X130885238Y-113191961D01*
X130885238Y-113191961D02*
X130837619Y-113096723D01*
X130837619Y-113096723D02*
X130790000Y-112906247D01*
X130790000Y-112906247D02*
X130790000Y-112763390D01*
X130790000Y-112763390D02*
X130837619Y-112572914D01*
X130837619Y-112572914D02*
X130885238Y-112477676D01*
X130885238Y-112477676D02*
X130980476Y-112382438D01*
X130980476Y-112382438D02*
X131123333Y-112334819D01*
X131123333Y-112334819D02*
X131218571Y-112334819D01*
X131218571Y-112334819D02*
X131361428Y-112382438D01*
X131361428Y-112382438D02*
X131409047Y-112430057D01*
X131790000Y-113287200D02*
X131932857Y-113334819D01*
X131932857Y-113334819D02*
X132170952Y-113334819D01*
X132170952Y-113334819D02*
X132266190Y-113287200D01*
X132266190Y-113287200D02*
X132313809Y-113239580D01*
X132313809Y-113239580D02*
X132361428Y-113144342D01*
X132361428Y-113144342D02*
X132361428Y-113049104D01*
X132361428Y-113049104D02*
X132313809Y-112953866D01*
X132313809Y-112953866D02*
X132266190Y-112906247D01*
X132266190Y-112906247D02*
X132170952Y-112858628D01*
X132170952Y-112858628D02*
X131980476Y-112811009D01*
X131980476Y-112811009D02*
X131885238Y-112763390D01*
X131885238Y-112763390D02*
X131837619Y-112715771D01*
X131837619Y-112715771D02*
X131790000Y-112620533D01*
X131790000Y-112620533D02*
X131790000Y-112525295D01*
X131790000Y-112525295D02*
X131837619Y-112430057D01*
X131837619Y-112430057D02*
X131885238Y-112382438D01*
X131885238Y-112382438D02*
X131980476Y-112334819D01*
X131980476Y-112334819D02*
X132218571Y-112334819D01*
X132218571Y-112334819D02*
X132361428Y-112382438D01*
X133313809Y-113334819D02*
X132742381Y-113334819D01*
X133028095Y-113334819D02*
X133028095Y-112334819D01*
X133028095Y-112334819D02*
X132932857Y-112477676D01*
X132932857Y-112477676D02*
X132837619Y-112572914D01*
X132837619Y-112572914D02*
X132742381Y-112620533D01*
X118724762Y-77004819D02*
X119296190Y-77004819D01*
X119010476Y-78004819D02*
X119010476Y-77004819D01*
X119629524Y-78004819D02*
X119629524Y-77004819D01*
X119629524Y-77004819D02*
X120010476Y-77004819D01*
X120010476Y-77004819D02*
X120105714Y-77052438D01*
X120105714Y-77052438D02*
X120153333Y-77100057D01*
X120153333Y-77100057D02*
X120200952Y-77195295D01*
X120200952Y-77195295D02*
X120200952Y-77338152D01*
X120200952Y-77338152D02*
X120153333Y-77433390D01*
X120153333Y-77433390D02*
X120105714Y-77481009D01*
X120105714Y-77481009D02*
X120010476Y-77528628D01*
X120010476Y-77528628D02*
X119629524Y-77528628D01*
X120391429Y-78100057D02*
X121153333Y-78100057D01*
X121962857Y-77909580D02*
X121915238Y-77957200D01*
X121915238Y-77957200D02*
X121772381Y-78004819D01*
X121772381Y-78004819D02*
X121677143Y-78004819D01*
X121677143Y-78004819D02*
X121534286Y-77957200D01*
X121534286Y-77957200D02*
X121439048Y-77861961D01*
X121439048Y-77861961D02*
X121391429Y-77766723D01*
X121391429Y-77766723D02*
X121343810Y-77576247D01*
X121343810Y-77576247D02*
X121343810Y-77433390D01*
X121343810Y-77433390D02*
X121391429Y-77242914D01*
X121391429Y-77242914D02*
X121439048Y-77147676D01*
X121439048Y-77147676D02*
X121534286Y-77052438D01*
X121534286Y-77052438D02*
X121677143Y-77004819D01*
X121677143Y-77004819D02*
X121772381Y-77004819D01*
X121772381Y-77004819D02*
X121915238Y-77052438D01*
X121915238Y-77052438D02*
X121962857Y-77100057D01*
X122343810Y-77719104D02*
X122820000Y-77719104D01*
X122248572Y-78004819D02*
X122581905Y-77004819D01*
X122581905Y-77004819D02*
X122915238Y-78004819D01*
X123248572Y-78004819D02*
X123248572Y-77004819D01*
X123248572Y-77004819D02*
X123820000Y-78004819D01*
X123820000Y-78004819D02*
X123820000Y-77004819D01*
X124867619Y-78004819D02*
X124534286Y-77528628D01*
X124296191Y-78004819D02*
X124296191Y-77004819D01*
X124296191Y-77004819D02*
X124677143Y-77004819D01*
X124677143Y-77004819D02*
X124772381Y-77052438D01*
X124772381Y-77052438D02*
X124820000Y-77100057D01*
X124820000Y-77100057D02*
X124867619Y-77195295D01*
X124867619Y-77195295D02*
X124867619Y-77338152D01*
X124867619Y-77338152D02*
X124820000Y-77433390D01*
X124820000Y-77433390D02*
X124772381Y-77481009D01*
X124772381Y-77481009D02*
X124677143Y-77528628D01*
X124677143Y-77528628D02*
X124296191Y-77528628D01*
X125820000Y-78004819D02*
X125248572Y-78004819D01*
X125534286Y-78004819D02*
X125534286Y-77004819D01*
X125534286Y-77004819D02*
X125439048Y-77147676D01*
X125439048Y-77147676D02*
X125343810Y-77242914D01*
X125343810Y-77242914D02*
X125248572Y-77290533D01*
X137580000Y-73704819D02*
X138151428Y-73704819D01*
X137865714Y-74704819D02*
X137865714Y-73704819D01*
X138484762Y-74704819D02*
X138484762Y-73704819D01*
X138484762Y-73704819D02*
X138865714Y-73704819D01*
X138865714Y-73704819D02*
X138960952Y-73752438D01*
X138960952Y-73752438D02*
X139008571Y-73800057D01*
X139008571Y-73800057D02*
X139056190Y-73895295D01*
X139056190Y-73895295D02*
X139056190Y-74038152D01*
X139056190Y-74038152D02*
X139008571Y-74133390D01*
X139008571Y-74133390D02*
X138960952Y-74181009D01*
X138960952Y-74181009D02*
X138865714Y-74228628D01*
X138865714Y-74228628D02*
X138484762Y-74228628D01*
X139246667Y-74800057D02*
X140008571Y-74800057D01*
X140722857Y-73704819D02*
X140246667Y-73704819D01*
X140246667Y-73704819D02*
X140199048Y-74181009D01*
X140199048Y-74181009D02*
X140246667Y-74133390D01*
X140246667Y-74133390D02*
X140341905Y-74085771D01*
X140341905Y-74085771D02*
X140580000Y-74085771D01*
X140580000Y-74085771D02*
X140675238Y-74133390D01*
X140675238Y-74133390D02*
X140722857Y-74181009D01*
X140722857Y-74181009D02*
X140770476Y-74276247D01*
X140770476Y-74276247D02*
X140770476Y-74514342D01*
X140770476Y-74514342D02*
X140722857Y-74609580D01*
X140722857Y-74609580D02*
X140675238Y-74657200D01*
X140675238Y-74657200D02*
X140580000Y-74704819D01*
X140580000Y-74704819D02*
X140341905Y-74704819D01*
X140341905Y-74704819D02*
X140246667Y-74657200D01*
X140246667Y-74657200D02*
X140199048Y-74609580D01*
X141103810Y-74038152D02*
X141341905Y-74704819D01*
X141341905Y-74704819D02*
X141580000Y-74038152D01*
X142484762Y-74704819D02*
X141913334Y-74704819D01*
X142199048Y-74704819D02*
X142199048Y-73704819D01*
X142199048Y-73704819D02*
X142103810Y-73847676D01*
X142103810Y-73847676D02*
X142008572Y-73942914D01*
X142008572Y-73942914D02*
X141913334Y-73990533D01*
X127179733Y-92200130D02*
X127132114Y-92247750D01*
X127132114Y-92247750D02*
X126989257Y-92295369D01*
X126989257Y-92295369D02*
X126894019Y-92295369D01*
X126894019Y-92295369D02*
X126751162Y-92247750D01*
X126751162Y-92247750D02*
X126655924Y-92152511D01*
X126655924Y-92152511D02*
X126608305Y-92057273D01*
X126608305Y-92057273D02*
X126560686Y-91866797D01*
X126560686Y-91866797D02*
X126560686Y-91723940D01*
X126560686Y-91723940D02*
X126608305Y-91533464D01*
X126608305Y-91533464D02*
X126655924Y-91438226D01*
X126655924Y-91438226D02*
X126751162Y-91342988D01*
X126751162Y-91342988D02*
X126894019Y-91295369D01*
X126894019Y-91295369D02*
X126989257Y-91295369D01*
X126989257Y-91295369D02*
X127132114Y-91342988D01*
X127132114Y-91342988D02*
X127179733Y-91390607D01*
X127560686Y-91390607D02*
X127608305Y-91342988D01*
X127608305Y-91342988D02*
X127703543Y-91295369D01*
X127703543Y-91295369D02*
X127941638Y-91295369D01*
X127941638Y-91295369D02*
X128036876Y-91342988D01*
X128036876Y-91342988D02*
X128084495Y-91390607D01*
X128084495Y-91390607D02*
X128132114Y-91485845D01*
X128132114Y-91485845D02*
X128132114Y-91581083D01*
X128132114Y-91581083D02*
X128084495Y-91723940D01*
X128084495Y-91723940D02*
X127513067Y-92295369D01*
X127513067Y-92295369D02*
X128132114Y-92295369D01*
X109073719Y-74948645D02*
X108597528Y-75281978D01*
X109073719Y-75520073D02*
X108073719Y-75520073D01*
X108073719Y-75520073D02*
X108073719Y-75139121D01*
X108073719Y-75139121D02*
X108121338Y-75043883D01*
X108121338Y-75043883D02*
X108168957Y-74996264D01*
X108168957Y-74996264D02*
X108264195Y-74948645D01*
X108264195Y-74948645D02*
X108407052Y-74948645D01*
X108407052Y-74948645D02*
X108502290Y-74996264D01*
X108502290Y-74996264D02*
X108549909Y-75043883D01*
X108549909Y-75043883D02*
X108597528Y-75139121D01*
X108597528Y-75139121D02*
X108597528Y-75520073D01*
X109168957Y-74758169D02*
X109168957Y-73996264D01*
X108549909Y-73424835D02*
X108597528Y-73281978D01*
X108597528Y-73281978D02*
X108645147Y-73234359D01*
X108645147Y-73234359D02*
X108740385Y-73186740D01*
X108740385Y-73186740D02*
X108883242Y-73186740D01*
X108883242Y-73186740D02*
X108978480Y-73234359D01*
X108978480Y-73234359D02*
X109026100Y-73281978D01*
X109026100Y-73281978D02*
X109073719Y-73377216D01*
X109073719Y-73377216D02*
X109073719Y-73758168D01*
X109073719Y-73758168D02*
X108073719Y-73758168D01*
X108073719Y-73758168D02*
X108073719Y-73424835D01*
X108073719Y-73424835D02*
X108121338Y-73329597D01*
X108121338Y-73329597D02*
X108168957Y-73281978D01*
X108168957Y-73281978D02*
X108264195Y-73234359D01*
X108264195Y-73234359D02*
X108359433Y-73234359D01*
X108359433Y-73234359D02*
X108454671Y-73281978D01*
X108454671Y-73281978D02*
X108502290Y-73329597D01*
X108502290Y-73329597D02*
X108549909Y-73424835D01*
X108549909Y-73424835D02*
X108549909Y-73758168D01*
X109073719Y-72615311D02*
X109026100Y-72710549D01*
X109026100Y-72710549D02*
X108978480Y-72758168D01*
X108978480Y-72758168D02*
X108883242Y-72805787D01*
X108883242Y-72805787D02*
X108597528Y-72805787D01*
X108597528Y-72805787D02*
X108502290Y-72758168D01*
X108502290Y-72758168D02*
X108454671Y-72710549D01*
X108454671Y-72710549D02*
X108407052Y-72615311D01*
X108407052Y-72615311D02*
X108407052Y-72472454D01*
X108407052Y-72472454D02*
X108454671Y-72377216D01*
X108454671Y-72377216D02*
X108502290Y-72329597D01*
X108502290Y-72329597D02*
X108597528Y-72281978D01*
X108597528Y-72281978D02*
X108883242Y-72281978D01*
X108883242Y-72281978D02*
X108978480Y-72329597D01*
X108978480Y-72329597D02*
X109026100Y-72377216D01*
X109026100Y-72377216D02*
X109073719Y-72472454D01*
X109073719Y-72472454D02*
X109073719Y-72615311D01*
X109073719Y-71710549D02*
X109026100Y-71805787D01*
X109026100Y-71805787D02*
X108978480Y-71853406D01*
X108978480Y-71853406D02*
X108883242Y-71901025D01*
X108883242Y-71901025D02*
X108597528Y-71901025D01*
X108597528Y-71901025D02*
X108502290Y-71853406D01*
X108502290Y-71853406D02*
X108454671Y-71805787D01*
X108454671Y-71805787D02*
X108407052Y-71710549D01*
X108407052Y-71710549D02*
X108407052Y-71567692D01*
X108407052Y-71567692D02*
X108454671Y-71472454D01*
X108454671Y-71472454D02*
X108502290Y-71424835D01*
X108502290Y-71424835D02*
X108597528Y-71377216D01*
X108597528Y-71377216D02*
X108883242Y-71377216D01*
X108883242Y-71377216D02*
X108978480Y-71424835D01*
X108978480Y-71424835D02*
X109026100Y-71472454D01*
X109026100Y-71472454D02*
X109073719Y-71567692D01*
X109073719Y-71567692D02*
X109073719Y-71710549D01*
X108407052Y-71091501D02*
X108407052Y-70710549D01*
X108073719Y-70948644D02*
X108930861Y-70948644D01*
X108930861Y-70948644D02*
X109026100Y-70901025D01*
X109026100Y-70901025D02*
X109073719Y-70805787D01*
X109073719Y-70805787D02*
X109073719Y-70710549D01*
X109073719Y-69853406D02*
X109073719Y-70424834D01*
X109073719Y-70139120D02*
X108073719Y-70139120D01*
X108073719Y-70139120D02*
X108216576Y-70234358D01*
X108216576Y-70234358D02*
X108311814Y-70329596D01*
X108311814Y-70329596D02*
X108359433Y-70424834D01*
X137788095Y-84834819D02*
X137788095Y-85644342D01*
X137788095Y-85644342D02*
X137835714Y-85739580D01*
X137835714Y-85739580D02*
X137883333Y-85787200D01*
X137883333Y-85787200D02*
X137978571Y-85834819D01*
X137978571Y-85834819D02*
X138169047Y-85834819D01*
X138169047Y-85834819D02*
X138264285Y-85787200D01*
X138264285Y-85787200D02*
X138311904Y-85739580D01*
X138311904Y-85739580D02*
X138359523Y-85644342D01*
X138359523Y-85644342D02*
X138359523Y-84834819D01*
X139264285Y-85168152D02*
X139264285Y-85834819D01*
X139026190Y-84787200D02*
X138788095Y-85501485D01*
X138788095Y-85501485D02*
X139407142Y-85501485D01*
X135842400Y-84669769D02*
X135842400Y-84907864D01*
X135604305Y-84812626D02*
X135842400Y-84907864D01*
X135842400Y-84907864D02*
X136080495Y-84812626D01*
X135699543Y-85098340D02*
X135842400Y-84907864D01*
X135842400Y-84907864D02*
X135985257Y-85098340D01*
X135842400Y-84669769D02*
X135842400Y-84907864D01*
X135604305Y-84812626D02*
X135842400Y-84907864D01*
X135842400Y-84907864D02*
X136080495Y-84812626D01*
X135699543Y-85098340D02*
X135842400Y-84907864D01*
X135842400Y-84907864D02*
X135985257Y-85098340D01*
X140358305Y-85795369D02*
X140358305Y-84795369D01*
X140358305Y-84795369D02*
X140596400Y-84795369D01*
X140596400Y-84795369D02*
X140739257Y-84842988D01*
X140739257Y-84842988D02*
X140834495Y-84938226D01*
X140834495Y-84938226D02*
X140882114Y-85033464D01*
X140882114Y-85033464D02*
X140929733Y-85223940D01*
X140929733Y-85223940D02*
X140929733Y-85366797D01*
X140929733Y-85366797D02*
X140882114Y-85557273D01*
X140882114Y-85557273D02*
X140834495Y-85652511D01*
X140834495Y-85652511D02*
X140739257Y-85747750D01*
X140739257Y-85747750D02*
X140596400Y-85795369D01*
X140596400Y-85795369D02*
X140358305Y-85795369D01*
X141501162Y-85223940D02*
X141405924Y-85176321D01*
X141405924Y-85176321D02*
X141358305Y-85128702D01*
X141358305Y-85128702D02*
X141310686Y-85033464D01*
X141310686Y-85033464D02*
X141310686Y-84985845D01*
X141310686Y-84985845D02*
X141358305Y-84890607D01*
X141358305Y-84890607D02*
X141405924Y-84842988D01*
X141405924Y-84842988D02*
X141501162Y-84795369D01*
X141501162Y-84795369D02*
X141691638Y-84795369D01*
X141691638Y-84795369D02*
X141786876Y-84842988D01*
X141786876Y-84842988D02*
X141834495Y-84890607D01*
X141834495Y-84890607D02*
X141882114Y-84985845D01*
X141882114Y-84985845D02*
X141882114Y-85033464D01*
X141882114Y-85033464D02*
X141834495Y-85128702D01*
X141834495Y-85128702D02*
X141786876Y-85176321D01*
X141786876Y-85176321D02*
X141691638Y-85223940D01*
X141691638Y-85223940D02*
X141501162Y-85223940D01*
X141501162Y-85223940D02*
X141405924Y-85271559D01*
X141405924Y-85271559D02*
X141358305Y-85319178D01*
X141358305Y-85319178D02*
X141310686Y-85414416D01*
X141310686Y-85414416D02*
X141310686Y-85604892D01*
X141310686Y-85604892D02*
X141358305Y-85700130D01*
X141358305Y-85700130D02*
X141405924Y-85747750D01*
X141405924Y-85747750D02*
X141501162Y-85795369D01*
X141501162Y-85795369D02*
X141691638Y-85795369D01*
X141691638Y-85795369D02*
X141786876Y-85747750D01*
X141786876Y-85747750D02*
X141834495Y-85700130D01*
X141834495Y-85700130D02*
X141882114Y-85604892D01*
X141882114Y-85604892D02*
X141882114Y-85414416D01*
X141882114Y-85414416D02*
X141834495Y-85319178D01*
X141834495Y-85319178D02*
X141786876Y-85271559D01*
X141786876Y-85271559D02*
X141691638Y-85223940D01*
X129679733Y-92200130D02*
X129632114Y-92247750D01*
X129632114Y-92247750D02*
X129489257Y-92295369D01*
X129489257Y-92295369D02*
X129394019Y-92295369D01*
X129394019Y-92295369D02*
X129251162Y-92247750D01*
X129251162Y-92247750D02*
X129155924Y-92152511D01*
X129155924Y-92152511D02*
X129108305Y-92057273D01*
X129108305Y-92057273D02*
X129060686Y-91866797D01*
X129060686Y-91866797D02*
X129060686Y-91723940D01*
X129060686Y-91723940D02*
X129108305Y-91533464D01*
X129108305Y-91533464D02*
X129155924Y-91438226D01*
X129155924Y-91438226D02*
X129251162Y-91342988D01*
X129251162Y-91342988D02*
X129394019Y-91295369D01*
X129394019Y-91295369D02*
X129489257Y-91295369D01*
X129489257Y-91295369D02*
X129632114Y-91342988D01*
X129632114Y-91342988D02*
X129679733Y-91390607D01*
X130632114Y-92295369D02*
X130060686Y-92295369D01*
X130346400Y-92295369D02*
X130346400Y-91295369D01*
X130346400Y-91295369D02*
X130251162Y-91438226D01*
X130251162Y-91438226D02*
X130155924Y-91533464D01*
X130155924Y-91533464D02*
X130060686Y-91581083D01*
X149429733Y-87295369D02*
X149096400Y-86819178D01*
X148858305Y-87295369D02*
X148858305Y-86295369D01*
X148858305Y-86295369D02*
X149239257Y-86295369D01*
X149239257Y-86295369D02*
X149334495Y-86342988D01*
X149334495Y-86342988D02*
X149382114Y-86390607D01*
X149382114Y-86390607D02*
X149429733Y-86485845D01*
X149429733Y-86485845D02*
X149429733Y-86628702D01*
X149429733Y-86628702D02*
X149382114Y-86723940D01*
X149382114Y-86723940D02*
X149334495Y-86771559D01*
X149334495Y-86771559D02*
X149239257Y-86819178D01*
X149239257Y-86819178D02*
X148858305Y-86819178D01*
X150334495Y-86295369D02*
X149858305Y-86295369D01*
X149858305Y-86295369D02*
X149810686Y-86771559D01*
X149810686Y-86771559D02*
X149858305Y-86723940D01*
X149858305Y-86723940D02*
X149953543Y-86676321D01*
X149953543Y-86676321D02*
X150191638Y-86676321D01*
X150191638Y-86676321D02*
X150286876Y-86723940D01*
X150286876Y-86723940D02*
X150334495Y-86771559D01*
X150334495Y-86771559D02*
X150382114Y-86866797D01*
X150382114Y-86866797D02*
X150382114Y-87104892D01*
X150382114Y-87104892D02*
X150334495Y-87200130D01*
X150334495Y-87200130D02*
X150286876Y-87247750D01*
X150286876Y-87247750D02*
X150191638Y-87295369D01*
X150191638Y-87295369D02*
X149953543Y-87295369D01*
X149953543Y-87295369D02*
X149858305Y-87247750D01*
X149858305Y-87247750D02*
X149810686Y-87200130D01*
X109127142Y-102649580D02*
X109079523Y-102697200D01*
X109079523Y-102697200D02*
X108936666Y-102744819D01*
X108936666Y-102744819D02*
X108841428Y-102744819D01*
X108841428Y-102744819D02*
X108698571Y-102697200D01*
X108698571Y-102697200D02*
X108603333Y-102601961D01*
X108603333Y-102601961D02*
X108555714Y-102506723D01*
X108555714Y-102506723D02*
X108508095Y-102316247D01*
X108508095Y-102316247D02*
X108508095Y-102173390D01*
X108508095Y-102173390D02*
X108555714Y-101982914D01*
X108555714Y-101982914D02*
X108603333Y-101887676D01*
X108603333Y-101887676D02*
X108698571Y-101792438D01*
X108698571Y-101792438D02*
X108841428Y-101744819D01*
X108841428Y-101744819D02*
X108936666Y-101744819D01*
X108936666Y-101744819D02*
X109079523Y-101792438D01*
X109079523Y-101792438D02*
X109127142Y-101840057D01*
X110079523Y-102744819D02*
X109508095Y-102744819D01*
X109793809Y-102744819D02*
X109793809Y-101744819D01*
X109793809Y-101744819D02*
X109698571Y-101887676D01*
X109698571Y-101887676D02*
X109603333Y-101982914D01*
X109603333Y-101982914D02*
X109508095Y-102030533D01*
X110698571Y-101744819D02*
X110793809Y-101744819D01*
X110793809Y-101744819D02*
X110889047Y-101792438D01*
X110889047Y-101792438D02*
X110936666Y-101840057D01*
X110936666Y-101840057D02*
X110984285Y-101935295D01*
X110984285Y-101935295D02*
X111031904Y-102125771D01*
X111031904Y-102125771D02*
X111031904Y-102363866D01*
X111031904Y-102363866D02*
X110984285Y-102554342D01*
X110984285Y-102554342D02*
X110936666Y-102649580D01*
X110936666Y-102649580D02*
X110889047Y-102697200D01*
X110889047Y-102697200D02*
X110793809Y-102744819D01*
X110793809Y-102744819D02*
X110698571Y-102744819D01*
X110698571Y-102744819D02*
X110603333Y-102697200D01*
X110603333Y-102697200D02*
X110555714Y-102649580D01*
X110555714Y-102649580D02*
X110508095Y-102554342D01*
X110508095Y-102554342D02*
X110460476Y-102363866D01*
X110460476Y-102363866D02*
X110460476Y-102125771D01*
X110460476Y-102125771D02*
X110508095Y-101935295D01*
X110508095Y-101935295D02*
X110555714Y-101840057D01*
X110555714Y-101840057D02*
X110603333Y-101792438D01*
X110603333Y-101792438D02*
X110698571Y-101744819D01*
X136453333Y-80539580D02*
X136405714Y-80587200D01*
X136405714Y-80587200D02*
X136262857Y-80634819D01*
X136262857Y-80634819D02*
X136167619Y-80634819D01*
X136167619Y-80634819D02*
X136024762Y-80587200D01*
X136024762Y-80587200D02*
X135929524Y-80491961D01*
X135929524Y-80491961D02*
X135881905Y-80396723D01*
X135881905Y-80396723D02*
X135834286Y-80206247D01*
X135834286Y-80206247D02*
X135834286Y-80063390D01*
X135834286Y-80063390D02*
X135881905Y-79872914D01*
X135881905Y-79872914D02*
X135929524Y-79777676D01*
X135929524Y-79777676D02*
X136024762Y-79682438D01*
X136024762Y-79682438D02*
X136167619Y-79634819D01*
X136167619Y-79634819D02*
X136262857Y-79634819D01*
X136262857Y-79634819D02*
X136405714Y-79682438D01*
X136405714Y-79682438D02*
X136453333Y-79730057D01*
X136786667Y-79634819D02*
X137453333Y-79634819D01*
X137453333Y-79634819D02*
X137024762Y-80634819D01*
X110178095Y-113904819D02*
X110178095Y-114714342D01*
X110178095Y-114714342D02*
X110225714Y-114809580D01*
X110225714Y-114809580D02*
X110273333Y-114857200D01*
X110273333Y-114857200D02*
X110368571Y-114904819D01*
X110368571Y-114904819D02*
X110559047Y-114904819D01*
X110559047Y-114904819D02*
X110654285Y-114857200D01*
X110654285Y-114857200D02*
X110701904Y-114809580D01*
X110701904Y-114809580D02*
X110749523Y-114714342D01*
X110749523Y-114714342D02*
X110749523Y-113904819D01*
X111654285Y-113904819D02*
X111463809Y-113904819D01*
X111463809Y-113904819D02*
X111368571Y-113952438D01*
X111368571Y-113952438D02*
X111320952Y-114000057D01*
X111320952Y-114000057D02*
X111225714Y-114142914D01*
X111225714Y-114142914D02*
X111178095Y-114333390D01*
X111178095Y-114333390D02*
X111178095Y-114714342D01*
X111178095Y-114714342D02*
X111225714Y-114809580D01*
X111225714Y-114809580D02*
X111273333Y-114857200D01*
X111273333Y-114857200D02*
X111368571Y-114904819D01*
X111368571Y-114904819D02*
X111559047Y-114904819D01*
X111559047Y-114904819D02*
X111654285Y-114857200D01*
X111654285Y-114857200D02*
X111701904Y-114809580D01*
X111701904Y-114809580D02*
X111749523Y-114714342D01*
X111749523Y-114714342D02*
X111749523Y-114476247D01*
X111749523Y-114476247D02*
X111701904Y-114381009D01*
X111701904Y-114381009D02*
X111654285Y-114333390D01*
X111654285Y-114333390D02*
X111559047Y-114285771D01*
X111559047Y-114285771D02*
X111368571Y-114285771D01*
X111368571Y-114285771D02*
X111273333Y-114333390D01*
X111273333Y-114333390D02*
X111225714Y-114381009D01*
X111225714Y-114381009D02*
X111178095Y-114476247D01*
X138785566Y-93325369D02*
X138785566Y-94039654D01*
X138785566Y-94039654D02*
X138737947Y-94182511D01*
X138737947Y-94182511D02*
X138642709Y-94277750D01*
X138642709Y-94277750D02*
X138499852Y-94325369D01*
X138499852Y-94325369D02*
X138404614Y-94325369D01*
X139690328Y-93658702D02*
X139690328Y-94325369D01*
X139452233Y-93277750D02*
X139214138Y-93992035D01*
X139214138Y-93992035D02*
X139833185Y-93992035D01*
X136653333Y-77979580D02*
X136605714Y-78027200D01*
X136605714Y-78027200D02*
X136462857Y-78074819D01*
X136462857Y-78074819D02*
X136367619Y-78074819D01*
X136367619Y-78074819D02*
X136224762Y-78027200D01*
X136224762Y-78027200D02*
X136129524Y-77931961D01*
X136129524Y-77931961D02*
X136081905Y-77836723D01*
X136081905Y-77836723D02*
X136034286Y-77646247D01*
X136034286Y-77646247D02*
X136034286Y-77503390D01*
X136034286Y-77503390D02*
X136081905Y-77312914D01*
X136081905Y-77312914D02*
X136129524Y-77217676D01*
X136129524Y-77217676D02*
X136224762Y-77122438D01*
X136224762Y-77122438D02*
X136367619Y-77074819D01*
X136367619Y-77074819D02*
X136462857Y-77074819D01*
X136462857Y-77074819D02*
X136605714Y-77122438D01*
X136605714Y-77122438D02*
X136653333Y-77170057D01*
X137510476Y-77074819D02*
X137320000Y-77074819D01*
X137320000Y-77074819D02*
X137224762Y-77122438D01*
X137224762Y-77122438D02*
X137177143Y-77170057D01*
X137177143Y-77170057D02*
X137081905Y-77312914D01*
X137081905Y-77312914D02*
X137034286Y-77503390D01*
X137034286Y-77503390D02*
X137034286Y-77884342D01*
X137034286Y-77884342D02*
X137081905Y-77979580D01*
X137081905Y-77979580D02*
X137129524Y-78027200D01*
X137129524Y-78027200D02*
X137224762Y-78074819D01*
X137224762Y-78074819D02*
X137415238Y-78074819D01*
X137415238Y-78074819D02*
X137510476Y-78027200D01*
X137510476Y-78027200D02*
X137558095Y-77979580D01*
X137558095Y-77979580D02*
X137605714Y-77884342D01*
X137605714Y-77884342D02*
X137605714Y-77646247D01*
X137605714Y-77646247D02*
X137558095Y-77551009D01*
X137558095Y-77551009D02*
X137510476Y-77503390D01*
X137510476Y-77503390D02*
X137415238Y-77455771D01*
X137415238Y-77455771D02*
X137224762Y-77455771D01*
X137224762Y-77455771D02*
X137129524Y-77503390D01*
X137129524Y-77503390D02*
X137081905Y-77551009D01*
X137081905Y-77551009D02*
X137034286Y-77646247D01*
X147064819Y-66733333D02*
X147779104Y-66733333D01*
X147779104Y-66733333D02*
X147921961Y-66780952D01*
X147921961Y-66780952D02*
X148017200Y-66876190D01*
X148017200Y-66876190D02*
X148064819Y-67019047D01*
X148064819Y-67019047D02*
X148064819Y-67114285D01*
X147064819Y-66352380D02*
X147064819Y-65733333D01*
X147064819Y-65733333D02*
X147445771Y-66066666D01*
X147445771Y-66066666D02*
X147445771Y-65923809D01*
X147445771Y-65923809D02*
X147493390Y-65828571D01*
X147493390Y-65828571D02*
X147541009Y-65780952D01*
X147541009Y-65780952D02*
X147636247Y-65733333D01*
X147636247Y-65733333D02*
X147874342Y-65733333D01*
X147874342Y-65733333D02*
X147969580Y-65780952D01*
X147969580Y-65780952D02*
X148017200Y-65828571D01*
X148017200Y-65828571D02*
X148064819Y-65923809D01*
X148064819Y-65923809D02*
X148064819Y-66209523D01*
X148064819Y-66209523D02*
X148017200Y-66304761D01*
X148017200Y-66304761D02*
X147969580Y-66352380D01*
X142252200Y-73491428D02*
X142252200Y-72348571D01*
X142823628Y-72919999D02*
X141680771Y-72919999D01*
X143974700Y-60491428D02*
X143974700Y-59348571D01*
X116949524Y-68884819D02*
X117568571Y-68884819D01*
X117568571Y-68884819D02*
X117235238Y-69265771D01*
X117235238Y-69265771D02*
X117378095Y-69265771D01*
X117378095Y-69265771D02*
X117473333Y-69313390D01*
X117473333Y-69313390D02*
X117520952Y-69361009D01*
X117520952Y-69361009D02*
X117568571Y-69456247D01*
X117568571Y-69456247D02*
X117568571Y-69694342D01*
X117568571Y-69694342D02*
X117520952Y-69789580D01*
X117520952Y-69789580D02*
X117473333Y-69837200D01*
X117473333Y-69837200D02*
X117378095Y-69884819D01*
X117378095Y-69884819D02*
X117092381Y-69884819D01*
X117092381Y-69884819D02*
X116997143Y-69837200D01*
X116997143Y-69837200D02*
X116949524Y-69789580D01*
X117901905Y-69218152D02*
X118140000Y-69884819D01*
X118140000Y-69884819D02*
X118378095Y-69218152D01*
X118663810Y-68884819D02*
X119282857Y-68884819D01*
X119282857Y-68884819D02*
X118949524Y-69265771D01*
X118949524Y-69265771D02*
X119092381Y-69265771D01*
X119092381Y-69265771D02*
X119187619Y-69313390D01*
X119187619Y-69313390D02*
X119235238Y-69361009D01*
X119235238Y-69361009D02*
X119282857Y-69456247D01*
X119282857Y-69456247D02*
X119282857Y-69694342D01*
X119282857Y-69694342D02*
X119235238Y-69789580D01*
X119235238Y-69789580D02*
X119187619Y-69837200D01*
X119187619Y-69837200D02*
X119092381Y-69884819D01*
X119092381Y-69884819D02*
X118806667Y-69884819D01*
X118806667Y-69884819D02*
X118711429Y-69837200D01*
X118711429Y-69837200D02*
X118663810Y-69789580D01*
X120425714Y-68837200D02*
X119568572Y-70122914D01*
X120711429Y-68980057D02*
X120759048Y-68932438D01*
X120759048Y-68932438D02*
X120854286Y-68884819D01*
X120854286Y-68884819D02*
X121092381Y-68884819D01*
X121092381Y-68884819D02*
X121187619Y-68932438D01*
X121187619Y-68932438D02*
X121235238Y-68980057D01*
X121235238Y-68980057D02*
X121282857Y-69075295D01*
X121282857Y-69075295D02*
X121282857Y-69170533D01*
X121282857Y-69170533D02*
X121235238Y-69313390D01*
X121235238Y-69313390D02*
X120663810Y-69884819D01*
X120663810Y-69884819D02*
X121282857Y-69884819D01*
X109885566Y-67390369D02*
X109885566Y-68104654D01*
X109885566Y-68104654D02*
X109837947Y-68247511D01*
X109837947Y-68247511D02*
X109742709Y-68342750D01*
X109742709Y-68342750D02*
X109599852Y-68390369D01*
X109599852Y-68390369D02*
X109504614Y-68390369D01*
X110314138Y-67485607D02*
X110361757Y-67437988D01*
X110361757Y-67437988D02*
X110456995Y-67390369D01*
X110456995Y-67390369D02*
X110695090Y-67390369D01*
X110695090Y-67390369D02*
X110790328Y-67437988D01*
X110790328Y-67437988D02*
X110837947Y-67485607D01*
X110837947Y-67485607D02*
X110885566Y-67580845D01*
X110885566Y-67580845D02*
X110885566Y-67676083D01*
X110885566Y-67676083D02*
X110837947Y-67818940D01*
X110837947Y-67818940D02*
X110266519Y-68390369D01*
X110266519Y-68390369D02*
X110885566Y-68390369D01*
X151104819Y-78418094D02*
X150104819Y-78418094D01*
X150104819Y-78418094D02*
X150104819Y-78179999D01*
X150104819Y-78179999D02*
X150152438Y-78037142D01*
X150152438Y-78037142D02*
X150247676Y-77941904D01*
X150247676Y-77941904D02*
X150342914Y-77894285D01*
X150342914Y-77894285D02*
X150533390Y-77846666D01*
X150533390Y-77846666D02*
X150676247Y-77846666D01*
X150676247Y-77846666D02*
X150866723Y-77894285D01*
X150866723Y-77894285D02*
X150961961Y-77941904D01*
X150961961Y-77941904D02*
X151057200Y-78037142D01*
X151057200Y-78037142D02*
X151104819Y-78179999D01*
X151104819Y-78179999D02*
X151104819Y-78418094D01*
X150104819Y-76941904D02*
X150104819Y-77418094D01*
X150104819Y-77418094D02*
X150581009Y-77465713D01*
X150581009Y-77465713D02*
X150533390Y-77418094D01*
X150533390Y-77418094D02*
X150485771Y-77322856D01*
X150485771Y-77322856D02*
X150485771Y-77084761D01*
X150485771Y-77084761D02*
X150533390Y-76989523D01*
X150533390Y-76989523D02*
X150581009Y-76941904D01*
X150581009Y-76941904D02*
X150676247Y-76894285D01*
X150676247Y-76894285D02*
X150914342Y-76894285D01*
X150914342Y-76894285D02*
X151009580Y-76941904D01*
X151009580Y-76941904D02*
X151057200Y-76989523D01*
X151057200Y-76989523D02*
X151104819Y-77084761D01*
X151104819Y-77084761D02*
X151104819Y-77322856D01*
X151104819Y-77322856D02*
X151057200Y-77418094D01*
X151057200Y-77418094D02*
X151009580Y-77465713D01*
X120385566Y-67390369D02*
X120385566Y-68104654D01*
X120385566Y-68104654D02*
X120337947Y-68247511D01*
X120337947Y-68247511D02*
X120242709Y-68342750D01*
X120242709Y-68342750D02*
X120099852Y-68390369D01*
X120099852Y-68390369D02*
X120004614Y-68390369D01*
X121385566Y-68390369D02*
X120814138Y-68390369D01*
X121099852Y-68390369D02*
X121099852Y-67390369D01*
X121099852Y-67390369D02*
X121004614Y-67533226D01*
X121004614Y-67533226D02*
X120909376Y-67628464D01*
X120909376Y-67628464D02*
X120814138Y-67676083D01*
X145429733Y-87200130D02*
X145382114Y-87247750D01*
X145382114Y-87247750D02*
X145239257Y-87295369D01*
X145239257Y-87295369D02*
X145144019Y-87295369D01*
X145144019Y-87295369D02*
X145001162Y-87247750D01*
X145001162Y-87247750D02*
X144905924Y-87152511D01*
X144905924Y-87152511D02*
X144858305Y-87057273D01*
X144858305Y-87057273D02*
X144810686Y-86866797D01*
X144810686Y-86866797D02*
X144810686Y-86723940D01*
X144810686Y-86723940D02*
X144858305Y-86533464D01*
X144858305Y-86533464D02*
X144905924Y-86438226D01*
X144905924Y-86438226D02*
X145001162Y-86342988D01*
X145001162Y-86342988D02*
X145144019Y-86295369D01*
X145144019Y-86295369D02*
X145239257Y-86295369D01*
X145239257Y-86295369D02*
X145382114Y-86342988D01*
X145382114Y-86342988D02*
X145429733Y-86390607D01*
X146001162Y-86723940D02*
X145905924Y-86676321D01*
X145905924Y-86676321D02*
X145858305Y-86628702D01*
X145858305Y-86628702D02*
X145810686Y-86533464D01*
X145810686Y-86533464D02*
X145810686Y-86485845D01*
X145810686Y-86485845D02*
X145858305Y-86390607D01*
X145858305Y-86390607D02*
X145905924Y-86342988D01*
X145905924Y-86342988D02*
X146001162Y-86295369D01*
X146001162Y-86295369D02*
X146191638Y-86295369D01*
X146191638Y-86295369D02*
X146286876Y-86342988D01*
X146286876Y-86342988D02*
X146334495Y-86390607D01*
X146334495Y-86390607D02*
X146382114Y-86485845D01*
X146382114Y-86485845D02*
X146382114Y-86533464D01*
X146382114Y-86533464D02*
X146334495Y-86628702D01*
X146334495Y-86628702D02*
X146286876Y-86676321D01*
X146286876Y-86676321D02*
X146191638Y-86723940D01*
X146191638Y-86723940D02*
X146001162Y-86723940D01*
X146001162Y-86723940D02*
X145905924Y-86771559D01*
X145905924Y-86771559D02*
X145858305Y-86819178D01*
X145858305Y-86819178D02*
X145810686Y-86914416D01*
X145810686Y-86914416D02*
X145810686Y-87104892D01*
X145810686Y-87104892D02*
X145858305Y-87200130D01*
X145858305Y-87200130D02*
X145905924Y-87247750D01*
X145905924Y-87247750D02*
X146001162Y-87295369D01*
X146001162Y-87295369D02*
X146191638Y-87295369D01*
X146191638Y-87295369D02*
X146286876Y-87247750D01*
X146286876Y-87247750D02*
X146334495Y-87200130D01*
X146334495Y-87200130D02*
X146382114Y-87104892D01*
X146382114Y-87104892D02*
X146382114Y-86914416D01*
X146382114Y-86914416D02*
X146334495Y-86819178D01*
X146334495Y-86819178D02*
X146286876Y-86771559D01*
X146286876Y-86771559D02*
X146191638Y-86723940D01*
X142929733Y-87200130D02*
X142882114Y-87247750D01*
X142882114Y-87247750D02*
X142739257Y-87295369D01*
X142739257Y-87295369D02*
X142644019Y-87295369D01*
X142644019Y-87295369D02*
X142501162Y-87247750D01*
X142501162Y-87247750D02*
X142405924Y-87152511D01*
X142405924Y-87152511D02*
X142358305Y-87057273D01*
X142358305Y-87057273D02*
X142310686Y-86866797D01*
X142310686Y-86866797D02*
X142310686Y-86723940D01*
X142310686Y-86723940D02*
X142358305Y-86533464D01*
X142358305Y-86533464D02*
X142405924Y-86438226D01*
X142405924Y-86438226D02*
X142501162Y-86342988D01*
X142501162Y-86342988D02*
X142644019Y-86295369D01*
X142644019Y-86295369D02*
X142739257Y-86295369D01*
X142739257Y-86295369D02*
X142882114Y-86342988D01*
X142882114Y-86342988D02*
X142929733Y-86390607D01*
X143834495Y-86295369D02*
X143358305Y-86295369D01*
X143358305Y-86295369D02*
X143310686Y-86771559D01*
X143310686Y-86771559D02*
X143358305Y-86723940D01*
X143358305Y-86723940D02*
X143453543Y-86676321D01*
X143453543Y-86676321D02*
X143691638Y-86676321D01*
X143691638Y-86676321D02*
X143786876Y-86723940D01*
X143786876Y-86723940D02*
X143834495Y-86771559D01*
X143834495Y-86771559D02*
X143882114Y-86866797D01*
X143882114Y-86866797D02*
X143882114Y-87104892D01*
X143882114Y-87104892D02*
X143834495Y-87200130D01*
X143834495Y-87200130D02*
X143786876Y-87247750D01*
X143786876Y-87247750D02*
X143691638Y-87295369D01*
X143691638Y-87295369D02*
X143453543Y-87295369D01*
X143453543Y-87295369D02*
X143358305Y-87247750D01*
X143358305Y-87247750D02*
X143310686Y-87200130D01*
X126238095Y-116448732D02*
X126238095Y-117258255D01*
X126238095Y-117258255D02*
X126285714Y-117353493D01*
X126285714Y-117353493D02*
X126333333Y-117401113D01*
X126333333Y-117401113D02*
X126428571Y-117448732D01*
X126428571Y-117448732D02*
X126619047Y-117448732D01*
X126619047Y-117448732D02*
X126714285Y-117401113D01*
X126714285Y-117401113D02*
X126761904Y-117353493D01*
X126761904Y-117353493D02*
X126809523Y-117258255D01*
X126809523Y-117258255D02*
X126809523Y-116448732D01*
X127238095Y-116543970D02*
X127285714Y-116496351D01*
X127285714Y-116496351D02*
X127380952Y-116448732D01*
X127380952Y-116448732D02*
X127619047Y-116448732D01*
X127619047Y-116448732D02*
X127714285Y-116496351D01*
X127714285Y-116496351D02*
X127761904Y-116543970D01*
X127761904Y-116543970D02*
X127809523Y-116639208D01*
X127809523Y-116639208D02*
X127809523Y-116734446D01*
X127809523Y-116734446D02*
X127761904Y-116877303D01*
X127761904Y-116877303D02*
X127190476Y-117448732D01*
X127190476Y-117448732D02*
X127809523Y-117448732D01*
X124764800Y-115698543D02*
X124764800Y-115936638D01*
X124526705Y-115841400D02*
X124764800Y-115936638D01*
X124764800Y-115936638D02*
X125002895Y-115841400D01*
X124621943Y-116127114D02*
X124764800Y-115936638D01*
X124764800Y-115936638D02*
X124907657Y-116127114D01*
X124764800Y-115698543D02*
X124764800Y-115936638D01*
X124526705Y-115841400D02*
X124764800Y-115936638D01*
X124764800Y-115936638D02*
X125002895Y-115841400D01*
X124621943Y-116127114D02*
X124764800Y-115936638D01*
X124764800Y-115936638D02*
X124907657Y-116127114D01*
X129363066Y-76991559D02*
X129029733Y-76991559D01*
X129029733Y-77515369D02*
X129029733Y-76515369D01*
X129029733Y-76515369D02*
X129505923Y-76515369D01*
X130410685Y-77515369D02*
X129839257Y-77515369D01*
X130124971Y-77515369D02*
X130124971Y-76515369D01*
X130124971Y-76515369D02*
X130029733Y-76658226D01*
X130029733Y-76658226D02*
X129934495Y-76753464D01*
X129934495Y-76753464D02*
X129839257Y-76801083D01*
X122266042Y-103165369D02*
X121932709Y-102689178D01*
X121694614Y-103165369D02*
X121694614Y-102165369D01*
X121694614Y-102165369D02*
X122075566Y-102165369D01*
X122075566Y-102165369D02*
X122170804Y-102212988D01*
X122170804Y-102212988D02*
X122218423Y-102260607D01*
X122218423Y-102260607D02*
X122266042Y-102355845D01*
X122266042Y-102355845D02*
X122266042Y-102498702D01*
X122266042Y-102498702D02*
X122218423Y-102593940D01*
X122218423Y-102593940D02*
X122170804Y-102641559D01*
X122170804Y-102641559D02*
X122075566Y-102689178D01*
X122075566Y-102689178D02*
X121694614Y-102689178D01*
X123218423Y-103165369D02*
X122646995Y-103165369D01*
X122932709Y-103165369D02*
X122932709Y-102165369D01*
X122932709Y-102165369D02*
X122837471Y-102308226D01*
X122837471Y-102308226D02*
X122742233Y-102403464D01*
X122742233Y-102403464D02*
X122646995Y-102451083D01*
X123789852Y-102593940D02*
X123694614Y-102546321D01*
X123694614Y-102546321D02*
X123646995Y-102498702D01*
X123646995Y-102498702D02*
X123599376Y-102403464D01*
X123599376Y-102403464D02*
X123599376Y-102355845D01*
X123599376Y-102355845D02*
X123646995Y-102260607D01*
X123646995Y-102260607D02*
X123694614Y-102212988D01*
X123694614Y-102212988D02*
X123789852Y-102165369D01*
X123789852Y-102165369D02*
X123980328Y-102165369D01*
X123980328Y-102165369D02*
X124075566Y-102212988D01*
X124075566Y-102212988D02*
X124123185Y-102260607D01*
X124123185Y-102260607D02*
X124170804Y-102355845D01*
X124170804Y-102355845D02*
X124170804Y-102403464D01*
X124170804Y-102403464D02*
X124123185Y-102498702D01*
X124123185Y-102498702D02*
X124075566Y-102546321D01*
X124075566Y-102546321D02*
X123980328Y-102593940D01*
X123980328Y-102593940D02*
X123789852Y-102593940D01*
X123789852Y-102593940D02*
X123694614Y-102641559D01*
X123694614Y-102641559D02*
X123646995Y-102689178D01*
X123646995Y-102689178D02*
X123599376Y-102784416D01*
X123599376Y-102784416D02*
X123599376Y-102974892D01*
X123599376Y-102974892D02*
X123646995Y-103070130D01*
X123646995Y-103070130D02*
X123694614Y-103117750D01*
X123694614Y-103117750D02*
X123789852Y-103165369D01*
X123789852Y-103165369D02*
X123980328Y-103165369D01*
X123980328Y-103165369D02*
X124075566Y-103117750D01*
X124075566Y-103117750D02*
X124123185Y-103070130D01*
X124123185Y-103070130D02*
X124170804Y-102974892D01*
X124170804Y-102974892D02*
X124170804Y-102784416D01*
X124170804Y-102784416D02*
X124123185Y-102689178D01*
X124123185Y-102689178D02*
X124075566Y-102641559D01*
X124075566Y-102641559D02*
X123980328Y-102593940D01*
X134994819Y-77224761D02*
X133994819Y-77224761D01*
X133994819Y-77224761D02*
X133994819Y-76986666D01*
X133994819Y-76986666D02*
X134042438Y-76843809D01*
X134042438Y-76843809D02*
X134137676Y-76748571D01*
X134137676Y-76748571D02*
X134232914Y-76700952D01*
X134232914Y-76700952D02*
X134423390Y-76653333D01*
X134423390Y-76653333D02*
X134566247Y-76653333D01*
X134566247Y-76653333D02*
X134756723Y-76700952D01*
X134756723Y-76700952D02*
X134851961Y-76748571D01*
X134851961Y-76748571D02*
X134947200Y-76843809D01*
X134947200Y-76843809D02*
X134994819Y-76986666D01*
X134994819Y-76986666D02*
X134994819Y-77224761D01*
X135090057Y-76462857D02*
X135090057Y-75700952D01*
X133994819Y-75605713D02*
X133994819Y-75034285D01*
X134994819Y-75319999D02*
X133994819Y-75319999D01*
X133994819Y-74843808D02*
X134994819Y-74510475D01*
X134994819Y-74510475D02*
X133994819Y-74177142D01*
X134947200Y-73891427D02*
X134994819Y-73748570D01*
X134994819Y-73748570D02*
X134994819Y-73510475D01*
X134994819Y-73510475D02*
X134947200Y-73415237D01*
X134947200Y-73415237D02*
X134899580Y-73367618D01*
X134899580Y-73367618D02*
X134804342Y-73319999D01*
X134804342Y-73319999D02*
X134709104Y-73319999D01*
X134709104Y-73319999D02*
X134613866Y-73367618D01*
X134613866Y-73367618D02*
X134566247Y-73415237D01*
X134566247Y-73415237D02*
X134518628Y-73510475D01*
X134518628Y-73510475D02*
X134471009Y-73700951D01*
X134471009Y-73700951D02*
X134423390Y-73796189D01*
X134423390Y-73796189D02*
X134375771Y-73843808D01*
X134375771Y-73843808D02*
X134280533Y-73891427D01*
X134280533Y-73891427D02*
X134185295Y-73891427D01*
X134185295Y-73891427D02*
X134090057Y-73843808D01*
X134090057Y-73843808D02*
X134042438Y-73796189D01*
X134042438Y-73796189D02*
X133994819Y-73700951D01*
X133994819Y-73700951D02*
X133994819Y-73462856D01*
X133994819Y-73462856D02*
X134042438Y-73319999D01*
X134994819Y-72367618D02*
X134994819Y-72939046D01*
X134994819Y-72653332D02*
X133994819Y-72653332D01*
X133994819Y-72653332D02*
X134137676Y-72748570D01*
X134137676Y-72748570D02*
X134232914Y-72843808D01*
X134232914Y-72843808D02*
X134280533Y-72939046D01*
X147688095Y-70954819D02*
X147688095Y-71764342D01*
X147688095Y-71764342D02*
X147735714Y-71859580D01*
X147735714Y-71859580D02*
X147783333Y-71907200D01*
X147783333Y-71907200D02*
X147878571Y-71954819D01*
X147878571Y-71954819D02*
X148069047Y-71954819D01*
X148069047Y-71954819D02*
X148164285Y-71907200D01*
X148164285Y-71907200D02*
X148211904Y-71859580D01*
X148211904Y-71859580D02*
X148259523Y-71764342D01*
X148259523Y-71764342D02*
X148259523Y-70954819D01*
X149211904Y-70954819D02*
X148735714Y-70954819D01*
X148735714Y-70954819D02*
X148688095Y-71431009D01*
X148688095Y-71431009D02*
X148735714Y-71383390D01*
X148735714Y-71383390D02*
X148830952Y-71335771D01*
X148830952Y-71335771D02*
X149069047Y-71335771D01*
X149069047Y-71335771D02*
X149164285Y-71383390D01*
X149164285Y-71383390D02*
X149211904Y-71431009D01*
X149211904Y-71431009D02*
X149259523Y-71526247D01*
X149259523Y-71526247D02*
X149259523Y-71764342D01*
X149259523Y-71764342D02*
X149211904Y-71859580D01*
X149211904Y-71859580D02*
X149164285Y-71907200D01*
X149164285Y-71907200D02*
X149069047Y-71954819D01*
X149069047Y-71954819D02*
X148830952Y-71954819D01*
X148830952Y-71954819D02*
X148735714Y-71907200D01*
X148735714Y-71907200D02*
X148688095Y-71859580D01*
X142186042Y-104975369D02*
X141852709Y-104499178D01*
X141614614Y-104975369D02*
X141614614Y-103975369D01*
X141614614Y-103975369D02*
X141995566Y-103975369D01*
X141995566Y-103975369D02*
X142090804Y-104022988D01*
X142090804Y-104022988D02*
X142138423Y-104070607D01*
X142138423Y-104070607D02*
X142186042Y-104165845D01*
X142186042Y-104165845D02*
X142186042Y-104308702D01*
X142186042Y-104308702D02*
X142138423Y-104403940D01*
X142138423Y-104403940D02*
X142090804Y-104451559D01*
X142090804Y-104451559D02*
X141995566Y-104499178D01*
X141995566Y-104499178D02*
X141614614Y-104499178D01*
X143138423Y-104975369D02*
X142566995Y-104975369D01*
X142852709Y-104975369D02*
X142852709Y-103975369D01*
X142852709Y-103975369D02*
X142757471Y-104118226D01*
X142757471Y-104118226D02*
X142662233Y-104213464D01*
X142662233Y-104213464D02*
X142566995Y-104261083D01*
X143995566Y-104308702D02*
X143995566Y-104975369D01*
X143757471Y-103927750D02*
X143519376Y-104642035D01*
X143519376Y-104642035D02*
X144138423Y-104642035D01*
X132001905Y-86874819D02*
X132001905Y-85874819D01*
X132001905Y-85874819D02*
X132240000Y-85874819D01*
X132240000Y-85874819D02*
X132382857Y-85922438D01*
X132382857Y-85922438D02*
X132478095Y-86017676D01*
X132478095Y-86017676D02*
X132525714Y-86112914D01*
X132525714Y-86112914D02*
X132573333Y-86303390D01*
X132573333Y-86303390D02*
X132573333Y-86446247D01*
X132573333Y-86446247D02*
X132525714Y-86636723D01*
X132525714Y-86636723D02*
X132478095Y-86731961D01*
X132478095Y-86731961D02*
X132382857Y-86827200D01*
X132382857Y-86827200D02*
X132240000Y-86874819D01*
X132240000Y-86874819D02*
X132001905Y-86874819D01*
X132906667Y-85874819D02*
X133573333Y-85874819D01*
X133573333Y-85874819D02*
X133144762Y-86874819D01*
X134246042Y-105165369D02*
X133912709Y-104689178D01*
X133674614Y-105165369D02*
X133674614Y-104165369D01*
X133674614Y-104165369D02*
X134055566Y-104165369D01*
X134055566Y-104165369D02*
X134150804Y-104212988D01*
X134150804Y-104212988D02*
X134198423Y-104260607D01*
X134198423Y-104260607D02*
X134246042Y-104355845D01*
X134246042Y-104355845D02*
X134246042Y-104498702D01*
X134246042Y-104498702D02*
X134198423Y-104593940D01*
X134198423Y-104593940D02*
X134150804Y-104641559D01*
X134150804Y-104641559D02*
X134055566Y-104689178D01*
X134055566Y-104689178D02*
X133674614Y-104689178D01*
X135198423Y-105165369D02*
X134626995Y-105165369D01*
X134912709Y-105165369D02*
X134912709Y-104165369D01*
X134912709Y-104165369D02*
X134817471Y-104308226D01*
X134817471Y-104308226D02*
X134722233Y-104403464D01*
X134722233Y-104403464D02*
X134626995Y-104451083D01*
X136055566Y-104165369D02*
X135865090Y-104165369D01*
X135865090Y-104165369D02*
X135769852Y-104212988D01*
X135769852Y-104212988D02*
X135722233Y-104260607D01*
X135722233Y-104260607D02*
X135626995Y-104403464D01*
X135626995Y-104403464D02*
X135579376Y-104593940D01*
X135579376Y-104593940D02*
X135579376Y-104974892D01*
X135579376Y-104974892D02*
X135626995Y-105070130D01*
X135626995Y-105070130D02*
X135674614Y-105117750D01*
X135674614Y-105117750D02*
X135769852Y-105165369D01*
X135769852Y-105165369D02*
X135960328Y-105165369D01*
X135960328Y-105165369D02*
X136055566Y-105117750D01*
X136055566Y-105117750D02*
X136103185Y-105070130D01*
X136103185Y-105070130D02*
X136150804Y-104974892D01*
X136150804Y-104974892D02*
X136150804Y-104736797D01*
X136150804Y-104736797D02*
X136103185Y-104641559D01*
X136103185Y-104641559D02*
X136055566Y-104593940D01*
X136055566Y-104593940D02*
X135960328Y-104546321D01*
X135960328Y-104546321D02*
X135769852Y-104546321D01*
X135769852Y-104546321D02*
X135674614Y-104593940D01*
X135674614Y-104593940D02*
X135626995Y-104641559D01*
X135626995Y-104641559D02*
X135579376Y-104736797D01*
X123637142Y-119999580D02*
X123589523Y-120047200D01*
X123589523Y-120047200D02*
X123446666Y-120094819D01*
X123446666Y-120094819D02*
X123351428Y-120094819D01*
X123351428Y-120094819D02*
X123208571Y-120047200D01*
X123208571Y-120047200D02*
X123113333Y-119951961D01*
X123113333Y-119951961D02*
X123065714Y-119856723D01*
X123065714Y-119856723D02*
X123018095Y-119666247D01*
X123018095Y-119666247D02*
X123018095Y-119523390D01*
X123018095Y-119523390D02*
X123065714Y-119332914D01*
X123065714Y-119332914D02*
X123113333Y-119237676D01*
X123113333Y-119237676D02*
X123208571Y-119142438D01*
X123208571Y-119142438D02*
X123351428Y-119094819D01*
X123351428Y-119094819D02*
X123446666Y-119094819D01*
X123446666Y-119094819D02*
X123589523Y-119142438D01*
X123589523Y-119142438D02*
X123637142Y-119190057D01*
X124589523Y-120094819D02*
X124018095Y-120094819D01*
X124303809Y-120094819D02*
X124303809Y-119094819D01*
X124303809Y-119094819D02*
X124208571Y-119237676D01*
X124208571Y-119237676D02*
X124113333Y-119332914D01*
X124113333Y-119332914D02*
X124018095Y-119380533D01*
X124922857Y-119094819D02*
X125541904Y-119094819D01*
X125541904Y-119094819D02*
X125208571Y-119475771D01*
X125208571Y-119475771D02*
X125351428Y-119475771D01*
X125351428Y-119475771D02*
X125446666Y-119523390D01*
X125446666Y-119523390D02*
X125494285Y-119571009D01*
X125494285Y-119571009D02*
X125541904Y-119666247D01*
X125541904Y-119666247D02*
X125541904Y-119904342D01*
X125541904Y-119904342D02*
X125494285Y-119999580D01*
X125494285Y-119999580D02*
X125446666Y-120047200D01*
X125446666Y-120047200D02*
X125351428Y-120094819D01*
X125351428Y-120094819D02*
X125065714Y-120094819D01*
X125065714Y-120094819D02*
X124970476Y-120047200D01*
X124970476Y-120047200D02*
X124922857Y-119999580D01*
X121673719Y-71773644D02*
X120673719Y-71773644D01*
X120673719Y-71773644D02*
X120673719Y-71535549D01*
X120673719Y-71535549D02*
X120721338Y-71392692D01*
X120721338Y-71392692D02*
X120816576Y-71297454D01*
X120816576Y-71297454D02*
X120911814Y-71249835D01*
X120911814Y-71249835D02*
X121102290Y-71202216D01*
X121102290Y-71202216D02*
X121245147Y-71202216D01*
X121245147Y-71202216D02*
X121435623Y-71249835D01*
X121435623Y-71249835D02*
X121530861Y-71297454D01*
X121530861Y-71297454D02*
X121626100Y-71392692D01*
X121626100Y-71392692D02*
X121673719Y-71535549D01*
X121673719Y-71535549D02*
X121673719Y-71773644D01*
X120673719Y-70345073D02*
X120673719Y-70535549D01*
X120673719Y-70535549D02*
X120721338Y-70630787D01*
X120721338Y-70630787D02*
X120768957Y-70678406D01*
X120768957Y-70678406D02*
X120911814Y-70773644D01*
X120911814Y-70773644D02*
X121102290Y-70821263D01*
X121102290Y-70821263D02*
X121483242Y-70821263D01*
X121483242Y-70821263D02*
X121578480Y-70773644D01*
X121578480Y-70773644D02*
X121626100Y-70726025D01*
X121626100Y-70726025D02*
X121673719Y-70630787D01*
X121673719Y-70630787D02*
X121673719Y-70440311D01*
X121673719Y-70440311D02*
X121626100Y-70345073D01*
X121626100Y-70345073D02*
X121578480Y-70297454D01*
X121578480Y-70297454D02*
X121483242Y-70249835D01*
X121483242Y-70249835D02*
X121245147Y-70249835D01*
X121245147Y-70249835D02*
X121149909Y-70297454D01*
X121149909Y-70297454D02*
X121102290Y-70345073D01*
X121102290Y-70345073D02*
X121054671Y-70440311D01*
X121054671Y-70440311D02*
X121054671Y-70630787D01*
X121054671Y-70630787D02*
X121102290Y-70726025D01*
X121102290Y-70726025D02*
X121149909Y-70773644D01*
X121149909Y-70773644D02*
X121245147Y-70821263D01*
X116252233Y-72760369D02*
X115918900Y-72284178D01*
X115680805Y-72760369D02*
X115680805Y-71760369D01*
X115680805Y-71760369D02*
X116061757Y-71760369D01*
X116061757Y-71760369D02*
X116156995Y-71807988D01*
X116156995Y-71807988D02*
X116204614Y-71855607D01*
X116204614Y-71855607D02*
X116252233Y-71950845D01*
X116252233Y-71950845D02*
X116252233Y-72093702D01*
X116252233Y-72093702D02*
X116204614Y-72188940D01*
X116204614Y-72188940D02*
X116156995Y-72236559D01*
X116156995Y-72236559D02*
X116061757Y-72284178D01*
X116061757Y-72284178D02*
X115680805Y-72284178D01*
X116728424Y-72760369D02*
X116918900Y-72760369D01*
X116918900Y-72760369D02*
X117014138Y-72712750D01*
X117014138Y-72712750D02*
X117061757Y-72665130D01*
X117061757Y-72665130D02*
X117156995Y-72522273D01*
X117156995Y-72522273D02*
X117204614Y-72331797D01*
X117204614Y-72331797D02*
X117204614Y-71950845D01*
X117204614Y-71950845D02*
X117156995Y-71855607D01*
X117156995Y-71855607D02*
X117109376Y-71807988D01*
X117109376Y-71807988D02*
X117014138Y-71760369D01*
X117014138Y-71760369D02*
X116823662Y-71760369D01*
X116823662Y-71760369D02*
X116728424Y-71807988D01*
X116728424Y-71807988D02*
X116680805Y-71855607D01*
X116680805Y-71855607D02*
X116633186Y-71950845D01*
X116633186Y-71950845D02*
X116633186Y-72188940D01*
X116633186Y-72188940D02*
X116680805Y-72284178D01*
X116680805Y-72284178D02*
X116728424Y-72331797D01*
X116728424Y-72331797D02*
X116823662Y-72379416D01*
X116823662Y-72379416D02*
X117014138Y-72379416D01*
X117014138Y-72379416D02*
X117109376Y-72331797D01*
X117109376Y-72331797D02*
X117156995Y-72284178D01*
X117156995Y-72284178D02*
X117204614Y-72188940D01*
X114673419Y-77857304D02*
X115482942Y-77857304D01*
X115482942Y-77857304D02*
X115578180Y-77809685D01*
X115578180Y-77809685D02*
X115625800Y-77762066D01*
X115625800Y-77762066D02*
X115673419Y-77666828D01*
X115673419Y-77666828D02*
X115673419Y-77476352D01*
X115673419Y-77476352D02*
X115625800Y-77381114D01*
X115625800Y-77381114D02*
X115578180Y-77333495D01*
X115578180Y-77333495D02*
X115482942Y-77285876D01*
X115482942Y-77285876D02*
X114673419Y-77285876D01*
X114673419Y-76904923D02*
X114673419Y-76285876D01*
X114673419Y-76285876D02*
X115054371Y-76619209D01*
X115054371Y-76619209D02*
X115054371Y-76476352D01*
X115054371Y-76476352D02*
X115101990Y-76381114D01*
X115101990Y-76381114D02*
X115149609Y-76333495D01*
X115149609Y-76333495D02*
X115244847Y-76285876D01*
X115244847Y-76285876D02*
X115482942Y-76285876D01*
X115482942Y-76285876D02*
X115578180Y-76333495D01*
X115578180Y-76333495D02*
X115625800Y-76381114D01*
X115625800Y-76381114D02*
X115673419Y-76476352D01*
X115673419Y-76476352D02*
X115673419Y-76762066D01*
X115673419Y-76762066D02*
X115625800Y-76857304D01*
X115625800Y-76857304D02*
X115578180Y-76904923D01*
X111117419Y-79971949D02*
X111355514Y-79971949D01*
X111260276Y-80210044D02*
X111355514Y-79971949D01*
X111355514Y-79971949D02*
X111260276Y-79733854D01*
X111545990Y-80114806D02*
X111355514Y-79971949D01*
X111355514Y-79971949D02*
X111545990Y-79829092D01*
X111117419Y-79971949D02*
X111355514Y-79971949D01*
X111260276Y-80210044D02*
X111355514Y-79971949D01*
X111355514Y-79971949D02*
X111260276Y-79733854D01*
X111545990Y-80114806D02*
X111355514Y-79971949D01*
X111355514Y-79971949D02*
X111545990Y-79829092D01*
X131027142Y-120229580D02*
X130979523Y-120277200D01*
X130979523Y-120277200D02*
X130836666Y-120324819D01*
X130836666Y-120324819D02*
X130741428Y-120324819D01*
X130741428Y-120324819D02*
X130598571Y-120277200D01*
X130598571Y-120277200D02*
X130503333Y-120181961D01*
X130503333Y-120181961D02*
X130455714Y-120086723D01*
X130455714Y-120086723D02*
X130408095Y-119896247D01*
X130408095Y-119896247D02*
X130408095Y-119753390D01*
X130408095Y-119753390D02*
X130455714Y-119562914D01*
X130455714Y-119562914D02*
X130503333Y-119467676D01*
X130503333Y-119467676D02*
X130598571Y-119372438D01*
X130598571Y-119372438D02*
X130741428Y-119324819D01*
X130741428Y-119324819D02*
X130836666Y-119324819D01*
X130836666Y-119324819D02*
X130979523Y-119372438D01*
X130979523Y-119372438D02*
X131027142Y-119420057D01*
X131979523Y-120324819D02*
X131408095Y-120324819D01*
X131693809Y-120324819D02*
X131693809Y-119324819D01*
X131693809Y-119324819D02*
X131598571Y-119467676D01*
X131598571Y-119467676D02*
X131503333Y-119562914D01*
X131503333Y-119562914D02*
X131408095Y-119610533D01*
X132360476Y-119420057D02*
X132408095Y-119372438D01*
X132408095Y-119372438D02*
X132503333Y-119324819D01*
X132503333Y-119324819D02*
X132741428Y-119324819D01*
X132741428Y-119324819D02*
X132836666Y-119372438D01*
X132836666Y-119372438D02*
X132884285Y-119420057D01*
X132884285Y-119420057D02*
X132931904Y-119515295D01*
X132931904Y-119515295D02*
X132931904Y-119610533D01*
X132931904Y-119610533D02*
X132884285Y-119753390D01*
X132884285Y-119753390D02*
X132312857Y-120324819D01*
X132312857Y-120324819D02*
X132931904Y-120324819D01*
X115253333Y-110694819D02*
X114920000Y-110218628D01*
X114681905Y-110694819D02*
X114681905Y-109694819D01*
X114681905Y-109694819D02*
X115062857Y-109694819D01*
X115062857Y-109694819D02*
X115158095Y-109742438D01*
X115158095Y-109742438D02*
X115205714Y-109790057D01*
X115205714Y-109790057D02*
X115253333Y-109885295D01*
X115253333Y-109885295D02*
X115253333Y-110028152D01*
X115253333Y-110028152D02*
X115205714Y-110123390D01*
X115205714Y-110123390D02*
X115158095Y-110171009D01*
X115158095Y-110171009D02*
X115062857Y-110218628D01*
X115062857Y-110218628D02*
X114681905Y-110218628D01*
X115586667Y-109694819D02*
X116253333Y-109694819D01*
X116253333Y-109694819D02*
X115824762Y-110694819D01*
X150984819Y-82696666D02*
X150984819Y-83172856D01*
X150984819Y-83172856D02*
X149984819Y-83172856D01*
X150984819Y-81839523D02*
X150984819Y-82410951D01*
X150984819Y-82125237D02*
X149984819Y-82125237D01*
X149984819Y-82125237D02*
X150127676Y-82220475D01*
X150127676Y-82220475D02*
X150222914Y-82315713D01*
X150222914Y-82315713D02*
X150270533Y-82410951D01*
X138286042Y-105165369D02*
X137952709Y-104689178D01*
X137714614Y-105165369D02*
X137714614Y-104165369D01*
X137714614Y-104165369D02*
X138095566Y-104165369D01*
X138095566Y-104165369D02*
X138190804Y-104212988D01*
X138190804Y-104212988D02*
X138238423Y-104260607D01*
X138238423Y-104260607D02*
X138286042Y-104355845D01*
X138286042Y-104355845D02*
X138286042Y-104498702D01*
X138286042Y-104498702D02*
X138238423Y-104593940D01*
X138238423Y-104593940D02*
X138190804Y-104641559D01*
X138190804Y-104641559D02*
X138095566Y-104689178D01*
X138095566Y-104689178D02*
X137714614Y-104689178D01*
X139238423Y-105165369D02*
X138666995Y-105165369D01*
X138952709Y-105165369D02*
X138952709Y-104165369D01*
X138952709Y-104165369D02*
X138857471Y-104308226D01*
X138857471Y-104308226D02*
X138762233Y-104403464D01*
X138762233Y-104403464D02*
X138666995Y-104451083D01*
X140143185Y-104165369D02*
X139666995Y-104165369D01*
X139666995Y-104165369D02*
X139619376Y-104641559D01*
X139619376Y-104641559D02*
X139666995Y-104593940D01*
X139666995Y-104593940D02*
X139762233Y-104546321D01*
X139762233Y-104546321D02*
X140000328Y-104546321D01*
X140000328Y-104546321D02*
X140095566Y-104593940D01*
X140095566Y-104593940D02*
X140143185Y-104641559D01*
X140143185Y-104641559D02*
X140190804Y-104736797D01*
X140190804Y-104736797D02*
X140190804Y-104974892D01*
X140190804Y-104974892D02*
X140143185Y-105070130D01*
X140143185Y-105070130D02*
X140095566Y-105117750D01*
X140095566Y-105117750D02*
X140000328Y-105165369D01*
X140000328Y-105165369D02*
X139762233Y-105165369D01*
X139762233Y-105165369D02*
X139666995Y-105117750D01*
X139666995Y-105117750D02*
X139619376Y-105070130D01*
X140454819Y-67149523D02*
X141169104Y-67149523D01*
X141169104Y-67149523D02*
X141311961Y-67197142D01*
X141311961Y-67197142D02*
X141407200Y-67292380D01*
X141407200Y-67292380D02*
X141454819Y-67435237D01*
X141454819Y-67435237D02*
X141454819Y-67530475D01*
X141454819Y-66149523D02*
X141454819Y-66720951D01*
X141454819Y-66435237D02*
X140454819Y-66435237D01*
X140454819Y-66435237D02*
X140597676Y-66530475D01*
X140597676Y-66530475D02*
X140692914Y-66625713D01*
X140692914Y-66625713D02*
X140740533Y-66720951D01*
X140454819Y-65816189D02*
X140454819Y-65197142D01*
X140454819Y-65197142D02*
X140835771Y-65530475D01*
X140835771Y-65530475D02*
X140835771Y-65387618D01*
X140835771Y-65387618D02*
X140883390Y-65292380D01*
X140883390Y-65292380D02*
X140931009Y-65244761D01*
X140931009Y-65244761D02*
X141026247Y-65197142D01*
X141026247Y-65197142D02*
X141264342Y-65197142D01*
X141264342Y-65197142D02*
X141359580Y-65244761D01*
X141359580Y-65244761D02*
X141407200Y-65292380D01*
X141407200Y-65292380D02*
X141454819Y-65387618D01*
X141454819Y-65387618D02*
X141454819Y-65673332D01*
X141454819Y-65673332D02*
X141407200Y-65768570D01*
X141407200Y-65768570D02*
X141359580Y-65816189D01*
X137733600Y-60481978D02*
X137733600Y-59339121D01*
X136011100Y-73481978D02*
X136011100Y-72339121D01*
X136582528Y-72910549D02*
X135439671Y-72910549D01*
X134435919Y-67368973D02*
X135150204Y-67368973D01*
X135150204Y-67368973D02*
X135293061Y-67416592D01*
X135293061Y-67416592D02*
X135388300Y-67511830D01*
X135388300Y-67511830D02*
X135435919Y-67654687D01*
X135435919Y-67654687D02*
X135435919Y-67749925D01*
X135435919Y-66368973D02*
X135435919Y-66940401D01*
X135435919Y-66654687D02*
X134435919Y-66654687D01*
X134435919Y-66654687D02*
X134578776Y-66749925D01*
X134578776Y-66749925D02*
X134674014Y-66845163D01*
X134674014Y-66845163D02*
X134721633Y-66940401D01*
X134769252Y-65511830D02*
X135435919Y-65511830D01*
X134388300Y-65749925D02*
X135102585Y-65988020D01*
X135102585Y-65988020D02*
X135102585Y-65368973D01*
X131484700Y-60471428D02*
X131484700Y-59328571D01*
X129762200Y-73471428D02*
X129762200Y-72328571D01*
X130333628Y-72899999D02*
X129190771Y-72899999D01*
X113544819Y-114126666D02*
X113068628Y-114459999D01*
X113544819Y-114698094D02*
X112544819Y-114698094D01*
X112544819Y-114698094D02*
X112544819Y-114317142D01*
X112544819Y-114317142D02*
X112592438Y-114221904D01*
X112592438Y-114221904D02*
X112640057Y-114174285D01*
X112640057Y-114174285D02*
X112735295Y-114126666D01*
X112735295Y-114126666D02*
X112878152Y-114126666D01*
X112878152Y-114126666D02*
X112973390Y-114174285D01*
X112973390Y-114174285D02*
X113021009Y-114221904D01*
X113021009Y-114221904D02*
X113068628Y-114317142D01*
X113068628Y-114317142D02*
X113068628Y-114698094D01*
X112973390Y-113555237D02*
X112925771Y-113650475D01*
X112925771Y-113650475D02*
X112878152Y-113698094D01*
X112878152Y-113698094D02*
X112782914Y-113745713D01*
X112782914Y-113745713D02*
X112735295Y-113745713D01*
X112735295Y-113745713D02*
X112640057Y-113698094D01*
X112640057Y-113698094D02*
X112592438Y-113650475D01*
X112592438Y-113650475D02*
X112544819Y-113555237D01*
X112544819Y-113555237D02*
X112544819Y-113364761D01*
X112544819Y-113364761D02*
X112592438Y-113269523D01*
X112592438Y-113269523D02*
X112640057Y-113221904D01*
X112640057Y-113221904D02*
X112735295Y-113174285D01*
X112735295Y-113174285D02*
X112782914Y-113174285D01*
X112782914Y-113174285D02*
X112878152Y-113221904D01*
X112878152Y-113221904D02*
X112925771Y-113269523D01*
X112925771Y-113269523D02*
X112973390Y-113364761D01*
X112973390Y-113364761D02*
X112973390Y-113555237D01*
X112973390Y-113555237D02*
X113021009Y-113650475D01*
X113021009Y-113650475D02*
X113068628Y-113698094D01*
X113068628Y-113698094D02*
X113163866Y-113745713D01*
X113163866Y-113745713D02*
X113354342Y-113745713D01*
X113354342Y-113745713D02*
X113449580Y-113698094D01*
X113449580Y-113698094D02*
X113497200Y-113650475D01*
X113497200Y-113650475D02*
X113544819Y-113555237D01*
X113544819Y-113555237D02*
X113544819Y-113364761D01*
X113544819Y-113364761D02*
X113497200Y-113269523D01*
X113497200Y-113269523D02*
X113449580Y-113221904D01*
X113449580Y-113221904D02*
X113354342Y-113174285D01*
X113354342Y-113174285D02*
X113163866Y-113174285D01*
X113163866Y-113174285D02*
X113068628Y-113221904D01*
X113068628Y-113221904D02*
X113021009Y-113269523D01*
X113021009Y-113269523D02*
X112973390Y-113364761D01*
X130585566Y-93165369D02*
X130585566Y-93879654D01*
X130585566Y-93879654D02*
X130537947Y-94022511D01*
X130537947Y-94022511D02*
X130442709Y-94117750D01*
X130442709Y-94117750D02*
X130299852Y-94165369D01*
X130299852Y-94165369D02*
X130204614Y-94165369D01*
X131490328Y-93165369D02*
X131299852Y-93165369D01*
X131299852Y-93165369D02*
X131204614Y-93212988D01*
X131204614Y-93212988D02*
X131156995Y-93260607D01*
X131156995Y-93260607D02*
X131061757Y-93403464D01*
X131061757Y-93403464D02*
X131014138Y-93593940D01*
X131014138Y-93593940D02*
X131014138Y-93974892D01*
X131014138Y-93974892D02*
X131061757Y-94070130D01*
X131061757Y-94070130D02*
X131109376Y-94117750D01*
X131109376Y-94117750D02*
X131204614Y-94165369D01*
X131204614Y-94165369D02*
X131395090Y-94165369D01*
X131395090Y-94165369D02*
X131490328Y-94117750D01*
X131490328Y-94117750D02*
X131537947Y-94070130D01*
X131537947Y-94070130D02*
X131585566Y-93974892D01*
X131585566Y-93974892D02*
X131585566Y-93736797D01*
X131585566Y-93736797D02*
X131537947Y-93641559D01*
X131537947Y-93641559D02*
X131490328Y-93593940D01*
X131490328Y-93593940D02*
X131395090Y-93546321D01*
X131395090Y-93546321D02*
X131204614Y-93546321D01*
X131204614Y-93546321D02*
X131109376Y-93593940D01*
X131109376Y-93593940D02*
X131061757Y-93641559D01*
X131061757Y-93641559D02*
X131014138Y-93736797D01*
X146285566Y-93365369D02*
X146285566Y-94079654D01*
X146285566Y-94079654D02*
X146237947Y-94222511D01*
X146237947Y-94222511D02*
X146142709Y-94317750D01*
X146142709Y-94317750D02*
X145999852Y-94365369D01*
X145999852Y-94365369D02*
X145904614Y-94365369D01*
X146904614Y-93793940D02*
X146809376Y-93746321D01*
X146809376Y-93746321D02*
X146761757Y-93698702D01*
X146761757Y-93698702D02*
X146714138Y-93603464D01*
X146714138Y-93603464D02*
X146714138Y-93555845D01*
X146714138Y-93555845D02*
X146761757Y-93460607D01*
X146761757Y-93460607D02*
X146809376Y-93412988D01*
X146809376Y-93412988D02*
X146904614Y-93365369D01*
X146904614Y-93365369D02*
X147095090Y-93365369D01*
X147095090Y-93365369D02*
X147190328Y-93412988D01*
X147190328Y-93412988D02*
X147237947Y-93460607D01*
X147237947Y-93460607D02*
X147285566Y-93555845D01*
X147285566Y-93555845D02*
X147285566Y-93603464D01*
X147285566Y-93603464D02*
X147237947Y-93698702D01*
X147237947Y-93698702D02*
X147190328Y-93746321D01*
X147190328Y-93746321D02*
X147095090Y-93793940D01*
X147095090Y-93793940D02*
X146904614Y-93793940D01*
X146904614Y-93793940D02*
X146809376Y-93841559D01*
X146809376Y-93841559D02*
X146761757Y-93889178D01*
X146761757Y-93889178D02*
X146714138Y-93984416D01*
X146714138Y-93984416D02*
X146714138Y-94174892D01*
X146714138Y-94174892D02*
X146761757Y-94270130D01*
X146761757Y-94270130D02*
X146809376Y-94317750D01*
X146809376Y-94317750D02*
X146904614Y-94365369D01*
X146904614Y-94365369D02*
X147095090Y-94365369D01*
X147095090Y-94365369D02*
X147190328Y-94317750D01*
X147190328Y-94317750D02*
X147237947Y-94270130D01*
X147237947Y-94270130D02*
X147285566Y-94174892D01*
X147285566Y-94174892D02*
X147285566Y-93984416D01*
X147285566Y-93984416D02*
X147237947Y-93889178D01*
X147237947Y-93889178D02*
X147190328Y-93841559D01*
X147190328Y-93841559D02*
X147095090Y-93793940D01*
X114063719Y-72043407D02*
X113587528Y-72376740D01*
X114063719Y-72614835D02*
X113063719Y-72614835D01*
X113063719Y-72614835D02*
X113063719Y-72233883D01*
X113063719Y-72233883D02*
X113111338Y-72138645D01*
X113111338Y-72138645D02*
X113158957Y-72091026D01*
X113158957Y-72091026D02*
X113254195Y-72043407D01*
X113254195Y-72043407D02*
X113397052Y-72043407D01*
X113397052Y-72043407D02*
X113492290Y-72091026D01*
X113492290Y-72091026D02*
X113539909Y-72138645D01*
X113539909Y-72138645D02*
X113587528Y-72233883D01*
X113587528Y-72233883D02*
X113587528Y-72614835D01*
X113158957Y-71662454D02*
X113111338Y-71614835D01*
X113111338Y-71614835D02*
X113063719Y-71519597D01*
X113063719Y-71519597D02*
X113063719Y-71281502D01*
X113063719Y-71281502D02*
X113111338Y-71186264D01*
X113111338Y-71186264D02*
X113158957Y-71138645D01*
X113158957Y-71138645D02*
X113254195Y-71091026D01*
X113254195Y-71091026D02*
X113349433Y-71091026D01*
X113349433Y-71091026D02*
X113492290Y-71138645D01*
X113492290Y-71138645D02*
X114063719Y-71710073D01*
X114063719Y-71710073D02*
X114063719Y-71091026D01*
X113158957Y-70710073D02*
X113111338Y-70662454D01*
X113111338Y-70662454D02*
X113063719Y-70567216D01*
X113063719Y-70567216D02*
X113063719Y-70329121D01*
X113063719Y-70329121D02*
X113111338Y-70233883D01*
X113111338Y-70233883D02*
X113158957Y-70186264D01*
X113158957Y-70186264D02*
X113254195Y-70138645D01*
X113254195Y-70138645D02*
X113349433Y-70138645D01*
X113349433Y-70138645D02*
X113492290Y-70186264D01*
X113492290Y-70186264D02*
X114063719Y-70757692D01*
X114063719Y-70757692D02*
X114063719Y-70138645D01*
X144429733Y-91295369D02*
X144096400Y-90819178D01*
X143858305Y-91295369D02*
X143858305Y-90295369D01*
X143858305Y-90295369D02*
X144239257Y-90295369D01*
X144239257Y-90295369D02*
X144334495Y-90342988D01*
X144334495Y-90342988D02*
X144382114Y-90390607D01*
X144382114Y-90390607D02*
X144429733Y-90485845D01*
X144429733Y-90485845D02*
X144429733Y-90628702D01*
X144429733Y-90628702D02*
X144382114Y-90723940D01*
X144382114Y-90723940D02*
X144334495Y-90771559D01*
X144334495Y-90771559D02*
X144239257Y-90819178D01*
X144239257Y-90819178D02*
X143858305Y-90819178D01*
X145286876Y-90628702D02*
X145286876Y-91295369D01*
X145048781Y-90247750D02*
X144810686Y-90962035D01*
X144810686Y-90962035D02*
X145429733Y-90962035D01*
X147429733Y-87295369D02*
X147096400Y-86819178D01*
X146858305Y-87295369D02*
X146858305Y-86295369D01*
X146858305Y-86295369D02*
X147239257Y-86295369D01*
X147239257Y-86295369D02*
X147334495Y-86342988D01*
X147334495Y-86342988D02*
X147382114Y-86390607D01*
X147382114Y-86390607D02*
X147429733Y-86485845D01*
X147429733Y-86485845D02*
X147429733Y-86628702D01*
X147429733Y-86628702D02*
X147382114Y-86723940D01*
X147382114Y-86723940D02*
X147334495Y-86771559D01*
X147334495Y-86771559D02*
X147239257Y-86819178D01*
X147239257Y-86819178D02*
X146858305Y-86819178D01*
X148286876Y-86295369D02*
X148096400Y-86295369D01*
X148096400Y-86295369D02*
X148001162Y-86342988D01*
X148001162Y-86342988D02*
X147953543Y-86390607D01*
X147953543Y-86390607D02*
X147858305Y-86533464D01*
X147858305Y-86533464D02*
X147810686Y-86723940D01*
X147810686Y-86723940D02*
X147810686Y-87104892D01*
X147810686Y-87104892D02*
X147858305Y-87200130D01*
X147858305Y-87200130D02*
X147905924Y-87247750D01*
X147905924Y-87247750D02*
X148001162Y-87295369D01*
X148001162Y-87295369D02*
X148191638Y-87295369D01*
X148191638Y-87295369D02*
X148286876Y-87247750D01*
X148286876Y-87247750D02*
X148334495Y-87200130D01*
X148334495Y-87200130D02*
X148382114Y-87104892D01*
X148382114Y-87104892D02*
X148382114Y-86866797D01*
X148382114Y-86866797D02*
X148334495Y-86771559D01*
X148334495Y-86771559D02*
X148286876Y-86723940D01*
X148286876Y-86723940D02*
X148191638Y-86676321D01*
X148191638Y-86676321D02*
X148001162Y-86676321D01*
X148001162Y-86676321D02*
X147905924Y-86723940D01*
X147905924Y-86723940D02*
X147858305Y-86771559D01*
X147858305Y-86771559D02*
X147810686Y-86866797D01*
X130176042Y-105165369D02*
X129842709Y-104689178D01*
X129604614Y-105165369D02*
X129604614Y-104165369D01*
X129604614Y-104165369D02*
X129985566Y-104165369D01*
X129985566Y-104165369D02*
X130080804Y-104212988D01*
X130080804Y-104212988D02*
X130128423Y-104260607D01*
X130128423Y-104260607D02*
X130176042Y-104355845D01*
X130176042Y-104355845D02*
X130176042Y-104498702D01*
X130176042Y-104498702D02*
X130128423Y-104593940D01*
X130128423Y-104593940D02*
X130080804Y-104641559D01*
X130080804Y-104641559D02*
X129985566Y-104689178D01*
X129985566Y-104689178D02*
X129604614Y-104689178D01*
X131128423Y-105165369D02*
X130556995Y-105165369D01*
X130842709Y-105165369D02*
X130842709Y-104165369D01*
X130842709Y-104165369D02*
X130747471Y-104308226D01*
X130747471Y-104308226D02*
X130652233Y-104403464D01*
X130652233Y-104403464D02*
X130556995Y-104451083D01*
X131461757Y-104165369D02*
X132128423Y-104165369D01*
X132128423Y-104165369D02*
X131699852Y-105165369D01*
X134614819Y-88896666D02*
X134138628Y-89229999D01*
X134614819Y-89468094D02*
X133614819Y-89468094D01*
X133614819Y-89468094D02*
X133614819Y-89087142D01*
X133614819Y-89087142D02*
X133662438Y-88991904D01*
X133662438Y-88991904D02*
X133710057Y-88944285D01*
X133710057Y-88944285D02*
X133805295Y-88896666D01*
X133805295Y-88896666D02*
X133948152Y-88896666D01*
X133948152Y-88896666D02*
X134043390Y-88944285D01*
X134043390Y-88944285D02*
X134091009Y-88991904D01*
X134091009Y-88991904D02*
X134138628Y-89087142D01*
X134138628Y-89087142D02*
X134138628Y-89468094D01*
X133614819Y-88563332D02*
X133614819Y-87944285D01*
X133614819Y-87944285D02*
X133995771Y-88277618D01*
X133995771Y-88277618D02*
X133995771Y-88134761D01*
X133995771Y-88134761D02*
X134043390Y-88039523D01*
X134043390Y-88039523D02*
X134091009Y-87991904D01*
X134091009Y-87991904D02*
X134186247Y-87944285D01*
X134186247Y-87944285D02*
X134424342Y-87944285D01*
X134424342Y-87944285D02*
X134519580Y-87991904D01*
X134519580Y-87991904D02*
X134567200Y-88039523D01*
X134567200Y-88039523D02*
X134614819Y-88134761D01*
X134614819Y-88134761D02*
X134614819Y-88420475D01*
X134614819Y-88420475D02*
X134567200Y-88515713D01*
X134567200Y-88515713D02*
X134519580Y-88563332D01*
X146176042Y-104965369D02*
X145842709Y-104489178D01*
X145604614Y-104965369D02*
X145604614Y-103965369D01*
X145604614Y-103965369D02*
X145985566Y-103965369D01*
X145985566Y-103965369D02*
X146080804Y-104012988D01*
X146080804Y-104012988D02*
X146128423Y-104060607D01*
X146128423Y-104060607D02*
X146176042Y-104155845D01*
X146176042Y-104155845D02*
X146176042Y-104298702D01*
X146176042Y-104298702D02*
X146128423Y-104393940D01*
X146128423Y-104393940D02*
X146080804Y-104441559D01*
X146080804Y-104441559D02*
X145985566Y-104489178D01*
X145985566Y-104489178D02*
X145604614Y-104489178D01*
X147128423Y-104965369D02*
X146556995Y-104965369D01*
X146842709Y-104965369D02*
X146842709Y-103965369D01*
X146842709Y-103965369D02*
X146747471Y-104108226D01*
X146747471Y-104108226D02*
X146652233Y-104203464D01*
X146652233Y-104203464D02*
X146556995Y-104251083D01*
X147461757Y-103965369D02*
X148080804Y-103965369D01*
X148080804Y-103965369D02*
X147747471Y-104346321D01*
X147747471Y-104346321D02*
X147890328Y-104346321D01*
X147890328Y-104346321D02*
X147985566Y-104393940D01*
X147985566Y-104393940D02*
X148033185Y-104441559D01*
X148033185Y-104441559D02*
X148080804Y-104536797D01*
X148080804Y-104536797D02*
X148080804Y-104774892D01*
X148080804Y-104774892D02*
X148033185Y-104870130D01*
X148033185Y-104870130D02*
X147985566Y-104917750D01*
X147985566Y-104917750D02*
X147890328Y-104965369D01*
X147890328Y-104965369D02*
X147604614Y-104965369D01*
X147604614Y-104965369D02*
X147509376Y-104917750D01*
X147509376Y-104917750D02*
X147461757Y-104870130D01*
X116784286Y-113674819D02*
X117355714Y-113674819D01*
X117070000Y-114674819D02*
X117070000Y-113674819D01*
X117689048Y-114674819D02*
X117689048Y-113674819D01*
X117689048Y-113674819D02*
X118070000Y-113674819D01*
X118070000Y-113674819D02*
X118165238Y-113722438D01*
X118165238Y-113722438D02*
X118212857Y-113770057D01*
X118212857Y-113770057D02*
X118260476Y-113865295D01*
X118260476Y-113865295D02*
X118260476Y-114008152D01*
X118260476Y-114008152D02*
X118212857Y-114103390D01*
X118212857Y-114103390D02*
X118165238Y-114151009D01*
X118165238Y-114151009D02*
X118070000Y-114198628D01*
X118070000Y-114198628D02*
X117689048Y-114198628D01*
X118450953Y-114770057D02*
X119212857Y-114770057D01*
X119450953Y-114674819D02*
X119450953Y-113674819D01*
X119927143Y-114674819D02*
X119927143Y-113674819D01*
X119927143Y-113674819D02*
X120498571Y-114674819D01*
X120498571Y-114674819D02*
X120498571Y-113674819D01*
X120831905Y-113674819D02*
X121403333Y-113674819D01*
X121117619Y-114674819D02*
X121117619Y-113674819D01*
X122260476Y-114674819D02*
X121689048Y-114674819D01*
X121974762Y-114674819D02*
X121974762Y-113674819D01*
X121974762Y-113674819D02*
X121879524Y-113817676D01*
X121879524Y-113817676D02*
X121784286Y-113912914D01*
X121784286Y-113912914D02*
X121689048Y-113960533D01*
X129096190Y-117884819D02*
X129667618Y-117884819D01*
X129381904Y-118884819D02*
X129381904Y-117884819D01*
X130000952Y-118884819D02*
X130000952Y-117884819D01*
X130000952Y-117884819D02*
X130381904Y-117884819D01*
X130381904Y-117884819D02*
X130477142Y-117932438D01*
X130477142Y-117932438D02*
X130524761Y-117980057D01*
X130524761Y-117980057D02*
X130572380Y-118075295D01*
X130572380Y-118075295D02*
X130572380Y-118218152D01*
X130572380Y-118218152D02*
X130524761Y-118313390D01*
X130524761Y-118313390D02*
X130477142Y-118361009D01*
X130477142Y-118361009D02*
X130381904Y-118408628D01*
X130381904Y-118408628D02*
X130000952Y-118408628D01*
X130762857Y-118980057D02*
X131524761Y-118980057D01*
X131715238Y-118837200D02*
X131858095Y-118884819D01*
X131858095Y-118884819D02*
X132096190Y-118884819D01*
X132096190Y-118884819D02*
X132191428Y-118837200D01*
X132191428Y-118837200D02*
X132239047Y-118789580D01*
X132239047Y-118789580D02*
X132286666Y-118694342D01*
X132286666Y-118694342D02*
X132286666Y-118599104D01*
X132286666Y-118599104D02*
X132239047Y-118503866D01*
X132239047Y-118503866D02*
X132191428Y-118456247D01*
X132191428Y-118456247D02*
X132096190Y-118408628D01*
X132096190Y-118408628D02*
X131905714Y-118361009D01*
X131905714Y-118361009D02*
X131810476Y-118313390D01*
X131810476Y-118313390D02*
X131762857Y-118265771D01*
X131762857Y-118265771D02*
X131715238Y-118170533D01*
X131715238Y-118170533D02*
X131715238Y-118075295D01*
X131715238Y-118075295D02*
X131762857Y-117980057D01*
X131762857Y-117980057D02*
X131810476Y-117932438D01*
X131810476Y-117932438D02*
X131905714Y-117884819D01*
X131905714Y-117884819D02*
X132143809Y-117884819D01*
X132143809Y-117884819D02*
X132286666Y-117932438D01*
X133286666Y-118789580D02*
X133239047Y-118837200D01*
X133239047Y-118837200D02*
X133096190Y-118884819D01*
X133096190Y-118884819D02*
X133000952Y-118884819D01*
X133000952Y-118884819D02*
X132858095Y-118837200D01*
X132858095Y-118837200D02*
X132762857Y-118741961D01*
X132762857Y-118741961D02*
X132715238Y-118646723D01*
X132715238Y-118646723D02*
X132667619Y-118456247D01*
X132667619Y-118456247D02*
X132667619Y-118313390D01*
X132667619Y-118313390D02*
X132715238Y-118122914D01*
X132715238Y-118122914D02*
X132762857Y-118027676D01*
X132762857Y-118027676D02*
X132858095Y-117932438D01*
X132858095Y-117932438D02*
X133000952Y-117884819D01*
X133000952Y-117884819D02*
X133096190Y-117884819D01*
X133096190Y-117884819D02*
X133239047Y-117932438D01*
X133239047Y-117932438D02*
X133286666Y-117980057D01*
X134191428Y-118884819D02*
X133715238Y-118884819D01*
X133715238Y-118884819D02*
X133715238Y-117884819D01*
X135048571Y-118884819D02*
X134477143Y-118884819D01*
X134762857Y-118884819D02*
X134762857Y-117884819D01*
X134762857Y-117884819D02*
X134667619Y-118027676D01*
X134667619Y-118027676D02*
X134572381Y-118122914D01*
X134572381Y-118122914D02*
X134477143Y-118170533D01*
X133074819Y-85436666D02*
X133074819Y-84865238D01*
X134074819Y-85150952D02*
X133074819Y-85150952D01*
X134074819Y-84531904D02*
X133074819Y-84531904D01*
X133074819Y-84531904D02*
X133074819Y-84150952D01*
X133074819Y-84150952D02*
X133122438Y-84055714D01*
X133122438Y-84055714D02*
X133170057Y-84008095D01*
X133170057Y-84008095D02*
X133265295Y-83960476D01*
X133265295Y-83960476D02*
X133408152Y-83960476D01*
X133408152Y-83960476D02*
X133503390Y-84008095D01*
X133503390Y-84008095D02*
X133551009Y-84055714D01*
X133551009Y-84055714D02*
X133598628Y-84150952D01*
X133598628Y-84150952D02*
X133598628Y-84531904D01*
X134170057Y-83770000D02*
X134170057Y-83008095D01*
X133122438Y-82246190D02*
X133074819Y-82341428D01*
X133074819Y-82341428D02*
X133074819Y-82484285D01*
X133074819Y-82484285D02*
X133122438Y-82627142D01*
X133122438Y-82627142D02*
X133217676Y-82722380D01*
X133217676Y-82722380D02*
X133312914Y-82769999D01*
X133312914Y-82769999D02*
X133503390Y-82817618D01*
X133503390Y-82817618D02*
X133646247Y-82817618D01*
X133646247Y-82817618D02*
X133836723Y-82769999D01*
X133836723Y-82769999D02*
X133931961Y-82722380D01*
X133931961Y-82722380D02*
X134027200Y-82627142D01*
X134027200Y-82627142D02*
X134074819Y-82484285D01*
X134074819Y-82484285D02*
X134074819Y-82389047D01*
X134074819Y-82389047D02*
X134027200Y-82246190D01*
X134027200Y-82246190D02*
X133979580Y-82198571D01*
X133979580Y-82198571D02*
X133646247Y-82198571D01*
X133646247Y-82198571D02*
X133646247Y-82389047D01*
X134074819Y-81769999D02*
X133074819Y-81769999D01*
X133074819Y-81769999D02*
X134074819Y-81198571D01*
X134074819Y-81198571D02*
X133074819Y-81198571D01*
X134074819Y-80722380D02*
X133074819Y-80722380D01*
X133074819Y-80722380D02*
X133074819Y-80484285D01*
X133074819Y-80484285D02*
X133122438Y-80341428D01*
X133122438Y-80341428D02*
X133217676Y-80246190D01*
X133217676Y-80246190D02*
X133312914Y-80198571D01*
X133312914Y-80198571D02*
X133503390Y-80150952D01*
X133503390Y-80150952D02*
X133646247Y-80150952D01*
X133646247Y-80150952D02*
X133836723Y-80198571D01*
X133836723Y-80198571D02*
X133931961Y-80246190D01*
X133931961Y-80246190D02*
X134027200Y-80341428D01*
X134027200Y-80341428D02*
X134074819Y-80484285D01*
X134074819Y-80484285D02*
X134074819Y-80722380D01*
X134074819Y-79198571D02*
X134074819Y-79769999D01*
X134074819Y-79484285D02*
X133074819Y-79484285D01*
X133074819Y-79484285D02*
X133217676Y-79579523D01*
X133217676Y-79579523D02*
X133312914Y-79674761D01*
X133312914Y-79674761D02*
X133360533Y-79769999D01*
X116664286Y-116744819D02*
X117235714Y-116744819D01*
X116950000Y-117744819D02*
X116950000Y-116744819D01*
X117569048Y-117744819D02*
X117569048Y-116744819D01*
X117569048Y-116744819D02*
X117950000Y-116744819D01*
X117950000Y-116744819D02*
X118045238Y-116792438D01*
X118045238Y-116792438D02*
X118092857Y-116840057D01*
X118092857Y-116840057D02*
X118140476Y-116935295D01*
X118140476Y-116935295D02*
X118140476Y-117078152D01*
X118140476Y-117078152D02*
X118092857Y-117173390D01*
X118092857Y-117173390D02*
X118045238Y-117221009D01*
X118045238Y-117221009D02*
X117950000Y-117268628D01*
X117950000Y-117268628D02*
X117569048Y-117268628D01*
X118330953Y-117840057D02*
X119092857Y-117840057D01*
X119330953Y-117744819D02*
X119330953Y-116744819D01*
X119807143Y-117744819D02*
X119807143Y-116744819D01*
X119807143Y-116744819D02*
X120378571Y-117744819D01*
X120378571Y-117744819D02*
X120378571Y-116744819D01*
X120711905Y-116744819D02*
X121283333Y-116744819D01*
X120997619Y-117744819D02*
X120997619Y-116744819D01*
X121569048Y-116840057D02*
X121616667Y-116792438D01*
X121616667Y-116792438D02*
X121711905Y-116744819D01*
X121711905Y-116744819D02*
X121950000Y-116744819D01*
X121950000Y-116744819D02*
X122045238Y-116792438D01*
X122045238Y-116792438D02*
X122092857Y-116840057D01*
X122092857Y-116840057D02*
X122140476Y-116935295D01*
X122140476Y-116935295D02*
X122140476Y-117030533D01*
X122140476Y-117030533D02*
X122092857Y-117173390D01*
X122092857Y-117173390D02*
X121521429Y-117744819D01*
X121521429Y-117744819D02*
X122140476Y-117744819D01*
X134284819Y-117437618D02*
X134284819Y-116866190D01*
X135284819Y-117151904D02*
X134284819Y-117151904D01*
X135284819Y-116532856D02*
X134284819Y-116532856D01*
X134284819Y-116532856D02*
X134284819Y-116151904D01*
X134284819Y-116151904D02*
X134332438Y-116056666D01*
X134332438Y-116056666D02*
X134380057Y-116009047D01*
X134380057Y-116009047D02*
X134475295Y-115961428D01*
X134475295Y-115961428D02*
X134618152Y-115961428D01*
X134618152Y-115961428D02*
X134713390Y-116009047D01*
X134713390Y-116009047D02*
X134761009Y-116056666D01*
X134761009Y-116056666D02*
X134808628Y-116151904D01*
X134808628Y-116151904D02*
X134808628Y-116532856D01*
X135380057Y-115770952D02*
X135380057Y-115009047D01*
X135237200Y-114818570D02*
X135284819Y-114675713D01*
X135284819Y-114675713D02*
X135284819Y-114437618D01*
X135284819Y-114437618D02*
X135237200Y-114342380D01*
X135237200Y-114342380D02*
X135189580Y-114294761D01*
X135189580Y-114294761D02*
X135094342Y-114247142D01*
X135094342Y-114247142D02*
X134999104Y-114247142D01*
X134999104Y-114247142D02*
X134903866Y-114294761D01*
X134903866Y-114294761D02*
X134856247Y-114342380D01*
X134856247Y-114342380D02*
X134808628Y-114437618D01*
X134808628Y-114437618D02*
X134761009Y-114628094D01*
X134761009Y-114628094D02*
X134713390Y-114723332D01*
X134713390Y-114723332D02*
X134665771Y-114770951D01*
X134665771Y-114770951D02*
X134570533Y-114818570D01*
X134570533Y-114818570D02*
X134475295Y-114818570D01*
X134475295Y-114818570D02*
X134380057Y-114770951D01*
X134380057Y-114770951D02*
X134332438Y-114723332D01*
X134332438Y-114723332D02*
X134284819Y-114628094D01*
X134284819Y-114628094D02*
X134284819Y-114389999D01*
X134284819Y-114389999D02*
X134332438Y-114247142D01*
X135284819Y-113818570D02*
X134284819Y-113818570D01*
X134284819Y-113818570D02*
X134284819Y-113580475D01*
X134284819Y-113580475D02*
X134332438Y-113437618D01*
X134332438Y-113437618D02*
X134427676Y-113342380D01*
X134427676Y-113342380D02*
X134522914Y-113294761D01*
X134522914Y-113294761D02*
X134713390Y-113247142D01*
X134713390Y-113247142D02*
X134856247Y-113247142D01*
X134856247Y-113247142D02*
X135046723Y-113294761D01*
X135046723Y-113294761D02*
X135141961Y-113342380D01*
X135141961Y-113342380D02*
X135237200Y-113437618D01*
X135237200Y-113437618D02*
X135284819Y-113580475D01*
X135284819Y-113580475D02*
X135284819Y-113818570D01*
X134999104Y-112866189D02*
X134999104Y-112389999D01*
X135284819Y-112961427D02*
X134284819Y-112628094D01*
X134284819Y-112628094D02*
X135284819Y-112294761D01*
X135284819Y-111437618D02*
X135284819Y-112009046D01*
X135284819Y-111723332D02*
X134284819Y-111723332D01*
X134284819Y-111723332D02*
X134427676Y-111818570D01*
X134427676Y-111818570D02*
X134522914Y-111913808D01*
X134522914Y-111913808D02*
X134570533Y-112009046D01*
X117984762Y-80594819D02*
X118556190Y-80594819D01*
X118270476Y-81594819D02*
X118270476Y-80594819D01*
X118889524Y-81594819D02*
X118889524Y-80594819D01*
X118889524Y-80594819D02*
X119270476Y-80594819D01*
X119270476Y-80594819D02*
X119365714Y-80642438D01*
X119365714Y-80642438D02*
X119413333Y-80690057D01*
X119413333Y-80690057D02*
X119460952Y-80785295D01*
X119460952Y-80785295D02*
X119460952Y-80928152D01*
X119460952Y-80928152D02*
X119413333Y-81023390D01*
X119413333Y-81023390D02*
X119365714Y-81071009D01*
X119365714Y-81071009D02*
X119270476Y-81118628D01*
X119270476Y-81118628D02*
X118889524Y-81118628D01*
X119651429Y-81690057D02*
X120413333Y-81690057D01*
X121222857Y-81499580D02*
X121175238Y-81547200D01*
X121175238Y-81547200D02*
X121032381Y-81594819D01*
X121032381Y-81594819D02*
X120937143Y-81594819D01*
X120937143Y-81594819D02*
X120794286Y-81547200D01*
X120794286Y-81547200D02*
X120699048Y-81451961D01*
X120699048Y-81451961D02*
X120651429Y-81356723D01*
X120651429Y-81356723D02*
X120603810Y-81166247D01*
X120603810Y-81166247D02*
X120603810Y-81023390D01*
X120603810Y-81023390D02*
X120651429Y-80832914D01*
X120651429Y-80832914D02*
X120699048Y-80737676D01*
X120699048Y-80737676D02*
X120794286Y-80642438D01*
X120794286Y-80642438D02*
X120937143Y-80594819D01*
X120937143Y-80594819D02*
X121032381Y-80594819D01*
X121032381Y-80594819D02*
X121175238Y-80642438D01*
X121175238Y-80642438D02*
X121222857Y-80690057D01*
X121603810Y-81309104D02*
X122080000Y-81309104D01*
X121508572Y-81594819D02*
X121841905Y-80594819D01*
X121841905Y-80594819D02*
X122175238Y-81594819D01*
X122508572Y-81594819D02*
X122508572Y-80594819D01*
X122508572Y-80594819D02*
X123080000Y-81594819D01*
X123080000Y-81594819D02*
X123080000Y-80594819D01*
X123556191Y-81594819D02*
X123556191Y-80594819D01*
X123556191Y-80594819D02*
X123794286Y-80594819D01*
X123794286Y-80594819D02*
X123937143Y-80642438D01*
X123937143Y-80642438D02*
X124032381Y-80737676D01*
X124032381Y-80737676D02*
X124080000Y-80832914D01*
X124080000Y-80832914D02*
X124127619Y-81023390D01*
X124127619Y-81023390D02*
X124127619Y-81166247D01*
X124127619Y-81166247D02*
X124080000Y-81356723D01*
X124080000Y-81356723D02*
X124032381Y-81451961D01*
X124032381Y-81451961D02*
X123937143Y-81547200D01*
X123937143Y-81547200D02*
X123794286Y-81594819D01*
X123794286Y-81594819D02*
X123556191Y-81594819D01*
X125080000Y-81594819D02*
X124508572Y-81594819D01*
X124794286Y-81594819D02*
X124794286Y-80594819D01*
X124794286Y-80594819D02*
X124699048Y-80737676D01*
X124699048Y-80737676D02*
X124603810Y-80832914D01*
X124603810Y-80832914D02*
X124508572Y-80880533D01*
X122266042Y-106565369D02*
X121932709Y-106089178D01*
X121694614Y-106565369D02*
X121694614Y-105565369D01*
X121694614Y-105565369D02*
X122075566Y-105565369D01*
X122075566Y-105565369D02*
X122170804Y-105612988D01*
X122170804Y-105612988D02*
X122218423Y-105660607D01*
X122218423Y-105660607D02*
X122266042Y-105755845D01*
X122266042Y-105755845D02*
X122266042Y-105898702D01*
X122266042Y-105898702D02*
X122218423Y-105993940D01*
X122218423Y-105993940D02*
X122170804Y-106041559D01*
X122170804Y-106041559D02*
X122075566Y-106089178D01*
X122075566Y-106089178D02*
X121694614Y-106089178D01*
X123218423Y-106565369D02*
X122646995Y-106565369D01*
X122932709Y-106565369D02*
X122932709Y-105565369D01*
X122932709Y-105565369D02*
X122837471Y-105708226D01*
X122837471Y-105708226D02*
X122742233Y-105803464D01*
X122742233Y-105803464D02*
X122646995Y-105851083D01*
X123694614Y-106565369D02*
X123885090Y-106565369D01*
X123885090Y-106565369D02*
X123980328Y-106517750D01*
X123980328Y-106517750D02*
X124027947Y-106470130D01*
X124027947Y-106470130D02*
X124123185Y-106327273D01*
X124123185Y-106327273D02*
X124170804Y-106136797D01*
X124170804Y-106136797D02*
X124170804Y-105755845D01*
X124170804Y-105755845D02*
X124123185Y-105660607D01*
X124123185Y-105660607D02*
X124075566Y-105612988D01*
X124075566Y-105612988D02*
X123980328Y-105565369D01*
X123980328Y-105565369D02*
X123789852Y-105565369D01*
X123789852Y-105565369D02*
X123694614Y-105612988D01*
X123694614Y-105612988D02*
X123646995Y-105660607D01*
X123646995Y-105660607D02*
X123599376Y-105755845D01*
X123599376Y-105755845D02*
X123599376Y-105993940D01*
X123599376Y-105993940D02*
X123646995Y-106089178D01*
X123646995Y-106089178D02*
X123694614Y-106136797D01*
X123694614Y-106136797D02*
X123789852Y-106184416D01*
X123789852Y-106184416D02*
X123980328Y-106184416D01*
X123980328Y-106184416D02*
X124075566Y-106136797D01*
X124075566Y-106136797D02*
X124123185Y-106089178D01*
X124123185Y-106089178D02*
X124170804Y-105993940D01*
X150176042Y-104965369D02*
X149842709Y-104489178D01*
X149604614Y-104965369D02*
X149604614Y-103965369D01*
X149604614Y-103965369D02*
X149985566Y-103965369D01*
X149985566Y-103965369D02*
X150080804Y-104012988D01*
X150080804Y-104012988D02*
X150128423Y-104060607D01*
X150128423Y-104060607D02*
X150176042Y-104155845D01*
X150176042Y-104155845D02*
X150176042Y-104298702D01*
X150176042Y-104298702D02*
X150128423Y-104393940D01*
X150128423Y-104393940D02*
X150080804Y-104441559D01*
X150080804Y-104441559D02*
X149985566Y-104489178D01*
X149985566Y-104489178D02*
X149604614Y-104489178D01*
X151128423Y-104965369D02*
X150556995Y-104965369D01*
X150842709Y-104965369D02*
X150842709Y-103965369D01*
X150842709Y-103965369D02*
X150747471Y-104108226D01*
X150747471Y-104108226D02*
X150652233Y-104203464D01*
X150652233Y-104203464D02*
X150556995Y-104251083D01*
X151509376Y-104060607D02*
X151556995Y-104012988D01*
X151556995Y-104012988D02*
X151652233Y-103965369D01*
X151652233Y-103965369D02*
X151890328Y-103965369D01*
X151890328Y-103965369D02*
X151985566Y-104012988D01*
X151985566Y-104012988D02*
X152033185Y-104060607D01*
X152033185Y-104060607D02*
X152080804Y-104155845D01*
X152080804Y-104155845D02*
X152080804Y-104251083D01*
X152080804Y-104251083D02*
X152033185Y-104393940D01*
X152033185Y-104393940D02*
X151461757Y-104965369D01*
X151461757Y-104965369D02*
X152080804Y-104965369D01*
X134585566Y-93165369D02*
X134585566Y-93879654D01*
X134585566Y-93879654D02*
X134537947Y-94022511D01*
X134537947Y-94022511D02*
X134442709Y-94117750D01*
X134442709Y-94117750D02*
X134299852Y-94165369D01*
X134299852Y-94165369D02*
X134204614Y-94165369D01*
X135537947Y-93165369D02*
X135061757Y-93165369D01*
X135061757Y-93165369D02*
X135014138Y-93641559D01*
X135014138Y-93641559D02*
X135061757Y-93593940D01*
X135061757Y-93593940D02*
X135156995Y-93546321D01*
X135156995Y-93546321D02*
X135395090Y-93546321D01*
X135395090Y-93546321D02*
X135490328Y-93593940D01*
X135490328Y-93593940D02*
X135537947Y-93641559D01*
X135537947Y-93641559D02*
X135585566Y-93736797D01*
X135585566Y-93736797D02*
X135585566Y-93974892D01*
X135585566Y-93974892D02*
X135537947Y-94070130D01*
X135537947Y-94070130D02*
X135490328Y-94117750D01*
X135490328Y-94117750D02*
X135395090Y-94165369D01*
X135395090Y-94165369D02*
X135156995Y-94165369D01*
X135156995Y-94165369D02*
X135061757Y-94117750D01*
X135061757Y-94117750D02*
X135014138Y-94070130D01*
X106273719Y-74834359D02*
X105797528Y-75167692D01*
X106273719Y-75405787D02*
X105273719Y-75405787D01*
X105273719Y-75405787D02*
X105273719Y-75024835D01*
X105273719Y-75024835D02*
X105321338Y-74929597D01*
X105321338Y-74929597D02*
X105368957Y-74881978D01*
X105368957Y-74881978D02*
X105464195Y-74834359D01*
X105464195Y-74834359D02*
X105607052Y-74834359D01*
X105607052Y-74834359D02*
X105702290Y-74881978D01*
X105702290Y-74881978D02*
X105749909Y-74929597D01*
X105749909Y-74929597D02*
X105797528Y-75024835D01*
X105797528Y-75024835D02*
X105797528Y-75405787D01*
X106368957Y-74643883D02*
X106368957Y-73881978D01*
X105749909Y-73643882D02*
X105749909Y-73310549D01*
X106273719Y-73167692D02*
X106273719Y-73643882D01*
X106273719Y-73643882D02*
X105273719Y-73643882D01*
X105273719Y-73643882D02*
X105273719Y-73167692D01*
X106273719Y-72739120D02*
X105273719Y-72739120D01*
X105273719Y-72739120D02*
X106273719Y-72167692D01*
X106273719Y-72167692D02*
X105273719Y-72167692D01*
X106273719Y-71167692D02*
X106273719Y-71739120D01*
X106273719Y-71453406D02*
X105273719Y-71453406D01*
X105273719Y-71453406D02*
X105416576Y-71548644D01*
X105416576Y-71548644D02*
X105511814Y-71643882D01*
X105511814Y-71643882D02*
X105559433Y-71739120D01*
X151238095Y-115654819D02*
X151238095Y-114654819D01*
X151238095Y-115131009D02*
X151809523Y-115131009D01*
X151809523Y-115654819D02*
X151809523Y-114654819D01*
X152809523Y-115654819D02*
X152238095Y-115654819D01*
X152523809Y-115654819D02*
X152523809Y-114654819D01*
X152523809Y-114654819D02*
X152428571Y-114797676D01*
X152428571Y-114797676D02*
X152333333Y-114892914D01*
X152333333Y-114892914D02*
X152238095Y-114940533D01*
X101238095Y-115654819D02*
X101238095Y-114654819D01*
X101238095Y-115131009D02*
X101809523Y-115131009D01*
X101809523Y-115654819D02*
X101809523Y-114654819D01*
X102238095Y-114750057D02*
X102285714Y-114702438D01*
X102285714Y-114702438D02*
X102380952Y-114654819D01*
X102380952Y-114654819D02*
X102619047Y-114654819D01*
X102619047Y-114654819D02*
X102714285Y-114702438D01*
X102714285Y-114702438D02*
X102761904Y-114750057D01*
X102761904Y-114750057D02*
X102809523Y-114845295D01*
X102809523Y-114845295D02*
X102809523Y-114940533D01*
X102809523Y-114940533D02*
X102761904Y-115083390D01*
X102761904Y-115083390D02*
X102190476Y-115654819D01*
X102190476Y-115654819D02*
X102809523Y-115654819D01*
X101238095Y-60654819D02*
X101238095Y-59654819D01*
X101238095Y-60131009D02*
X101809523Y-60131009D01*
X101809523Y-60654819D02*
X101809523Y-59654819D01*
X102714285Y-59988152D02*
X102714285Y-60654819D01*
X102476190Y-59607200D02*
X102238095Y-60321485D01*
X102238095Y-60321485D02*
X102857142Y-60321485D01*
X151238095Y-60654819D02*
X151238095Y-59654819D01*
X151238095Y-60131009D02*
X151809523Y-60131009D01*
X151809523Y-60654819D02*
X151809523Y-59654819D01*
X152190476Y-59654819D02*
X152809523Y-59654819D01*
X152809523Y-59654819D02*
X152476190Y-60035771D01*
X152476190Y-60035771D02*
X152619047Y-60035771D01*
X152619047Y-60035771D02*
X152714285Y-60083390D01*
X152714285Y-60083390D02*
X152761904Y-60131009D01*
X152761904Y-60131009D02*
X152809523Y-60226247D01*
X152809523Y-60226247D02*
X152809523Y-60464342D01*
X152809523Y-60464342D02*
X152761904Y-60559580D01*
X152761904Y-60559580D02*
X152714285Y-60607200D01*
X152714285Y-60607200D02*
X152619047Y-60654819D01*
X152619047Y-60654819D02*
X152333333Y-60654819D01*
X152333333Y-60654819D02*
X152238095Y-60607200D01*
X152238095Y-60607200D02*
X152190476Y-60559580D01*
G04 #@! TO.C,J12*
D11*
X115600000Y-109100000D02*
X115600000Y-108200000D01*
X115600000Y-109100000D02*
X114800000Y-109100000D01*
X115600000Y-105060000D02*
X115600000Y-105960000D01*
X115600000Y-105060000D02*
X114800000Y-105060000D01*
X107060000Y-109100000D02*
X107860000Y-109100000D01*
X107060000Y-109100000D02*
X107060000Y-108200000D01*
X107060000Y-105060000D02*
X107860000Y-105060000D01*
X107060000Y-105060000D02*
X107060000Y-105960000D01*
X106910000Y-104910000D02*
X107410000Y-104910000D01*
X106910000Y-104910000D02*
X106910000Y-105410000D01*
G04 #@! TO.C,D4*
X115430000Y-115930000D02*
X116430000Y-115930000D01*
G04 #@! TO.C,R23*
X116190000Y-112233641D02*
X116190000Y-111926359D01*
X115430000Y-112233641D02*
X115430000Y-111926359D01*
G04 #@! TO.C,D2*
X108112164Y-110960000D02*
X108327836Y-110960000D01*
X108112164Y-111680000D02*
X108327836Y-111680000D01*
G04 #@! TO.C,U1*
X105833900Y-100910550D02*
X105833900Y-101410550D01*
X105333900Y-100910550D01*
X105833900Y-100910550D01*
G36*
X105833900Y-101410550D02*
G01*
X105333900Y-100910550D01*
X105833900Y-100910550D01*
X105833900Y-101410550D01*
G37*
X124808900Y-82510550D02*
X123808900Y-82510550D01*
X124808900Y-82510550D02*
X124808900Y-84010550D01*
X98958900Y-82510550D02*
X105158900Y-82510550D01*
X124808900Y-100910550D02*
X124808900Y-99410550D01*
X123808900Y-100910550D02*
X124808900Y-100910550D01*
X98958900Y-100910550D02*
X98958900Y-82510550D01*
X98958900Y-100910550D02*
X105158900Y-100910550D01*
G04 #@! TO.C,J7*
X152198900Y-103290550D02*
X150818900Y-103290550D01*
X152198900Y-101910550D02*
X152198900Y-103290550D01*
X152198900Y-100640550D02*
X152198900Y-95450550D01*
X152198900Y-100640550D02*
X149438900Y-100640550D01*
X152198900Y-95450550D02*
X149438900Y-95450550D01*
X149438900Y-100640550D02*
X149438900Y-95450550D01*
G04 #@! TO.C,R2*
X132466400Y-90696909D02*
X132466400Y-91004191D01*
X133226400Y-90696909D02*
X133226400Y-91004191D01*
G04 #@! TO.C,J9*
X141438900Y-100600550D02*
X141438900Y-95410550D01*
X144198900Y-95410550D02*
X141438900Y-95410550D01*
X144198900Y-100600550D02*
X141438900Y-100600550D01*
X144198900Y-100600550D02*
X144198900Y-95410550D01*
X144198900Y-101870550D02*
X144198900Y-103250550D01*
X144198900Y-103250550D02*
X142818900Y-103250550D01*
G04 #@! TO.C,SW1*
D12*
X109318900Y-78110550D02*
G75*
G02*
X111518900Y-78110550I1100000J0D01*
G01*
X111518900Y-78910550D02*
G75*
G02*
X109318900Y-78910550I-1100000J0D01*
G01*
X110818900Y-76410550D02*
X110018900Y-76410550D01*
X112018900Y-77172550D02*
X112018900Y-79848550D01*
X111518900Y-78910550D02*
X111518900Y-78110550D01*
X109318900Y-78910550D02*
X109318900Y-78110550D01*
X108818900Y-79848550D02*
X108818900Y-77172550D01*
X110818900Y-80610550D02*
X110018900Y-80610550D01*
G04 #@! TO.C,C9*
D11*
X107242164Y-103720000D02*
X107457836Y-103720000D01*
X107242164Y-103000000D02*
X107457836Y-103000000D01*
G04 #@! TO.C,TP_3v3*
X150918900Y-71010550D02*
X149518900Y-71010550D01*
X150918900Y-69610550D02*
X150918900Y-71010550D01*
X149518900Y-71010550D02*
X149518900Y-69610550D01*
X149518900Y-69610550D02*
X150918900Y-69610550D01*
G04 #@! TO.C,TP_CS1*
X129918900Y-114043850D02*
X131318900Y-114043850D01*
X129918900Y-115443850D02*
X129918900Y-114043850D01*
X131318900Y-114043850D02*
X131318900Y-115443850D01*
X131318900Y-115443850D02*
X129918900Y-115443850D01*
G04 #@! TO.C,TP_CANR1*
X120318900Y-75210550D02*
X120318900Y-76610550D01*
X118918900Y-75210550D02*
X120318900Y-75210550D01*
X120318900Y-76610550D02*
X118918900Y-76610550D01*
X118918900Y-76610550D02*
X118918900Y-75210550D01*
G04 #@! TO.C,TP_5v1*
X145118900Y-74610550D02*
X143718900Y-74610550D01*
X145118900Y-73210550D02*
X145118900Y-74610550D01*
X143718900Y-74610550D02*
X143718900Y-73210550D01*
X143718900Y-73210550D02*
X145118900Y-73210550D01*
G04 #@! TO.C,C2*
X126436400Y-87629298D02*
X126436400Y-89051802D01*
X128256400Y-87629298D02*
X128256400Y-89051802D01*
G04 #@! TO.C,R_Boot1*
X110398900Y-74156909D02*
X110398900Y-74464191D01*
X109638900Y-74156909D02*
X109638900Y-74464191D01*
G04 #@! TO.C,U4*
D13*
X136598050Y-91361750D02*
X140839850Y-91361750D01*
X140839850Y-86129350D02*
X136598050Y-86129350D01*
G04 #@! TO.C,D8*
D11*
X144606400Y-81190550D02*
X139096400Y-81190550D01*
X144606400Y-84490550D02*
X139096400Y-84490550D01*
X144606400Y-84490550D02*
X144606400Y-81190550D01*
G04 #@! TO.C,C1*
X128936400Y-87629298D02*
X128936400Y-89051802D01*
X130756400Y-87629298D02*
X130756400Y-89051802D01*
G04 #@! TO.C,R5*
X149976400Y-88696909D02*
X149976400Y-89004191D01*
X149216400Y-88696909D02*
X149216400Y-89004191D01*
G04 #@! TO.C,D3*
X110718900Y-72770550D02*
X111718900Y-72770550D01*
G04 #@! TO.C,C10*
X107407836Y-101830000D02*
X107192164Y-101830000D01*
X107407836Y-102550000D02*
X107192164Y-102550000D01*
G04 #@! TO.C,C7*
X140730152Y-79000550D02*
X139307648Y-79000550D01*
X140730152Y-80820550D02*
X139307648Y-80820550D01*
G04 #@! TO.C,U6*
X111967500Y-111510000D02*
X111967500Y-111230000D01*
X112247500Y-111510000D01*
X111967500Y-111510000D01*
G36*
X112247500Y-111510000D02*
G01*
X111967500Y-111510000D01*
X111967500Y-111230000D01*
X112247500Y-111510000D01*
G37*
X109987500Y-112930000D02*
X109987500Y-111630000D01*
X111967500Y-112930000D02*
X111967500Y-111880000D01*
G04 #@! TO.C,J4*
X137538900Y-100600550D02*
X137538900Y-95410550D01*
X140298900Y-95410550D02*
X137538900Y-95410550D01*
X140298900Y-100600550D02*
X137538900Y-100600550D01*
X140298900Y-100600550D02*
X140298900Y-95410550D01*
X140298900Y-101870550D02*
X140298900Y-103250550D01*
X140298900Y-103250550D02*
X138918900Y-103250550D01*
G04 #@! TO.C,C6*
X140730152Y-76600550D02*
X139307648Y-76600550D01*
X140730152Y-78420550D02*
X139307648Y-78420550D01*
G04 #@! TO.C,J3*
X146570000Y-71630000D02*
X141150000Y-71630000D01*
X141150000Y-62910000D02*
X141150000Y-71630000D01*
X146570000Y-62910000D02*
X146570000Y-71630000D01*
X142450000Y-61210000D02*
X141150000Y-62910000D01*
X145270000Y-61210000D02*
X146570000Y-62910000D01*
X145270000Y-61210000D02*
X142450000Y-61210000D01*
G04 #@! TO.C,3v3/2*
X120118900Y-70410550D02*
X120118900Y-71810550D01*
X118718900Y-70410550D02*
X120118900Y-70410550D01*
X120118900Y-71810550D02*
X118718900Y-71810550D01*
X118718900Y-71810550D02*
X118718900Y-70410550D01*
G04 #@! TO.C,J2*
X105983900Y-64295550D02*
X105983900Y-65745550D01*
X105983900Y-65745550D02*
X107783900Y-65745550D01*
X112653900Y-65745550D02*
X112653900Y-66735550D01*
X113183900Y-61475550D02*
X107253900Y-61475550D01*
X114453900Y-64295550D02*
X114453900Y-65745550D01*
X114453900Y-65745550D02*
X112653900Y-65745550D01*
G04 #@! TO.C,D5*
X142908900Y-79160550D02*
X148418900Y-79160550D01*
X142908900Y-75860550D02*
X148418900Y-75860550D01*
X142908900Y-75860550D02*
X142908900Y-79160550D01*
G04 #@! TO.C,J1*
X124953900Y-65745550D02*
X123153900Y-65745550D01*
X124953900Y-64295550D02*
X124953900Y-65745550D01*
X123683900Y-61475550D02*
X117753900Y-61475550D01*
X123153900Y-65745550D02*
X123153900Y-66735550D01*
X116483900Y-65745550D02*
X118283900Y-65745550D01*
X116483900Y-64295550D02*
X116483900Y-65745550D01*
G04 #@! TO.C,C8*
X146456400Y-88968386D02*
X146456400Y-88752714D01*
X145736400Y-88968386D02*
X145736400Y-88752714D01*
G04 #@! TO.C,C4*
X136456400Y-85428386D02*
X136456400Y-85212714D01*
X135736400Y-85428386D02*
X135736400Y-85212714D01*
G04 #@! TO.C,C5*
X143456400Y-88968386D02*
X143456400Y-88752714D01*
X142736400Y-88968386D02*
X142736400Y-88752714D01*
D14*
G04 #@! TO.C,U2*
G36*
X128955800Y-116934350D02*
G01*
X128701800Y-116934350D01*
X128701800Y-116553350D01*
X128955800Y-116553350D01*
X128955800Y-116934350D01*
G37*
D13*
X128676400Y-118416313D02*
X128676400Y-118138283D01*
X128676400Y-115849543D02*
X128676400Y-115571513D01*
X128676400Y-115571513D02*
X127894307Y-115571513D01*
X127894307Y-118416313D02*
X128676400Y-118416313D01*
X126105693Y-115571513D02*
X125323600Y-115571513D01*
X125323600Y-118416313D02*
X126105693Y-118416313D01*
X125323600Y-118138283D02*
X125323600Y-118416313D01*
X125323600Y-115571513D02*
X125323600Y-115849543D01*
G04 #@! TO.C,F1*
D11*
X128310148Y-78000550D02*
X131082652Y-78000550D01*
X128310148Y-81420550D02*
X131082652Y-81420550D01*
G04 #@! TO.C,R18*
X123062541Y-103530550D02*
X122755259Y-103530550D01*
X123062541Y-104290550D02*
X122755259Y-104290550D01*
G04 #@! TO.C,SW2*
D12*
X108118900Y-78910550D02*
G75*
G02*
X105918900Y-78910550I-1100000J0D01*
G01*
X105918900Y-78110550D02*
G75*
G02*
X108118900Y-78110550I1100000J0D01*
G01*
X106618900Y-80610550D02*
X107418900Y-80610550D01*
X105418900Y-79848550D02*
X105418900Y-77172550D01*
X105918900Y-78110550D02*
X105918900Y-78910550D01*
X108118900Y-78110550D02*
X108118900Y-78910550D01*
X108618900Y-77172550D02*
X108618900Y-79848550D01*
X106618900Y-76410550D02*
X107418900Y-76410550D01*
G04 #@! TO.C,D_TVS1*
D11*
X133678900Y-76985550D02*
X133678900Y-72685550D01*
X133678900Y-76985550D02*
X127868900Y-76985550D01*
X133678900Y-72685550D02*
X127868900Y-72685550D01*
G04 #@! TO.C,U5*
X147168900Y-72400550D02*
X146928900Y-72070550D01*
X147408900Y-72070550D01*
X147168900Y-72400550D01*
G36*
X147168900Y-72400550D02*
G01*
X146928900Y-72070550D01*
X147408900Y-72070550D01*
X147168900Y-72400550D01*
G37*
X149528900Y-75470550D02*
X147708900Y-75470550D01*
X149528900Y-75420550D02*
X149528900Y-75470550D01*
X149528900Y-73520550D02*
X149528900Y-74300550D01*
X149528900Y-72350550D02*
X149528900Y-72400550D01*
X147708900Y-75470550D02*
X147708900Y-75420550D01*
X147708900Y-72400550D02*
X147708900Y-72350550D01*
X147708900Y-72350550D02*
X149528900Y-72350550D01*
G04 #@! TO.C,R14*
X142685259Y-105490550D02*
X142992541Y-105490550D01*
X142685259Y-106250550D02*
X142992541Y-106250550D01*
G04 #@! TO.C,D7*
X126048900Y-82060550D02*
X126048900Y-85360550D01*
X126048900Y-82060550D02*
X131558900Y-82060550D01*
X126048900Y-85360550D02*
X131558900Y-85360550D01*
G04 #@! TO.C,R16*
X134745259Y-105730550D02*
X135052541Y-105730550D01*
X134745259Y-106490550D02*
X135052541Y-106490550D01*
G04 #@! TO.C,C13*
X126711064Y-119383850D02*
X126926736Y-119383850D01*
X126711064Y-120103850D02*
X126926736Y-120103850D01*
G04 #@! TO.C,D6*
X125368900Y-74545550D02*
X125368900Y-69035550D01*
X122068900Y-74545550D02*
X122068900Y-69035550D01*
X122068900Y-74545550D02*
X125368900Y-74545550D01*
G04 #@! TO.C,R9*
X116572541Y-70755550D02*
X116265259Y-70755550D01*
X116572541Y-71515550D02*
X116265259Y-71515550D01*
G04 #@! TO.C,U3*
D13*
X117847500Y-79216300D02*
X117847500Y-74974500D01*
X112589700Y-74974500D02*
X112589700Y-79216300D01*
G04 #@! TO.C,C12*
D11*
X128791064Y-119383850D02*
X129006736Y-119383850D01*
X128791064Y-120103850D02*
X129006736Y-120103850D01*
G04 #@! TO.C,R7*
X113700000Y-111466359D02*
X113700000Y-111773641D01*
X114460000Y-111466359D02*
X114460000Y-111773641D01*
G04 #@! TO.C,L1*
X145486400Y-80230550D02*
X149706400Y-80230550D01*
X149706400Y-84450550D02*
X145486400Y-84450550D01*
G04 #@! TO.C,R15*
X138775259Y-105730550D02*
X139082541Y-105730550D01*
X138775259Y-106490550D02*
X139082541Y-106490550D01*
G04 #@! TO.C,J13*
X139028900Y-61200550D02*
X136208900Y-61200550D01*
X139028900Y-61200550D02*
X140328900Y-62900550D01*
X136208900Y-61200550D02*
X134908900Y-62900550D01*
X140328900Y-62900550D02*
X140328900Y-71620550D01*
X134908900Y-62900550D02*
X134908900Y-71620550D01*
X140328900Y-71620550D02*
X134908900Y-71620550D01*
G04 #@! TO.C,J14*
X132780000Y-61190000D02*
X129960000Y-61190000D01*
X132780000Y-61190000D02*
X134080000Y-62890000D01*
X129960000Y-61190000D02*
X128660000Y-62890000D01*
X134080000Y-62890000D02*
X134080000Y-71610000D01*
X128660000Y-62890000D02*
X128660000Y-71610000D01*
X134080000Y-71610000D02*
X128660000Y-71610000D01*
G04 #@! TO.C,R8*
X113170000Y-111586359D02*
X113170000Y-111893641D01*
X112410000Y-111586359D02*
X112410000Y-111893641D01*
G04 #@! TO.C,J6*
X129538900Y-100600550D02*
X129538900Y-95410550D01*
X132298900Y-95410550D02*
X129538900Y-95410550D01*
X132298900Y-100600550D02*
X129538900Y-100600550D01*
X132298900Y-100600550D02*
X132298900Y-95410550D01*
X132298900Y-101870550D02*
X132298900Y-103250550D01*
X132298900Y-103250550D02*
X130918900Y-103250550D01*
G04 #@! TO.C,J8*
X145438900Y-100640550D02*
X145438900Y-95450550D01*
X148198900Y-95450550D02*
X145438900Y-95450550D01*
X148198900Y-100640550D02*
X145438900Y-100640550D01*
X148198900Y-100640550D02*
X148198900Y-95450550D01*
X148198900Y-101910550D02*
X148198900Y-103290550D01*
X148198900Y-103290550D02*
X146818900Y-103290550D01*
G04 #@! TO.C,R1*
X132466400Y-88186909D02*
X132466400Y-88494191D01*
X133226400Y-88186909D02*
X133226400Y-88494191D01*
G04 #@! TO.C,R22*
X112058900Y-71246909D02*
X112058900Y-71554191D01*
X112818900Y-71246909D02*
X112818900Y-71554191D01*
G04 #@! TO.C,R4*
X144442759Y-88980550D02*
X144750041Y-88980550D01*
X144442759Y-89740550D02*
X144750041Y-89740550D01*
G04 #@! TO.C,R6*
X147976400Y-88994191D02*
X147976400Y-88686909D01*
X147216400Y-88994191D02*
X147216400Y-88686909D01*
G04 #@! TO.C,R17*
X130665259Y-106490550D02*
X130972541Y-106490550D01*
X130665259Y-105730550D02*
X130972541Y-105730550D01*
G04 #@! TO.C,R3*
X134476400Y-90686909D02*
X134476400Y-90994191D01*
X133716400Y-90686909D02*
X133716400Y-90994191D01*
G04 #@! TO.C,R13*
X146675259Y-105490550D02*
X146982541Y-105490550D01*
X146675259Y-106250550D02*
X146982541Y-106250550D01*
G04 #@! TO.C,TP_INT1*
X122518900Y-113843850D02*
X123918900Y-113843850D01*
X122518900Y-115243850D02*
X122518900Y-113843850D01*
X123918900Y-113843850D02*
X123918900Y-115243850D01*
X123918900Y-115243850D02*
X122518900Y-115243850D01*
G04 #@! TO.C,TP_SCL1*
X129918900Y-116043850D02*
X131318900Y-116043850D01*
X129918900Y-117443850D02*
X129918900Y-116043850D01*
X131318900Y-116043850D02*
X131318900Y-117443850D01*
X131318900Y-117443850D02*
X129918900Y-117443850D01*
G04 #@! TO.C,TP_GND1*
X134318900Y-83010550D02*
X134318900Y-81610550D01*
X135718900Y-83010550D02*
X134318900Y-83010550D01*
X134318900Y-81610550D02*
X135718900Y-81610550D01*
X135718900Y-81610550D02*
X135718900Y-83010550D01*
G04 #@! TO.C,TP_INT2*
X122518900Y-115843850D02*
X123918900Y-115843850D01*
X122518900Y-117243850D02*
X122518900Y-115843850D01*
X123918900Y-115843850D02*
X123918900Y-117243850D01*
X123918900Y-117243850D02*
X122518900Y-117243850D01*
G04 #@! TO.C,TP_SDA1*
X132118900Y-116043850D02*
X133518900Y-116043850D01*
X132118900Y-117443850D02*
X132118900Y-116043850D01*
X133518900Y-116043850D02*
X133518900Y-117443850D01*
X133518900Y-117443850D02*
X132118900Y-117443850D01*
G04 #@! TO.C,TP_CAND1*
X120318900Y-78810550D02*
X120318900Y-80210550D01*
X118918900Y-78810550D02*
X120318900Y-78810550D01*
X120318900Y-80210550D02*
X118918900Y-80210550D01*
X118918900Y-80210550D02*
X118918900Y-78810550D01*
G04 #@! TO.C,R19*
X122755259Y-105290550D02*
X123062541Y-105290550D01*
X122755259Y-104530550D02*
X123062541Y-104530550D01*
G04 #@! TO.C,R12*
X150675259Y-105490550D02*
X150982541Y-105490550D01*
X150675259Y-106250550D02*
X150982541Y-106250550D01*
G04 #@! TO.C,J5*
X133538900Y-100600550D02*
X133538900Y-95410550D01*
X136298900Y-95410550D02*
X133538900Y-95410550D01*
X136298900Y-100600550D02*
X133538900Y-100600550D01*
X136298900Y-100600550D02*
X136298900Y-95410550D01*
X136298900Y-101870550D02*
X136298900Y-103250550D01*
X136298900Y-103250550D02*
X134918900Y-103250550D01*
G04 #@! TO.C,R_EN1*
X107398900Y-74264191D02*
X107398900Y-73956909D01*
X106638900Y-74264191D02*
X106638900Y-73956909D01*
G04 #@! TO.C,J11*
D15*
X120183900Y-102335550D02*
X120183900Y-103097550D01*
X119421900Y-102335550D02*
X120183900Y-102335550D01*
X116881900Y-103605550D02*
X116881900Y-107415550D01*
X120183900Y-108685550D02*
X120183900Y-107923550D01*
X119421900Y-108685550D02*
X120183900Y-108685550D01*
G04 #@! TD*
%LPC*%
D16*
G04 #@! TO.C,J12*
X113730000Y-109230000D03*
X113730000Y-104930000D03*
X108930000Y-109230000D03*
X108930000Y-104930000D03*
D17*
X108550000Y-107840000D03*
X109340000Y-107840000D03*
X110130000Y-107840000D03*
X110920000Y-107840000D03*
X111710000Y-107840000D03*
X112500000Y-107840000D03*
X113290000Y-107840000D03*
X114080000Y-107840000D03*
X114080000Y-106320000D03*
X113290000Y-106320000D03*
X112500000Y-106320000D03*
X111710000Y-106320000D03*
X110920000Y-106320000D03*
X110130000Y-106320000D03*
X109340000Y-106320000D03*
X108550000Y-106320000D03*
D18*
X115080000Y-107080000D03*
D19*
X107580000Y-107080000D03*
G04 #@! TD*
D20*
G04 #@! TO.C,D4*
X115930000Y-115317500D03*
X115930000Y-113742500D03*
G04 #@! TD*
D21*
G04 #@! TO.C,R23*
X115810000Y-111570000D03*
X115810000Y-112590000D03*
G04 #@! TD*
D22*
G04 #@! TO.C,D2*
X107740000Y-111320000D03*
X108700000Y-111320000D03*
G04 #@! TD*
D23*
G04 #@! TO.C,U1*
X115018900Y-91810550D03*
X113618900Y-91810550D03*
X115718900Y-92510550D03*
X114318900Y-92510550D03*
X112918900Y-92510550D03*
X115018900Y-93210550D03*
D24*
X114318900Y-93210550D03*
D23*
X113618900Y-93210550D03*
X115718900Y-93910550D03*
X114318900Y-93910550D03*
X112918900Y-93910550D03*
X115018900Y-94610550D03*
X113618900Y-94610550D03*
D25*
X106598900Y-82960550D03*
X107868900Y-82960550D03*
X109138900Y-82960550D03*
X110408900Y-82960550D03*
X111678900Y-82960550D03*
X112948900Y-82960550D03*
X114218900Y-82960550D03*
X115488900Y-82960550D03*
X116758900Y-82960550D03*
X118028900Y-82960550D03*
X119298900Y-82960550D03*
X120568900Y-82960550D03*
X121838900Y-82960550D03*
X123108900Y-82960550D03*
D26*
X124358900Y-84725550D03*
X124358900Y-85995550D03*
X124358900Y-87265550D03*
X124358900Y-88535550D03*
X124358900Y-89805550D03*
X124358900Y-91075550D03*
X124358900Y-92345550D03*
X124358900Y-93615550D03*
X124358900Y-94885550D03*
X124358900Y-96155550D03*
X124358900Y-97425550D03*
X124358900Y-98695550D03*
D25*
X123108900Y-100460550D03*
X121838900Y-100460550D03*
X120568900Y-100460550D03*
X119298900Y-100460550D03*
X118028900Y-100460550D03*
X116758900Y-100460550D03*
X115488900Y-100460550D03*
X114218900Y-100460550D03*
X112948900Y-100460550D03*
X111678900Y-100460550D03*
X110408900Y-100460550D03*
X109138900Y-100460550D03*
X107868900Y-100460550D03*
X106598900Y-100460550D03*
G04 #@! TD*
D27*
G04 #@! TO.C,J7*
X150818900Y-101910550D03*
D28*
X150818900Y-99370550D03*
X150818900Y-96830550D03*
G04 #@! TD*
D29*
G04 #@! TO.C,R2*
X132846400Y-91360550D03*
X132846400Y-90340550D03*
G04 #@! TD*
D28*
G04 #@! TO.C,J9*
X142818900Y-96790550D03*
X142818900Y-99330550D03*
D27*
X142818900Y-101870550D03*
G04 #@! TD*
D30*
G04 #@! TO.C,SW1*
X111493900Y-76310550D03*
X111543900Y-80710550D03*
X109343900Y-76310550D03*
X109343900Y-80710550D03*
G04 #@! TD*
D22*
G04 #@! TO.C,C9*
X107830000Y-103360000D03*
X106870000Y-103360000D03*
G04 #@! TD*
D31*
G04 #@! TO.C,TP_3v3*
X150218900Y-70310550D03*
G04 #@! TD*
G04 #@! TO.C,TP_CS1*
X130618900Y-114743850D03*
G04 #@! TD*
G04 #@! TO.C,TP_CANR1*
X119618900Y-75910550D03*
G04 #@! TD*
G04 #@! TO.C,TP_5v1*
X144418900Y-73910550D03*
G04 #@! TD*
D32*
G04 #@! TO.C,C2*
X127346400Y-89815550D03*
X127346400Y-86865550D03*
G04 #@! TD*
D29*
G04 #@! TO.C,R_Boot1*
X110018900Y-73800550D03*
X110018900Y-74820550D03*
G04 #@! TD*
D33*
G04 #@! TO.C,U4*
X136096400Y-86840550D03*
X136096400Y-88110550D03*
X136096400Y-89380550D03*
X136096400Y-90650550D03*
X141341500Y-90650550D03*
X141341500Y-89380550D03*
X141341500Y-88110550D03*
X141341500Y-86840550D03*
D34*
X138718950Y-88745550D03*
G04 #@! TD*
D35*
G04 #@! TO.C,D8*
X139096400Y-82840550D03*
X143096400Y-82840550D03*
G04 #@! TD*
D32*
G04 #@! TO.C,C1*
X129846400Y-89815550D03*
X129846400Y-86865550D03*
G04 #@! TD*
D29*
G04 #@! TO.C,R5*
X149596400Y-88340550D03*
X149596400Y-89360550D03*
G04 #@! TD*
D20*
G04 #@! TO.C,D3*
X111218900Y-70583050D03*
X111218900Y-72158050D03*
G04 #@! TD*
D36*
G04 #@! TO.C,C10*
X106820000Y-102190000D03*
X107780000Y-102190000D03*
G04 #@! TD*
D37*
G04 #@! TO.C,C7*
X138543900Y-79910550D03*
X141493900Y-79910550D03*
G04 #@! TD*
D38*
G04 #@! TO.C,U6*
X111515000Y-113130000D03*
D39*
X110977500Y-113205000D03*
D38*
X110440000Y-113130000D03*
X110440000Y-111430000D03*
D39*
X110977500Y-111355000D03*
D38*
X111515000Y-111430000D03*
G04 #@! TD*
D28*
G04 #@! TO.C,J4*
X138918900Y-96790550D03*
X138918900Y-99330550D03*
D27*
X138918900Y-101870550D03*
G04 #@! TD*
D37*
G04 #@! TO.C,C6*
X138543900Y-77510550D03*
X141493900Y-77510550D03*
G04 #@! TD*
D40*
G04 #@! TO.C,J3*
X143860000Y-68920000D03*
D41*
X143860000Y-63920000D03*
G04 #@! TD*
D31*
G04 #@! TO.C,3v3/2*
X119418900Y-71110550D03*
G04 #@! TD*
D42*
G04 #@! TO.C,J2*
X106493900Y-62685550D03*
X113943900Y-62685550D03*
D43*
X108343900Y-65885550D03*
X109593900Y-65885550D03*
X110843900Y-65885550D03*
X112093900Y-65885550D03*
G04 #@! TD*
D44*
G04 #@! TO.C,D5*
X148418900Y-77510550D03*
X144418900Y-77510550D03*
G04 #@! TD*
D43*
G04 #@! TO.C,J1*
X122593900Y-65885550D03*
X121343900Y-65885550D03*
X120093900Y-65885550D03*
X118843900Y-65885550D03*
D42*
X124443900Y-62685550D03*
X116993900Y-62685550D03*
G04 #@! TD*
D45*
G04 #@! TO.C,C8*
X146096400Y-88380550D03*
X146096400Y-89340550D03*
G04 #@! TD*
G04 #@! TO.C,C4*
X136096400Y-84840550D03*
X136096400Y-85800550D03*
G04 #@! TD*
G04 #@! TO.C,C5*
X143096400Y-88380550D03*
X143096400Y-89340550D03*
G04 #@! TD*
D46*
G04 #@! TO.C,U2*
X126499874Y-116066813D03*
X127000000Y-116066813D03*
X127500126Y-116066813D03*
D47*
X128181100Y-116243724D03*
X128181100Y-116743850D03*
X128181100Y-117243976D03*
X128181100Y-117744102D03*
D46*
X127500126Y-117921013D03*
X127000000Y-117921013D03*
X126499874Y-117921013D03*
D47*
X125818900Y-117744102D03*
X125818900Y-117243976D03*
X125818900Y-116743850D03*
X125818900Y-116243724D03*
G04 #@! TD*
D48*
G04 #@! TO.C,F1*
X127558900Y-79710550D03*
X131833900Y-79710550D03*
G04 #@! TD*
D49*
G04 #@! TO.C,R18*
X122398900Y-103910550D03*
X123418900Y-103910550D03*
G04 #@! TD*
D30*
G04 #@! TO.C,SW2*
X105943900Y-80710550D03*
X105893900Y-76310550D03*
X108093900Y-80710550D03*
X108093900Y-76310550D03*
G04 #@! TD*
D50*
G04 #@! TO.C,D_TVS1*
X132168900Y-74835550D03*
X127868900Y-74835550D03*
G04 #@! TD*
D51*
G04 #@! TO.C,U5*
X149756400Y-72960550D03*
X149756400Y-74860550D03*
X147481400Y-74860550D03*
X147481400Y-73910550D03*
X147481400Y-72960550D03*
G04 #@! TD*
D52*
G04 #@! TO.C,R14*
X142328900Y-105870550D03*
X143348900Y-105870550D03*
G04 #@! TD*
D44*
G04 #@! TO.C,D7*
X127558900Y-83710550D03*
X131558900Y-83710550D03*
G04 #@! TD*
D52*
G04 #@! TO.C,R16*
X134388900Y-106110550D03*
X135408900Y-106110550D03*
G04 #@! TD*
D22*
G04 #@! TO.C,C13*
X126338900Y-119743850D03*
X127298900Y-119743850D03*
G04 #@! TD*
D53*
G04 #@! TO.C,D6*
X123718900Y-69035550D03*
X123718900Y-73035550D03*
G04 #@! TD*
D49*
G04 #@! TO.C,R9*
X115908900Y-71135550D03*
X116928900Y-71135550D03*
G04 #@! TD*
D54*
G04 #@! TO.C,U3*
X113313600Y-79717950D03*
X114583600Y-79717950D03*
X115853600Y-79717950D03*
X117123600Y-79717950D03*
X117123600Y-74472850D03*
X115853600Y-74472850D03*
X114583600Y-74472850D03*
X113313600Y-74472850D03*
G04 #@! TD*
D22*
G04 #@! TO.C,C12*
X128418900Y-119743850D03*
X129378900Y-119743850D03*
G04 #@! TD*
D29*
G04 #@! TO.C,R7*
X114080000Y-112130000D03*
X114080000Y-111110000D03*
G04 #@! TD*
D55*
G04 #@! TO.C,L1*
X146096400Y-82340550D03*
X149096400Y-82340550D03*
G04 #@! TD*
D52*
G04 #@! TO.C,R15*
X138418900Y-106110550D03*
X139438900Y-106110550D03*
G04 #@! TD*
D56*
G04 #@! TO.C,J13*
X137618900Y-63910550D03*
D57*
X137618900Y-68910550D03*
G04 #@! TD*
D56*
G04 #@! TO.C,J14*
X131370000Y-63900000D03*
D57*
X131370000Y-68900000D03*
G04 #@! TD*
D29*
G04 #@! TO.C,R8*
X112790000Y-111230000D03*
X112790000Y-112250000D03*
G04 #@! TD*
D28*
G04 #@! TO.C,J6*
X130918900Y-96790550D03*
X130918900Y-99330550D03*
D27*
X130918900Y-101870550D03*
G04 #@! TD*
D28*
G04 #@! TO.C,J8*
X146818900Y-96830550D03*
X146818900Y-99370550D03*
D27*
X146818900Y-101910550D03*
G04 #@! TD*
D29*
G04 #@! TO.C,R1*
X132846400Y-88850550D03*
X132846400Y-87830550D03*
G04 #@! TD*
G04 #@! TO.C,R22*
X112438900Y-71910550D03*
X112438900Y-70890550D03*
G04 #@! TD*
D52*
G04 #@! TO.C,R4*
X144086400Y-89360550D03*
X145106400Y-89360550D03*
G04 #@! TD*
D21*
G04 #@! TO.C,R6*
X147596400Y-88330550D03*
X147596400Y-89350550D03*
G04 #@! TD*
D52*
G04 #@! TO.C,R17*
X131328900Y-106110550D03*
X130308900Y-106110550D03*
G04 #@! TD*
D29*
G04 #@! TO.C,R3*
X134096400Y-90330550D03*
X134096400Y-91350550D03*
G04 #@! TD*
D52*
G04 #@! TO.C,R13*
X146318900Y-105870550D03*
X147338900Y-105870550D03*
G04 #@! TD*
D31*
G04 #@! TO.C,TP_INT1*
X123218900Y-114543850D03*
G04 #@! TD*
G04 #@! TO.C,TP_SCL1*
X130618900Y-116743850D03*
G04 #@! TD*
G04 #@! TO.C,TP_GND1*
X135018900Y-82310550D03*
G04 #@! TD*
G04 #@! TO.C,TP_INT2*
X123218900Y-116543850D03*
G04 #@! TD*
G04 #@! TO.C,TP_SDA1*
X132818900Y-116743850D03*
G04 #@! TD*
G04 #@! TO.C,TP_CAND1*
X119618900Y-79510550D03*
G04 #@! TD*
D52*
G04 #@! TO.C,R19*
X123418900Y-104910550D03*
X122398900Y-104910550D03*
G04 #@! TD*
G04 #@! TO.C,R12*
X150318900Y-105870550D03*
X151338900Y-105870550D03*
G04 #@! TD*
D28*
G04 #@! TO.C,J5*
X134918900Y-96790550D03*
X134918900Y-99330550D03*
D27*
X134918900Y-101870550D03*
G04 #@! TD*
D21*
G04 #@! TO.C,R_EN1*
X107018900Y-73600550D03*
X107018900Y-74620550D03*
G04 #@! TD*
D58*
G04 #@! TO.C,J11*
X117618900Y-102710550D03*
X117618900Y-108310550D03*
D59*
X120043900Y-104010550D03*
X120043900Y-105010550D03*
X120043900Y-106010550D03*
X120043900Y-107010550D03*
G04 #@! TD*
D60*
G04 #@! TO.C,H1*
X152000000Y-119000000D03*
G04 #@! TD*
G04 #@! TO.C,H2*
X102000000Y-119000000D03*
G04 #@! TD*
G04 #@! TO.C,H4*
X102000000Y-64000000D03*
G04 #@! TD*
G04 #@! TO.C,H3*
X152000000Y-64000000D03*
G04 #@! TD*
%LPD*%
M02*
