%TF.GenerationSoftware,KiCad,Pcbnew,10.0.3*%
%TF.CreationDate,2026-05-26T11:20:20-04:00*%
%TF.ProjectId,Esp32 Can+IMU,45737033-3220-4436-916e-2b494d552e6b,rev?*%
%TF.SameCoordinates,Original*%
%TF.FileFunction,Drillmap*%
%TF.FilePolarity,Positive*%
%FSLAX45Y45*%
G04 Gerber Fmt 4.5, Leading zero omitted, Abs format (unit mm)*
G04 Created by KiCad (PCBNEW 10.0.3) date 2026-05-26 11:20:20*
%MOMM*%
%LPD*%
G01*
G04 APERTURE LIST*
%ADD10C,0.050000*%
%ADD11C,0.200000*%
%ADD12C,0.100000*%
G04 APERTURE END LIST*
D10*
X10049278Y-6771000D02*
G75*
G02*
X9849280Y-6570723I2J200000D01*
G01*
X9849723Y-6249723D02*
G75*
G02*
X10049723Y-6050003I199997J-277D01*
G01*
X10311000Y-6771000D02*
G75*
G02*
X10511000Y-6971000I0J-200000D01*
G01*
X9850000Y-11771000D02*
G75*
G02*
X10050000Y-11571000I200000J0D01*
G01*
X10511000Y-11371000D02*
G75*
G02*
X10311000Y-11571000I-200000J0D01*
G01*
X10050000Y-12250000D02*
G75*
G02*
X9850000Y-12050000I0J200000D01*
G01*
X15350000Y-6050000D02*
G75*
G02*
X15550000Y-6250000I0J-200000D01*
G01*
X15550000Y-12050000D02*
G75*
G02*
X15350000Y-12250000I-200000J0D01*
G01*
X15550000Y-12050000D02*
X15550000Y-6250000D01*
X15350000Y-12250000D02*
X10050000Y-12250000D01*
X9850000Y-11771000D02*
X9850000Y-12050000D01*
X15350000Y-6050000D02*
X10049723Y-6050000D01*
X10311000Y-11571000D02*
X10050000Y-11571000D01*
X10511000Y-6971000D02*
X10511000Y-11371000D01*
X10311000Y-6771000D02*
X10049278Y-6771000D01*
X9849278Y-6570723D02*
X9849723Y-6249723D01*
D11*
D12*
X11479000Y-10679000D02*
X11537000Y-10737000D01*
X11537000Y-10679000D02*
X11479000Y-10737000D01*
X11487000Y-10737000D02*
X11529000Y-10737000D01*
X11529000Y-10679000D02*
G75*
G02*
X11529000Y-10737000I0J-29000D01*
G01*
X11529000Y-10679000D02*
X11487000Y-10679000D01*
X11487000Y-10679000D02*
G75*
G03*
X11487000Y-10737000I0J-29000D01*
G01*
X10791000Y-10708000D02*
G75*
G02*
X10725000Y-10708000I-33000J0D01*
G01*
X10725000Y-10708000D02*
G75*
G02*
X10791000Y-10708000I33000J0D01*
G01*
D11*
X10107555Y-12563984D02*
X10107555Y-12363984D01*
X10107555Y-12363984D02*
X10155174Y-12363984D01*
X10155174Y-12363984D02*
X10183745Y-12373508D01*
X10183745Y-12373508D02*
X10202793Y-12392555D01*
X10202793Y-12392555D02*
X10212317Y-12411603D01*
X10212317Y-12411603D02*
X10221840Y-12449698D01*
X10221840Y-12449698D02*
X10221840Y-12478269D01*
X10221840Y-12478269D02*
X10212317Y-12516365D01*
X10212317Y-12516365D02*
X10202793Y-12535412D01*
X10202793Y-12535412D02*
X10183745Y-12554460D01*
X10183745Y-12554460D02*
X10155174Y-12563984D01*
X10155174Y-12563984D02*
X10107555Y-12563984D01*
X10307555Y-12563984D02*
X10307555Y-12430650D01*
X10307555Y-12468746D02*
X10317078Y-12449698D01*
X10317078Y-12449698D02*
X10326602Y-12440174D01*
X10326602Y-12440174D02*
X10345650Y-12430650D01*
X10345650Y-12430650D02*
X10364698Y-12430650D01*
X10431364Y-12563984D02*
X10431364Y-12430650D01*
X10431364Y-12363984D02*
X10421840Y-12373508D01*
X10421840Y-12373508D02*
X10431364Y-12383031D01*
X10431364Y-12383031D02*
X10440888Y-12373508D01*
X10440888Y-12373508D02*
X10431364Y-12363984D01*
X10431364Y-12363984D02*
X10431364Y-12383031D01*
X10555174Y-12563984D02*
X10536126Y-12554460D01*
X10536126Y-12554460D02*
X10526602Y-12535412D01*
X10526602Y-12535412D02*
X10526602Y-12363984D01*
X10659936Y-12563984D02*
X10640888Y-12554460D01*
X10640888Y-12554460D02*
X10631364Y-12535412D01*
X10631364Y-12535412D02*
X10631364Y-12363984D01*
X10888507Y-12563984D02*
X10888507Y-12363984D01*
X10888507Y-12363984D02*
X10955174Y-12506841D01*
X10955174Y-12506841D02*
X11021840Y-12363984D01*
X11021840Y-12363984D02*
X11021840Y-12563984D01*
X11202793Y-12563984D02*
X11202793Y-12459222D01*
X11202793Y-12459222D02*
X11193269Y-12440174D01*
X11193269Y-12440174D02*
X11174221Y-12430650D01*
X11174221Y-12430650D02*
X11136126Y-12430650D01*
X11136126Y-12430650D02*
X11117078Y-12440174D01*
X11202793Y-12554460D02*
X11183745Y-12563984D01*
X11183745Y-12563984D02*
X11136126Y-12563984D01*
X11136126Y-12563984D02*
X11117078Y-12554460D01*
X11117078Y-12554460D02*
X11107555Y-12535412D01*
X11107555Y-12535412D02*
X11107555Y-12516365D01*
X11107555Y-12516365D02*
X11117078Y-12497317D01*
X11117078Y-12497317D02*
X11136126Y-12487793D01*
X11136126Y-12487793D02*
X11183745Y-12487793D01*
X11183745Y-12487793D02*
X11202793Y-12478269D01*
X11298031Y-12430650D02*
X11298031Y-12630650D01*
X11298031Y-12440174D02*
X11317078Y-12430650D01*
X11317078Y-12430650D02*
X11355174Y-12430650D01*
X11355174Y-12430650D02*
X11374221Y-12440174D01*
X11374221Y-12440174D02*
X11383745Y-12449698D01*
X11383745Y-12449698D02*
X11393269Y-12468746D01*
X11393269Y-12468746D02*
X11393269Y-12525888D01*
X11393269Y-12525888D02*
X11383745Y-12544936D01*
X11383745Y-12544936D02*
X11374221Y-12554460D01*
X11374221Y-12554460D02*
X11355174Y-12563984D01*
X11355174Y-12563984D02*
X11317078Y-12563984D01*
X11317078Y-12563984D02*
X11298031Y-12554460D01*
X11478983Y-12544936D02*
X11488507Y-12554460D01*
X11488507Y-12554460D02*
X11478983Y-12563984D01*
X11478983Y-12563984D02*
X11469459Y-12554460D01*
X11469459Y-12554460D02*
X11478983Y-12544936D01*
X11478983Y-12544936D02*
X11478983Y-12563984D01*
X11478983Y-12440174D02*
X11488507Y-12449698D01*
X11488507Y-12449698D02*
X11478983Y-12459222D01*
X11478983Y-12459222D02*
X11469459Y-12449698D01*
X11469459Y-12449698D02*
X11478983Y-12440174D01*
X11478983Y-12440174D02*
X11478983Y-12459222D01*
D12*
X9788778Y-12863500D02*
X9846778Y-12921500D01*
X9846778Y-12863500D02*
X9788778Y-12921500D01*
D11*
X10145650Y-12783984D02*
X10164698Y-12783984D01*
X10164698Y-12783984D02*
X10183745Y-12793508D01*
X10183745Y-12793508D02*
X10193269Y-12803031D01*
X10193269Y-12803031D02*
X10202793Y-12822079D01*
X10202793Y-12822079D02*
X10212317Y-12860174D01*
X10212317Y-12860174D02*
X10212317Y-12907793D01*
X10212317Y-12907793D02*
X10202793Y-12945888D01*
X10202793Y-12945888D02*
X10193269Y-12964936D01*
X10193269Y-12964936D02*
X10183745Y-12974460D01*
X10183745Y-12974460D02*
X10164698Y-12983984D01*
X10164698Y-12983984D02*
X10145650Y-12983984D01*
X10145650Y-12983984D02*
X10126602Y-12974460D01*
X10126602Y-12974460D02*
X10117078Y-12964936D01*
X10117078Y-12964936D02*
X10107555Y-12945888D01*
X10107555Y-12945888D02*
X10098031Y-12907793D01*
X10098031Y-12907793D02*
X10098031Y-12860174D01*
X10098031Y-12860174D02*
X10107555Y-12822079D01*
X10107555Y-12822079D02*
X10117078Y-12803031D01*
X10117078Y-12803031D02*
X10126602Y-12793508D01*
X10126602Y-12793508D02*
X10145650Y-12783984D01*
X10298031Y-12964936D02*
X10307555Y-12974460D01*
X10307555Y-12974460D02*
X10298031Y-12983984D01*
X10298031Y-12983984D02*
X10288507Y-12974460D01*
X10288507Y-12974460D02*
X10298031Y-12964936D01*
X10298031Y-12964936D02*
X10298031Y-12983984D01*
X10488507Y-12783984D02*
X10393269Y-12783984D01*
X10393269Y-12783984D02*
X10383745Y-12879222D01*
X10383745Y-12879222D02*
X10393269Y-12869698D01*
X10393269Y-12869698D02*
X10412317Y-12860174D01*
X10412317Y-12860174D02*
X10459936Y-12860174D01*
X10459936Y-12860174D02*
X10478983Y-12869698D01*
X10478983Y-12869698D02*
X10488507Y-12879222D01*
X10488507Y-12879222D02*
X10498031Y-12898269D01*
X10498031Y-12898269D02*
X10498031Y-12945888D01*
X10498031Y-12945888D02*
X10488507Y-12964936D01*
X10488507Y-12964936D02*
X10478983Y-12974460D01*
X10478983Y-12974460D02*
X10459936Y-12983984D01*
X10459936Y-12983984D02*
X10412317Y-12983984D01*
X10412317Y-12983984D02*
X10393269Y-12974460D01*
X10393269Y-12974460D02*
X10383745Y-12964936D01*
X10612317Y-12869698D02*
X10593269Y-12860174D01*
X10593269Y-12860174D02*
X10583745Y-12850650D01*
X10583745Y-12850650D02*
X10574221Y-12831603D01*
X10574221Y-12831603D02*
X10574221Y-12822079D01*
X10574221Y-12822079D02*
X10583745Y-12803031D01*
X10583745Y-12803031D02*
X10593269Y-12793508D01*
X10593269Y-12793508D02*
X10612317Y-12783984D01*
X10612317Y-12783984D02*
X10650412Y-12783984D01*
X10650412Y-12783984D02*
X10669459Y-12793508D01*
X10669459Y-12793508D02*
X10678983Y-12803031D01*
X10678983Y-12803031D02*
X10688507Y-12822079D01*
X10688507Y-12822079D02*
X10688507Y-12831603D01*
X10688507Y-12831603D02*
X10678983Y-12850650D01*
X10678983Y-12850650D02*
X10669459Y-12860174D01*
X10669459Y-12860174D02*
X10650412Y-12869698D01*
X10650412Y-12869698D02*
X10612317Y-12869698D01*
X10612317Y-12869698D02*
X10593269Y-12879222D01*
X10593269Y-12879222D02*
X10583745Y-12888746D01*
X10583745Y-12888746D02*
X10574221Y-12907793D01*
X10574221Y-12907793D02*
X10574221Y-12945888D01*
X10574221Y-12945888D02*
X10583745Y-12964936D01*
X10583745Y-12964936D02*
X10593269Y-12974460D01*
X10593269Y-12974460D02*
X10612317Y-12983984D01*
X10612317Y-12983984D02*
X10650412Y-12983984D01*
X10650412Y-12983984D02*
X10669459Y-12974460D01*
X10669459Y-12974460D02*
X10678983Y-12964936D01*
X10678983Y-12964936D02*
X10688507Y-12945888D01*
X10688507Y-12945888D02*
X10688507Y-12907793D01*
X10688507Y-12907793D02*
X10678983Y-12888746D01*
X10678983Y-12888746D02*
X10669459Y-12879222D01*
X10669459Y-12879222D02*
X10650412Y-12869698D01*
X10812317Y-12783984D02*
X10831364Y-12783984D01*
X10831364Y-12783984D02*
X10850412Y-12793508D01*
X10850412Y-12793508D02*
X10859936Y-12803031D01*
X10859936Y-12803031D02*
X10869459Y-12822079D01*
X10869459Y-12822079D02*
X10878983Y-12860174D01*
X10878983Y-12860174D02*
X10878983Y-12907793D01*
X10878983Y-12907793D02*
X10869459Y-12945888D01*
X10869459Y-12945888D02*
X10859936Y-12964936D01*
X10859936Y-12964936D02*
X10850412Y-12974460D01*
X10850412Y-12974460D02*
X10831364Y-12983984D01*
X10831364Y-12983984D02*
X10812317Y-12983984D01*
X10812317Y-12983984D02*
X10793269Y-12974460D01*
X10793269Y-12974460D02*
X10783745Y-12964936D01*
X10783745Y-12964936D02*
X10774221Y-12945888D01*
X10774221Y-12945888D02*
X10764698Y-12907793D01*
X10764698Y-12907793D02*
X10764698Y-12860174D01*
X10764698Y-12860174D02*
X10774221Y-12822079D01*
X10774221Y-12822079D02*
X10783745Y-12803031D01*
X10783745Y-12803031D02*
X10793269Y-12793508D01*
X10793269Y-12793508D02*
X10812317Y-12783984D01*
X10964698Y-12983984D02*
X10964698Y-12850650D01*
X10964698Y-12869698D02*
X10974221Y-12860174D01*
X10974221Y-12860174D02*
X10993269Y-12850650D01*
X10993269Y-12850650D02*
X11021840Y-12850650D01*
X11021840Y-12850650D02*
X11040888Y-12860174D01*
X11040888Y-12860174D02*
X11050412Y-12879222D01*
X11050412Y-12879222D02*
X11050412Y-12983984D01*
X11050412Y-12879222D02*
X11059936Y-12860174D01*
X11059936Y-12860174D02*
X11078983Y-12850650D01*
X11078983Y-12850650D02*
X11107555Y-12850650D01*
X11107555Y-12850650D02*
X11126602Y-12860174D01*
X11126602Y-12860174D02*
X11136126Y-12879222D01*
X11136126Y-12879222D02*
X11136126Y-12983984D01*
X11231364Y-12983984D02*
X11231364Y-12850650D01*
X11231364Y-12869698D02*
X11240888Y-12860174D01*
X11240888Y-12860174D02*
X11259936Y-12850650D01*
X11259936Y-12850650D02*
X11288507Y-12850650D01*
X11288507Y-12850650D02*
X11307555Y-12860174D01*
X11307555Y-12860174D02*
X11317078Y-12879222D01*
X11317078Y-12879222D02*
X11317078Y-12983984D01*
X11317078Y-12879222D02*
X11326602Y-12860174D01*
X11326602Y-12860174D02*
X11345650Y-12850650D01*
X11345650Y-12850650D02*
X11374221Y-12850650D01*
X11374221Y-12850650D02*
X11393269Y-12860174D01*
X11393269Y-12860174D02*
X11402793Y-12879222D01*
X11402793Y-12879222D02*
X11402793Y-12983984D01*
X11793269Y-12774460D02*
X11621840Y-13031603D01*
X12050412Y-12783984D02*
X12069460Y-12783984D01*
X12069460Y-12783984D02*
X12088507Y-12793508D01*
X12088507Y-12793508D02*
X12098031Y-12803031D01*
X12098031Y-12803031D02*
X12107555Y-12822079D01*
X12107555Y-12822079D02*
X12117079Y-12860174D01*
X12117079Y-12860174D02*
X12117079Y-12907793D01*
X12117079Y-12907793D02*
X12107555Y-12945888D01*
X12107555Y-12945888D02*
X12098031Y-12964936D01*
X12098031Y-12964936D02*
X12088507Y-12974460D01*
X12088507Y-12974460D02*
X12069460Y-12983984D01*
X12069460Y-12983984D02*
X12050412Y-12983984D01*
X12050412Y-12983984D02*
X12031364Y-12974460D01*
X12031364Y-12974460D02*
X12021840Y-12964936D01*
X12021840Y-12964936D02*
X12012317Y-12945888D01*
X12012317Y-12945888D02*
X12002793Y-12907793D01*
X12002793Y-12907793D02*
X12002793Y-12860174D01*
X12002793Y-12860174D02*
X12012317Y-12822079D01*
X12012317Y-12822079D02*
X12021840Y-12803031D01*
X12021840Y-12803031D02*
X12031364Y-12793508D01*
X12031364Y-12793508D02*
X12050412Y-12783984D01*
X12202793Y-12964936D02*
X12212317Y-12974460D01*
X12212317Y-12974460D02*
X12202793Y-12983984D01*
X12202793Y-12983984D02*
X12193269Y-12974460D01*
X12193269Y-12974460D02*
X12202793Y-12964936D01*
X12202793Y-12964936D02*
X12202793Y-12983984D01*
X12336126Y-12783984D02*
X12355174Y-12783984D01*
X12355174Y-12783984D02*
X12374221Y-12793508D01*
X12374221Y-12793508D02*
X12383745Y-12803031D01*
X12383745Y-12803031D02*
X12393269Y-12822079D01*
X12393269Y-12822079D02*
X12402793Y-12860174D01*
X12402793Y-12860174D02*
X12402793Y-12907793D01*
X12402793Y-12907793D02*
X12393269Y-12945888D01*
X12393269Y-12945888D02*
X12383745Y-12964936D01*
X12383745Y-12964936D02*
X12374221Y-12974460D01*
X12374221Y-12974460D02*
X12355174Y-12983984D01*
X12355174Y-12983984D02*
X12336126Y-12983984D01*
X12336126Y-12983984D02*
X12317079Y-12974460D01*
X12317079Y-12974460D02*
X12307555Y-12964936D01*
X12307555Y-12964936D02*
X12298031Y-12945888D01*
X12298031Y-12945888D02*
X12288507Y-12907793D01*
X12288507Y-12907793D02*
X12288507Y-12860174D01*
X12288507Y-12860174D02*
X12298031Y-12822079D01*
X12298031Y-12822079D02*
X12307555Y-12803031D01*
X12307555Y-12803031D02*
X12317079Y-12793508D01*
X12317079Y-12793508D02*
X12336126Y-12783984D01*
X12478983Y-12803031D02*
X12488507Y-12793508D01*
X12488507Y-12793508D02*
X12507555Y-12783984D01*
X12507555Y-12783984D02*
X12555174Y-12783984D01*
X12555174Y-12783984D02*
X12574221Y-12793508D01*
X12574221Y-12793508D02*
X12583745Y-12803031D01*
X12583745Y-12803031D02*
X12593269Y-12822079D01*
X12593269Y-12822079D02*
X12593269Y-12841127D01*
X12593269Y-12841127D02*
X12583745Y-12869698D01*
X12583745Y-12869698D02*
X12469460Y-12983984D01*
X12469460Y-12983984D02*
X12593269Y-12983984D01*
X12669460Y-12803031D02*
X12678983Y-12793508D01*
X12678983Y-12793508D02*
X12698031Y-12783984D01*
X12698031Y-12783984D02*
X12745650Y-12783984D01*
X12745650Y-12783984D02*
X12764698Y-12793508D01*
X12764698Y-12793508D02*
X12774221Y-12803031D01*
X12774221Y-12803031D02*
X12783745Y-12822079D01*
X12783745Y-12822079D02*
X12783745Y-12841127D01*
X12783745Y-12841127D02*
X12774221Y-12869698D01*
X12774221Y-12869698D02*
X12659936Y-12983984D01*
X12659936Y-12983984D02*
X12783745Y-12983984D01*
X12898031Y-12869698D02*
X12878983Y-12860174D01*
X12878983Y-12860174D02*
X12869460Y-12850650D01*
X12869460Y-12850650D02*
X12859936Y-12831603D01*
X12859936Y-12831603D02*
X12859936Y-12822079D01*
X12859936Y-12822079D02*
X12869460Y-12803031D01*
X12869460Y-12803031D02*
X12878983Y-12793508D01*
X12878983Y-12793508D02*
X12898031Y-12783984D01*
X12898031Y-12783984D02*
X12936126Y-12783984D01*
X12936126Y-12783984D02*
X12955174Y-12793508D01*
X12955174Y-12793508D02*
X12964698Y-12803031D01*
X12964698Y-12803031D02*
X12974221Y-12822079D01*
X12974221Y-12822079D02*
X12974221Y-12831603D01*
X12974221Y-12831603D02*
X12964698Y-12850650D01*
X12964698Y-12850650D02*
X12955174Y-12860174D01*
X12955174Y-12860174D02*
X12936126Y-12869698D01*
X12936126Y-12869698D02*
X12898031Y-12869698D01*
X12898031Y-12869698D02*
X12878983Y-12879222D01*
X12878983Y-12879222D02*
X12869460Y-12888746D01*
X12869460Y-12888746D02*
X12859936Y-12907793D01*
X12859936Y-12907793D02*
X12859936Y-12945888D01*
X12859936Y-12945888D02*
X12869460Y-12964936D01*
X12869460Y-12964936D02*
X12878983Y-12974460D01*
X12878983Y-12974460D02*
X12898031Y-12983984D01*
X12898031Y-12983984D02*
X12936126Y-12983984D01*
X12936126Y-12983984D02*
X12955174Y-12974460D01*
X12955174Y-12974460D02*
X12964698Y-12964936D01*
X12964698Y-12964936D02*
X12974221Y-12945888D01*
X12974221Y-12945888D02*
X12974221Y-12907793D01*
X12974221Y-12907793D02*
X12964698Y-12888746D01*
X12964698Y-12888746D02*
X12955174Y-12879222D01*
X12955174Y-12879222D02*
X12936126Y-12869698D01*
X13050412Y-12783984D02*
X13050412Y-12822079D01*
X13126602Y-12783984D02*
X13126602Y-12822079D01*
X13421841Y-13060174D02*
X13412317Y-13050650D01*
X13412317Y-13050650D02*
X13393269Y-13022079D01*
X13393269Y-13022079D02*
X13383745Y-13003031D01*
X13383745Y-13003031D02*
X13374222Y-12974460D01*
X13374222Y-12974460D02*
X13364698Y-12926841D01*
X13364698Y-12926841D02*
X13364698Y-12888746D01*
X13364698Y-12888746D02*
X13374222Y-12841127D01*
X13374222Y-12841127D02*
X13383745Y-12812555D01*
X13383745Y-12812555D02*
X13393269Y-12793508D01*
X13393269Y-12793508D02*
X13412317Y-12764936D01*
X13412317Y-12764936D02*
X13421841Y-12755412D01*
X13602793Y-12983984D02*
X13488507Y-12983984D01*
X13545650Y-12983984D02*
X13545650Y-12783984D01*
X13545650Y-12783984D02*
X13526602Y-12812555D01*
X13526602Y-12812555D02*
X13507555Y-12831603D01*
X13507555Y-12831603D02*
X13488507Y-12841127D01*
X13831364Y-12974460D02*
X13850412Y-12983984D01*
X13850412Y-12983984D02*
X13888507Y-12983984D01*
X13888507Y-12983984D02*
X13907555Y-12974460D01*
X13907555Y-12974460D02*
X13917079Y-12955412D01*
X13917079Y-12955412D02*
X13917079Y-12945888D01*
X13917079Y-12945888D02*
X13907555Y-12926841D01*
X13907555Y-12926841D02*
X13888507Y-12917317D01*
X13888507Y-12917317D02*
X13859936Y-12917317D01*
X13859936Y-12917317D02*
X13840888Y-12907793D01*
X13840888Y-12907793D02*
X13831364Y-12888746D01*
X13831364Y-12888746D02*
X13831364Y-12879222D01*
X13831364Y-12879222D02*
X13840888Y-12860174D01*
X13840888Y-12860174D02*
X13859936Y-12850650D01*
X13859936Y-12850650D02*
X13888507Y-12850650D01*
X13888507Y-12850650D02*
X13907555Y-12860174D01*
X14031364Y-12983984D02*
X14012317Y-12974460D01*
X14012317Y-12974460D02*
X14002793Y-12955412D01*
X14002793Y-12955412D02*
X14002793Y-12783984D01*
X14136126Y-12983984D02*
X14117079Y-12974460D01*
X14117079Y-12974460D02*
X14107555Y-12964936D01*
X14107555Y-12964936D02*
X14098031Y-12945888D01*
X14098031Y-12945888D02*
X14098031Y-12888746D01*
X14098031Y-12888746D02*
X14107555Y-12869698D01*
X14107555Y-12869698D02*
X14117079Y-12860174D01*
X14117079Y-12860174D02*
X14136126Y-12850650D01*
X14136126Y-12850650D02*
X14164698Y-12850650D01*
X14164698Y-12850650D02*
X14183745Y-12860174D01*
X14183745Y-12860174D02*
X14193269Y-12869698D01*
X14193269Y-12869698D02*
X14202793Y-12888746D01*
X14202793Y-12888746D02*
X14202793Y-12945888D01*
X14202793Y-12945888D02*
X14193269Y-12964936D01*
X14193269Y-12964936D02*
X14183745Y-12974460D01*
X14183745Y-12974460D02*
X14164698Y-12983984D01*
X14164698Y-12983984D02*
X14136126Y-12983984D01*
X14259936Y-12850650D02*
X14336126Y-12850650D01*
X14288507Y-12783984D02*
X14288507Y-12955412D01*
X14288507Y-12955412D02*
X14298031Y-12974460D01*
X14298031Y-12974460D02*
X14317079Y-12983984D01*
X14317079Y-12983984D02*
X14336126Y-12983984D01*
X14383745Y-13060174D02*
X14393269Y-13050650D01*
X14393269Y-13050650D02*
X14412317Y-13022079D01*
X14412317Y-13022079D02*
X14421841Y-13003031D01*
X14421841Y-13003031D02*
X14431364Y-12974460D01*
X14431364Y-12974460D02*
X14440888Y-12926841D01*
X14440888Y-12926841D02*
X14440888Y-12888746D01*
X14440888Y-12888746D02*
X14431364Y-12841127D01*
X14431364Y-12841127D02*
X14421841Y-12812555D01*
X14421841Y-12812555D02*
X14412317Y-12793508D01*
X14412317Y-12793508D02*
X14393269Y-12764936D01*
X14393269Y-12764936D02*
X14383745Y-12755412D01*
X14745650Y-13060174D02*
X14736126Y-13050650D01*
X14736126Y-13050650D02*
X14717079Y-13022079D01*
X14717079Y-13022079D02*
X14707555Y-13003031D01*
X14707555Y-13003031D02*
X14698031Y-12974460D01*
X14698031Y-12974460D02*
X14688507Y-12926841D01*
X14688507Y-12926841D02*
X14688507Y-12888746D01*
X14688507Y-12888746D02*
X14698031Y-12841127D01*
X14698031Y-12841127D02*
X14707555Y-12812555D01*
X14707555Y-12812555D02*
X14717079Y-12793508D01*
X14717079Y-12793508D02*
X14736126Y-12764936D01*
X14736126Y-12764936D02*
X14745650Y-12755412D01*
X14821841Y-12850650D02*
X14821841Y-12983984D01*
X14821841Y-12869698D02*
X14831364Y-12860174D01*
X14831364Y-12860174D02*
X14850412Y-12850650D01*
X14850412Y-12850650D02*
X14878984Y-12850650D01*
X14878984Y-12850650D02*
X14898031Y-12860174D01*
X14898031Y-12860174D02*
X14907555Y-12879222D01*
X14907555Y-12879222D02*
X14907555Y-12983984D01*
X15031364Y-12983984D02*
X15012317Y-12974460D01*
X15012317Y-12974460D02*
X15002793Y-12964936D01*
X15002793Y-12964936D02*
X14993269Y-12945888D01*
X14993269Y-12945888D02*
X14993269Y-12888746D01*
X14993269Y-12888746D02*
X15002793Y-12869698D01*
X15002793Y-12869698D02*
X15012317Y-12860174D01*
X15012317Y-12860174D02*
X15031364Y-12850650D01*
X15031364Y-12850650D02*
X15059936Y-12850650D01*
X15059936Y-12850650D02*
X15078984Y-12860174D01*
X15078984Y-12860174D02*
X15088507Y-12869698D01*
X15088507Y-12869698D02*
X15098031Y-12888746D01*
X15098031Y-12888746D02*
X15098031Y-12945888D01*
X15098031Y-12945888D02*
X15088507Y-12964936D01*
X15088507Y-12964936D02*
X15078984Y-12974460D01*
X15078984Y-12974460D02*
X15059936Y-12983984D01*
X15059936Y-12983984D02*
X15031364Y-12983984D01*
X15155174Y-12850650D02*
X15231364Y-12850650D01*
X15183745Y-12783984D02*
X15183745Y-12955412D01*
X15183745Y-12955412D02*
X15193269Y-12974460D01*
X15193269Y-12974460D02*
X15212317Y-12983984D01*
X15212317Y-12983984D02*
X15231364Y-12983984D01*
X15450412Y-12850650D02*
X15450412Y-13050650D01*
X15450412Y-12860174D02*
X15469460Y-12850650D01*
X15469460Y-12850650D02*
X15507555Y-12850650D01*
X15507555Y-12850650D02*
X15526603Y-12860174D01*
X15526603Y-12860174D02*
X15536126Y-12869698D01*
X15536126Y-12869698D02*
X15545650Y-12888746D01*
X15545650Y-12888746D02*
X15545650Y-12945888D01*
X15545650Y-12945888D02*
X15536126Y-12964936D01*
X15536126Y-12964936D02*
X15526603Y-12974460D01*
X15526603Y-12974460D02*
X15507555Y-12983984D01*
X15507555Y-12983984D02*
X15469460Y-12983984D01*
X15469460Y-12983984D02*
X15450412Y-12974460D01*
X15659936Y-12983984D02*
X15640888Y-12974460D01*
X15640888Y-12974460D02*
X15631365Y-12955412D01*
X15631365Y-12955412D02*
X15631365Y-12783984D01*
X15821841Y-12983984D02*
X15821841Y-12879222D01*
X15821841Y-12879222D02*
X15812317Y-12860174D01*
X15812317Y-12860174D02*
X15793269Y-12850650D01*
X15793269Y-12850650D02*
X15755174Y-12850650D01*
X15755174Y-12850650D02*
X15736126Y-12860174D01*
X15821841Y-12974460D02*
X15802793Y-12983984D01*
X15802793Y-12983984D02*
X15755174Y-12983984D01*
X15755174Y-12983984D02*
X15736126Y-12974460D01*
X15736126Y-12974460D02*
X15726603Y-12955412D01*
X15726603Y-12955412D02*
X15726603Y-12936365D01*
X15726603Y-12936365D02*
X15736126Y-12917317D01*
X15736126Y-12917317D02*
X15755174Y-12907793D01*
X15755174Y-12907793D02*
X15802793Y-12907793D01*
X15802793Y-12907793D02*
X15821841Y-12898269D01*
X15888507Y-12850650D02*
X15964698Y-12850650D01*
X15917079Y-12783984D02*
X15917079Y-12955412D01*
X15917079Y-12955412D02*
X15926603Y-12974460D01*
X15926603Y-12974460D02*
X15945650Y-12983984D01*
X15945650Y-12983984D02*
X15964698Y-12983984D01*
X16107555Y-12974460D02*
X16088507Y-12983984D01*
X16088507Y-12983984D02*
X16050412Y-12983984D01*
X16050412Y-12983984D02*
X16031365Y-12974460D01*
X16031365Y-12974460D02*
X16021841Y-12955412D01*
X16021841Y-12955412D02*
X16021841Y-12879222D01*
X16021841Y-12879222D02*
X16031365Y-12860174D01*
X16031365Y-12860174D02*
X16050412Y-12850650D01*
X16050412Y-12850650D02*
X16088507Y-12850650D01*
X16088507Y-12850650D02*
X16107555Y-12860174D01*
X16107555Y-12860174D02*
X16117079Y-12879222D01*
X16117079Y-12879222D02*
X16117079Y-12898269D01*
X16117079Y-12898269D02*
X16021841Y-12917317D01*
X16288507Y-12983984D02*
X16288507Y-12783984D01*
X16288507Y-12974460D02*
X16269460Y-12983984D01*
X16269460Y-12983984D02*
X16231365Y-12983984D01*
X16231365Y-12983984D02*
X16212317Y-12974460D01*
X16212317Y-12974460D02*
X16202793Y-12964936D01*
X16202793Y-12964936D02*
X16193269Y-12945888D01*
X16193269Y-12945888D02*
X16193269Y-12888746D01*
X16193269Y-12888746D02*
X16202793Y-12869698D01*
X16202793Y-12869698D02*
X16212317Y-12860174D01*
X16212317Y-12860174D02*
X16231365Y-12850650D01*
X16231365Y-12850650D02*
X16269460Y-12850650D01*
X16269460Y-12850650D02*
X16288507Y-12860174D01*
X16364698Y-13060174D02*
X16374222Y-13050650D01*
X16374222Y-13050650D02*
X16393269Y-13022079D01*
X16393269Y-13022079D02*
X16402793Y-13003031D01*
X16402793Y-13003031D02*
X16412317Y-12974460D01*
X16412317Y-12974460D02*
X16421841Y-12926841D01*
X16421841Y-12926841D02*
X16421841Y-12888746D01*
X16421841Y-12888746D02*
X16412317Y-12841127D01*
X16412317Y-12841127D02*
X16402793Y-12812555D01*
X16402793Y-12812555D02*
X16393269Y-12793508D01*
X16393269Y-12793508D02*
X16374222Y-12764936D01*
X16374222Y-12764936D02*
X16364698Y-12755412D01*
D12*
X9846778Y-13156500D02*
G75*
G02*
X9780778Y-13156500I-33000J0D01*
G01*
X9780778Y-13156500D02*
G75*
G02*
X9846778Y-13156500I33000J0D01*
G01*
D11*
X10145650Y-13047984D02*
X10164698Y-13047984D01*
X10164698Y-13047984D02*
X10183745Y-13057508D01*
X10183745Y-13057508D02*
X10193269Y-13067031D01*
X10193269Y-13067031D02*
X10202793Y-13086079D01*
X10202793Y-13086079D02*
X10212317Y-13124174D01*
X10212317Y-13124174D02*
X10212317Y-13171793D01*
X10212317Y-13171793D02*
X10202793Y-13209888D01*
X10202793Y-13209888D02*
X10193269Y-13228936D01*
X10193269Y-13228936D02*
X10183745Y-13238460D01*
X10183745Y-13238460D02*
X10164698Y-13247984D01*
X10164698Y-13247984D02*
X10145650Y-13247984D01*
X10145650Y-13247984D02*
X10126602Y-13238460D01*
X10126602Y-13238460D02*
X10117078Y-13228936D01*
X10117078Y-13228936D02*
X10107555Y-13209888D01*
X10107555Y-13209888D02*
X10098031Y-13171793D01*
X10098031Y-13171793D02*
X10098031Y-13124174D01*
X10098031Y-13124174D02*
X10107555Y-13086079D01*
X10107555Y-13086079D02*
X10117078Y-13067031D01*
X10117078Y-13067031D02*
X10126602Y-13057508D01*
X10126602Y-13057508D02*
X10145650Y-13047984D01*
X10298031Y-13228936D02*
X10307555Y-13238460D01*
X10307555Y-13238460D02*
X10298031Y-13247984D01*
X10298031Y-13247984D02*
X10288507Y-13238460D01*
X10288507Y-13238460D02*
X10298031Y-13228936D01*
X10298031Y-13228936D02*
X10298031Y-13247984D01*
X10478983Y-13047984D02*
X10440888Y-13047984D01*
X10440888Y-13047984D02*
X10421840Y-13057508D01*
X10421840Y-13057508D02*
X10412317Y-13067031D01*
X10412317Y-13067031D02*
X10393269Y-13095603D01*
X10393269Y-13095603D02*
X10383745Y-13133698D01*
X10383745Y-13133698D02*
X10383745Y-13209888D01*
X10383745Y-13209888D02*
X10393269Y-13228936D01*
X10393269Y-13228936D02*
X10402793Y-13238460D01*
X10402793Y-13238460D02*
X10421840Y-13247984D01*
X10421840Y-13247984D02*
X10459936Y-13247984D01*
X10459936Y-13247984D02*
X10478983Y-13238460D01*
X10478983Y-13238460D02*
X10488507Y-13228936D01*
X10488507Y-13228936D02*
X10498031Y-13209888D01*
X10498031Y-13209888D02*
X10498031Y-13162269D01*
X10498031Y-13162269D02*
X10488507Y-13143222D01*
X10488507Y-13143222D02*
X10478983Y-13133698D01*
X10478983Y-13133698D02*
X10459936Y-13124174D01*
X10459936Y-13124174D02*
X10421840Y-13124174D01*
X10421840Y-13124174D02*
X10402793Y-13133698D01*
X10402793Y-13133698D02*
X10393269Y-13143222D01*
X10393269Y-13143222D02*
X10383745Y-13162269D01*
X10669459Y-13047984D02*
X10631364Y-13047984D01*
X10631364Y-13047984D02*
X10612317Y-13057508D01*
X10612317Y-13057508D02*
X10602793Y-13067031D01*
X10602793Y-13067031D02*
X10583745Y-13095603D01*
X10583745Y-13095603D02*
X10574221Y-13133698D01*
X10574221Y-13133698D02*
X10574221Y-13209888D01*
X10574221Y-13209888D02*
X10583745Y-13228936D01*
X10583745Y-13228936D02*
X10593269Y-13238460D01*
X10593269Y-13238460D02*
X10612317Y-13247984D01*
X10612317Y-13247984D02*
X10650412Y-13247984D01*
X10650412Y-13247984D02*
X10669459Y-13238460D01*
X10669459Y-13238460D02*
X10678983Y-13228936D01*
X10678983Y-13228936D02*
X10688507Y-13209888D01*
X10688507Y-13209888D02*
X10688507Y-13162269D01*
X10688507Y-13162269D02*
X10678983Y-13143222D01*
X10678983Y-13143222D02*
X10669459Y-13133698D01*
X10669459Y-13133698D02*
X10650412Y-13124174D01*
X10650412Y-13124174D02*
X10612317Y-13124174D01*
X10612317Y-13124174D02*
X10593269Y-13133698D01*
X10593269Y-13133698D02*
X10583745Y-13143222D01*
X10583745Y-13143222D02*
X10574221Y-13162269D01*
X10812317Y-13047984D02*
X10831364Y-13047984D01*
X10831364Y-13047984D02*
X10850412Y-13057508D01*
X10850412Y-13057508D02*
X10859936Y-13067031D01*
X10859936Y-13067031D02*
X10869459Y-13086079D01*
X10869459Y-13086079D02*
X10878983Y-13124174D01*
X10878983Y-13124174D02*
X10878983Y-13171793D01*
X10878983Y-13171793D02*
X10869459Y-13209888D01*
X10869459Y-13209888D02*
X10859936Y-13228936D01*
X10859936Y-13228936D02*
X10850412Y-13238460D01*
X10850412Y-13238460D02*
X10831364Y-13247984D01*
X10831364Y-13247984D02*
X10812317Y-13247984D01*
X10812317Y-13247984D02*
X10793269Y-13238460D01*
X10793269Y-13238460D02*
X10783745Y-13228936D01*
X10783745Y-13228936D02*
X10774221Y-13209888D01*
X10774221Y-13209888D02*
X10764698Y-13171793D01*
X10764698Y-13171793D02*
X10764698Y-13124174D01*
X10764698Y-13124174D02*
X10774221Y-13086079D01*
X10774221Y-13086079D02*
X10783745Y-13067031D01*
X10783745Y-13067031D02*
X10793269Y-13057508D01*
X10793269Y-13057508D02*
X10812317Y-13047984D01*
X10964698Y-13247984D02*
X10964698Y-13114650D01*
X10964698Y-13133698D02*
X10974221Y-13124174D01*
X10974221Y-13124174D02*
X10993269Y-13114650D01*
X10993269Y-13114650D02*
X11021840Y-13114650D01*
X11021840Y-13114650D02*
X11040888Y-13124174D01*
X11040888Y-13124174D02*
X11050412Y-13143222D01*
X11050412Y-13143222D02*
X11050412Y-13247984D01*
X11050412Y-13143222D02*
X11059936Y-13124174D01*
X11059936Y-13124174D02*
X11078983Y-13114650D01*
X11078983Y-13114650D02*
X11107555Y-13114650D01*
X11107555Y-13114650D02*
X11126602Y-13124174D01*
X11126602Y-13124174D02*
X11136126Y-13143222D01*
X11136126Y-13143222D02*
X11136126Y-13247984D01*
X11231364Y-13247984D02*
X11231364Y-13114650D01*
X11231364Y-13133698D02*
X11240888Y-13124174D01*
X11240888Y-13124174D02*
X11259936Y-13114650D01*
X11259936Y-13114650D02*
X11288507Y-13114650D01*
X11288507Y-13114650D02*
X11307555Y-13124174D01*
X11307555Y-13124174D02*
X11317078Y-13143222D01*
X11317078Y-13143222D02*
X11317078Y-13247984D01*
X11317078Y-13143222D02*
X11326602Y-13124174D01*
X11326602Y-13124174D02*
X11345650Y-13114650D01*
X11345650Y-13114650D02*
X11374221Y-13114650D01*
X11374221Y-13114650D02*
X11393269Y-13124174D01*
X11393269Y-13124174D02*
X11402793Y-13143222D01*
X11402793Y-13143222D02*
X11402793Y-13247984D01*
X11793269Y-13038460D02*
X11621840Y-13295603D01*
X12050412Y-13047984D02*
X12069460Y-13047984D01*
X12069460Y-13047984D02*
X12088507Y-13057508D01*
X12088507Y-13057508D02*
X12098031Y-13067031D01*
X12098031Y-13067031D02*
X12107555Y-13086079D01*
X12107555Y-13086079D02*
X12117079Y-13124174D01*
X12117079Y-13124174D02*
X12117079Y-13171793D01*
X12117079Y-13171793D02*
X12107555Y-13209888D01*
X12107555Y-13209888D02*
X12098031Y-13228936D01*
X12098031Y-13228936D02*
X12088507Y-13238460D01*
X12088507Y-13238460D02*
X12069460Y-13247984D01*
X12069460Y-13247984D02*
X12050412Y-13247984D01*
X12050412Y-13247984D02*
X12031364Y-13238460D01*
X12031364Y-13238460D02*
X12021840Y-13228936D01*
X12021840Y-13228936D02*
X12012317Y-13209888D01*
X12012317Y-13209888D02*
X12002793Y-13171793D01*
X12002793Y-13171793D02*
X12002793Y-13124174D01*
X12002793Y-13124174D02*
X12012317Y-13086079D01*
X12012317Y-13086079D02*
X12021840Y-13067031D01*
X12021840Y-13067031D02*
X12031364Y-13057508D01*
X12031364Y-13057508D02*
X12050412Y-13047984D01*
X12202793Y-13228936D02*
X12212317Y-13238460D01*
X12212317Y-13238460D02*
X12202793Y-13247984D01*
X12202793Y-13247984D02*
X12193269Y-13238460D01*
X12193269Y-13238460D02*
X12202793Y-13228936D01*
X12202793Y-13228936D02*
X12202793Y-13247984D01*
X12336126Y-13047984D02*
X12355174Y-13047984D01*
X12355174Y-13047984D02*
X12374221Y-13057508D01*
X12374221Y-13057508D02*
X12383745Y-13067031D01*
X12383745Y-13067031D02*
X12393269Y-13086079D01*
X12393269Y-13086079D02*
X12402793Y-13124174D01*
X12402793Y-13124174D02*
X12402793Y-13171793D01*
X12402793Y-13171793D02*
X12393269Y-13209888D01*
X12393269Y-13209888D02*
X12383745Y-13228936D01*
X12383745Y-13228936D02*
X12374221Y-13238460D01*
X12374221Y-13238460D02*
X12355174Y-13247984D01*
X12355174Y-13247984D02*
X12336126Y-13247984D01*
X12336126Y-13247984D02*
X12317079Y-13238460D01*
X12317079Y-13238460D02*
X12307555Y-13228936D01*
X12307555Y-13228936D02*
X12298031Y-13209888D01*
X12298031Y-13209888D02*
X12288507Y-13171793D01*
X12288507Y-13171793D02*
X12288507Y-13124174D01*
X12288507Y-13124174D02*
X12298031Y-13086079D01*
X12298031Y-13086079D02*
X12307555Y-13067031D01*
X12307555Y-13067031D02*
X12317079Y-13057508D01*
X12317079Y-13057508D02*
X12336126Y-13047984D01*
X12478983Y-13067031D02*
X12488507Y-13057508D01*
X12488507Y-13057508D02*
X12507555Y-13047984D01*
X12507555Y-13047984D02*
X12555174Y-13047984D01*
X12555174Y-13047984D02*
X12574221Y-13057508D01*
X12574221Y-13057508D02*
X12583745Y-13067031D01*
X12583745Y-13067031D02*
X12593269Y-13086079D01*
X12593269Y-13086079D02*
X12593269Y-13105127D01*
X12593269Y-13105127D02*
X12583745Y-13133698D01*
X12583745Y-13133698D02*
X12469460Y-13247984D01*
X12469460Y-13247984D02*
X12593269Y-13247984D01*
X12764698Y-13047984D02*
X12726602Y-13047984D01*
X12726602Y-13047984D02*
X12707555Y-13057508D01*
X12707555Y-13057508D02*
X12698031Y-13067031D01*
X12698031Y-13067031D02*
X12678983Y-13095603D01*
X12678983Y-13095603D02*
X12669460Y-13133698D01*
X12669460Y-13133698D02*
X12669460Y-13209888D01*
X12669460Y-13209888D02*
X12678983Y-13228936D01*
X12678983Y-13228936D02*
X12688507Y-13238460D01*
X12688507Y-13238460D02*
X12707555Y-13247984D01*
X12707555Y-13247984D02*
X12745650Y-13247984D01*
X12745650Y-13247984D02*
X12764698Y-13238460D01*
X12764698Y-13238460D02*
X12774221Y-13228936D01*
X12774221Y-13228936D02*
X12783745Y-13209888D01*
X12783745Y-13209888D02*
X12783745Y-13162269D01*
X12783745Y-13162269D02*
X12774221Y-13143222D01*
X12774221Y-13143222D02*
X12764698Y-13133698D01*
X12764698Y-13133698D02*
X12745650Y-13124174D01*
X12745650Y-13124174D02*
X12707555Y-13124174D01*
X12707555Y-13124174D02*
X12688507Y-13133698D01*
X12688507Y-13133698D02*
X12678983Y-13143222D01*
X12678983Y-13143222D02*
X12669460Y-13162269D01*
X12907555Y-13047984D02*
X12926602Y-13047984D01*
X12926602Y-13047984D02*
X12945650Y-13057508D01*
X12945650Y-13057508D02*
X12955174Y-13067031D01*
X12955174Y-13067031D02*
X12964698Y-13086079D01*
X12964698Y-13086079D02*
X12974221Y-13124174D01*
X12974221Y-13124174D02*
X12974221Y-13171793D01*
X12974221Y-13171793D02*
X12964698Y-13209888D01*
X12964698Y-13209888D02*
X12955174Y-13228936D01*
X12955174Y-13228936D02*
X12945650Y-13238460D01*
X12945650Y-13238460D02*
X12926602Y-13247984D01*
X12926602Y-13247984D02*
X12907555Y-13247984D01*
X12907555Y-13247984D02*
X12888507Y-13238460D01*
X12888507Y-13238460D02*
X12878983Y-13228936D01*
X12878983Y-13228936D02*
X12869460Y-13209888D01*
X12869460Y-13209888D02*
X12859936Y-13171793D01*
X12859936Y-13171793D02*
X12859936Y-13124174D01*
X12859936Y-13124174D02*
X12869460Y-13086079D01*
X12869460Y-13086079D02*
X12878983Y-13067031D01*
X12878983Y-13067031D02*
X12888507Y-13057508D01*
X12888507Y-13057508D02*
X12907555Y-13047984D01*
X13050412Y-13047984D02*
X13050412Y-13086079D01*
X13126602Y-13047984D02*
X13126602Y-13086079D01*
X13421841Y-13324174D02*
X13412317Y-13314650D01*
X13412317Y-13314650D02*
X13393269Y-13286079D01*
X13393269Y-13286079D02*
X13383745Y-13267031D01*
X13383745Y-13267031D02*
X13374222Y-13238460D01*
X13374222Y-13238460D02*
X13364698Y-13190841D01*
X13364698Y-13190841D02*
X13364698Y-13152746D01*
X13364698Y-13152746D02*
X13374222Y-13105127D01*
X13374222Y-13105127D02*
X13383745Y-13076555D01*
X13383745Y-13076555D02*
X13393269Y-13057508D01*
X13393269Y-13057508D02*
X13412317Y-13028936D01*
X13412317Y-13028936D02*
X13421841Y-13019412D01*
X13602793Y-13247984D02*
X13488507Y-13247984D01*
X13545650Y-13247984D02*
X13545650Y-13047984D01*
X13545650Y-13047984D02*
X13526602Y-13076555D01*
X13526602Y-13076555D02*
X13507555Y-13095603D01*
X13507555Y-13095603D02*
X13488507Y-13105127D01*
X13840888Y-13247984D02*
X13840888Y-13047984D01*
X13926603Y-13247984D02*
X13926603Y-13143222D01*
X13926603Y-13143222D02*
X13917079Y-13124174D01*
X13917079Y-13124174D02*
X13898031Y-13114650D01*
X13898031Y-13114650D02*
X13869460Y-13114650D01*
X13869460Y-13114650D02*
X13850412Y-13124174D01*
X13850412Y-13124174D02*
X13840888Y-13133698D01*
X14050412Y-13247984D02*
X14031364Y-13238460D01*
X14031364Y-13238460D02*
X14021841Y-13228936D01*
X14021841Y-13228936D02*
X14012317Y-13209888D01*
X14012317Y-13209888D02*
X14012317Y-13152746D01*
X14012317Y-13152746D02*
X14021841Y-13133698D01*
X14021841Y-13133698D02*
X14031364Y-13124174D01*
X14031364Y-13124174D02*
X14050412Y-13114650D01*
X14050412Y-13114650D02*
X14078984Y-13114650D01*
X14078984Y-13114650D02*
X14098031Y-13124174D01*
X14098031Y-13124174D02*
X14107555Y-13133698D01*
X14107555Y-13133698D02*
X14117079Y-13152746D01*
X14117079Y-13152746D02*
X14117079Y-13209888D01*
X14117079Y-13209888D02*
X14107555Y-13228936D01*
X14107555Y-13228936D02*
X14098031Y-13238460D01*
X14098031Y-13238460D02*
X14078984Y-13247984D01*
X14078984Y-13247984D02*
X14050412Y-13247984D01*
X14231364Y-13247984D02*
X14212317Y-13238460D01*
X14212317Y-13238460D02*
X14202793Y-13219412D01*
X14202793Y-13219412D02*
X14202793Y-13047984D01*
X14383745Y-13238460D02*
X14364698Y-13247984D01*
X14364698Y-13247984D02*
X14326603Y-13247984D01*
X14326603Y-13247984D02*
X14307555Y-13238460D01*
X14307555Y-13238460D02*
X14298031Y-13219412D01*
X14298031Y-13219412D02*
X14298031Y-13143222D01*
X14298031Y-13143222D02*
X14307555Y-13124174D01*
X14307555Y-13124174D02*
X14326603Y-13114650D01*
X14326603Y-13114650D02*
X14364698Y-13114650D01*
X14364698Y-13114650D02*
X14383745Y-13124174D01*
X14383745Y-13124174D02*
X14393269Y-13143222D01*
X14393269Y-13143222D02*
X14393269Y-13162269D01*
X14393269Y-13162269D02*
X14298031Y-13181317D01*
X14459936Y-13324174D02*
X14469460Y-13314650D01*
X14469460Y-13314650D02*
X14488507Y-13286079D01*
X14488507Y-13286079D02*
X14498031Y-13267031D01*
X14498031Y-13267031D02*
X14507555Y-13238460D01*
X14507555Y-13238460D02*
X14517079Y-13190841D01*
X14517079Y-13190841D02*
X14517079Y-13152746D01*
X14517079Y-13152746D02*
X14507555Y-13105127D01*
X14507555Y-13105127D02*
X14498031Y-13076555D01*
X14498031Y-13076555D02*
X14488507Y-13057508D01*
X14488507Y-13057508D02*
X14469460Y-13028936D01*
X14469460Y-13028936D02*
X14459936Y-13019412D01*
X14821841Y-13324174D02*
X14812317Y-13314650D01*
X14812317Y-13314650D02*
X14793269Y-13286079D01*
X14793269Y-13286079D02*
X14783745Y-13267031D01*
X14783745Y-13267031D02*
X14774222Y-13238460D01*
X14774222Y-13238460D02*
X14764698Y-13190841D01*
X14764698Y-13190841D02*
X14764698Y-13152746D01*
X14764698Y-13152746D02*
X14774222Y-13105127D01*
X14774222Y-13105127D02*
X14783745Y-13076555D01*
X14783745Y-13076555D02*
X14793269Y-13057508D01*
X14793269Y-13057508D02*
X14812317Y-13028936D01*
X14812317Y-13028936D02*
X14821841Y-13019412D01*
X14898031Y-13114650D02*
X14898031Y-13247984D01*
X14898031Y-13133698D02*
X14907555Y-13124174D01*
X14907555Y-13124174D02*
X14926603Y-13114650D01*
X14926603Y-13114650D02*
X14955174Y-13114650D01*
X14955174Y-13114650D02*
X14974222Y-13124174D01*
X14974222Y-13124174D02*
X14983745Y-13143222D01*
X14983745Y-13143222D02*
X14983745Y-13247984D01*
X15107555Y-13247984D02*
X15088507Y-13238460D01*
X15088507Y-13238460D02*
X15078984Y-13228936D01*
X15078984Y-13228936D02*
X15069460Y-13209888D01*
X15069460Y-13209888D02*
X15069460Y-13152746D01*
X15069460Y-13152746D02*
X15078984Y-13133698D01*
X15078984Y-13133698D02*
X15088507Y-13124174D01*
X15088507Y-13124174D02*
X15107555Y-13114650D01*
X15107555Y-13114650D02*
X15136126Y-13114650D01*
X15136126Y-13114650D02*
X15155174Y-13124174D01*
X15155174Y-13124174D02*
X15164698Y-13133698D01*
X15164698Y-13133698D02*
X15174222Y-13152746D01*
X15174222Y-13152746D02*
X15174222Y-13209888D01*
X15174222Y-13209888D02*
X15164698Y-13228936D01*
X15164698Y-13228936D02*
X15155174Y-13238460D01*
X15155174Y-13238460D02*
X15136126Y-13247984D01*
X15136126Y-13247984D02*
X15107555Y-13247984D01*
X15231365Y-13114650D02*
X15307555Y-13114650D01*
X15259936Y-13047984D02*
X15259936Y-13219412D01*
X15259936Y-13219412D02*
X15269460Y-13238460D01*
X15269460Y-13238460D02*
X15288507Y-13247984D01*
X15288507Y-13247984D02*
X15307555Y-13247984D01*
X15526603Y-13114650D02*
X15526603Y-13314650D01*
X15526603Y-13124174D02*
X15545650Y-13114650D01*
X15545650Y-13114650D02*
X15583746Y-13114650D01*
X15583746Y-13114650D02*
X15602793Y-13124174D01*
X15602793Y-13124174D02*
X15612317Y-13133698D01*
X15612317Y-13133698D02*
X15621841Y-13152746D01*
X15621841Y-13152746D02*
X15621841Y-13209888D01*
X15621841Y-13209888D02*
X15612317Y-13228936D01*
X15612317Y-13228936D02*
X15602793Y-13238460D01*
X15602793Y-13238460D02*
X15583746Y-13247984D01*
X15583746Y-13247984D02*
X15545650Y-13247984D01*
X15545650Y-13247984D02*
X15526603Y-13238460D01*
X15736126Y-13247984D02*
X15717079Y-13238460D01*
X15717079Y-13238460D02*
X15707555Y-13219412D01*
X15707555Y-13219412D02*
X15707555Y-13047984D01*
X15898031Y-13247984D02*
X15898031Y-13143222D01*
X15898031Y-13143222D02*
X15888507Y-13124174D01*
X15888507Y-13124174D02*
X15869460Y-13114650D01*
X15869460Y-13114650D02*
X15831365Y-13114650D01*
X15831365Y-13114650D02*
X15812317Y-13124174D01*
X15898031Y-13238460D02*
X15878984Y-13247984D01*
X15878984Y-13247984D02*
X15831365Y-13247984D01*
X15831365Y-13247984D02*
X15812317Y-13238460D01*
X15812317Y-13238460D02*
X15802793Y-13219412D01*
X15802793Y-13219412D02*
X15802793Y-13200365D01*
X15802793Y-13200365D02*
X15812317Y-13181317D01*
X15812317Y-13181317D02*
X15831365Y-13171793D01*
X15831365Y-13171793D02*
X15878984Y-13171793D01*
X15878984Y-13171793D02*
X15898031Y-13162269D01*
X15964698Y-13114650D02*
X16040888Y-13114650D01*
X15993269Y-13047984D02*
X15993269Y-13219412D01*
X15993269Y-13219412D02*
X16002793Y-13238460D01*
X16002793Y-13238460D02*
X16021841Y-13247984D01*
X16021841Y-13247984D02*
X16040888Y-13247984D01*
X16183746Y-13238460D02*
X16164698Y-13247984D01*
X16164698Y-13247984D02*
X16126603Y-13247984D01*
X16126603Y-13247984D02*
X16107555Y-13238460D01*
X16107555Y-13238460D02*
X16098031Y-13219412D01*
X16098031Y-13219412D02*
X16098031Y-13143222D01*
X16098031Y-13143222D02*
X16107555Y-13124174D01*
X16107555Y-13124174D02*
X16126603Y-13114650D01*
X16126603Y-13114650D02*
X16164698Y-13114650D01*
X16164698Y-13114650D02*
X16183746Y-13124174D01*
X16183746Y-13124174D02*
X16193269Y-13143222D01*
X16193269Y-13143222D02*
X16193269Y-13162269D01*
X16193269Y-13162269D02*
X16098031Y-13181317D01*
X16364698Y-13247984D02*
X16364698Y-13047984D01*
X16364698Y-13238460D02*
X16345650Y-13247984D01*
X16345650Y-13247984D02*
X16307555Y-13247984D01*
X16307555Y-13247984D02*
X16288507Y-13238460D01*
X16288507Y-13238460D02*
X16278984Y-13228936D01*
X16278984Y-13228936D02*
X16269460Y-13209888D01*
X16269460Y-13209888D02*
X16269460Y-13152746D01*
X16269460Y-13152746D02*
X16278984Y-13133698D01*
X16278984Y-13133698D02*
X16288507Y-13124174D01*
X16288507Y-13124174D02*
X16307555Y-13114650D01*
X16307555Y-13114650D02*
X16345650Y-13114650D01*
X16345650Y-13114650D02*
X16364698Y-13124174D01*
X16440888Y-13324174D02*
X16450412Y-13314650D01*
X16450412Y-13314650D02*
X16469460Y-13286079D01*
X16469460Y-13286079D02*
X16478984Y-13267031D01*
X16478984Y-13267031D02*
X16488507Y-13238460D01*
X16488507Y-13238460D02*
X16498031Y-13190841D01*
X16498031Y-13190841D02*
X16498031Y-13152746D01*
X16498031Y-13152746D02*
X16488507Y-13105127D01*
X16488507Y-13105127D02*
X16478984Y-13076555D01*
X16478984Y-13076555D02*
X16469460Y-13057508D01*
X16469460Y-13057508D02*
X16450412Y-13028936D01*
X16450412Y-13028936D02*
X16440888Y-13019412D01*
M02*
