G04 #@! TF.GenerationSoftware,KiCad,Pcbnew,10.0.3*
G04 #@! TF.CreationDate,2026-05-26T11:20:20-04:00*
G04 #@! TF.ProjectId,Esp32 Can+IMU,45737033-3220-4436-916e-2b494d552e6b,rev?*
G04 #@! TF.SameCoordinates,Original*
G04 #@! TF.FileFunction,Soldermask,Top*
G04 #@! TF.FilePolarity,Negative*
%FSLAX46Y46*%
G04 Gerber Fmt 4.6, Leading zero omitted, Abs format (unit mm)*
G04 Created by KiCad (PCBNEW 10.0.3) date 2026-05-26 11:20:20*
%MOMM*%
%LPD*%
G01*
G04 APERTURE LIST*
G04 Aperture macros list*
%AMRoundRect*
0 Rectangle with rounded corners*
0 $1 Rounding radius*
0 $2 $3 $4 $5 $6 $7 $8 $9 X,Y pos of 4 corners*
0 Add a 4 corners polygon primitive as box body*
4,1,4,$2,$3,$4,$5,$6,$7,$8,$9,$2,$3,0*
0 Add four circle primitives for the rounded corners*
1,1,$1+$1,$2,$3*
1,1,$1+$1,$4,$5*
1,1,$1+$1,$6,$7*
1,1,$1+$1,$8,$9*
0 Add four rect primitives between the rounded corners*
20,1,$1+$1,$2,$3,$4,$5,0*
20,1,$1+$1,$4,$5,$6,$7,0*
20,1,$1+$1,$6,$7,$8,$9,0*
20,1,$1+$1,$8,$9,$2,$3,0*%
G04 Aperture macros list end*
%ADD10C,1.100000*%
%ADD11RoundRect,0.075000X-0.075000X-0.425000X0.075000X-0.425000X0.075000X0.425000X-0.075000X0.425000X0*%
%ADD12O,1.000000X0.580000*%
%ADD13C,0.660000*%
%ADD14RoundRect,0.218750X0.256250X-0.218750X0.256250X0.218750X-0.256250X0.218750X-0.256250X-0.218750X0*%
%ADD15RoundRect,0.135000X0.185000X-0.135000X0.185000X0.135000X-0.185000X0.135000X-0.185000X-0.135000X0*%
%ADD16RoundRect,0.140000X-0.140000X-0.170000X0.140000X-0.170000X0.140000X0.170000X-0.140000X0.170000X0*%
%ADD17C,0.600000*%
%ADD18R,3.900000X3.900000*%
%ADD19R,0.900000X1.500000*%
%ADD20R,1.500000X0.900000*%
%ADD21R,1.700000X1.700000*%
%ADD22C,1.700000*%
%ADD23RoundRect,0.135000X-0.185000X0.135000X-0.185000X-0.135000X0.185000X-0.135000X0.185000X0.135000X0*%
%ADD24R,0.700000X1.000000*%
%ADD25R,1.000000X1.000000*%
%ADD26RoundRect,0.250000X-0.650000X0.325000X-0.650000X-0.325000X0.650000X-0.325000X0.650000X0.325000X0*%
%ADD27R,1.257300X0.482600*%
%ADD28R,2.400000X3.099999*%
%ADD29RoundRect,0.250000X1.000000X0.650000X-1.000000X0.650000X-1.000000X-0.650000X1.000000X-0.650000X0*%
%ADD30RoundRect,0.140000X0.140000X0.170000X-0.140000X0.170000X-0.140000X-0.170000X0.140000X-0.170000X0*%
%ADD31RoundRect,0.250000X0.325000X0.650000X-0.325000X0.650000X-0.325000X-0.650000X0.325000X-0.650000X0*%
%ADD32RoundRect,0.093750X-0.093750X0.156250X-0.093750X-0.156250X0.093750X-0.156250X0.093750X0.156250X0*%
%ADD33RoundRect,0.075000X-0.075000X0.250000X-0.075000X-0.250000X0.075000X-0.250000X0.075000X0.250000X0*%
%ADD34C,3.000000*%
%ADD35RoundRect,0.750000X-0.750000X0.750000X-0.750000X-0.750000X0.750000X-0.750000X0.750000X0.750000X0*%
%ADD36RoundRect,0.250000X0.250000X1.100000X-0.250000X1.100000X-0.250000X-1.100000X0.250000X-1.100000X0*%
%ADD37RoundRect,0.150000X0.150000X0.700000X-0.150000X0.700000X-0.150000X-0.700000X0.150000X-0.700000X0*%
%ADD38RoundRect,0.250000X-1.000000X-0.650000X1.000000X-0.650000X1.000000X0.650000X-1.000000X0.650000X0*%
%ADD39RoundRect,0.140000X0.170000X-0.140000X0.170000X0.140000X-0.170000X0.140000X-0.170000X-0.140000X0*%
%ADD40R,0.304800X0.533400*%
%ADD41R,0.533400X0.304800*%
%ADD42RoundRect,0.250000X-0.312500X-1.450000X0.312500X-1.450000X0.312500X1.450000X-0.312500X1.450000X0*%
%ADD43RoundRect,0.135000X0.135000X0.185000X-0.135000X0.185000X-0.135000X-0.185000X0.135000X-0.185000X0*%
%ADD44RoundRect,0.250000X1.000000X0.900000X-1.000000X0.900000X-1.000000X-0.900000X1.000000X-0.900000X0*%
%ADD45RoundRect,0.150000X-0.512500X-0.150000X0.512500X-0.150000X0.512500X0.150000X-0.512500X0.150000X0*%
%ADD46RoundRect,0.135000X-0.135000X-0.185000X0.135000X-0.185000X0.135000X0.185000X-0.135000X0.185000X0*%
%ADD47RoundRect,0.250000X0.650000X-1.000000X0.650000X1.000000X-0.650000X1.000000X-0.650000X-1.000000X0*%
%ADD48R,0.508000X1.257300*%
%ADD49RoundRect,0.250000X-0.300000X-1.600000X0.300000X-1.600000X0.300000X1.600000X-0.300000X1.600000X0*%
%ADD50RoundRect,0.760000X-1.140000X1.140000X-1.140000X-1.140000X1.140000X-1.140000X1.140000X1.140000X0*%
%ADD51C,4.000000*%
%ADD52R,2.000000X1.200000*%
%ADD53R,1.550000X0.600000*%
%ADD54C,5.700000*%
G04 APERTURE END LIST*
D10*
G04 #@! TO.C,J12*
X113730000Y-109230000D03*
X113730000Y-104930000D03*
X108930000Y-109230000D03*
X108930000Y-104930000D03*
D11*
X108550000Y-107840000D03*
X109340000Y-107840000D03*
X110130000Y-107840000D03*
X110920000Y-107840000D03*
X111710000Y-107840000D03*
X112500000Y-107840000D03*
X113290000Y-107840000D03*
X114080000Y-107840000D03*
X114080000Y-106320000D03*
X113290000Y-106320000D03*
X112500000Y-106320000D03*
X111710000Y-106320000D03*
X110920000Y-106320000D03*
X110130000Y-106320000D03*
X109340000Y-106320000D03*
X108550000Y-106320000D03*
D12*
X115080000Y-107080000D03*
D13*
X107580000Y-107080000D03*
G04 #@! TD*
D14*
G04 #@! TO.C,D4*
X115930000Y-115317500D03*
X115930000Y-113742500D03*
G04 #@! TD*
D15*
G04 #@! TO.C,R23*
X115810000Y-111570000D03*
X115810000Y-112590000D03*
G04 #@! TD*
D16*
G04 #@! TO.C,D2*
X107740000Y-111320000D03*
X108700000Y-111320000D03*
G04 #@! TD*
D17*
G04 #@! TO.C,U1*
X115018900Y-91810550D03*
X113618900Y-91810550D03*
X115718900Y-92510550D03*
X114318900Y-92510550D03*
X112918900Y-92510550D03*
X115018900Y-93210550D03*
D18*
X114318900Y-93210550D03*
D17*
X113618900Y-93210550D03*
X115718900Y-93910550D03*
X114318900Y-93910550D03*
X112918900Y-93910550D03*
X115018900Y-94610550D03*
X113618900Y-94610550D03*
D19*
X106598900Y-82960550D03*
X107868900Y-82960550D03*
X109138900Y-82960550D03*
X110408900Y-82960550D03*
X111678900Y-82960550D03*
X112948900Y-82960550D03*
X114218900Y-82960550D03*
X115488900Y-82960550D03*
X116758900Y-82960550D03*
X118028900Y-82960550D03*
X119298900Y-82960550D03*
X120568900Y-82960550D03*
X121838900Y-82960550D03*
X123108900Y-82960550D03*
D20*
X124358900Y-84725550D03*
X124358900Y-85995550D03*
X124358900Y-87265550D03*
X124358900Y-88535550D03*
X124358900Y-89805550D03*
X124358900Y-91075550D03*
X124358900Y-92345550D03*
X124358900Y-93615550D03*
X124358900Y-94885550D03*
X124358900Y-96155550D03*
X124358900Y-97425550D03*
X124358900Y-98695550D03*
D19*
X123108900Y-100460550D03*
X121838900Y-100460550D03*
X120568900Y-100460550D03*
X119298900Y-100460550D03*
X118028900Y-100460550D03*
X116758900Y-100460550D03*
X115488900Y-100460550D03*
X114218900Y-100460550D03*
X112948900Y-100460550D03*
X111678900Y-100460550D03*
X110408900Y-100460550D03*
X109138900Y-100460550D03*
X107868900Y-100460550D03*
X106598900Y-100460550D03*
G04 #@! TD*
D21*
G04 #@! TO.C,J7*
X150818900Y-101910550D03*
D22*
X150818900Y-99370550D03*
X150818900Y-96830550D03*
G04 #@! TD*
D23*
G04 #@! TO.C,R2*
X132846400Y-91360550D03*
X132846400Y-90340550D03*
G04 #@! TD*
D22*
G04 #@! TO.C,J9*
X142818900Y-96790550D03*
X142818900Y-99330550D03*
D21*
X142818900Y-101870550D03*
G04 #@! TD*
D24*
G04 #@! TO.C,SW1*
X111493900Y-76310550D03*
X111543900Y-80710550D03*
X109343900Y-76310550D03*
X109343900Y-80710550D03*
G04 #@! TD*
D16*
G04 #@! TO.C,C9*
X107830000Y-103360000D03*
X106870000Y-103360000D03*
G04 #@! TD*
D25*
G04 #@! TO.C,TP_3v3*
X150218900Y-70310550D03*
G04 #@! TD*
G04 #@! TO.C,TP_CS1*
X130618900Y-114743850D03*
G04 #@! TD*
G04 #@! TO.C,TP_CANR1*
X119618900Y-75910550D03*
G04 #@! TD*
G04 #@! TO.C,TP_5v1*
X144418900Y-73910550D03*
G04 #@! TD*
D26*
G04 #@! TO.C,C2*
X127346400Y-89815550D03*
X127346400Y-86865550D03*
G04 #@! TD*
D23*
G04 #@! TO.C,R_Boot1*
X110018900Y-73800550D03*
X110018900Y-74820550D03*
G04 #@! TD*
D27*
G04 #@! TO.C,U4*
X136096400Y-86840550D03*
X136096400Y-88110550D03*
X136096400Y-89380550D03*
X136096400Y-90650550D03*
X141341500Y-90650550D03*
X141341500Y-89380550D03*
X141341500Y-88110550D03*
X141341500Y-86840550D03*
D28*
X138718950Y-88745550D03*
G04 #@! TD*
D29*
G04 #@! TO.C,D8*
X139096400Y-82840550D03*
X143096400Y-82840550D03*
G04 #@! TD*
D26*
G04 #@! TO.C,C1*
X129846400Y-89815550D03*
X129846400Y-86865550D03*
G04 #@! TD*
D23*
G04 #@! TO.C,R5*
X149596400Y-88340550D03*
X149596400Y-89360550D03*
G04 #@! TD*
D14*
G04 #@! TO.C,D3*
X111218900Y-70583050D03*
X111218900Y-72158050D03*
G04 #@! TD*
D30*
G04 #@! TO.C,C10*
X106820000Y-102190000D03*
X107780000Y-102190000D03*
G04 #@! TD*
D31*
G04 #@! TO.C,C7*
X138543900Y-79910550D03*
X141493900Y-79910550D03*
G04 #@! TD*
D32*
G04 #@! TO.C,U6*
X111515000Y-113130000D03*
D33*
X110977500Y-113205000D03*
D32*
X110440000Y-113130000D03*
X110440000Y-111430000D03*
D33*
X110977500Y-111355000D03*
D32*
X111515000Y-111430000D03*
G04 #@! TD*
D22*
G04 #@! TO.C,J4*
X138918900Y-96790550D03*
X138918900Y-99330550D03*
D21*
X138918900Y-101870550D03*
G04 #@! TD*
D31*
G04 #@! TO.C,C6*
X138543900Y-77510550D03*
X141493900Y-77510550D03*
G04 #@! TD*
D34*
G04 #@! TO.C,J3*
X143860000Y-68920000D03*
D35*
X143860000Y-63920000D03*
G04 #@! TD*
D25*
G04 #@! TO.C,3v3/2*
X119418900Y-71110550D03*
G04 #@! TD*
D36*
G04 #@! TO.C,J2*
X106493900Y-62685550D03*
X113943900Y-62685550D03*
D37*
X108343900Y-65885550D03*
X109593900Y-65885550D03*
X110843900Y-65885550D03*
X112093900Y-65885550D03*
G04 #@! TD*
D38*
G04 #@! TO.C,D5*
X148418900Y-77510550D03*
X144418900Y-77510550D03*
G04 #@! TD*
D37*
G04 #@! TO.C,J1*
X122593900Y-65885550D03*
X121343900Y-65885550D03*
X120093900Y-65885550D03*
X118843900Y-65885550D03*
D36*
X124443900Y-62685550D03*
X116993900Y-62685550D03*
G04 #@! TD*
D39*
G04 #@! TO.C,C8*
X146096400Y-88380550D03*
X146096400Y-89340550D03*
G04 #@! TD*
G04 #@! TO.C,C4*
X136096400Y-84840550D03*
X136096400Y-85800550D03*
G04 #@! TD*
G04 #@! TO.C,C5*
X143096400Y-88380550D03*
X143096400Y-89340550D03*
G04 #@! TD*
D40*
G04 #@! TO.C,U2*
X126499874Y-116066813D03*
X127000000Y-116066813D03*
X127500126Y-116066813D03*
D41*
X128181100Y-116243724D03*
X128181100Y-116743850D03*
X128181100Y-117243976D03*
X128181100Y-117744102D03*
D40*
X127500126Y-117921013D03*
X127000000Y-117921013D03*
X126499874Y-117921013D03*
D41*
X125818900Y-117744102D03*
X125818900Y-117243976D03*
X125818900Y-116743850D03*
X125818900Y-116243724D03*
G04 #@! TD*
D42*
G04 #@! TO.C,F1*
X127558900Y-79710550D03*
X131833900Y-79710550D03*
G04 #@! TD*
D43*
G04 #@! TO.C,R18*
X122398900Y-103910550D03*
X123418900Y-103910550D03*
G04 #@! TD*
D24*
G04 #@! TO.C,SW2*
X105943900Y-80710550D03*
X105893900Y-76310550D03*
X108093900Y-80710550D03*
X108093900Y-76310550D03*
G04 #@! TD*
D44*
G04 #@! TO.C,D_TVS1*
X132168900Y-74835550D03*
X127868900Y-74835550D03*
G04 #@! TD*
D45*
G04 #@! TO.C,U5*
X149756400Y-72960550D03*
X149756400Y-74860550D03*
X147481400Y-74860550D03*
X147481400Y-73910550D03*
X147481400Y-72960550D03*
G04 #@! TD*
D46*
G04 #@! TO.C,R14*
X142328900Y-105870550D03*
X143348900Y-105870550D03*
G04 #@! TD*
D38*
G04 #@! TO.C,D7*
X127558900Y-83710550D03*
X131558900Y-83710550D03*
G04 #@! TD*
D46*
G04 #@! TO.C,R16*
X134388900Y-106110550D03*
X135408900Y-106110550D03*
G04 #@! TD*
D16*
G04 #@! TO.C,C13*
X126338900Y-119743850D03*
X127298900Y-119743850D03*
G04 #@! TD*
D47*
G04 #@! TO.C,D6*
X123718900Y-69035550D03*
X123718900Y-73035550D03*
G04 #@! TD*
D43*
G04 #@! TO.C,R9*
X115908900Y-71135550D03*
X116928900Y-71135550D03*
G04 #@! TD*
D48*
G04 #@! TO.C,U3*
X113313600Y-79717950D03*
X114583600Y-79717950D03*
X115853600Y-79717950D03*
X117123600Y-79717950D03*
X117123600Y-74472850D03*
X115853600Y-74472850D03*
X114583600Y-74472850D03*
X113313600Y-74472850D03*
G04 #@! TD*
D16*
G04 #@! TO.C,C12*
X128418900Y-119743850D03*
X129378900Y-119743850D03*
G04 #@! TD*
D23*
G04 #@! TO.C,R7*
X114080000Y-112130000D03*
X114080000Y-111110000D03*
G04 #@! TD*
D49*
G04 #@! TO.C,L1*
X146096400Y-82340550D03*
X149096400Y-82340550D03*
G04 #@! TD*
D46*
G04 #@! TO.C,R15*
X138418900Y-106110550D03*
X139438900Y-106110550D03*
G04 #@! TD*
D50*
G04 #@! TO.C,J13*
X137618900Y-63910550D03*
D51*
X137618900Y-68910550D03*
G04 #@! TD*
D50*
G04 #@! TO.C,J14*
X131370000Y-63900000D03*
D51*
X131370000Y-68900000D03*
G04 #@! TD*
D23*
G04 #@! TO.C,R8*
X112790000Y-111230000D03*
X112790000Y-112250000D03*
G04 #@! TD*
D22*
G04 #@! TO.C,J6*
X130918900Y-96790550D03*
X130918900Y-99330550D03*
D21*
X130918900Y-101870550D03*
G04 #@! TD*
D22*
G04 #@! TO.C,J8*
X146818900Y-96830550D03*
X146818900Y-99370550D03*
D21*
X146818900Y-101910550D03*
G04 #@! TD*
D23*
G04 #@! TO.C,R1*
X132846400Y-88850550D03*
X132846400Y-87830550D03*
G04 #@! TD*
G04 #@! TO.C,R22*
X112438900Y-71910550D03*
X112438900Y-70890550D03*
G04 #@! TD*
D46*
G04 #@! TO.C,R4*
X144086400Y-89360550D03*
X145106400Y-89360550D03*
G04 #@! TD*
D15*
G04 #@! TO.C,R6*
X147596400Y-88330550D03*
X147596400Y-89350550D03*
G04 #@! TD*
D46*
G04 #@! TO.C,R17*
X131328900Y-106110550D03*
X130308900Y-106110550D03*
G04 #@! TD*
D23*
G04 #@! TO.C,R3*
X134096400Y-90330550D03*
X134096400Y-91350550D03*
G04 #@! TD*
D46*
G04 #@! TO.C,R13*
X146318900Y-105870550D03*
X147338900Y-105870550D03*
G04 #@! TD*
D25*
G04 #@! TO.C,TP_INT1*
X123218900Y-114543850D03*
G04 #@! TD*
G04 #@! TO.C,TP_SCL1*
X130618900Y-116743850D03*
G04 #@! TD*
G04 #@! TO.C,TP_GND1*
X135018900Y-82310550D03*
G04 #@! TD*
G04 #@! TO.C,TP_INT2*
X123218900Y-116543850D03*
G04 #@! TD*
G04 #@! TO.C,TP_SDA1*
X132818900Y-116743850D03*
G04 #@! TD*
G04 #@! TO.C,TP_CAND1*
X119618900Y-79510550D03*
G04 #@! TD*
D46*
G04 #@! TO.C,R19*
X123418900Y-104910550D03*
X122398900Y-104910550D03*
G04 #@! TD*
G04 #@! TO.C,R12*
X150318900Y-105870550D03*
X151338900Y-105870550D03*
G04 #@! TD*
D22*
G04 #@! TO.C,J5*
X134918900Y-96790550D03*
X134918900Y-99330550D03*
D21*
X134918900Y-101870550D03*
G04 #@! TD*
D15*
G04 #@! TO.C,R_EN1*
X107018900Y-73600550D03*
X107018900Y-74620550D03*
G04 #@! TD*
D52*
G04 #@! TO.C,J11*
X117618900Y-102710550D03*
X117618900Y-108310550D03*
D53*
X120043900Y-104010550D03*
X120043900Y-105010550D03*
X120043900Y-106010550D03*
X120043900Y-107010550D03*
G04 #@! TD*
D54*
G04 #@! TO.C,H1*
X152000000Y-119000000D03*
G04 #@! TD*
G04 #@! TO.C,H2*
X102000000Y-119000000D03*
G04 #@! TD*
G04 #@! TO.C,H4*
X102000000Y-64000000D03*
G04 #@! TD*
G04 #@! TO.C,H3*
X152000000Y-64000000D03*
G04 #@! TD*
M02*
