G04 #@! TF.GenerationSoftware,KiCad,Pcbnew,10.0.3*
G04 #@! TF.CreationDate,2026-05-26T11:20:20-04:00*
G04 #@! TF.ProjectId,Esp32 Can+IMU,45737033-3220-4436-916e-2b494d552e6b,rev?*
G04 #@! TF.SameCoordinates,Original*
G04 #@! TF.FileFunction,Soldermask,Bot*
G04 #@! TF.FilePolarity,Negative*
%FSLAX46Y46*%
G04 Gerber Fmt 4.6, Leading zero omitted, Abs format (unit mm)*
G04 Created by KiCad (PCBNEW 10.0.3) date 2026-05-26 11:20:20*
%MOMM*%
%LPD*%
G01*
G04 APERTURE LIST*
G04 Aperture macros list*
%AMRoundRect*
0 Rectangle with rounded corners*
0 $1 Rounding radius*
0 $2 $3 $4 $5 $6 $7 $8 $9 X,Y pos of 4 corners*
0 Add a 4 corners polygon primitive as box body*
4,1,4,$2,$3,$4,$5,$6,$7,$8,$9,$2,$3,0*
0 Add four circle primitives for the rounded corners*
1,1,$1+$1,$2,$3*
1,1,$1+$1,$4,$5*
1,1,$1+$1,$6,$7*
1,1,$1+$1,$8,$9*
0 Add four rect primitives between the rounded corners*
20,1,$1+$1,$2,$3,$4,$5,0*
20,1,$1+$1,$4,$5,$6,$7,0*
20,1,$1+$1,$6,$7,$8,$9,0*
20,1,$1+$1,$8,$9,$2,$3,0*%
%AMFreePoly0*
4,1,23,0.500000,-0.750000,0.000000,-0.750000,0.000000,-0.745722,-0.065263,-0.745722,-0.191342,-0.711940,-0.304381,-0.646677,-0.396677,-0.554381,-0.461940,-0.441342,-0.495722,-0.315263,-0.495722,-0.250000,-0.500000,-0.250000,-0.500000,0.250000,-0.495722,0.250000,-0.495722,0.315263,-0.461940,0.441342,-0.396677,0.554381,-0.304381,0.646677,-0.191342,0.711940,-0.065263,0.745722,0.000000,0.745722,
0.000000,0.750000,0.500000,0.750000,0.500000,-0.750000,0.500000,-0.750000,$1*%
%AMFreePoly1*
4,1,23,0.000000,0.745722,0.065263,0.745722,0.191342,0.711940,0.304381,0.646677,0.396677,0.554381,0.461940,0.441342,0.495722,0.315263,0.495722,0.250000,0.500000,0.250000,0.500000,-0.250000,0.495722,-0.250000,0.495722,-0.315263,0.461940,-0.441342,0.396677,-0.554381,0.304381,-0.646677,0.191342,-0.711940,0.065263,-0.745722,0.000000,-0.745722,0.000000,-0.750000,-0.500000,-0.750000,
-0.500000,0.750000,0.000000,0.750000,0.000000,0.745722,0.000000,0.745722,$1*%
G04 Aperture macros list end*
%ADD10C,1.100000*%
%ADD11O,1.000000X0.580000*%
%ADD12C,0.660000*%
%ADD13R,1.700000X1.700000*%
%ADD14C,1.700000*%
%ADD15R,1.000000X1.000000*%
%ADD16C,3.000000*%
%ADD17RoundRect,0.750000X-0.750000X0.750000X-0.750000X-0.750000X0.750000X-0.750000X0.750000X0.750000X0*%
%ADD18RoundRect,0.760000X-1.140000X1.140000X-1.140000X-1.140000X1.140000X-1.140000X1.140000X1.140000X0*%
%ADD19C,4.000000*%
%ADD20C,5.700000*%
%ADD21FreePoly0,0.000000*%
%ADD22FreePoly1,0.000000*%
%ADD23FreePoly1,180.000000*%
%ADD24FreePoly0,180.000000*%
G04 APERTURE END LIST*
G04 #@! TO.C,JP2*
G36*
X138718900Y-105560550D02*
G01*
X139018900Y-105560550D01*
X139018900Y-107060550D01*
X138718900Y-107060550D01*
X138718900Y-105560550D01*
G37*
G04 #@! TO.C,JP3*
G36*
X134768900Y-105270550D02*
G01*
X135068900Y-105270550D01*
X135068900Y-106770550D01*
X134768900Y-106770550D01*
X134768900Y-105270550D01*
G37*
G04 #@! TO.C,JP4*
G36*
X130618900Y-105270550D02*
G01*
X130918900Y-105270550D01*
X130918900Y-106770550D01*
X130618900Y-106770550D01*
X130618900Y-105270550D01*
G37*
G04 #@! TO.C,Can Term*
G36*
X115318900Y-71585550D02*
G01*
X115618900Y-71585550D01*
X115618900Y-73085550D01*
X115318900Y-73085550D01*
X115318900Y-71585550D01*
G37*
G04 #@! TD*
D10*
G04 #@! TO.C,J12*
X113730000Y-109230000D03*
X113730000Y-104930000D03*
X108930000Y-109230000D03*
X108930000Y-104930000D03*
D11*
X115080000Y-107080000D03*
D12*
X107580000Y-107080000D03*
G04 #@! TD*
D13*
G04 #@! TO.C,J7*
X150818900Y-101910550D03*
D14*
X150818900Y-99370550D03*
X150818900Y-96830550D03*
G04 #@! TD*
G04 #@! TO.C,J9*
X142818900Y-96790550D03*
X142818900Y-99330550D03*
D13*
X142818900Y-101870550D03*
G04 #@! TD*
D15*
G04 #@! TO.C,TP_3v3*
X150218900Y-70310550D03*
G04 #@! TD*
G04 #@! TO.C,TP_CS1*
X130618900Y-114743850D03*
G04 #@! TD*
G04 #@! TO.C,TP_CANR1*
X119618900Y-75910550D03*
G04 #@! TD*
G04 #@! TO.C,TP_5v1*
X144418900Y-73910550D03*
G04 #@! TD*
D14*
G04 #@! TO.C,J4*
X138918900Y-96790550D03*
X138918900Y-99330550D03*
D13*
X138918900Y-101870550D03*
G04 #@! TD*
D16*
G04 #@! TO.C,J3*
X143860000Y-68920000D03*
D17*
X143860000Y-63920000D03*
G04 #@! TD*
D15*
G04 #@! TO.C,3v3/2*
X119418900Y-71110550D03*
G04 #@! TD*
D18*
G04 #@! TO.C,J13*
X137618900Y-63910550D03*
D19*
X137618900Y-68910550D03*
G04 #@! TD*
D18*
G04 #@! TO.C,J14*
X131370000Y-63900000D03*
D19*
X131370000Y-68900000D03*
G04 #@! TD*
D14*
G04 #@! TO.C,J6*
X130918900Y-96790550D03*
X130918900Y-99330550D03*
D13*
X130918900Y-101870550D03*
G04 #@! TD*
D14*
G04 #@! TO.C,J8*
X146818900Y-96830550D03*
X146818900Y-99370550D03*
D13*
X146818900Y-101910550D03*
G04 #@! TD*
D15*
G04 #@! TO.C,TP_INT1*
X123218900Y-114543850D03*
G04 #@! TD*
G04 #@! TO.C,TP_SCL1*
X130618900Y-116743850D03*
G04 #@! TD*
G04 #@! TO.C,TP_GND1*
X135018900Y-82310550D03*
G04 #@! TD*
G04 #@! TO.C,TP_INT2*
X123218900Y-116543850D03*
G04 #@! TD*
G04 #@! TO.C,TP_SDA1*
X132818900Y-116743850D03*
G04 #@! TD*
G04 #@! TO.C,TP_CAND1*
X119618900Y-79510550D03*
G04 #@! TD*
D14*
G04 #@! TO.C,J5*
X134918900Y-96790550D03*
X134918900Y-99330550D03*
D13*
X134918900Y-101870550D03*
G04 #@! TD*
D20*
G04 #@! TO.C,H1*
X152000000Y-119000000D03*
G04 #@! TD*
G04 #@! TO.C,H2*
X102000000Y-119000000D03*
G04 #@! TD*
G04 #@! TO.C,H4*
X102000000Y-64000000D03*
G04 #@! TD*
G04 #@! TO.C,H3*
X152000000Y-64000000D03*
G04 #@! TD*
D21*
G04 #@! TO.C,JP2*
X138218900Y-106310550D03*
D22*
X139518900Y-106310550D03*
G04 #@! TD*
G04 #@! TO.C,JP3*
X135568900Y-106020550D03*
D21*
X134268900Y-106020550D03*
G04 #@! TD*
G04 #@! TO.C,JP4*
X130118900Y-106020550D03*
D22*
X131418900Y-106020550D03*
G04 #@! TD*
D23*
G04 #@! TO.C,Can Term*
X114818900Y-72335550D03*
D24*
X116118900Y-72335550D03*
G04 #@! TD*
M02*
