M48
; DRILL file KiCad 10.0.3 date 2026-05-26T11:20:20
; FORMAT={-:-/ absolute / metric / decimal}
; #@! TF.CreationDate,2026-05-26T11:20:20-04:00
; #@! TF.GenerationSoftware,Kicad,Pcbnew,10.0.3
; #@! TF.FileFunction,Plated,1,2,PTH
FMAT,2
METRIC
; #@! TA.AperFunction,Plated,PTH,ComponentDrill
T1C0.200
; #@! TA.AperFunction,Plated,PTH,ViaDrill
T2C0.300
; #@! TA.AperFunction,Plated,PTH,ComponentDrill
T3C0.500
; #@! TA.AperFunction,Plated,PTH,ComponentDrill
T4C0.700
; #@! TA.AperFunction,Plated,PTH,ViaDrill
T5C1.000
; #@! TA.AperFunction,Plated,PTH,ComponentDrill
T6C1.000
; #@! TA.AperFunction,Plated,PTH,ComponentDrill
T7C1.800
; #@! TA.AperFunction,Plated,PTH,ComponentDrill
T8C2.700
; #@! TA.AperFunction,Plated,PTH,ComponentDrill
T9C3.200
%
G90
G05
T1
X112.919Y-92.511
X112.919Y-93.911
X113.619Y-91.811
X113.619Y-93.211
X113.619Y-94.611
X114.319Y-92.511
X114.319Y-93.911
X115.019Y-91.811
X115.019Y-93.211
X115.019Y-94.611
X115.719Y-92.511
X115.719Y-93.911
T2
X105.91Y-109.18
X106.995Y-111.375
X108.019Y-98.645
X108.019Y-99.311
X108.344Y-65.036
X108.419Y-71.511
X108.419Y-73.911
X108.939Y-96.311
X109.344Y-78.311
X109.81Y-102.18
X109.87Y-110.35
X110.28Y-103.83
X110.419Y-80.711
X110.43Y-98.79
X110.619Y-73.711
X110.819Y-67.536
X111.01Y-104.28
X111.55Y-110.36
X111.55Y-116.87
X111.55Y-116.87
X111.68Y-98.91
X112.019Y-85.711
X112.46Y-114.111
X112.46Y-115.111
X112.819Y-78.589
X112.88Y-98.9
X114.144Y-77.186
X114.619Y-70.711
X114.99Y-111.22
X115.06Y-105.79
X115.11Y-109.88
X115.219Y-87.911
X115.9Y-102.5
X116.619Y-110.711
X116.65Y-111.511
X116.819Y-98.711
X116.819Y-109.911
X116.929Y-72.446
X117.48Y-113.21
X118.029Y-98.721
X118.519Y-86.811
X118.674Y-87.956
X118.719Y-64.536
X119.219Y-99.111
X119.819Y-86.711
X120.219Y-94.311
X120.219Y-98.311
X121.019Y-93.911
X121.119Y-86.411
X121.344Y-67.536
X121.419Y-104.011
X121.753Y-96.976
X121.839Y-85.711
X122.619Y-87.911
X123.219Y-106.911
X124.219Y-105.911
X124.652Y-116.711
X126.119Y-114.044
X126.497Y-115.28
X126.913Y-114.144
X127.0Y-116.929
X127.038Y-118.711
X127.319Y-113.264
X128.638Y-114.354
X129.019Y-117.344
X130.219Y-104.511
X131.329Y-104.111
X134.019Y-104.311
X135.409Y-104.311
X136.096Y-84.841
X136.619Y-113.911
X137.219Y-109.111
X138.119Y-104.411
X139.439Y-104.311
X141.341Y-84.841
T3
X119.419Y-71.111
X119.619Y-75.911
X119.619Y-79.511
X123.219Y-114.544
X123.219Y-116.544
X130.619Y-114.744
X130.619Y-116.744
X132.819Y-116.744
X135.019Y-82.311
X144.419Y-73.911
X150.219Y-70.311
T4
X108.93Y-104.93
X108.93Y-109.23
X113.73Y-104.93
X113.73Y-109.23
T5
X123.819Y-75.511
X134.231Y-76.898
X134.819Y-79.911
T6
X130.919Y-96.791
X130.919Y-99.331
X130.919Y-101.871
X134.919Y-96.791
X134.919Y-99.331
X134.919Y-101.871
X138.919Y-96.791
X138.919Y-99.331
X138.919Y-101.871
X142.819Y-96.791
X142.819Y-99.331
X142.819Y-101.871
X146.819Y-96.831
X146.819Y-99.371
X146.819Y-101.911
X150.819Y-96.831
X150.819Y-99.371
X150.819Y-101.911
T7
X143.86Y-63.92
X143.86Y-68.92
T8
X131.37Y-63.9
X131.37Y-68.9
X137.619Y-63.911
X137.619Y-68.911
T9
X102.0Y-64.0
X102.0Y-119.0
X152.0Y-64.0
X152.0Y-119.0
M30
