G04 #@! TF.GenerationSoftware,KiCad,Pcbnew,10.0.3*
G04 #@! TF.CreationDate,2026-05-26T11:20:20-04:00*
G04 #@! TF.ProjectId,Esp32 Can+IMU,45737033-3220-4436-916e-2b494d552e6b,rev?*
G04 #@! TF.SameCoordinates,Original*
G04 #@! TF.FileFunction,Copper,L2,Bot*
G04 #@! TF.FilePolarity,Positive*
%FSLAX46Y46*%
G04 Gerber Fmt 4.6, Leading zero omitted, Abs format (unit mm)*
G04 Created by KiCad (PCBNEW 10.0.3) date 2026-05-26 11:20:20*
%MOMM*%
%LPD*%
G01*
G04 APERTURE LIST*
G04 Aperture macros list*
%AMRoundRect*
0 Rectangle with rounded corners*
0 $1 Rounding radius*
0 $2 $3 $4 $5 $6 $7 $8 $9 X,Y pos of 4 corners*
0 Add a 4 corners polygon primitive as box body*
4,1,4,$2,$3,$4,$5,$6,$7,$8,$9,$2,$3,0*
0 Add four circle primitives for the rounded corners*
1,1,$1+$1,$2,$3*
1,1,$1+$1,$4,$5*
1,1,$1+$1,$6,$7*
1,1,$1+$1,$8,$9*
0 Add four rect primitives between the rounded corners*
20,1,$1+$1,$2,$3,$4,$5,0*
20,1,$1+$1,$4,$5,$6,$7,0*
20,1,$1+$1,$6,$7,$8,$9,0*
20,1,$1+$1,$8,$9,$2,$3,0*%
%AMFreePoly0*
4,1,23,0.500000,-0.750000,0.000000,-0.750000,0.000000,-0.745722,-0.065263,-0.745722,-0.191342,-0.711940,-0.304381,-0.646677,-0.396677,-0.554381,-0.461940,-0.441342,-0.495722,-0.315263,-0.495722,-0.250000,-0.500000,-0.250000,-0.500000,0.250000,-0.495722,0.250000,-0.495722,0.315263,-0.461940,0.441342,-0.396677,0.554381,-0.304381,0.646677,-0.191342,0.711940,-0.065263,0.745722,0.000000,0.745722,
0.000000,0.750000,0.500000,0.750000,0.500000,-0.750000,0.500000,-0.750000,$1*%
%AMFreePoly1*
4,1,23,0.000000,0.745722,0.065263,0.745722,0.191342,0.711940,0.304381,0.646677,0.396677,0.554381,0.461940,0.441342,0.495722,0.315263,0.495722,0.250000,0.500000,0.250000,0.500000,-0.250000,0.495722,-0.250000,0.495722,-0.315263,0.461940,-0.441342,0.396677,-0.554381,0.304381,-0.646677,0.191342,-0.711940,0.065263,-0.745722,0.000000,-0.745722,0.000000,-0.750000,-0.500000,-0.750000,
-0.500000,0.750000,0.000000,0.750000,0.000000,0.745722,0.000000,0.745722,$1*%
G04 Aperture macros list end*
G04 #@! TA.AperFunction,ComponentPad*
%ADD10C,1.100000*%
G04 #@! TD*
G04 #@! TA.AperFunction,HeatsinkPad*
%ADD11C,0.600000*%
G04 #@! TD*
G04 #@! TA.AperFunction,ComponentPad*
%ADD12R,1.700000X1.700000*%
G04 #@! TD*
G04 #@! TA.AperFunction,ComponentPad*
%ADD13C,1.700000*%
G04 #@! TD*
G04 #@! TA.AperFunction,ComponentPad*
%ADD14R,1.000000X1.000000*%
G04 #@! TD*
G04 #@! TA.AperFunction,ComponentPad*
%ADD15C,3.000000*%
G04 #@! TD*
G04 #@! TA.AperFunction,ComponentPad*
%ADD16RoundRect,0.750000X-0.750000X0.750000X-0.750000X-0.750000X0.750000X-0.750000X0.750000X0.750000X0*%
G04 #@! TD*
G04 #@! TA.AperFunction,ComponentPad*
%ADD17RoundRect,0.760000X-1.140000X1.140000X-1.140000X-1.140000X1.140000X-1.140000X1.140000X1.140000X0*%
G04 #@! TD*
G04 #@! TA.AperFunction,ComponentPad*
%ADD18C,4.000000*%
G04 #@! TD*
G04 #@! TA.AperFunction,ComponentPad*
%ADD19C,5.700000*%
G04 #@! TD*
G04 #@! TA.AperFunction,SMDPad,CuDef*
%ADD20FreePoly0,0.000000*%
G04 #@! TD*
G04 #@! TA.AperFunction,SMDPad,CuDef*
%ADD21FreePoly1,0.000000*%
G04 #@! TD*
G04 #@! TA.AperFunction,SMDPad,CuDef*
%ADD22FreePoly1,180.000000*%
G04 #@! TD*
G04 #@! TA.AperFunction,SMDPad,CuDef*
%ADD23FreePoly0,180.000000*%
G04 #@! TD*
G04 #@! TA.AperFunction,ViaPad*
%ADD24C,0.600000*%
G04 #@! TD*
G04 #@! TA.AperFunction,ViaPad*
%ADD25C,2.000000*%
G04 #@! TD*
G04 #@! TA.AperFunction,Conductor*
%ADD26C,0.200000*%
G04 #@! TD*
G04 #@! TA.AperFunction,Conductor*
%ADD27C,0.600000*%
G04 #@! TD*
G04 #@! TA.AperFunction,Conductor*
%ADD28C,0.400000*%
G04 #@! TD*
G04 #@! TA.AperFunction,Conductor*
%ADD29C,1.000000*%
G04 #@! TD*
G04 #@! TA.AperFunction,Conductor*
%ADD30C,3.000000*%
G04 #@! TD*
G04 APERTURE END LIST*
D10*
G04 #@! TO.P,J12,SH,SHIELD_SH*
G04 #@! TO.N,GND*
X113730000Y-109230000D03*
X113730000Y-104930000D03*
X108930000Y-109230000D03*
X108930000Y-104930000D03*
G04 #@! TD*
D11*
G04 #@! TO.P,U1,41,GND_41*
G04 #@! TO.N,GND*
X115018900Y-91810550D03*
X113618900Y-91810550D03*
X115718900Y-92510550D03*
X114318900Y-92510550D03*
X112918900Y-92510550D03*
X115018900Y-93210550D03*
X113618900Y-93210550D03*
X115718900Y-93910550D03*
X114318900Y-93910550D03*
X112918900Y-93910550D03*
X115018900Y-94610550D03*
X113618900Y-94610550D03*
G04 #@! TD*
D12*
G04 #@! TO.P,J7,1*
G04 #@! TO.N,Net-(J7-Pad1)*
X150818900Y-101910550D03*
D13*
G04 #@! TO.P,J7,2*
G04 #@! TO.N,+5V*
X150818900Y-99370550D03*
G04 #@! TO.P,J7,3*
G04 #@! TO.N,GND*
X150818900Y-96830550D03*
G04 #@! TD*
G04 #@! TO.P,J9,3*
G04 #@! TO.N,GND*
X142818900Y-96790550D03*
G04 #@! TO.P,J9,2*
G04 #@! TO.N,+5V*
X142818900Y-99330550D03*
D12*
G04 #@! TO.P,J9,1*
G04 #@! TO.N,Net-(J9-Pad1)*
X142818900Y-101870550D03*
G04 #@! TD*
D14*
G04 #@! TO.P,TP_3v3,1,1_1*
G04 #@! TO.N,+3.3V*
X150218900Y-70310550D03*
G04 #@! TD*
G04 #@! TO.P,TP_CS1,1,1_1*
G04 #@! TO.N,CS*
X130618900Y-114743850D03*
G04 #@! TD*
G04 #@! TO.P,TP_CANR1,1,1_1*
G04 #@! TO.N,CAN_R*
X119618900Y-75910550D03*
G04 #@! TD*
G04 #@! TO.P,TP_5v1,1,1_1*
G04 #@! TO.N,+5V*
X144418900Y-73910550D03*
G04 #@! TD*
D13*
G04 #@! TO.P,J4,3*
G04 #@! TO.N,GND*
X138918900Y-96790550D03*
G04 #@! TO.P,J4,2*
G04 #@! TO.N,+5V*
X138918900Y-99330550D03*
D12*
G04 #@! TO.P,J4,1*
G04 #@! TO.N,Net-(JP2-B)*
X138918900Y-101870550D03*
G04 #@! TD*
D15*
G04 #@! TO.P,J3,2,Pin_2_2*
G04 #@! TO.N,Net-(D_TVS1-A)*
X143860000Y-68920000D03*
D16*
G04 #@! TO.P,J3,1,Pin_1_1*
G04 #@! TO.N,GND*
X143860000Y-63920000D03*
G04 #@! TD*
D14*
G04 #@! TO.P,3v3/2,1,1_1*
G04 #@! TO.N,unconnected-(3v3/2-Pad1)*
X119418900Y-71110550D03*
G04 #@! TD*
D17*
G04 #@! TO.P,J13,1,Pin_1_1*
G04 #@! TO.N,GND*
X137618900Y-63910550D03*
D18*
G04 #@! TO.P,J13,2,Pin_2_2*
G04 #@! TO.N,Net-(D_TVS1-A)*
X137618900Y-68910550D03*
G04 #@! TD*
D17*
G04 #@! TO.P,J14,1,Pin_1_1*
G04 #@! TO.N,GND*
X131370000Y-63900000D03*
D18*
G04 #@! TO.P,J14,2,Pin_2_2*
G04 #@! TO.N,Net-(D_TVS1-A)*
X131370000Y-68900000D03*
G04 #@! TD*
D13*
G04 #@! TO.P,J6,3*
G04 #@! TO.N,GND*
X130918900Y-96790550D03*
G04 #@! TO.P,J6,2*
G04 #@! TO.N,+5V*
X130918900Y-99330550D03*
D12*
G04 #@! TO.P,J6,1*
G04 #@! TO.N,Net-(JP4-B)*
X130918900Y-101870550D03*
G04 #@! TD*
D13*
G04 #@! TO.P,J8,3*
G04 #@! TO.N,GND*
X146818900Y-96830550D03*
G04 #@! TO.P,J8,2*
G04 #@! TO.N,+5V*
X146818900Y-99370550D03*
D12*
G04 #@! TO.P,J8,1*
G04 #@! TO.N,Net-(J8-Pad1)*
X146818900Y-101910550D03*
G04 #@! TD*
D14*
G04 #@! TO.P,TP_INT1,1,1_1*
G04 #@! TO.N,INT1*
X123218900Y-114543850D03*
G04 #@! TD*
G04 #@! TO.P,TP_SCL1,1,1_1*
G04 #@! TO.N,SCL*
X130618900Y-116743850D03*
G04 #@! TD*
G04 #@! TO.P,TP_GND1,1,1_1*
G04 #@! TO.N,GND*
X135018900Y-82310550D03*
G04 #@! TD*
G04 #@! TO.P,TP_INT2,1,1_1*
G04 #@! TO.N,INT2*
X123218900Y-116543850D03*
G04 #@! TD*
G04 #@! TO.P,TP_SDA1,1,1_1*
G04 #@! TO.N,SDA*
X132818900Y-116743850D03*
G04 #@! TD*
G04 #@! TO.P,TP_CAND1,1,1_1*
G04 #@! TO.N,CAN_D*
X119618900Y-79510550D03*
G04 #@! TD*
D13*
G04 #@! TO.P,J5,3*
G04 #@! TO.N,GND*
X134918900Y-96790550D03*
G04 #@! TO.P,J5,2*
G04 #@! TO.N,+5V*
X134918900Y-99330550D03*
D12*
G04 #@! TO.P,J5,1*
G04 #@! TO.N,Net-(JP3-B)*
X134918900Y-101870550D03*
G04 #@! TD*
D19*
G04 #@! TO.P,H1,1*
G04 #@! TO.N,N/C*
X152000000Y-119000000D03*
G04 #@! TD*
G04 #@! TO.P,H2,1*
G04 #@! TO.N,N/C*
X102000000Y-119000000D03*
G04 #@! TD*
G04 #@! TO.P,H4,1*
G04 #@! TO.N,N/C*
X102000000Y-64000000D03*
G04 #@! TD*
G04 #@! TO.P,H3,1*
G04 #@! TO.N,N/C*
X152000000Y-64000000D03*
G04 #@! TD*
D20*
G04 #@! TO.P,JP2,1,A_1*
G04 #@! TO.N,ADC_1*
X138218900Y-106310550D03*
D21*
G04 #@! TO.P,JP2,2,B_2*
G04 #@! TO.N,Net-(JP2-B)*
X139518900Y-106310550D03*
G04 #@! TD*
G04 #@! TO.P,JP3,2,B_2*
G04 #@! TO.N,Net-(JP3-B)*
X135568900Y-106020550D03*
D20*
G04 #@! TO.P,JP3,1,A_1*
G04 #@! TO.N,AD2_1*
X134268900Y-106020550D03*
G04 #@! TD*
G04 #@! TO.P,JP4,1,A_1*
G04 #@! TO.N,ADC_3*
X130118900Y-106020550D03*
D21*
G04 #@! TO.P,JP4,2,B_2*
G04 #@! TO.N,Net-(JP4-B)*
X131418900Y-106020550D03*
G04 #@! TD*
D22*
G04 #@! TO.P,Can Term,2,B_2*
G04 #@! TO.N,CANH*
X114818900Y-72335550D03*
D23*
G04 #@! TO.P,Can Term,1,A_1*
G04 #@! TO.N,Net-(JP1-A)*
X116118900Y-72335550D03*
G04 #@! TD*
D24*
G04 #@! TO.N,Net-(J12-CC1)*
X114990000Y-111220000D03*
G04 #@! TO.N,GND*
X111550000Y-116870000D03*
G04 #@! TO.N,+5V*
X106994861Y-111375139D03*
G04 #@! TO.N,PWM_3*
X116818900Y-109910550D03*
G04 #@! TO.N,PWM_2*
X116618900Y-110710550D03*
G04 #@! TO.N,PWM_1*
X116650000Y-111510550D03*
G04 #@! TO.N,Net-(U1-IO15)*
X115060000Y-105790000D03*
G04 #@! TO.N,Net-(J12-CC1)*
X110279999Y-103829999D03*
G04 #@! TO.N,USB_D+*
X112460000Y-115110550D03*
G04 #@! TO.N,USB_D-*
X112460000Y-114110550D03*
G04 #@! TO.N,+5V*
X117480000Y-113210000D03*
G04 #@! TO.N,Net-(J12-D--PadA7)*
X109870000Y-110350000D03*
X111550000Y-110360000D03*
G04 #@! TO.N,GND*
X115110000Y-109880000D03*
X109810000Y-102180000D03*
G04 #@! TO.N,Net-(J12-D--PadA7)*
X111010000Y-104280000D03*
G04 #@! TO.N,PWM_3*
X112880000Y-98900000D03*
G04 #@! TO.N,GND*
X109343900Y-78310550D03*
G04 #@! TO.N,AD2_1*
X124218900Y-105910550D03*
G04 #@! TO.N,INT1*
X126118899Y-114043797D03*
G04 #@! TO.N,SCL*
X121118900Y-86410550D03*
D25*
G04 #@! TO.N,GND*
X134818900Y-79910550D03*
D24*
G04 #@! TO.N,SDA*
X126497339Y-115279626D03*
G04 #@! TO.N,CAN_D*
X116818900Y-98710550D03*
G04 #@! TO.N,Net-(D8-K)*
X141341500Y-84840550D03*
G04 #@! TO.N,CANH*
X110818900Y-67535550D03*
G04 #@! TO.N,SCL0*
X121753214Y-96976236D03*
G04 #@! TO.N,CANH*
X114618900Y-70710550D03*
G04 #@! TO.N,+3.3V*
X110618900Y-73710550D03*
G04 #@! TO.N,PWM_1*
X110430000Y-98790000D03*
G04 #@! TO.N,+3.3V*
X114143775Y-77185675D03*
X137218900Y-109110550D03*
D25*
G04 #@! TO.N,+5V*
X123818900Y-75510550D03*
G04 #@! TO.N,GND*
X134231400Y-76898050D03*
D24*
G04 #@! TO.N,PWM_2*
X111680000Y-98910000D03*
G04 #@! TO.N,INT2*
X118673925Y-87955525D03*
G04 #@! TO.N,INT1*
X118518900Y-86810550D03*
G04 #@! TO.N,ADC_1*
X123218900Y-106910550D03*
G04 #@! TO.N,CANH*
X121343900Y-67535550D03*
G04 #@! TO.N,Net-(U1-IO15)*
X115900000Y-102500000D03*
G04 #@! TO.N,GND*
X118718900Y-64535550D03*
G04 #@! TO.N,CAN_R*
X118028900Y-98720550D03*
G04 #@! TO.N,Net-(D8-K)*
X136096400Y-84840550D03*
G04 #@! TO.N,USB_D+*
X120218900Y-98310550D03*
G04 #@! TO.N,ADC_1*
X120218900Y-94310550D03*
G04 #@! TO.N,GND*
X112818900Y-78589300D03*
G04 #@! TO.N,SDO{slash}TA0*
X119818900Y-86710550D03*
G04 #@! TO.N,CS*
X122618900Y-87910550D03*
X128638225Y-114354030D03*
G04 #@! TO.N,INT2*
X124652200Y-116710550D03*
G04 #@! TO.N,USB_D-*
X119218900Y-99110550D03*
G04 #@! TO.N,AD2_1*
X134018900Y-104310550D03*
G04 #@! TO.N,GND*
X108343900Y-65035551D03*
X108418900Y-71510550D03*
G04 #@! TO.N,AD2_1*
X121018900Y-93910550D03*
G04 #@! TO.N,Net-(JP2-B)*
X139438900Y-104310550D03*
G04 #@! TO.N,Net-(JP4-B)*
X131328900Y-104110550D03*
G04 #@! TO.N,+3.3V*
X136618900Y-113910550D03*
G04 #@! TO.N,Net-(U1-EN)*
X110418900Y-80710550D03*
X108938900Y-96310550D03*
G04 #@! TO.N,+5V*
X112018900Y-85710550D03*
G04 #@! TO.N,GND*
X111550000Y-116870000D03*
X127000000Y-116929450D03*
G04 #@! TO.N,+3.3V*
X108018900Y-99310550D03*
G04 #@! TO.N,Net-(JP3-B)*
X135408900Y-104310550D03*
G04 #@! TO.N,SCL0*
X121418900Y-104010550D03*
G04 #@! TO.N,ADC_1*
X138118900Y-104410550D03*
G04 #@! TO.N,ADC_3*
X130218900Y-104510550D03*
G04 #@! TO.N,GND*
X105910000Y-109180000D03*
G04 #@! TO.N,+5V*
X115218900Y-87910550D03*
G04 #@! TO.N,INT2*
X129018900Y-117343850D03*
G04 #@! TO.N,GND*
X108418900Y-73910550D03*
G04 #@! TO.N,SCL*
X127318901Y-113263951D03*
G04 #@! TO.N,SDO{slash}TA0*
X126912580Y-114144151D03*
G04 #@! TO.N,Net-(JP1-A)*
X116928900Y-72445550D03*
G04 #@! TO.N,SDA*
X121838900Y-85710550D03*
G04 #@! TO.N,+3.3V*
X108018900Y-98644764D03*
G04 #@! TO.N,GND*
X127037800Y-118710550D03*
G04 #@! TD*
G04 #@! TO.N,Net-(J12-CC1)*
D26*
X114517918Y-111220000D02*
X114990000Y-111220000D01*
X112880000Y-105282082D02*
X112880000Y-109582082D01*
X112880000Y-109582082D02*
X114517918Y-111220000D01*
X114990000Y-111220000D02*
X114990000Y-111190000D01*
X111277918Y-103680000D02*
X112880000Y-105282082D01*
X110429998Y-103680000D02*
X111277918Y-103680000D01*
X110279999Y-103829999D02*
X110429998Y-103680000D01*
G04 #@! TO.N,+5V*
D27*
X107270000Y-109430278D02*
X107869861Y-110030139D01*
X106994861Y-111375139D02*
X106994861Y-110905139D01*
X106994861Y-110905139D02*
X107869861Y-110030139D01*
G04 #@! TO.N,GND*
X127018900Y-119510550D02*
X116620550Y-119510550D01*
X116620550Y-119510550D02*
X115120000Y-118010000D01*
X115120000Y-118010000D02*
X112690000Y-118010000D01*
X112690000Y-118010000D02*
X111550000Y-116870000D01*
G04 #@! TO.N,+5V*
X112018900Y-85710550D02*
X107118900Y-90610550D01*
X106618900Y-106310550D02*
X106540000Y-106389450D01*
X107118900Y-90610550D02*
X106618900Y-90110550D01*
X106540000Y-106389450D02*
X106540000Y-108480000D01*
X106618900Y-90110550D02*
X106618900Y-106310550D01*
X110979722Y-113140000D02*
X113410000Y-113140000D01*
X106540000Y-108480000D02*
X107270000Y-109210000D01*
X107270000Y-109210000D02*
X107270000Y-109430278D01*
X107869861Y-110030139D02*
X110979722Y-113140000D01*
G04 #@! TO.N,PWM_1*
D28*
X116650000Y-111510550D02*
X116618900Y-111510550D01*
G04 #@! TO.N,Net-(J12-D--PadA7)*
X111550000Y-110360000D02*
X109880000Y-110360000D01*
X109880000Y-110360000D02*
X109870000Y-110350000D01*
D26*
X109870000Y-110350000D02*
X109870000Y-105420000D01*
X109870000Y-105420000D02*
X111010000Y-104280000D01*
G04 #@! TO.N,USB_D+*
D28*
X112460000Y-115110550D02*
X112418900Y-115110550D01*
G04 #@! TO.N,USB_D-*
X112460000Y-114110550D02*
X112418900Y-114110550D01*
G04 #@! TO.N,PWM_1*
X110430000Y-98790000D02*
X111720000Y-97500000D01*
X111720000Y-97500000D02*
X113869847Y-97500000D01*
X113869847Y-97500000D02*
X118460000Y-102090153D01*
X118460000Y-102090153D02*
X118460000Y-110338528D01*
X118460000Y-110338528D02*
X117287978Y-111510550D01*
X117287978Y-111510550D02*
X116650000Y-111510550D01*
G04 #@! TO.N,PWM_2*
X111680000Y-98910000D02*
X112490000Y-98100000D01*
X112490000Y-98100000D02*
X113621319Y-98100000D01*
X113621319Y-98100000D02*
X117860000Y-102338681D01*
X117860000Y-102338681D02*
X117860000Y-110090000D01*
X117860000Y-110090000D02*
X117239450Y-110710550D01*
X117239450Y-110710550D02*
X116618900Y-110710550D01*
G04 #@! TO.N,PWM_3*
X112880000Y-98900000D02*
X113431370Y-98900000D01*
X113431370Y-98900000D02*
X117160000Y-102628630D01*
X117160000Y-102628630D02*
X117160000Y-109569450D01*
X117160000Y-109569450D02*
X116818900Y-109910550D01*
G04 #@! TO.N,+5V*
X113410000Y-113140000D02*
X117410000Y-113140000D01*
X117410000Y-113140000D02*
X117480000Y-113210000D01*
G04 #@! TO.N,USB_D-*
X119218900Y-99110550D02*
X119218900Y-112911100D01*
X119218900Y-112911100D02*
X118019450Y-114110550D01*
X118019450Y-114110550D02*
X112460000Y-114110550D01*
G04 #@! TO.N,USB_D+*
X120218900Y-98310550D02*
X120640000Y-98731650D01*
X120640000Y-98731650D02*
X120640000Y-113430000D01*
X120640000Y-113430000D02*
X118959450Y-115110550D01*
X118959450Y-115110550D02*
X112460000Y-115110550D01*
G04 #@! TO.N,Net-(U1-IO15)*
D27*
X115900000Y-102500000D02*
X116360000Y-102960000D01*
X116360000Y-102960000D02*
X116360000Y-106331493D01*
X115732090Y-106959403D02*
X115421626Y-106959403D01*
X116360000Y-106331493D02*
X115732090Y-106959403D01*
G04 #@! TO.N,+3.3V*
D29*
X108018900Y-99310550D02*
X108018900Y-98644764D01*
X108018900Y-98644764D02*
X109938900Y-96724764D01*
X109938900Y-90390550D02*
X114897650Y-85431800D01*
X109938900Y-96724764D02*
X109938900Y-90390550D01*
X114897650Y-85431800D02*
X114897650Y-77939550D01*
G04 #@! TO.N,Net-(U1-EN)*
D27*
X108938900Y-96310550D02*
X108938900Y-89976336D01*
X108938900Y-89976336D02*
X113897650Y-85017586D01*
X113897650Y-85017586D02*
X113897650Y-84189300D01*
X113897650Y-84189300D02*
X110418900Y-80710550D01*
G04 #@! TO.N,GND*
X109622650Y-78589300D02*
X108343900Y-77310550D01*
X108343900Y-77310550D02*
X108343900Y-65035551D01*
G04 #@! TO.N,+3.3V*
X110618900Y-73710550D02*
X110668650Y-73710550D01*
X110668650Y-73710550D02*
X114143775Y-77185675D01*
G04 #@! TO.N,CANH*
X114618900Y-70710550D02*
X114618900Y-68798050D01*
X114618900Y-68798050D02*
X114218900Y-68398050D01*
G04 #@! TO.N,+5V*
D28*
X115218900Y-87910550D02*
X115918900Y-87210550D01*
X115918900Y-87210550D02*
X115918900Y-77810550D01*
X115918900Y-77810550D02*
X118718900Y-75010550D01*
X118718900Y-75010550D02*
X123318900Y-75010550D01*
X123318900Y-75010550D02*
X123818900Y-75510550D01*
G04 #@! TO.N,+3.3V*
D29*
X148618900Y-71910550D02*
X122623064Y-71910550D01*
X114897650Y-77231800D02*
X114897650Y-77939550D01*
X122623064Y-71910550D02*
X121623064Y-72910550D01*
X150218900Y-70310550D02*
X148618900Y-71910550D01*
X121623064Y-72910550D02*
X119218900Y-72910550D01*
X119218900Y-72910550D02*
X114897650Y-77231800D01*
G04 #@! TO.N,+5V*
X144418900Y-73910550D02*
X144418900Y-77310550D01*
X142618900Y-75710550D02*
X144218900Y-77310550D01*
X144218900Y-77310550D02*
X144418900Y-77310550D01*
X144418900Y-73910550D02*
X142618900Y-75710550D01*
X142618900Y-75710550D02*
X136155170Y-75710550D01*
X136155170Y-75710550D02*
X135142670Y-74698050D01*
X124018900Y-75710550D02*
X123818900Y-75510550D01*
X135142670Y-74698050D02*
X133320130Y-74698050D01*
X133320130Y-74698050D02*
X132307630Y-75710550D01*
X132307630Y-75710550D02*
X124018900Y-75710550D01*
G04 #@! TO.N,+3.3V*
D27*
X137218900Y-109110550D02*
X139618900Y-109110550D01*
X145468900Y-103260550D02*
X145468900Y-75060550D01*
X139618900Y-109110550D02*
X145468900Y-103260550D01*
X145468900Y-75060550D02*
X150218900Y-70310550D01*
G04 #@! TO.N,+5V*
D29*
X144418900Y-77310550D02*
X144418900Y-97730550D01*
X144418900Y-97730550D02*
X142818900Y-99330550D01*
G04 #@! TO.N,+3.3V*
D27*
X136618900Y-113910550D02*
X136618900Y-109710550D01*
X136618900Y-109710550D02*
X137218900Y-109110550D01*
G04 #@! TO.N,GND*
D29*
X130918900Y-96790550D02*
X132891692Y-98763342D01*
X132891692Y-98763342D02*
X132891692Y-114416642D01*
X132891692Y-114416642D02*
X134018900Y-115543850D01*
X134018900Y-115543850D02*
X134018900Y-117943850D01*
X134018900Y-117943850D02*
X133252200Y-118710550D01*
X133252200Y-118710550D02*
X132218900Y-118710550D01*
X132218900Y-118710550D02*
X131418900Y-119510550D01*
X131418900Y-119510550D02*
X128618900Y-119510550D01*
D27*
X127000000Y-117310550D02*
X127000000Y-117891650D01*
D29*
X128618900Y-119510550D02*
X127018900Y-119510550D01*
D27*
X127000000Y-119491650D02*
X127018900Y-119510550D01*
X127000000Y-117310550D02*
X127000000Y-119491650D01*
X127000000Y-116929450D02*
X127000000Y-117310550D01*
X127000000Y-117891650D02*
X128618900Y-119510550D01*
G04 #@! TO.N,INT2*
D26*
X124652200Y-116710550D02*
X125052200Y-116310550D01*
X125052200Y-116310550D02*
X127985600Y-116310550D01*
X127985600Y-116310550D02*
X129018900Y-117343850D01*
D28*
X118673925Y-87955525D02*
X118673925Y-88765575D01*
X118673925Y-88765575D02*
X124618900Y-94710550D01*
X125418900Y-115943850D02*
X124652200Y-116710550D01*
X124918900Y-96820600D02*
X124918900Y-106200499D01*
X124618900Y-94710550D02*
X124618900Y-96520601D01*
X124618900Y-96520601D02*
X124918900Y-96820600D01*
X124918900Y-106200499D02*
X125418900Y-106700499D01*
X125418900Y-106700499D02*
X125418900Y-115943850D01*
G04 #@! TO.N,SCL*
X127218900Y-94764966D02*
X121118900Y-88664966D01*
X127318901Y-113210551D02*
X127218900Y-113110550D01*
X127318901Y-113263951D02*
X127318901Y-113210551D01*
X127218900Y-113110550D02*
X127218900Y-94764966D01*
X121118900Y-88664966D02*
X121118900Y-86410550D01*
G04 #@! TO.N,SDA*
X127818900Y-111423544D02*
X128018900Y-111623544D01*
X128018900Y-111623544D02*
X128018900Y-114027781D01*
X126767055Y-115279626D02*
X126497339Y-115279626D01*
X128018900Y-114027781D02*
X126767055Y-115279626D01*
X121838900Y-85710550D02*
X121818900Y-85730550D01*
X121818900Y-85730550D02*
X121818900Y-88516438D01*
X121818900Y-88516438D02*
X127818900Y-94516438D01*
X127818900Y-94516438D02*
X127818900Y-111423544D01*
X126497339Y-115279626D02*
X126861563Y-115643850D01*
X126861563Y-115643850D02*
X131718900Y-115643850D01*
X131718900Y-115643850D02*
X132818900Y-116743850D01*
G04 #@! TO.N,SDO{slash}TA0*
X126912580Y-114144151D02*
X126818899Y-114050470D01*
X126618900Y-95013494D02*
X120018900Y-88413494D01*
X126818899Y-113753847D02*
X126618900Y-113553848D01*
X126618900Y-113553848D02*
X126618900Y-95013494D01*
X126818899Y-114050470D02*
X126818899Y-113753847D01*
X119818900Y-87262022D02*
X119818900Y-86710550D01*
X120018900Y-88413494D02*
X120018900Y-87462022D01*
X120018900Y-87462022D02*
X119818900Y-87262022D01*
G04 #@! TO.N,INT1*
X126118899Y-114043797D02*
X126018900Y-113943798D01*
X126018900Y-113943798D02*
X126018900Y-95262022D01*
X126018900Y-95262022D02*
X119418900Y-88662022D01*
X119418900Y-88662022D02*
X119418900Y-87710550D01*
X119418900Y-87710550D02*
X118518900Y-86810550D01*
G04 #@! TO.N,Net-(JP4-B)*
D27*
X131328900Y-104110550D02*
X131328900Y-105930550D01*
G04 #@! TO.N,ADC_3*
X130218900Y-104510550D02*
X130218900Y-105920550D01*
G04 #@! TO.N,AD2_1*
X134018900Y-104310550D02*
X134018900Y-105770550D01*
X134018900Y-105770550D02*
X134268900Y-106020550D01*
G04 #@! TO.N,Net-(JP3-B)*
X135568900Y-106020550D02*
X135568900Y-104470550D01*
X135568900Y-104470550D02*
X135408900Y-104310550D01*
G04 #@! TO.N,Net-(JP2-B)*
X139518900Y-106310550D02*
X139518900Y-104390550D01*
X139518900Y-104390550D02*
X139438900Y-104310550D01*
G04 #@! TO.N,ADC_1*
X138218900Y-106310550D02*
X138218900Y-104510550D01*
X138218900Y-104510550D02*
X138118900Y-104410550D01*
G04 #@! TO.N,SCL0*
X122218900Y-98310550D02*
X122218900Y-97441922D01*
X122218900Y-97441922D02*
X121753214Y-96976236D01*
X122218900Y-98310550D02*
X121418900Y-99110550D01*
X121418900Y-99110550D02*
X121418900Y-104010550D01*
G04 #@! TO.N,CAN_D*
X116818900Y-98710550D02*
X116618900Y-98510550D01*
X116618900Y-98510550D02*
X116618900Y-82510550D01*
X116618900Y-82510550D02*
X119618900Y-79510550D01*
G04 #@! TO.N,AD2_1*
X124218900Y-105910550D02*
X124218900Y-97110550D01*
X124218900Y-97110550D02*
X121018900Y-93910550D01*
G04 #@! TO.N,ADC_1*
X123218900Y-97310550D02*
X123218900Y-106910550D01*
X120218900Y-94310550D02*
X123218900Y-97310550D01*
G04 #@! TO.N,GND*
D30*
X134231400Y-76898050D02*
X134231400Y-79323050D01*
X134231400Y-79323050D02*
X134818900Y-79910550D01*
G04 #@! TO.N,Net-(D8-K)*
D29*
X136096400Y-84840550D02*
X141341500Y-84840550D01*
G04 #@! TO.N,GND*
D30*
X134818900Y-79910550D02*
X133818900Y-80910550D01*
X133818900Y-93890550D02*
X130928900Y-96780550D01*
X133818900Y-80910550D02*
X133818900Y-93890550D01*
D27*
X109622650Y-78589300D02*
X109343900Y-78310550D01*
X112818900Y-78589300D02*
X109622650Y-78589300D01*
D30*
X130928900Y-96780550D02*
X130918900Y-96780550D01*
G04 #@! TO.N,+3.3V*
D27*
X114897650Y-77939550D02*
X114143775Y-77185675D01*
G04 #@! TO.N,GND*
X118718900Y-64535550D02*
X118993900Y-64535550D01*
X118993900Y-64535550D02*
X119618900Y-63910550D01*
X119618900Y-63910550D02*
X130368900Y-63910550D01*
D30*
X130368900Y-63910550D02*
X143918900Y-63910550D01*
G04 #@! TO.N,Net-(D_TVS1-A)*
X144018900Y-68810550D02*
X130468900Y-68810550D01*
G04 #@! TO.N,CANH*
D27*
X110881400Y-68398050D02*
X110818900Y-68335550D01*
X110818900Y-68335550D02*
X110818900Y-67535550D01*
X114218900Y-68398050D02*
X110881400Y-68398050D01*
X121343900Y-68385550D02*
X121331400Y-68398050D01*
X121343900Y-67535550D02*
X121343900Y-68385550D01*
X121331400Y-68398050D02*
X114218900Y-68398050D01*
G04 #@! TO.N,GND*
X108843901Y-64535550D02*
X118718900Y-64535550D01*
X108343900Y-65035551D02*
X108843901Y-64535550D01*
G04 #@! TO.N,Net-(JP1-A)*
X116928900Y-72445550D02*
X116228900Y-72445550D01*
G04 #@! TO.N,CAN_R*
X119618900Y-75910550D02*
X120818900Y-77110550D01*
X117718900Y-98410550D02*
X118028900Y-98720550D01*
X120818900Y-77110550D02*
X120818900Y-83379179D01*
X120818900Y-83379179D02*
X117718900Y-86479179D01*
X117718900Y-86479179D02*
X117718900Y-98410550D01*
G04 #@! TO.N,CS*
D28*
X128638225Y-114354030D02*
X128638225Y-114224522D01*
X128638225Y-114354030D02*
X130229080Y-114354030D01*
X130229080Y-114354030D02*
X130618900Y-114743850D01*
X128638225Y-114224522D02*
X128918900Y-113943847D01*
X128918900Y-111723544D02*
X128718900Y-111523544D01*
X128918900Y-113943847D02*
X128918900Y-111723544D01*
X128718900Y-111475016D02*
X128418900Y-111175016D01*
X128418900Y-111175016D02*
X128418900Y-94267910D01*
X128718900Y-111523544D02*
X128718900Y-111475016D01*
X128418900Y-94267910D02*
X128218900Y-94067910D01*
X128218900Y-94067910D02*
X128218900Y-93510550D01*
X128218900Y-93510550D02*
X122618900Y-87910550D01*
G04 #@! TD*
M02*
