%TF.GenerationSoftware,KiCad,Pcbnew,10.0.3*%
%TF.CreationDate,2026-05-26T11:20:20-04:00*%
%TF.ProjectId,Esp32 Can+IMU,45737033-3220-4436-916e-2b494d552e6b,rev?*%
%TF.SameCoordinates,Original*%
%TF.FileFunction,Drillmap*%
%TF.FilePolarity,Positive*%
%FSLAX45Y45*%
G04 Gerber Fmt 4.5, Leading zero omitted, Abs format (unit mm)*
G04 Created by KiCad (PCBNEW 10.0.3) date 2026-05-26 11:20:20*
%MOMM*%
%LPD*%
G01*
G04 APERTURE LIST*
%ADD10C,0.050000*%
%ADD11C,0.200000*%
%ADD12C,0.100000*%
%ADD13C,0.180000*%
%ADD14C,0.270000*%
%ADD15C,0.320000*%
G04 APERTURE END LIST*
D10*
X10049278Y-6771000D02*
G75*
G02*
X9849280Y-6570723I2J200000D01*
G01*
X9849723Y-6249723D02*
G75*
G02*
X10049723Y-6050003I199997J-277D01*
G01*
X10311000Y-6771000D02*
G75*
G02*
X10511000Y-6971000I0J-200000D01*
G01*
X9850000Y-11771000D02*
G75*
G02*
X10050000Y-11571000I200000J0D01*
G01*
X10511000Y-11371000D02*
G75*
G02*
X10311000Y-11571000I-200000J0D01*
G01*
X10050000Y-12250000D02*
G75*
G02*
X9850000Y-12050000I0J200000D01*
G01*
X15350000Y-6050000D02*
G75*
G02*
X15550000Y-6250000I0J-200000D01*
G01*
X15550000Y-12050000D02*
G75*
G02*
X15350000Y-12250000I-200000J0D01*
G01*
X15550000Y-12050000D02*
X15550000Y-6250000D01*
X15350000Y-12250000D02*
X10050000Y-12250000D01*
X9850000Y-11771000D02*
X9850000Y-12050000D01*
X15350000Y-6050000D02*
X10049723Y-6050000D01*
X10311000Y-11571000D02*
X10050000Y-11571000D01*
X10511000Y-6971000D02*
X10511000Y-11371000D01*
X10311000Y-6771000D02*
X10049278Y-6771000D01*
X9849278Y-6570723D02*
X9849723Y-6249723D01*
D11*
D12*
X11281890Y-9241055D02*
X11301890Y-9261055D01*
X11301890Y-9241055D02*
X11281890Y-9261055D01*
X11281890Y-9381055D02*
X11301890Y-9401055D01*
X11301890Y-9381055D02*
X11281890Y-9401055D01*
X11351890Y-9171055D02*
X11371890Y-9191055D01*
X11371890Y-9171055D02*
X11351890Y-9191055D01*
X11351890Y-9311055D02*
X11371890Y-9331055D01*
X11371890Y-9311055D02*
X11351890Y-9331055D01*
X11351890Y-9451055D02*
X11371890Y-9471055D01*
X11371890Y-9451055D02*
X11351890Y-9471055D01*
X11421890Y-9241055D02*
X11441890Y-9261055D01*
X11441890Y-9241055D02*
X11421890Y-9261055D01*
X11421890Y-9381055D02*
X11441890Y-9401055D01*
X11441890Y-9381055D02*
X11421890Y-9401055D01*
X11491890Y-9171055D02*
X11511890Y-9191055D01*
X11511890Y-9171055D02*
X11491890Y-9191055D01*
X11491890Y-9311055D02*
X11511890Y-9331055D01*
X11511890Y-9311055D02*
X11491890Y-9331055D01*
X11491890Y-9451055D02*
X11511890Y-9471055D01*
X11511890Y-9451055D02*
X11491890Y-9471055D01*
X11561890Y-9241055D02*
X11581890Y-9261055D01*
X11581890Y-9241055D02*
X11561890Y-9261055D01*
X11561890Y-9381055D02*
X11581890Y-9401055D01*
X11581890Y-9381055D02*
X11561890Y-9401055D01*
X10606000Y-10918000D02*
G75*
G02*
X10576000Y-10918000I-15000J0D01*
G01*
X10576000Y-10918000D02*
G75*
G02*
X10606000Y-10918000I15000J0D01*
G01*
X10714486Y-11137514D02*
G75*
G02*
X10684486Y-11137514I-15000J0D01*
G01*
X10684486Y-11137514D02*
G75*
G02*
X10714486Y-11137514I15000J0D01*
G01*
X10816890Y-9864476D02*
G75*
G02*
X10786890Y-9864476I-15000J0D01*
G01*
X10786890Y-9864476D02*
G75*
G02*
X10816890Y-9864476I15000J0D01*
G01*
X10816890Y-9931055D02*
G75*
G02*
X10786890Y-9931055I-15000J0D01*
G01*
X10786890Y-9931055D02*
G75*
G02*
X10816890Y-9931055I15000J0D01*
G01*
X10849390Y-6503555D02*
G75*
G02*
X10819390Y-6503555I-15000J0D01*
G01*
X10819390Y-6503555D02*
G75*
G02*
X10849390Y-6503555I15000J0D01*
G01*
X10856890Y-7151055D02*
G75*
G02*
X10826890Y-7151055I-15000J0D01*
G01*
X10826890Y-7151055D02*
G75*
G02*
X10856890Y-7151055I15000J0D01*
G01*
X10856890Y-7391055D02*
G75*
G02*
X10826890Y-7391055I-15000J0D01*
G01*
X10826890Y-7391055D02*
G75*
G02*
X10856890Y-7391055I15000J0D01*
G01*
X10908890Y-9631055D02*
G75*
G02*
X10878890Y-9631055I-15000J0D01*
G01*
X10878890Y-9631055D02*
G75*
G02*
X10908890Y-9631055I15000J0D01*
G01*
X10949390Y-7831055D02*
G75*
G02*
X10919390Y-7831055I-15000J0D01*
G01*
X10919390Y-7831055D02*
G75*
G02*
X10949390Y-7831055I15000J0D01*
G01*
X10996000Y-10218000D02*
G75*
G02*
X10966000Y-10218000I-15000J0D01*
G01*
X10966000Y-10218000D02*
G75*
G02*
X10996000Y-10218000I15000J0D01*
G01*
X11002000Y-11035000D02*
G75*
G02*
X10972000Y-11035000I-15000J0D01*
G01*
X10972000Y-11035000D02*
G75*
G02*
X11002000Y-11035000I15000J0D01*
G01*
X11043000Y-10383000D02*
G75*
G02*
X11013000Y-10383000I-15000J0D01*
G01*
X11013000Y-10383000D02*
G75*
G02*
X11043000Y-10383000I15000J0D01*
G01*
X11056890Y-8071055D02*
G75*
G02*
X11026890Y-8071055I-15000J0D01*
G01*
X11026890Y-8071055D02*
G75*
G02*
X11056890Y-8071055I15000J0D01*
G01*
X11058000Y-9879000D02*
G75*
G02*
X11028000Y-9879000I-15000J0D01*
G01*
X11028000Y-9879000D02*
G75*
G02*
X11058000Y-9879000I15000J0D01*
G01*
X11076890Y-7371055D02*
G75*
G02*
X11046890Y-7371055I-15000J0D01*
G01*
X11046890Y-7371055D02*
G75*
G02*
X11076890Y-7371055I15000J0D01*
G01*
X11096890Y-6753555D02*
G75*
G02*
X11066890Y-6753555I-15000J0D01*
G01*
X11066890Y-6753555D02*
G75*
G02*
X11096890Y-6753555I15000J0D01*
G01*
X11116000Y-10428000D02*
G75*
G02*
X11086000Y-10428000I-15000J0D01*
G01*
X11086000Y-10428000D02*
G75*
G02*
X11116000Y-10428000I15000J0D01*
G01*
X11170000Y-11036000D02*
G75*
G02*
X11140000Y-11036000I-15000J0D01*
G01*
X11140000Y-11036000D02*
G75*
G02*
X11170000Y-11036000I15000J0D01*
G01*
X11170000Y-11687000D02*
G75*
G02*
X11140000Y-11687000I-15000J0D01*
G01*
X11140000Y-11687000D02*
G75*
G02*
X11170000Y-11687000I15000J0D01*
G01*
X11170000Y-11687000D02*
G75*
G02*
X11140000Y-11687000I-15000J0D01*
G01*
X11140000Y-11687000D02*
G75*
G02*
X11170000Y-11687000I15000J0D01*
G01*
X11183000Y-9891000D02*
G75*
G02*
X11153000Y-9891000I-15000J0D01*
G01*
X11153000Y-9891000D02*
G75*
G02*
X11183000Y-9891000I15000J0D01*
G01*
X11216890Y-8571055D02*
G75*
G02*
X11186890Y-8571055I-15000J0D01*
G01*
X11186890Y-8571055D02*
G75*
G02*
X11216890Y-8571055I15000J0D01*
G01*
X11261000Y-11411055D02*
G75*
G02*
X11231000Y-11411055I-15000J0D01*
G01*
X11231000Y-11411055D02*
G75*
G02*
X11261000Y-11411055I15000J0D01*
G01*
X11261000Y-11511055D02*
G75*
G02*
X11231000Y-11511055I-15000J0D01*
G01*
X11231000Y-11511055D02*
G75*
G02*
X11261000Y-11511055I15000J0D01*
G01*
X11296890Y-7858930D02*
G75*
G02*
X11266890Y-7858930I-15000J0D01*
G01*
X11266890Y-7858930D02*
G75*
G02*
X11296890Y-7858930I15000J0D01*
G01*
X11303000Y-9890000D02*
G75*
G02*
X11273000Y-9890000I-15000J0D01*
G01*
X11273000Y-9890000D02*
G75*
G02*
X11303000Y-9890000I15000J0D01*
G01*
X11429377Y-7718567D02*
G75*
G02*
X11399377Y-7718567I-15000J0D01*
G01*
X11399377Y-7718567D02*
G75*
G02*
X11429377Y-7718567I15000J0D01*
G01*
X11476890Y-7071055D02*
G75*
G02*
X11446890Y-7071055I-15000J0D01*
G01*
X11446890Y-7071055D02*
G75*
G02*
X11476890Y-7071055I15000J0D01*
G01*
X11514000Y-11122000D02*
G75*
G02*
X11484000Y-11122000I-15000J0D01*
G01*
X11484000Y-11122000D02*
G75*
G02*
X11514000Y-11122000I15000J0D01*
G01*
X11521000Y-10579000D02*
G75*
G02*
X11491000Y-10579000I-15000J0D01*
G01*
X11491000Y-10579000D02*
G75*
G02*
X11521000Y-10579000I15000J0D01*
G01*
X11526000Y-10988000D02*
G75*
G02*
X11496000Y-10988000I-15000J0D01*
G01*
X11496000Y-10988000D02*
G75*
G02*
X11526000Y-10988000I15000J0D01*
G01*
X11536890Y-8791055D02*
G75*
G02*
X11506890Y-8791055I-15000J0D01*
G01*
X11506890Y-8791055D02*
G75*
G02*
X11536890Y-8791055I15000J0D01*
G01*
X11605000Y-10250000D02*
G75*
G02*
X11575000Y-10250000I-15000J0D01*
G01*
X11575000Y-10250000D02*
G75*
G02*
X11605000Y-10250000I15000J0D01*
G01*
X11676890Y-11071055D02*
G75*
G02*
X11646890Y-11071055I-15000J0D01*
G01*
X11646890Y-11071055D02*
G75*
G02*
X11676890Y-11071055I15000J0D01*
G01*
X11680000Y-11151055D02*
G75*
G02*
X11650000Y-11151055I-15000J0D01*
G01*
X11650000Y-11151055D02*
G75*
G02*
X11680000Y-11151055I15000J0D01*
G01*
X11696890Y-9871055D02*
G75*
G02*
X11666890Y-9871055I-15000J0D01*
G01*
X11666890Y-9871055D02*
G75*
G02*
X11696890Y-9871055I15000J0D01*
G01*
X11696890Y-10991055D02*
G75*
G02*
X11666890Y-10991055I-15000J0D01*
G01*
X11666890Y-10991055D02*
G75*
G02*
X11696890Y-10991055I15000J0D01*
G01*
X11707890Y-7244555D02*
G75*
G02*
X11677890Y-7244555I-15000J0D01*
G01*
X11677890Y-7244555D02*
G75*
G02*
X11707890Y-7244555I15000J0D01*
G01*
X11763000Y-11321000D02*
G75*
G02*
X11733000Y-11321000I-15000J0D01*
G01*
X11733000Y-11321000D02*
G75*
G02*
X11763000Y-11321000I15000J0D01*
G01*
X11817890Y-9872055D02*
G75*
G02*
X11787890Y-9872055I-15000J0D01*
G01*
X11787890Y-9872055D02*
G75*
G02*
X11817890Y-9872055I15000J0D01*
G01*
X11866890Y-8681055D02*
G75*
G02*
X11836890Y-8681055I-15000J0D01*
G01*
X11836890Y-8681055D02*
G75*
G02*
X11866890Y-8681055I15000J0D01*
G01*
X11882392Y-8795553D02*
G75*
G02*
X11852392Y-8795553I-15000J0D01*
G01*
X11852392Y-8795553D02*
G75*
G02*
X11882392Y-8795553I15000J0D01*
G01*
X11886890Y-6453555D02*
G75*
G02*
X11856890Y-6453555I-15000J0D01*
G01*
X11856890Y-6453555D02*
G75*
G02*
X11886890Y-6453555I15000J0D01*
G01*
X11936890Y-9911055D02*
G75*
G02*
X11906890Y-9911055I-15000J0D01*
G01*
X11906890Y-9911055D02*
G75*
G02*
X11936890Y-9911055I15000J0D01*
G01*
X11996890Y-8671055D02*
G75*
G02*
X11966890Y-8671055I-15000J0D01*
G01*
X11966890Y-8671055D02*
G75*
G02*
X11996890Y-8671055I15000J0D01*
G01*
X12036890Y-9431055D02*
G75*
G02*
X12006890Y-9431055I-15000J0D01*
G01*
X12006890Y-9431055D02*
G75*
G02*
X12036890Y-9431055I15000J0D01*
G01*
X12036890Y-9831055D02*
G75*
G02*
X12006890Y-9831055I-15000J0D01*
G01*
X12006890Y-9831055D02*
G75*
G02*
X12036890Y-9831055I15000J0D01*
G01*
X12116890Y-9391055D02*
G75*
G02*
X12086890Y-9391055I-15000J0D01*
G01*
X12086890Y-9391055D02*
G75*
G02*
X12116890Y-9391055I15000J0D01*
G01*
X12126890Y-8641055D02*
G75*
G02*
X12096890Y-8641055I-15000J0D01*
G01*
X12096890Y-8641055D02*
G75*
G02*
X12126890Y-8641055I15000J0D01*
G01*
X12149390Y-6753555D02*
G75*
G02*
X12119390Y-6753555I-15000J0D01*
G01*
X12119390Y-6753555D02*
G75*
G02*
X12149390Y-6753555I15000J0D01*
G01*
X12156890Y-10401055D02*
G75*
G02*
X12126890Y-10401055I-15000J0D01*
G01*
X12126890Y-10401055D02*
G75*
G02*
X12156890Y-10401055I15000J0D01*
G01*
X12190321Y-9697624D02*
G75*
G02*
X12160321Y-9697624I-15000J0D01*
G01*
X12160321Y-9697624D02*
G75*
G02*
X12190321Y-9697624I15000J0D01*
G01*
X12198890Y-8571055D02*
G75*
G02*
X12168890Y-8571055I-15000J0D01*
G01*
X12168890Y-8571055D02*
G75*
G02*
X12198890Y-8571055I15000J0D01*
G01*
X12276890Y-8791055D02*
G75*
G02*
X12246890Y-8791055I-15000J0D01*
G01*
X12246890Y-8791055D02*
G75*
G02*
X12276890Y-8791055I15000J0D01*
G01*
X12336890Y-10691055D02*
G75*
G02*
X12306890Y-10691055I-15000J0D01*
G01*
X12306890Y-10691055D02*
G75*
G02*
X12336890Y-10691055I15000J0D01*
G01*
X12436890Y-10591055D02*
G75*
G02*
X12406890Y-10591055I-15000J0D01*
G01*
X12406890Y-10591055D02*
G75*
G02*
X12436890Y-10591055I15000J0D01*
G01*
X12480220Y-11671055D02*
G75*
G02*
X12450220Y-11671055I-15000J0D01*
G01*
X12450220Y-11671055D02*
G75*
G02*
X12480220Y-11671055I15000J0D01*
G01*
X12626890Y-11404380D02*
G75*
G02*
X12596890Y-11404380I-15000J0D01*
G01*
X12596890Y-11404380D02*
G75*
G02*
X12626890Y-11404380I15000J0D01*
G01*
X12664734Y-11527963D02*
G75*
G02*
X12634734Y-11527963I-15000J0D01*
G01*
X12634734Y-11527963D02*
G75*
G02*
X12664734Y-11527963I15000J0D01*
G01*
X12706258Y-11414415D02*
G75*
G02*
X12676258Y-11414415I-15000J0D01*
G01*
X12676258Y-11414415D02*
G75*
G02*
X12706258Y-11414415I15000J0D01*
G01*
X12715000Y-11692945D02*
G75*
G02*
X12685000Y-11692945I-15000J0D01*
G01*
X12685000Y-11692945D02*
G75*
G02*
X12715000Y-11692945I15000J0D01*
G01*
X12718780Y-11871055D02*
G75*
G02*
X12688780Y-11871055I-15000J0D01*
G01*
X12688780Y-11871055D02*
G75*
G02*
X12718780Y-11871055I15000J0D01*
G01*
X12746890Y-11326395D02*
G75*
G02*
X12716890Y-11326395I-15000J0D01*
G01*
X12716890Y-11326395D02*
G75*
G02*
X12746890Y-11326395I15000J0D01*
G01*
X12878822Y-11435403D02*
G75*
G02*
X12848822Y-11435403I-15000J0D01*
G01*
X12848822Y-11435403D02*
G75*
G02*
X12878822Y-11435403I15000J0D01*
G01*
X12916890Y-11734385D02*
G75*
G02*
X12886890Y-11734385I-15000J0D01*
G01*
X12886890Y-11734385D02*
G75*
G02*
X12916890Y-11734385I15000J0D01*
G01*
X13036890Y-10451055D02*
G75*
G02*
X13006890Y-10451055I-15000J0D01*
G01*
X13006890Y-10451055D02*
G75*
G02*
X13036890Y-10451055I15000J0D01*
G01*
X13147890Y-10411055D02*
G75*
G02*
X13117890Y-10411055I-15000J0D01*
G01*
X13117890Y-10411055D02*
G75*
G02*
X13147890Y-10411055I15000J0D01*
G01*
X13416890Y-10431055D02*
G75*
G02*
X13386890Y-10431055I-15000J0D01*
G01*
X13386890Y-10431055D02*
G75*
G02*
X13416890Y-10431055I15000J0D01*
G01*
X13555890Y-10431055D02*
G75*
G02*
X13525890Y-10431055I-15000J0D01*
G01*
X13525890Y-10431055D02*
G75*
G02*
X13555890Y-10431055I15000J0D01*
G01*
X13624640Y-8484055D02*
G75*
G02*
X13594640Y-8484055I-15000J0D01*
G01*
X13594640Y-8484055D02*
G75*
G02*
X13624640Y-8484055I15000J0D01*
G01*
X13676890Y-11391055D02*
G75*
G02*
X13646890Y-11391055I-15000J0D01*
G01*
X13646890Y-11391055D02*
G75*
G02*
X13676890Y-11391055I15000J0D01*
G01*
X13736890Y-10911055D02*
G75*
G02*
X13706890Y-10911055I-15000J0D01*
G01*
X13706890Y-10911055D02*
G75*
G02*
X13736890Y-10911055I15000J0D01*
G01*
X13826890Y-10441055D02*
G75*
G02*
X13796890Y-10441055I-15000J0D01*
G01*
X13796890Y-10441055D02*
G75*
G02*
X13826890Y-10441055I15000J0D01*
G01*
X13958890Y-10431055D02*
G75*
G02*
X13928890Y-10431055I-15000J0D01*
G01*
X13928890Y-10431055D02*
G75*
G02*
X13958890Y-10431055I15000J0D01*
G01*
X14149150Y-8484055D02*
G75*
G02*
X14119150Y-8484055I-15000J0D01*
G01*
X14119150Y-8484055D02*
G75*
G02*
X14149150Y-8484055I15000J0D01*
G01*
X11941890Y-7086055D02*
X11941890Y-7136055D01*
X11916890Y-7111055D02*
X11966890Y-7111055D01*
X11961890Y-7566055D02*
X11961890Y-7616055D01*
X11936890Y-7591055D02*
X11986890Y-7591055D01*
X11961890Y-7926055D02*
X11961890Y-7976055D01*
X11936890Y-7951055D02*
X11986890Y-7951055D01*
X12321890Y-11429385D02*
X12321890Y-11479385D01*
X12296890Y-11454385D02*
X12346890Y-11454385D01*
X12321890Y-11629385D02*
X12321890Y-11679385D01*
X12296890Y-11654385D02*
X12346890Y-11654385D01*
X13061890Y-11449385D02*
X13061890Y-11499385D01*
X13036890Y-11474385D02*
X13086890Y-11474385D01*
X13061890Y-11649385D02*
X13061890Y-11699385D01*
X13036890Y-11674385D02*
X13086890Y-11674385D01*
X13281890Y-11649385D02*
X13281890Y-11699385D01*
X13256890Y-11674385D02*
X13306890Y-11674385D01*
X13501890Y-8206055D02*
X13501890Y-8256055D01*
X13476890Y-8231055D02*
X13526890Y-8231055D01*
X14441890Y-7366055D02*
X14441890Y-7416055D01*
X14416890Y-7391055D02*
X14466890Y-7391055D01*
X15021890Y-7006055D02*
X15021890Y-7056055D01*
X14996890Y-7031055D02*
X15046890Y-7031055D01*
X10917749Y-10517749D02*
X10917749Y-10468251D01*
X10868251Y-10468251D01*
X10868251Y-10517749D01*
X10917749Y-10517749D01*
X10917749Y-10947749D02*
X10917749Y-10898251D01*
X10868251Y-10898251D01*
X10868251Y-10947749D01*
X10917749Y-10947749D01*
X11397749Y-10517749D02*
X11397749Y-10468251D01*
X11348251Y-10468251D01*
X11348251Y-10517749D01*
X11397749Y-10517749D01*
X11397749Y-10947749D02*
X11397749Y-10898251D01*
X11348251Y-10898251D01*
X11348251Y-10947749D01*
X11397749Y-10947749D01*
X12381890Y-7601055D02*
X12431890Y-7551055D01*
X12381890Y-7501055D01*
X12331890Y-7551055D01*
X12381890Y-7601055D01*
X13423140Y-7739805D02*
X13473140Y-7689805D01*
X13423140Y-7639805D01*
X13373140Y-7689805D01*
X13423140Y-7739805D01*
X13481890Y-8041055D02*
X13531890Y-7991055D01*
X13481890Y-7941055D01*
X13431890Y-7991055D01*
X13481890Y-8041055D01*
X13041890Y-9629055D02*
X13141890Y-9729055D01*
X13141890Y-9629055D02*
X13041890Y-9729055D01*
X13141890Y-9679055D02*
G75*
G02*
X13041890Y-9679055I-50000J0D01*
G01*
X13041890Y-9679055D02*
G75*
G02*
X13141890Y-9679055I50000J0D01*
G01*
X13041890Y-9883055D02*
X13141890Y-9983055D01*
X13141890Y-9883055D02*
X13041890Y-9983055D01*
X13141890Y-9933055D02*
G75*
G02*
X13041890Y-9933055I-50000J0D01*
G01*
X13041890Y-9933055D02*
G75*
G02*
X13141890Y-9933055I50000J0D01*
G01*
X13041890Y-10137055D02*
X13141890Y-10237055D01*
X13141890Y-10137055D02*
X13041890Y-10237055D01*
X13141890Y-10187055D02*
G75*
G02*
X13041890Y-10187055I-50000J0D01*
G01*
X13041890Y-10187055D02*
G75*
G02*
X13141890Y-10187055I50000J0D01*
G01*
X13441890Y-9629055D02*
X13541890Y-9729055D01*
X13541890Y-9629055D02*
X13441890Y-9729055D01*
X13541890Y-9679055D02*
G75*
G02*
X13441890Y-9679055I-50000J0D01*
G01*
X13441890Y-9679055D02*
G75*
G02*
X13541890Y-9679055I50000J0D01*
G01*
X13441890Y-9883055D02*
X13541890Y-9983055D01*
X13541890Y-9883055D02*
X13441890Y-9983055D01*
X13541890Y-9933055D02*
G75*
G02*
X13441890Y-9933055I-50000J0D01*
G01*
X13441890Y-9933055D02*
G75*
G02*
X13541890Y-9933055I50000J0D01*
G01*
X13441890Y-10137055D02*
X13541890Y-10237055D01*
X13541890Y-10137055D02*
X13441890Y-10237055D01*
X13541890Y-10187055D02*
G75*
G02*
X13441890Y-10187055I-50000J0D01*
G01*
X13441890Y-10187055D02*
G75*
G02*
X13541890Y-10187055I50000J0D01*
G01*
X13841890Y-9629055D02*
X13941890Y-9729055D01*
X13941890Y-9629055D02*
X13841890Y-9729055D01*
X13941890Y-9679055D02*
G75*
G02*
X13841890Y-9679055I-50000J0D01*
G01*
X13841890Y-9679055D02*
G75*
G02*
X13941890Y-9679055I50000J0D01*
G01*
X13841890Y-9883055D02*
X13941890Y-9983055D01*
X13941890Y-9883055D02*
X13841890Y-9983055D01*
X13941890Y-9933055D02*
G75*
G02*
X13841890Y-9933055I-50000J0D01*
G01*
X13841890Y-9933055D02*
G75*
G02*
X13941890Y-9933055I50000J0D01*
G01*
X13841890Y-10137055D02*
X13941890Y-10237055D01*
X13941890Y-10137055D02*
X13841890Y-10237055D01*
X13941890Y-10187055D02*
G75*
G02*
X13841890Y-10187055I-50000J0D01*
G01*
X13841890Y-10187055D02*
G75*
G02*
X13941890Y-10187055I50000J0D01*
G01*
X14231890Y-9629055D02*
X14331890Y-9729055D01*
X14331890Y-9629055D02*
X14231890Y-9729055D01*
X14331890Y-9679055D02*
G75*
G02*
X14231890Y-9679055I-50000J0D01*
G01*
X14231890Y-9679055D02*
G75*
G02*
X14331890Y-9679055I50000J0D01*
G01*
X14231890Y-9883055D02*
X14331890Y-9983055D01*
X14331890Y-9883055D02*
X14231890Y-9983055D01*
X14331890Y-9933055D02*
G75*
G02*
X14231890Y-9933055I-50000J0D01*
G01*
X14231890Y-9933055D02*
G75*
G02*
X14331890Y-9933055I50000J0D01*
G01*
X14231890Y-10137055D02*
X14331890Y-10237055D01*
X14331890Y-10137055D02*
X14231890Y-10237055D01*
X14331890Y-10187055D02*
G75*
G02*
X14231890Y-10187055I-50000J0D01*
G01*
X14231890Y-10187055D02*
G75*
G02*
X14331890Y-10187055I50000J0D01*
G01*
X14631890Y-9633055D02*
X14731890Y-9733055D01*
X14731890Y-9633055D02*
X14631890Y-9733055D01*
X14731890Y-9683055D02*
G75*
G02*
X14631890Y-9683055I-50000J0D01*
G01*
X14631890Y-9683055D02*
G75*
G02*
X14731890Y-9683055I50000J0D01*
G01*
X14631890Y-9887055D02*
X14731890Y-9987055D01*
X14731890Y-9887055D02*
X14631890Y-9987055D01*
X14731890Y-9937055D02*
G75*
G02*
X14631890Y-9937055I-50000J0D01*
G01*
X14631890Y-9937055D02*
G75*
G02*
X14731890Y-9937055I50000J0D01*
G01*
X14631890Y-10141055D02*
X14731890Y-10241055D01*
X14731890Y-10141055D02*
X14631890Y-10241055D01*
X14731890Y-10191055D02*
G75*
G02*
X14631890Y-10191055I-50000J0D01*
G01*
X14631890Y-10191055D02*
G75*
G02*
X14731890Y-10191055I50000J0D01*
G01*
X15031890Y-9633055D02*
X15131890Y-9733055D01*
X15131890Y-9633055D02*
X15031890Y-9733055D01*
X15131890Y-9683055D02*
G75*
G02*
X15031890Y-9683055I-50000J0D01*
G01*
X15031890Y-9683055D02*
G75*
G02*
X15131890Y-9683055I50000J0D01*
G01*
X15031890Y-9887055D02*
X15131890Y-9987055D01*
X15131890Y-9887055D02*
X15031890Y-9987055D01*
X15131890Y-9937055D02*
G75*
G02*
X15031890Y-9937055I-50000J0D01*
G01*
X15031890Y-9937055D02*
G75*
G02*
X15131890Y-9937055I50000J0D01*
G01*
X15031890Y-10141055D02*
X15131890Y-10241055D01*
X15131890Y-10141055D02*
X15031890Y-10241055D01*
X15131890Y-10191055D02*
G75*
G02*
X15031890Y-10191055I-50000J0D01*
G01*
X15031890Y-10191055D02*
G75*
G02*
X15131890Y-10191055I50000J0D01*
G01*
D13*
X14296000Y-6302000D02*
X14476000Y-6482000D01*
X14476000Y-6302000D02*
X14296000Y-6482000D01*
X14386000Y-6302000D02*
X14386000Y-6482000D01*
X14296000Y-6392000D02*
X14476000Y-6392000D01*
X14296000Y-6802000D02*
X14476000Y-6982000D01*
X14476000Y-6802000D02*
X14296000Y-6982000D01*
X14386000Y-6802000D02*
X14386000Y-6982000D01*
X14296000Y-6892000D02*
X14476000Y-6892000D01*
D14*
X13002000Y-6255000D02*
X13272000Y-6525000D01*
X13272000Y-6255000D02*
X13002000Y-6525000D01*
X13232460Y-6485460D02*
X13232460Y-6294540D01*
X13041540Y-6294540D01*
X13041540Y-6485460D01*
X13232460Y-6485460D01*
X13002000Y-6755000D02*
X13272000Y-7025000D01*
X13272000Y-6755000D02*
X13002000Y-7025000D01*
X13232460Y-6985460D02*
X13232460Y-6794540D01*
X13041540Y-6794540D01*
X13041540Y-6985460D01*
X13232460Y-6985460D01*
X13626890Y-6256055D02*
X13896890Y-6526055D01*
X13896890Y-6256055D02*
X13626890Y-6526055D01*
X13857350Y-6486515D02*
X13857350Y-6295595D01*
X13666430Y-6295595D01*
X13666430Y-6486515D01*
X13857350Y-6486515D01*
X13626890Y-6756055D02*
X13896890Y-7026055D01*
X13896890Y-6756055D02*
X13626890Y-7026055D01*
X13857350Y-6986515D02*
X13857350Y-6795595D01*
X13666430Y-6795595D01*
X13666430Y-6986515D01*
X13857350Y-6986515D01*
D15*
X10040000Y-6240000D02*
X10360000Y-6560000D01*
X10360000Y-6240000D02*
X10040000Y-6560000D01*
X10200000Y-6560000D02*
X10360000Y-6400000D01*
X10200000Y-6240000D01*
X10040000Y-6400000D01*
X10200000Y-6560000D01*
X10040000Y-11740000D02*
X10360000Y-12060000D01*
X10360000Y-11740000D02*
X10040000Y-12060000D01*
X10200000Y-12060000D02*
X10360000Y-11900000D01*
X10200000Y-11740000D01*
X10040000Y-11900000D01*
X10200000Y-12060000D01*
X15040000Y-6240000D02*
X15360000Y-6560000D01*
X15360000Y-6240000D02*
X15040000Y-6560000D01*
X15200000Y-6560000D02*
X15360000Y-6400000D01*
X15200000Y-6240000D01*
X15040000Y-6400000D01*
X15200000Y-6560000D01*
X15040000Y-11740000D02*
X15360000Y-12060000D01*
X15360000Y-11740000D02*
X15040000Y-12060000D01*
X15200000Y-12060000D02*
X15360000Y-11900000D01*
X15200000Y-11740000D01*
X15040000Y-11900000D01*
X15200000Y-12060000D01*
D11*
X10107555Y-12563984D02*
X10107555Y-12363984D01*
X10107555Y-12363984D02*
X10155174Y-12363984D01*
X10155174Y-12363984D02*
X10183745Y-12373508D01*
X10183745Y-12373508D02*
X10202793Y-12392555D01*
X10202793Y-12392555D02*
X10212317Y-12411603D01*
X10212317Y-12411603D02*
X10221840Y-12449698D01*
X10221840Y-12449698D02*
X10221840Y-12478269D01*
X10221840Y-12478269D02*
X10212317Y-12516365D01*
X10212317Y-12516365D02*
X10202793Y-12535412D01*
X10202793Y-12535412D02*
X10183745Y-12554460D01*
X10183745Y-12554460D02*
X10155174Y-12563984D01*
X10155174Y-12563984D02*
X10107555Y-12563984D01*
X10307555Y-12563984D02*
X10307555Y-12430650D01*
X10307555Y-12468746D02*
X10317078Y-12449698D01*
X10317078Y-12449698D02*
X10326602Y-12440174D01*
X10326602Y-12440174D02*
X10345650Y-12430650D01*
X10345650Y-12430650D02*
X10364698Y-12430650D01*
X10431364Y-12563984D02*
X10431364Y-12430650D01*
X10431364Y-12363984D02*
X10421840Y-12373508D01*
X10421840Y-12373508D02*
X10431364Y-12383031D01*
X10431364Y-12383031D02*
X10440888Y-12373508D01*
X10440888Y-12373508D02*
X10431364Y-12363984D01*
X10431364Y-12363984D02*
X10431364Y-12383031D01*
X10555174Y-12563984D02*
X10536126Y-12554460D01*
X10536126Y-12554460D02*
X10526602Y-12535412D01*
X10526602Y-12535412D02*
X10526602Y-12363984D01*
X10659936Y-12563984D02*
X10640888Y-12554460D01*
X10640888Y-12554460D02*
X10631364Y-12535412D01*
X10631364Y-12535412D02*
X10631364Y-12363984D01*
X10888507Y-12563984D02*
X10888507Y-12363984D01*
X10888507Y-12363984D02*
X10955174Y-12506841D01*
X10955174Y-12506841D02*
X11021840Y-12363984D01*
X11021840Y-12363984D02*
X11021840Y-12563984D01*
X11202793Y-12563984D02*
X11202793Y-12459222D01*
X11202793Y-12459222D02*
X11193269Y-12440174D01*
X11193269Y-12440174D02*
X11174221Y-12430650D01*
X11174221Y-12430650D02*
X11136126Y-12430650D01*
X11136126Y-12430650D02*
X11117078Y-12440174D01*
X11202793Y-12554460D02*
X11183745Y-12563984D01*
X11183745Y-12563984D02*
X11136126Y-12563984D01*
X11136126Y-12563984D02*
X11117078Y-12554460D01*
X11117078Y-12554460D02*
X11107555Y-12535412D01*
X11107555Y-12535412D02*
X11107555Y-12516365D01*
X11107555Y-12516365D02*
X11117078Y-12497317D01*
X11117078Y-12497317D02*
X11136126Y-12487793D01*
X11136126Y-12487793D02*
X11183745Y-12487793D01*
X11183745Y-12487793D02*
X11202793Y-12478269D01*
X11298031Y-12430650D02*
X11298031Y-12630650D01*
X11298031Y-12440174D02*
X11317078Y-12430650D01*
X11317078Y-12430650D02*
X11355174Y-12430650D01*
X11355174Y-12430650D02*
X11374221Y-12440174D01*
X11374221Y-12440174D02*
X11383745Y-12449698D01*
X11383745Y-12449698D02*
X11393269Y-12468746D01*
X11393269Y-12468746D02*
X11393269Y-12525888D01*
X11393269Y-12525888D02*
X11383745Y-12544936D01*
X11383745Y-12544936D02*
X11374221Y-12554460D01*
X11374221Y-12554460D02*
X11355174Y-12563984D01*
X11355174Y-12563984D02*
X11317078Y-12563984D01*
X11317078Y-12563984D02*
X11298031Y-12554460D01*
X11478983Y-12544936D02*
X11488507Y-12554460D01*
X11488507Y-12554460D02*
X11478983Y-12563984D01*
X11478983Y-12563984D02*
X11469459Y-12554460D01*
X11469459Y-12554460D02*
X11478983Y-12544936D01*
X11478983Y-12544936D02*
X11478983Y-12563984D01*
X11478983Y-12440174D02*
X11488507Y-12449698D01*
X11488507Y-12449698D02*
X11478983Y-12459222D01*
X11478983Y-12459222D02*
X11469459Y-12449698D01*
X11469459Y-12449698D02*
X11478983Y-12440174D01*
X11478983Y-12440174D02*
X11478983Y-12459222D01*
D12*
X9826778Y-12882500D02*
X9846778Y-12902500D01*
X9846778Y-12882500D02*
X9826778Y-12902500D01*
D11*
X10145650Y-12783984D02*
X10164698Y-12783984D01*
X10164698Y-12783984D02*
X10183745Y-12793508D01*
X10183745Y-12793508D02*
X10193269Y-12803031D01*
X10193269Y-12803031D02*
X10202793Y-12822079D01*
X10202793Y-12822079D02*
X10212317Y-12860174D01*
X10212317Y-12860174D02*
X10212317Y-12907793D01*
X10212317Y-12907793D02*
X10202793Y-12945888D01*
X10202793Y-12945888D02*
X10193269Y-12964936D01*
X10193269Y-12964936D02*
X10183745Y-12974460D01*
X10183745Y-12974460D02*
X10164698Y-12983984D01*
X10164698Y-12983984D02*
X10145650Y-12983984D01*
X10145650Y-12983984D02*
X10126602Y-12974460D01*
X10126602Y-12974460D02*
X10117078Y-12964936D01*
X10117078Y-12964936D02*
X10107555Y-12945888D01*
X10107555Y-12945888D02*
X10098031Y-12907793D01*
X10098031Y-12907793D02*
X10098031Y-12860174D01*
X10098031Y-12860174D02*
X10107555Y-12822079D01*
X10107555Y-12822079D02*
X10117078Y-12803031D01*
X10117078Y-12803031D02*
X10126602Y-12793508D01*
X10126602Y-12793508D02*
X10145650Y-12783984D01*
X10298031Y-12964936D02*
X10307555Y-12974460D01*
X10307555Y-12974460D02*
X10298031Y-12983984D01*
X10298031Y-12983984D02*
X10288507Y-12974460D01*
X10288507Y-12974460D02*
X10298031Y-12964936D01*
X10298031Y-12964936D02*
X10298031Y-12983984D01*
X10383745Y-12803031D02*
X10393269Y-12793508D01*
X10393269Y-12793508D02*
X10412317Y-12783984D01*
X10412317Y-12783984D02*
X10459936Y-12783984D01*
X10459936Y-12783984D02*
X10478983Y-12793508D01*
X10478983Y-12793508D02*
X10488507Y-12803031D01*
X10488507Y-12803031D02*
X10498031Y-12822079D01*
X10498031Y-12822079D02*
X10498031Y-12841127D01*
X10498031Y-12841127D02*
X10488507Y-12869698D01*
X10488507Y-12869698D02*
X10374221Y-12983984D01*
X10374221Y-12983984D02*
X10498031Y-12983984D01*
X10621840Y-12783984D02*
X10640888Y-12783984D01*
X10640888Y-12783984D02*
X10659936Y-12793508D01*
X10659936Y-12793508D02*
X10669459Y-12803031D01*
X10669459Y-12803031D02*
X10678983Y-12822079D01*
X10678983Y-12822079D02*
X10688507Y-12860174D01*
X10688507Y-12860174D02*
X10688507Y-12907793D01*
X10688507Y-12907793D02*
X10678983Y-12945888D01*
X10678983Y-12945888D02*
X10669459Y-12964936D01*
X10669459Y-12964936D02*
X10659936Y-12974460D01*
X10659936Y-12974460D02*
X10640888Y-12983984D01*
X10640888Y-12983984D02*
X10621840Y-12983984D01*
X10621840Y-12983984D02*
X10602793Y-12974460D01*
X10602793Y-12974460D02*
X10593269Y-12964936D01*
X10593269Y-12964936D02*
X10583745Y-12945888D01*
X10583745Y-12945888D02*
X10574221Y-12907793D01*
X10574221Y-12907793D02*
X10574221Y-12860174D01*
X10574221Y-12860174D02*
X10583745Y-12822079D01*
X10583745Y-12822079D02*
X10593269Y-12803031D01*
X10593269Y-12803031D02*
X10602793Y-12793508D01*
X10602793Y-12793508D02*
X10621840Y-12783984D01*
X10812317Y-12783984D02*
X10831364Y-12783984D01*
X10831364Y-12783984D02*
X10850412Y-12793508D01*
X10850412Y-12793508D02*
X10859936Y-12803031D01*
X10859936Y-12803031D02*
X10869459Y-12822079D01*
X10869459Y-12822079D02*
X10878983Y-12860174D01*
X10878983Y-12860174D02*
X10878983Y-12907793D01*
X10878983Y-12907793D02*
X10869459Y-12945888D01*
X10869459Y-12945888D02*
X10859936Y-12964936D01*
X10859936Y-12964936D02*
X10850412Y-12974460D01*
X10850412Y-12974460D02*
X10831364Y-12983984D01*
X10831364Y-12983984D02*
X10812317Y-12983984D01*
X10812317Y-12983984D02*
X10793269Y-12974460D01*
X10793269Y-12974460D02*
X10783745Y-12964936D01*
X10783745Y-12964936D02*
X10774221Y-12945888D01*
X10774221Y-12945888D02*
X10764698Y-12907793D01*
X10764698Y-12907793D02*
X10764698Y-12860174D01*
X10764698Y-12860174D02*
X10774221Y-12822079D01*
X10774221Y-12822079D02*
X10783745Y-12803031D01*
X10783745Y-12803031D02*
X10793269Y-12793508D01*
X10793269Y-12793508D02*
X10812317Y-12783984D01*
X10964698Y-12983984D02*
X10964698Y-12850650D01*
X10964698Y-12869698D02*
X10974221Y-12860174D01*
X10974221Y-12860174D02*
X10993269Y-12850650D01*
X10993269Y-12850650D02*
X11021840Y-12850650D01*
X11021840Y-12850650D02*
X11040888Y-12860174D01*
X11040888Y-12860174D02*
X11050412Y-12879222D01*
X11050412Y-12879222D02*
X11050412Y-12983984D01*
X11050412Y-12879222D02*
X11059936Y-12860174D01*
X11059936Y-12860174D02*
X11078983Y-12850650D01*
X11078983Y-12850650D02*
X11107555Y-12850650D01*
X11107555Y-12850650D02*
X11126602Y-12860174D01*
X11126602Y-12860174D02*
X11136126Y-12879222D01*
X11136126Y-12879222D02*
X11136126Y-12983984D01*
X11231364Y-12983984D02*
X11231364Y-12850650D01*
X11231364Y-12869698D02*
X11240888Y-12860174D01*
X11240888Y-12860174D02*
X11259936Y-12850650D01*
X11259936Y-12850650D02*
X11288507Y-12850650D01*
X11288507Y-12850650D02*
X11307555Y-12860174D01*
X11307555Y-12860174D02*
X11317078Y-12879222D01*
X11317078Y-12879222D02*
X11317078Y-12983984D01*
X11317078Y-12879222D02*
X11326602Y-12860174D01*
X11326602Y-12860174D02*
X11345650Y-12850650D01*
X11345650Y-12850650D02*
X11374221Y-12850650D01*
X11374221Y-12850650D02*
X11393269Y-12860174D01*
X11393269Y-12860174D02*
X11402793Y-12879222D01*
X11402793Y-12879222D02*
X11402793Y-12983984D01*
X11793269Y-12774460D02*
X11621840Y-13031603D01*
X12050412Y-12783984D02*
X12069460Y-12783984D01*
X12069460Y-12783984D02*
X12088507Y-12793508D01*
X12088507Y-12793508D02*
X12098031Y-12803031D01*
X12098031Y-12803031D02*
X12107555Y-12822079D01*
X12107555Y-12822079D02*
X12117079Y-12860174D01*
X12117079Y-12860174D02*
X12117079Y-12907793D01*
X12117079Y-12907793D02*
X12107555Y-12945888D01*
X12107555Y-12945888D02*
X12098031Y-12964936D01*
X12098031Y-12964936D02*
X12088507Y-12974460D01*
X12088507Y-12974460D02*
X12069460Y-12983984D01*
X12069460Y-12983984D02*
X12050412Y-12983984D01*
X12050412Y-12983984D02*
X12031364Y-12974460D01*
X12031364Y-12974460D02*
X12021840Y-12964936D01*
X12021840Y-12964936D02*
X12012317Y-12945888D01*
X12012317Y-12945888D02*
X12002793Y-12907793D01*
X12002793Y-12907793D02*
X12002793Y-12860174D01*
X12002793Y-12860174D02*
X12012317Y-12822079D01*
X12012317Y-12822079D02*
X12021840Y-12803031D01*
X12021840Y-12803031D02*
X12031364Y-12793508D01*
X12031364Y-12793508D02*
X12050412Y-12783984D01*
X12202793Y-12964936D02*
X12212317Y-12974460D01*
X12212317Y-12974460D02*
X12202793Y-12983984D01*
X12202793Y-12983984D02*
X12193269Y-12974460D01*
X12193269Y-12974460D02*
X12202793Y-12964936D01*
X12202793Y-12964936D02*
X12202793Y-12983984D01*
X12336126Y-12783984D02*
X12355174Y-12783984D01*
X12355174Y-12783984D02*
X12374221Y-12793508D01*
X12374221Y-12793508D02*
X12383745Y-12803031D01*
X12383745Y-12803031D02*
X12393269Y-12822079D01*
X12393269Y-12822079D02*
X12402793Y-12860174D01*
X12402793Y-12860174D02*
X12402793Y-12907793D01*
X12402793Y-12907793D02*
X12393269Y-12945888D01*
X12393269Y-12945888D02*
X12383745Y-12964936D01*
X12383745Y-12964936D02*
X12374221Y-12974460D01*
X12374221Y-12974460D02*
X12355174Y-12983984D01*
X12355174Y-12983984D02*
X12336126Y-12983984D01*
X12336126Y-12983984D02*
X12317079Y-12974460D01*
X12317079Y-12974460D02*
X12307555Y-12964936D01*
X12307555Y-12964936D02*
X12298031Y-12945888D01*
X12298031Y-12945888D02*
X12288507Y-12907793D01*
X12288507Y-12907793D02*
X12288507Y-12860174D01*
X12288507Y-12860174D02*
X12298031Y-12822079D01*
X12298031Y-12822079D02*
X12307555Y-12803031D01*
X12307555Y-12803031D02*
X12317079Y-12793508D01*
X12317079Y-12793508D02*
X12336126Y-12783984D01*
X12526602Y-12783984D02*
X12545650Y-12783984D01*
X12545650Y-12783984D02*
X12564698Y-12793508D01*
X12564698Y-12793508D02*
X12574221Y-12803031D01*
X12574221Y-12803031D02*
X12583745Y-12822079D01*
X12583745Y-12822079D02*
X12593269Y-12860174D01*
X12593269Y-12860174D02*
X12593269Y-12907793D01*
X12593269Y-12907793D02*
X12583745Y-12945888D01*
X12583745Y-12945888D02*
X12574221Y-12964936D01*
X12574221Y-12964936D02*
X12564698Y-12974460D01*
X12564698Y-12974460D02*
X12545650Y-12983984D01*
X12545650Y-12983984D02*
X12526602Y-12983984D01*
X12526602Y-12983984D02*
X12507555Y-12974460D01*
X12507555Y-12974460D02*
X12498031Y-12964936D01*
X12498031Y-12964936D02*
X12488507Y-12945888D01*
X12488507Y-12945888D02*
X12478983Y-12907793D01*
X12478983Y-12907793D02*
X12478983Y-12860174D01*
X12478983Y-12860174D02*
X12488507Y-12822079D01*
X12488507Y-12822079D02*
X12498031Y-12803031D01*
X12498031Y-12803031D02*
X12507555Y-12793508D01*
X12507555Y-12793508D02*
X12526602Y-12783984D01*
X12659936Y-12783984D02*
X12793269Y-12783984D01*
X12793269Y-12783984D02*
X12707555Y-12983984D01*
X12878983Y-12983984D02*
X12917079Y-12983984D01*
X12917079Y-12983984D02*
X12936126Y-12974460D01*
X12936126Y-12974460D02*
X12945650Y-12964936D01*
X12945650Y-12964936D02*
X12964698Y-12936365D01*
X12964698Y-12936365D02*
X12974221Y-12898269D01*
X12974221Y-12898269D02*
X12974221Y-12822079D01*
X12974221Y-12822079D02*
X12964698Y-12803031D01*
X12964698Y-12803031D02*
X12955174Y-12793508D01*
X12955174Y-12793508D02*
X12936126Y-12783984D01*
X12936126Y-12783984D02*
X12898031Y-12783984D01*
X12898031Y-12783984D02*
X12878983Y-12793508D01*
X12878983Y-12793508D02*
X12869460Y-12803031D01*
X12869460Y-12803031D02*
X12859936Y-12822079D01*
X12859936Y-12822079D02*
X12859936Y-12869698D01*
X12859936Y-12869698D02*
X12869460Y-12888746D01*
X12869460Y-12888746D02*
X12878983Y-12898269D01*
X12878983Y-12898269D02*
X12898031Y-12907793D01*
X12898031Y-12907793D02*
X12936126Y-12907793D01*
X12936126Y-12907793D02*
X12955174Y-12898269D01*
X12955174Y-12898269D02*
X12964698Y-12888746D01*
X12964698Y-12888746D02*
X12974221Y-12869698D01*
X13050412Y-12783984D02*
X13050412Y-12822079D01*
X13126602Y-12783984D02*
X13126602Y-12822079D01*
X13421841Y-13060174D02*
X13412317Y-13050650D01*
X13412317Y-13050650D02*
X13393269Y-13022079D01*
X13393269Y-13022079D02*
X13383745Y-13003031D01*
X13383745Y-13003031D02*
X13374222Y-12974460D01*
X13374222Y-12974460D02*
X13364698Y-12926841D01*
X13364698Y-12926841D02*
X13364698Y-12888746D01*
X13364698Y-12888746D02*
X13374222Y-12841127D01*
X13374222Y-12841127D02*
X13383745Y-12812555D01*
X13383745Y-12812555D02*
X13393269Y-12793508D01*
X13393269Y-12793508D02*
X13412317Y-12764936D01*
X13412317Y-12764936D02*
X13421841Y-12755412D01*
X13602793Y-12983984D02*
X13488507Y-12983984D01*
X13545650Y-12983984D02*
X13545650Y-12783984D01*
X13545650Y-12783984D02*
X13526602Y-12812555D01*
X13526602Y-12812555D02*
X13507555Y-12831603D01*
X13507555Y-12831603D02*
X13488507Y-12841127D01*
X13678983Y-12803031D02*
X13688507Y-12793508D01*
X13688507Y-12793508D02*
X13707555Y-12783984D01*
X13707555Y-12783984D02*
X13755174Y-12783984D01*
X13755174Y-12783984D02*
X13774222Y-12793508D01*
X13774222Y-12793508D02*
X13783745Y-12803031D01*
X13783745Y-12803031D02*
X13793269Y-12822079D01*
X13793269Y-12822079D02*
X13793269Y-12841127D01*
X13793269Y-12841127D02*
X13783745Y-12869698D01*
X13783745Y-12869698D02*
X13669460Y-12983984D01*
X13669460Y-12983984D02*
X13793269Y-12983984D01*
X14031364Y-12983984D02*
X14031364Y-12783984D01*
X14117079Y-12983984D02*
X14117079Y-12879222D01*
X14117079Y-12879222D02*
X14107555Y-12860174D01*
X14107555Y-12860174D02*
X14088507Y-12850650D01*
X14088507Y-12850650D02*
X14059936Y-12850650D01*
X14059936Y-12850650D02*
X14040888Y-12860174D01*
X14040888Y-12860174D02*
X14031364Y-12869698D01*
X14240888Y-12983984D02*
X14221841Y-12974460D01*
X14221841Y-12974460D02*
X14212317Y-12964936D01*
X14212317Y-12964936D02*
X14202793Y-12945888D01*
X14202793Y-12945888D02*
X14202793Y-12888746D01*
X14202793Y-12888746D02*
X14212317Y-12869698D01*
X14212317Y-12869698D02*
X14221841Y-12860174D01*
X14221841Y-12860174D02*
X14240888Y-12850650D01*
X14240888Y-12850650D02*
X14269460Y-12850650D01*
X14269460Y-12850650D02*
X14288507Y-12860174D01*
X14288507Y-12860174D02*
X14298031Y-12869698D01*
X14298031Y-12869698D02*
X14307555Y-12888746D01*
X14307555Y-12888746D02*
X14307555Y-12945888D01*
X14307555Y-12945888D02*
X14298031Y-12964936D01*
X14298031Y-12964936D02*
X14288507Y-12974460D01*
X14288507Y-12974460D02*
X14269460Y-12983984D01*
X14269460Y-12983984D02*
X14240888Y-12983984D01*
X14421841Y-12983984D02*
X14402793Y-12974460D01*
X14402793Y-12974460D02*
X14393269Y-12955412D01*
X14393269Y-12955412D02*
X14393269Y-12783984D01*
X14574222Y-12974460D02*
X14555174Y-12983984D01*
X14555174Y-12983984D02*
X14517079Y-12983984D01*
X14517079Y-12983984D02*
X14498031Y-12974460D01*
X14498031Y-12974460D02*
X14488507Y-12955412D01*
X14488507Y-12955412D02*
X14488507Y-12879222D01*
X14488507Y-12879222D02*
X14498031Y-12860174D01*
X14498031Y-12860174D02*
X14517079Y-12850650D01*
X14517079Y-12850650D02*
X14555174Y-12850650D01*
X14555174Y-12850650D02*
X14574222Y-12860174D01*
X14574222Y-12860174D02*
X14583745Y-12879222D01*
X14583745Y-12879222D02*
X14583745Y-12898269D01*
X14583745Y-12898269D02*
X14488507Y-12917317D01*
X14659936Y-12974460D02*
X14678984Y-12983984D01*
X14678984Y-12983984D02*
X14717079Y-12983984D01*
X14717079Y-12983984D02*
X14736126Y-12974460D01*
X14736126Y-12974460D02*
X14745650Y-12955412D01*
X14745650Y-12955412D02*
X14745650Y-12945888D01*
X14745650Y-12945888D02*
X14736126Y-12926841D01*
X14736126Y-12926841D02*
X14717079Y-12917317D01*
X14717079Y-12917317D02*
X14688507Y-12917317D01*
X14688507Y-12917317D02*
X14669460Y-12907793D01*
X14669460Y-12907793D02*
X14659936Y-12888746D01*
X14659936Y-12888746D02*
X14659936Y-12879222D01*
X14659936Y-12879222D02*
X14669460Y-12860174D01*
X14669460Y-12860174D02*
X14688507Y-12850650D01*
X14688507Y-12850650D02*
X14717079Y-12850650D01*
X14717079Y-12850650D02*
X14736126Y-12860174D01*
X14812317Y-13060174D02*
X14821841Y-13050650D01*
X14821841Y-13050650D02*
X14840888Y-13022079D01*
X14840888Y-13022079D02*
X14850412Y-13003031D01*
X14850412Y-13003031D02*
X14859936Y-12974460D01*
X14859936Y-12974460D02*
X14869460Y-12926841D01*
X14869460Y-12926841D02*
X14869460Y-12888746D01*
X14869460Y-12888746D02*
X14859936Y-12841127D01*
X14859936Y-12841127D02*
X14850412Y-12812555D01*
X14850412Y-12812555D02*
X14840888Y-12793508D01*
X14840888Y-12793508D02*
X14821841Y-12764936D01*
X14821841Y-12764936D02*
X14812317Y-12755412D01*
D12*
X9846778Y-13156500D02*
G75*
G02*
X9816778Y-13156500I-15000J0D01*
G01*
X9816778Y-13156500D02*
G75*
G02*
X9846778Y-13156500I15000J0D01*
G01*
D11*
X10145650Y-13047984D02*
X10164698Y-13047984D01*
X10164698Y-13047984D02*
X10183745Y-13057508D01*
X10183745Y-13057508D02*
X10193269Y-13067031D01*
X10193269Y-13067031D02*
X10202793Y-13086079D01*
X10202793Y-13086079D02*
X10212317Y-13124174D01*
X10212317Y-13124174D02*
X10212317Y-13171793D01*
X10212317Y-13171793D02*
X10202793Y-13209888D01*
X10202793Y-13209888D02*
X10193269Y-13228936D01*
X10193269Y-13228936D02*
X10183745Y-13238460D01*
X10183745Y-13238460D02*
X10164698Y-13247984D01*
X10164698Y-13247984D02*
X10145650Y-13247984D01*
X10145650Y-13247984D02*
X10126602Y-13238460D01*
X10126602Y-13238460D02*
X10117078Y-13228936D01*
X10117078Y-13228936D02*
X10107555Y-13209888D01*
X10107555Y-13209888D02*
X10098031Y-13171793D01*
X10098031Y-13171793D02*
X10098031Y-13124174D01*
X10098031Y-13124174D02*
X10107555Y-13086079D01*
X10107555Y-13086079D02*
X10117078Y-13067031D01*
X10117078Y-13067031D02*
X10126602Y-13057508D01*
X10126602Y-13057508D02*
X10145650Y-13047984D01*
X10298031Y-13228936D02*
X10307555Y-13238460D01*
X10307555Y-13238460D02*
X10298031Y-13247984D01*
X10298031Y-13247984D02*
X10288507Y-13238460D01*
X10288507Y-13238460D02*
X10298031Y-13228936D01*
X10298031Y-13228936D02*
X10298031Y-13247984D01*
X10374221Y-13047984D02*
X10498031Y-13047984D01*
X10498031Y-13047984D02*
X10431364Y-13124174D01*
X10431364Y-13124174D02*
X10459936Y-13124174D01*
X10459936Y-13124174D02*
X10478983Y-13133698D01*
X10478983Y-13133698D02*
X10488507Y-13143222D01*
X10488507Y-13143222D02*
X10498031Y-13162269D01*
X10498031Y-13162269D02*
X10498031Y-13209888D01*
X10498031Y-13209888D02*
X10488507Y-13228936D01*
X10488507Y-13228936D02*
X10478983Y-13238460D01*
X10478983Y-13238460D02*
X10459936Y-13247984D01*
X10459936Y-13247984D02*
X10402793Y-13247984D01*
X10402793Y-13247984D02*
X10383745Y-13238460D01*
X10383745Y-13238460D02*
X10374221Y-13228936D01*
X10621840Y-13047984D02*
X10640888Y-13047984D01*
X10640888Y-13047984D02*
X10659936Y-13057508D01*
X10659936Y-13057508D02*
X10669459Y-13067031D01*
X10669459Y-13067031D02*
X10678983Y-13086079D01*
X10678983Y-13086079D02*
X10688507Y-13124174D01*
X10688507Y-13124174D02*
X10688507Y-13171793D01*
X10688507Y-13171793D02*
X10678983Y-13209888D01*
X10678983Y-13209888D02*
X10669459Y-13228936D01*
X10669459Y-13228936D02*
X10659936Y-13238460D01*
X10659936Y-13238460D02*
X10640888Y-13247984D01*
X10640888Y-13247984D02*
X10621840Y-13247984D01*
X10621840Y-13247984D02*
X10602793Y-13238460D01*
X10602793Y-13238460D02*
X10593269Y-13228936D01*
X10593269Y-13228936D02*
X10583745Y-13209888D01*
X10583745Y-13209888D02*
X10574221Y-13171793D01*
X10574221Y-13171793D02*
X10574221Y-13124174D01*
X10574221Y-13124174D02*
X10583745Y-13086079D01*
X10583745Y-13086079D02*
X10593269Y-13067031D01*
X10593269Y-13067031D02*
X10602793Y-13057508D01*
X10602793Y-13057508D02*
X10621840Y-13047984D01*
X10812317Y-13047984D02*
X10831364Y-13047984D01*
X10831364Y-13047984D02*
X10850412Y-13057508D01*
X10850412Y-13057508D02*
X10859936Y-13067031D01*
X10859936Y-13067031D02*
X10869459Y-13086079D01*
X10869459Y-13086079D02*
X10878983Y-13124174D01*
X10878983Y-13124174D02*
X10878983Y-13171793D01*
X10878983Y-13171793D02*
X10869459Y-13209888D01*
X10869459Y-13209888D02*
X10859936Y-13228936D01*
X10859936Y-13228936D02*
X10850412Y-13238460D01*
X10850412Y-13238460D02*
X10831364Y-13247984D01*
X10831364Y-13247984D02*
X10812317Y-13247984D01*
X10812317Y-13247984D02*
X10793269Y-13238460D01*
X10793269Y-13238460D02*
X10783745Y-13228936D01*
X10783745Y-13228936D02*
X10774221Y-13209888D01*
X10774221Y-13209888D02*
X10764698Y-13171793D01*
X10764698Y-13171793D02*
X10764698Y-13124174D01*
X10764698Y-13124174D02*
X10774221Y-13086079D01*
X10774221Y-13086079D02*
X10783745Y-13067031D01*
X10783745Y-13067031D02*
X10793269Y-13057508D01*
X10793269Y-13057508D02*
X10812317Y-13047984D01*
X10964698Y-13247984D02*
X10964698Y-13114650D01*
X10964698Y-13133698D02*
X10974221Y-13124174D01*
X10974221Y-13124174D02*
X10993269Y-13114650D01*
X10993269Y-13114650D02*
X11021840Y-13114650D01*
X11021840Y-13114650D02*
X11040888Y-13124174D01*
X11040888Y-13124174D02*
X11050412Y-13143222D01*
X11050412Y-13143222D02*
X11050412Y-13247984D01*
X11050412Y-13143222D02*
X11059936Y-13124174D01*
X11059936Y-13124174D02*
X11078983Y-13114650D01*
X11078983Y-13114650D02*
X11107555Y-13114650D01*
X11107555Y-13114650D02*
X11126602Y-13124174D01*
X11126602Y-13124174D02*
X11136126Y-13143222D01*
X11136126Y-13143222D02*
X11136126Y-13247984D01*
X11231364Y-13247984D02*
X11231364Y-13114650D01*
X11231364Y-13133698D02*
X11240888Y-13124174D01*
X11240888Y-13124174D02*
X11259936Y-13114650D01*
X11259936Y-13114650D02*
X11288507Y-13114650D01*
X11288507Y-13114650D02*
X11307555Y-13124174D01*
X11307555Y-13124174D02*
X11317078Y-13143222D01*
X11317078Y-13143222D02*
X11317078Y-13247984D01*
X11317078Y-13143222D02*
X11326602Y-13124174D01*
X11326602Y-13124174D02*
X11345650Y-13114650D01*
X11345650Y-13114650D02*
X11374221Y-13114650D01*
X11374221Y-13114650D02*
X11393269Y-13124174D01*
X11393269Y-13124174D02*
X11402793Y-13143222D01*
X11402793Y-13143222D02*
X11402793Y-13247984D01*
X11793269Y-13038460D02*
X11621840Y-13295603D01*
X12050412Y-13047984D02*
X12069460Y-13047984D01*
X12069460Y-13047984D02*
X12088507Y-13057508D01*
X12088507Y-13057508D02*
X12098031Y-13067031D01*
X12098031Y-13067031D02*
X12107555Y-13086079D01*
X12107555Y-13086079D02*
X12117079Y-13124174D01*
X12117079Y-13124174D02*
X12117079Y-13171793D01*
X12117079Y-13171793D02*
X12107555Y-13209888D01*
X12107555Y-13209888D02*
X12098031Y-13228936D01*
X12098031Y-13228936D02*
X12088507Y-13238460D01*
X12088507Y-13238460D02*
X12069460Y-13247984D01*
X12069460Y-13247984D02*
X12050412Y-13247984D01*
X12050412Y-13247984D02*
X12031364Y-13238460D01*
X12031364Y-13238460D02*
X12021840Y-13228936D01*
X12021840Y-13228936D02*
X12012317Y-13209888D01*
X12012317Y-13209888D02*
X12002793Y-13171793D01*
X12002793Y-13171793D02*
X12002793Y-13124174D01*
X12002793Y-13124174D02*
X12012317Y-13086079D01*
X12012317Y-13086079D02*
X12021840Y-13067031D01*
X12021840Y-13067031D02*
X12031364Y-13057508D01*
X12031364Y-13057508D02*
X12050412Y-13047984D01*
X12202793Y-13228936D02*
X12212317Y-13238460D01*
X12212317Y-13238460D02*
X12202793Y-13247984D01*
X12202793Y-13247984D02*
X12193269Y-13238460D01*
X12193269Y-13238460D02*
X12202793Y-13228936D01*
X12202793Y-13228936D02*
X12202793Y-13247984D01*
X12336126Y-13047984D02*
X12355174Y-13047984D01*
X12355174Y-13047984D02*
X12374221Y-13057508D01*
X12374221Y-13057508D02*
X12383745Y-13067031D01*
X12383745Y-13067031D02*
X12393269Y-13086079D01*
X12393269Y-13086079D02*
X12402793Y-13124174D01*
X12402793Y-13124174D02*
X12402793Y-13171793D01*
X12402793Y-13171793D02*
X12393269Y-13209888D01*
X12393269Y-13209888D02*
X12383745Y-13228936D01*
X12383745Y-13228936D02*
X12374221Y-13238460D01*
X12374221Y-13238460D02*
X12355174Y-13247984D01*
X12355174Y-13247984D02*
X12336126Y-13247984D01*
X12336126Y-13247984D02*
X12317079Y-13238460D01*
X12317079Y-13238460D02*
X12307555Y-13228936D01*
X12307555Y-13228936D02*
X12298031Y-13209888D01*
X12298031Y-13209888D02*
X12288507Y-13171793D01*
X12288507Y-13171793D02*
X12288507Y-13124174D01*
X12288507Y-13124174D02*
X12298031Y-13086079D01*
X12298031Y-13086079D02*
X12307555Y-13067031D01*
X12307555Y-13067031D02*
X12317079Y-13057508D01*
X12317079Y-13057508D02*
X12336126Y-13047984D01*
X12593269Y-13247984D02*
X12478983Y-13247984D01*
X12536126Y-13247984D02*
X12536126Y-13047984D01*
X12536126Y-13047984D02*
X12517079Y-13076555D01*
X12517079Y-13076555D02*
X12498031Y-13095603D01*
X12498031Y-13095603D02*
X12478983Y-13105127D01*
X12783745Y-13247984D02*
X12669460Y-13247984D01*
X12726602Y-13247984D02*
X12726602Y-13047984D01*
X12726602Y-13047984D02*
X12707555Y-13076555D01*
X12707555Y-13076555D02*
X12688507Y-13095603D01*
X12688507Y-13095603D02*
X12669460Y-13105127D01*
X12898031Y-13133698D02*
X12878983Y-13124174D01*
X12878983Y-13124174D02*
X12869460Y-13114650D01*
X12869460Y-13114650D02*
X12859936Y-13095603D01*
X12859936Y-13095603D02*
X12859936Y-13086079D01*
X12859936Y-13086079D02*
X12869460Y-13067031D01*
X12869460Y-13067031D02*
X12878983Y-13057508D01*
X12878983Y-13057508D02*
X12898031Y-13047984D01*
X12898031Y-13047984D02*
X12936126Y-13047984D01*
X12936126Y-13047984D02*
X12955174Y-13057508D01*
X12955174Y-13057508D02*
X12964698Y-13067031D01*
X12964698Y-13067031D02*
X12974221Y-13086079D01*
X12974221Y-13086079D02*
X12974221Y-13095603D01*
X12974221Y-13095603D02*
X12964698Y-13114650D01*
X12964698Y-13114650D02*
X12955174Y-13124174D01*
X12955174Y-13124174D02*
X12936126Y-13133698D01*
X12936126Y-13133698D02*
X12898031Y-13133698D01*
X12898031Y-13133698D02*
X12878983Y-13143222D01*
X12878983Y-13143222D02*
X12869460Y-13152746D01*
X12869460Y-13152746D02*
X12859936Y-13171793D01*
X12859936Y-13171793D02*
X12859936Y-13209888D01*
X12859936Y-13209888D02*
X12869460Y-13228936D01*
X12869460Y-13228936D02*
X12878983Y-13238460D01*
X12878983Y-13238460D02*
X12898031Y-13247984D01*
X12898031Y-13247984D02*
X12936126Y-13247984D01*
X12936126Y-13247984D02*
X12955174Y-13238460D01*
X12955174Y-13238460D02*
X12964698Y-13228936D01*
X12964698Y-13228936D02*
X12974221Y-13209888D01*
X12974221Y-13209888D02*
X12974221Y-13171793D01*
X12974221Y-13171793D02*
X12964698Y-13152746D01*
X12964698Y-13152746D02*
X12955174Y-13143222D01*
X12955174Y-13143222D02*
X12936126Y-13133698D01*
X13050412Y-13047984D02*
X13050412Y-13086079D01*
X13126602Y-13047984D02*
X13126602Y-13086079D01*
X13421841Y-13324174D02*
X13412317Y-13314650D01*
X13412317Y-13314650D02*
X13393269Y-13286079D01*
X13393269Y-13286079D02*
X13383745Y-13267031D01*
X13383745Y-13267031D02*
X13374222Y-13238460D01*
X13374222Y-13238460D02*
X13364698Y-13190841D01*
X13364698Y-13190841D02*
X13364698Y-13152746D01*
X13364698Y-13152746D02*
X13374222Y-13105127D01*
X13374222Y-13105127D02*
X13383745Y-13076555D01*
X13383745Y-13076555D02*
X13393269Y-13057508D01*
X13393269Y-13057508D02*
X13412317Y-13028936D01*
X13412317Y-13028936D02*
X13421841Y-13019412D01*
X13478983Y-13047984D02*
X13612317Y-13047984D01*
X13612317Y-13047984D02*
X13526602Y-13247984D01*
X13783745Y-13047984D02*
X13688507Y-13047984D01*
X13688507Y-13047984D02*
X13678983Y-13143222D01*
X13678983Y-13143222D02*
X13688507Y-13133698D01*
X13688507Y-13133698D02*
X13707555Y-13124174D01*
X13707555Y-13124174D02*
X13755174Y-13124174D01*
X13755174Y-13124174D02*
X13774222Y-13133698D01*
X13774222Y-13133698D02*
X13783745Y-13143222D01*
X13783745Y-13143222D02*
X13793269Y-13162269D01*
X13793269Y-13162269D02*
X13793269Y-13209888D01*
X13793269Y-13209888D02*
X13783745Y-13228936D01*
X13783745Y-13228936D02*
X13774222Y-13238460D01*
X13774222Y-13238460D02*
X13755174Y-13247984D01*
X13755174Y-13247984D02*
X13707555Y-13247984D01*
X13707555Y-13247984D02*
X13688507Y-13238460D01*
X13688507Y-13238460D02*
X13678983Y-13228936D01*
X14031364Y-13247984D02*
X14031364Y-13047984D01*
X14117079Y-13247984D02*
X14117079Y-13143222D01*
X14117079Y-13143222D02*
X14107555Y-13124174D01*
X14107555Y-13124174D02*
X14088507Y-13114650D01*
X14088507Y-13114650D02*
X14059936Y-13114650D01*
X14059936Y-13114650D02*
X14040888Y-13124174D01*
X14040888Y-13124174D02*
X14031364Y-13133698D01*
X14240888Y-13247984D02*
X14221841Y-13238460D01*
X14221841Y-13238460D02*
X14212317Y-13228936D01*
X14212317Y-13228936D02*
X14202793Y-13209888D01*
X14202793Y-13209888D02*
X14202793Y-13152746D01*
X14202793Y-13152746D02*
X14212317Y-13133698D01*
X14212317Y-13133698D02*
X14221841Y-13124174D01*
X14221841Y-13124174D02*
X14240888Y-13114650D01*
X14240888Y-13114650D02*
X14269460Y-13114650D01*
X14269460Y-13114650D02*
X14288507Y-13124174D01*
X14288507Y-13124174D02*
X14298031Y-13133698D01*
X14298031Y-13133698D02*
X14307555Y-13152746D01*
X14307555Y-13152746D02*
X14307555Y-13209888D01*
X14307555Y-13209888D02*
X14298031Y-13228936D01*
X14298031Y-13228936D02*
X14288507Y-13238460D01*
X14288507Y-13238460D02*
X14269460Y-13247984D01*
X14269460Y-13247984D02*
X14240888Y-13247984D01*
X14421841Y-13247984D02*
X14402793Y-13238460D01*
X14402793Y-13238460D02*
X14393269Y-13219412D01*
X14393269Y-13219412D02*
X14393269Y-13047984D01*
X14574222Y-13238460D02*
X14555174Y-13247984D01*
X14555174Y-13247984D02*
X14517079Y-13247984D01*
X14517079Y-13247984D02*
X14498031Y-13238460D01*
X14498031Y-13238460D02*
X14488507Y-13219412D01*
X14488507Y-13219412D02*
X14488507Y-13143222D01*
X14488507Y-13143222D02*
X14498031Y-13124174D01*
X14498031Y-13124174D02*
X14517079Y-13114650D01*
X14517079Y-13114650D02*
X14555174Y-13114650D01*
X14555174Y-13114650D02*
X14574222Y-13124174D01*
X14574222Y-13124174D02*
X14583745Y-13143222D01*
X14583745Y-13143222D02*
X14583745Y-13162269D01*
X14583745Y-13162269D02*
X14488507Y-13181317D01*
X14659936Y-13238460D02*
X14678984Y-13247984D01*
X14678984Y-13247984D02*
X14717079Y-13247984D01*
X14717079Y-13247984D02*
X14736126Y-13238460D01*
X14736126Y-13238460D02*
X14745650Y-13219412D01*
X14745650Y-13219412D02*
X14745650Y-13209888D01*
X14745650Y-13209888D02*
X14736126Y-13190841D01*
X14736126Y-13190841D02*
X14717079Y-13181317D01*
X14717079Y-13181317D02*
X14688507Y-13181317D01*
X14688507Y-13181317D02*
X14669460Y-13171793D01*
X14669460Y-13171793D02*
X14659936Y-13152746D01*
X14659936Y-13152746D02*
X14659936Y-13143222D01*
X14659936Y-13143222D02*
X14669460Y-13124174D01*
X14669460Y-13124174D02*
X14688507Y-13114650D01*
X14688507Y-13114650D02*
X14717079Y-13114650D01*
X14717079Y-13114650D02*
X14736126Y-13124174D01*
X14812317Y-13324174D02*
X14821841Y-13314650D01*
X14821841Y-13314650D02*
X14840888Y-13286079D01*
X14840888Y-13286079D02*
X14850412Y-13267031D01*
X14850412Y-13267031D02*
X14859936Y-13238460D01*
X14859936Y-13238460D02*
X14869460Y-13190841D01*
X14869460Y-13190841D02*
X14869460Y-13152746D01*
X14869460Y-13152746D02*
X14859936Y-13105127D01*
X14859936Y-13105127D02*
X14850412Y-13076555D01*
X14850412Y-13076555D02*
X14840888Y-13057508D01*
X14840888Y-13057508D02*
X14821841Y-13028936D01*
X14821841Y-13028936D02*
X14812317Y-13019412D01*
D12*
X9821778Y-13395500D02*
X9821778Y-13445500D01*
X9796778Y-13420500D02*
X9846778Y-13420500D01*
D11*
X10145650Y-13311984D02*
X10164698Y-13311984D01*
X10164698Y-13311984D02*
X10183745Y-13321508D01*
X10183745Y-13321508D02*
X10193269Y-13331031D01*
X10193269Y-13331031D02*
X10202793Y-13350079D01*
X10202793Y-13350079D02*
X10212317Y-13388174D01*
X10212317Y-13388174D02*
X10212317Y-13435793D01*
X10212317Y-13435793D02*
X10202793Y-13473888D01*
X10202793Y-13473888D02*
X10193269Y-13492936D01*
X10193269Y-13492936D02*
X10183745Y-13502460D01*
X10183745Y-13502460D02*
X10164698Y-13511984D01*
X10164698Y-13511984D02*
X10145650Y-13511984D01*
X10145650Y-13511984D02*
X10126602Y-13502460D01*
X10126602Y-13502460D02*
X10117078Y-13492936D01*
X10117078Y-13492936D02*
X10107555Y-13473888D01*
X10107555Y-13473888D02*
X10098031Y-13435793D01*
X10098031Y-13435793D02*
X10098031Y-13388174D01*
X10098031Y-13388174D02*
X10107555Y-13350079D01*
X10107555Y-13350079D02*
X10117078Y-13331031D01*
X10117078Y-13331031D02*
X10126602Y-13321508D01*
X10126602Y-13321508D02*
X10145650Y-13311984D01*
X10298031Y-13492936D02*
X10307555Y-13502460D01*
X10307555Y-13502460D02*
X10298031Y-13511984D01*
X10298031Y-13511984D02*
X10288507Y-13502460D01*
X10288507Y-13502460D02*
X10298031Y-13492936D01*
X10298031Y-13492936D02*
X10298031Y-13511984D01*
X10488507Y-13311984D02*
X10393269Y-13311984D01*
X10393269Y-13311984D02*
X10383745Y-13407222D01*
X10383745Y-13407222D02*
X10393269Y-13397698D01*
X10393269Y-13397698D02*
X10412317Y-13388174D01*
X10412317Y-13388174D02*
X10459936Y-13388174D01*
X10459936Y-13388174D02*
X10478983Y-13397698D01*
X10478983Y-13397698D02*
X10488507Y-13407222D01*
X10488507Y-13407222D02*
X10498031Y-13426269D01*
X10498031Y-13426269D02*
X10498031Y-13473888D01*
X10498031Y-13473888D02*
X10488507Y-13492936D01*
X10488507Y-13492936D02*
X10478983Y-13502460D01*
X10478983Y-13502460D02*
X10459936Y-13511984D01*
X10459936Y-13511984D02*
X10412317Y-13511984D01*
X10412317Y-13511984D02*
X10393269Y-13502460D01*
X10393269Y-13502460D02*
X10383745Y-13492936D01*
X10621840Y-13311984D02*
X10640888Y-13311984D01*
X10640888Y-13311984D02*
X10659936Y-13321508D01*
X10659936Y-13321508D02*
X10669459Y-13331031D01*
X10669459Y-13331031D02*
X10678983Y-13350079D01*
X10678983Y-13350079D02*
X10688507Y-13388174D01*
X10688507Y-13388174D02*
X10688507Y-13435793D01*
X10688507Y-13435793D02*
X10678983Y-13473888D01*
X10678983Y-13473888D02*
X10669459Y-13492936D01*
X10669459Y-13492936D02*
X10659936Y-13502460D01*
X10659936Y-13502460D02*
X10640888Y-13511984D01*
X10640888Y-13511984D02*
X10621840Y-13511984D01*
X10621840Y-13511984D02*
X10602793Y-13502460D01*
X10602793Y-13502460D02*
X10593269Y-13492936D01*
X10593269Y-13492936D02*
X10583745Y-13473888D01*
X10583745Y-13473888D02*
X10574221Y-13435793D01*
X10574221Y-13435793D02*
X10574221Y-13388174D01*
X10574221Y-13388174D02*
X10583745Y-13350079D01*
X10583745Y-13350079D02*
X10593269Y-13331031D01*
X10593269Y-13331031D02*
X10602793Y-13321508D01*
X10602793Y-13321508D02*
X10621840Y-13311984D01*
X10812317Y-13311984D02*
X10831364Y-13311984D01*
X10831364Y-13311984D02*
X10850412Y-13321508D01*
X10850412Y-13321508D02*
X10859936Y-13331031D01*
X10859936Y-13331031D02*
X10869459Y-13350079D01*
X10869459Y-13350079D02*
X10878983Y-13388174D01*
X10878983Y-13388174D02*
X10878983Y-13435793D01*
X10878983Y-13435793D02*
X10869459Y-13473888D01*
X10869459Y-13473888D02*
X10859936Y-13492936D01*
X10859936Y-13492936D02*
X10850412Y-13502460D01*
X10850412Y-13502460D02*
X10831364Y-13511984D01*
X10831364Y-13511984D02*
X10812317Y-13511984D01*
X10812317Y-13511984D02*
X10793269Y-13502460D01*
X10793269Y-13502460D02*
X10783745Y-13492936D01*
X10783745Y-13492936D02*
X10774221Y-13473888D01*
X10774221Y-13473888D02*
X10764698Y-13435793D01*
X10764698Y-13435793D02*
X10764698Y-13388174D01*
X10764698Y-13388174D02*
X10774221Y-13350079D01*
X10774221Y-13350079D02*
X10783745Y-13331031D01*
X10783745Y-13331031D02*
X10793269Y-13321508D01*
X10793269Y-13321508D02*
X10812317Y-13311984D01*
X10964698Y-13511984D02*
X10964698Y-13378650D01*
X10964698Y-13397698D02*
X10974221Y-13388174D01*
X10974221Y-13388174D02*
X10993269Y-13378650D01*
X10993269Y-13378650D02*
X11021840Y-13378650D01*
X11021840Y-13378650D02*
X11040888Y-13388174D01*
X11040888Y-13388174D02*
X11050412Y-13407222D01*
X11050412Y-13407222D02*
X11050412Y-13511984D01*
X11050412Y-13407222D02*
X11059936Y-13388174D01*
X11059936Y-13388174D02*
X11078983Y-13378650D01*
X11078983Y-13378650D02*
X11107555Y-13378650D01*
X11107555Y-13378650D02*
X11126602Y-13388174D01*
X11126602Y-13388174D02*
X11136126Y-13407222D01*
X11136126Y-13407222D02*
X11136126Y-13511984D01*
X11231364Y-13511984D02*
X11231364Y-13378650D01*
X11231364Y-13397698D02*
X11240888Y-13388174D01*
X11240888Y-13388174D02*
X11259936Y-13378650D01*
X11259936Y-13378650D02*
X11288507Y-13378650D01*
X11288507Y-13378650D02*
X11307555Y-13388174D01*
X11307555Y-13388174D02*
X11317078Y-13407222D01*
X11317078Y-13407222D02*
X11317078Y-13511984D01*
X11317078Y-13407222D02*
X11326602Y-13388174D01*
X11326602Y-13388174D02*
X11345650Y-13378650D01*
X11345650Y-13378650D02*
X11374221Y-13378650D01*
X11374221Y-13378650D02*
X11393269Y-13388174D01*
X11393269Y-13388174D02*
X11402793Y-13407222D01*
X11402793Y-13407222D02*
X11402793Y-13511984D01*
X11793269Y-13302460D02*
X11621840Y-13559603D01*
X12050412Y-13311984D02*
X12069460Y-13311984D01*
X12069460Y-13311984D02*
X12088507Y-13321508D01*
X12088507Y-13321508D02*
X12098031Y-13331031D01*
X12098031Y-13331031D02*
X12107555Y-13350079D01*
X12107555Y-13350079D02*
X12117079Y-13388174D01*
X12117079Y-13388174D02*
X12117079Y-13435793D01*
X12117079Y-13435793D02*
X12107555Y-13473888D01*
X12107555Y-13473888D02*
X12098031Y-13492936D01*
X12098031Y-13492936D02*
X12088507Y-13502460D01*
X12088507Y-13502460D02*
X12069460Y-13511984D01*
X12069460Y-13511984D02*
X12050412Y-13511984D01*
X12050412Y-13511984D02*
X12031364Y-13502460D01*
X12031364Y-13502460D02*
X12021840Y-13492936D01*
X12021840Y-13492936D02*
X12012317Y-13473888D01*
X12012317Y-13473888D02*
X12002793Y-13435793D01*
X12002793Y-13435793D02*
X12002793Y-13388174D01*
X12002793Y-13388174D02*
X12012317Y-13350079D01*
X12012317Y-13350079D02*
X12021840Y-13331031D01*
X12021840Y-13331031D02*
X12031364Y-13321508D01*
X12031364Y-13321508D02*
X12050412Y-13311984D01*
X12202793Y-13492936D02*
X12212317Y-13502460D01*
X12212317Y-13502460D02*
X12202793Y-13511984D01*
X12202793Y-13511984D02*
X12193269Y-13502460D01*
X12193269Y-13502460D02*
X12202793Y-13492936D01*
X12202793Y-13492936D02*
X12202793Y-13511984D01*
X12336126Y-13311984D02*
X12355174Y-13311984D01*
X12355174Y-13311984D02*
X12374221Y-13321508D01*
X12374221Y-13321508D02*
X12383745Y-13331031D01*
X12383745Y-13331031D02*
X12393269Y-13350079D01*
X12393269Y-13350079D02*
X12402793Y-13388174D01*
X12402793Y-13388174D02*
X12402793Y-13435793D01*
X12402793Y-13435793D02*
X12393269Y-13473888D01*
X12393269Y-13473888D02*
X12383745Y-13492936D01*
X12383745Y-13492936D02*
X12374221Y-13502460D01*
X12374221Y-13502460D02*
X12355174Y-13511984D01*
X12355174Y-13511984D02*
X12336126Y-13511984D01*
X12336126Y-13511984D02*
X12317079Y-13502460D01*
X12317079Y-13502460D02*
X12307555Y-13492936D01*
X12307555Y-13492936D02*
X12298031Y-13473888D01*
X12298031Y-13473888D02*
X12288507Y-13435793D01*
X12288507Y-13435793D02*
X12288507Y-13388174D01*
X12288507Y-13388174D02*
X12298031Y-13350079D01*
X12298031Y-13350079D02*
X12307555Y-13331031D01*
X12307555Y-13331031D02*
X12317079Y-13321508D01*
X12317079Y-13321508D02*
X12336126Y-13311984D01*
X12593269Y-13511984D02*
X12478983Y-13511984D01*
X12536126Y-13511984D02*
X12536126Y-13311984D01*
X12536126Y-13311984D02*
X12517079Y-13340555D01*
X12517079Y-13340555D02*
X12498031Y-13359603D01*
X12498031Y-13359603D02*
X12478983Y-13369127D01*
X12688507Y-13511984D02*
X12726602Y-13511984D01*
X12726602Y-13511984D02*
X12745650Y-13502460D01*
X12745650Y-13502460D02*
X12755174Y-13492936D01*
X12755174Y-13492936D02*
X12774221Y-13464365D01*
X12774221Y-13464365D02*
X12783745Y-13426269D01*
X12783745Y-13426269D02*
X12783745Y-13350079D01*
X12783745Y-13350079D02*
X12774221Y-13331031D01*
X12774221Y-13331031D02*
X12764698Y-13321508D01*
X12764698Y-13321508D02*
X12745650Y-13311984D01*
X12745650Y-13311984D02*
X12707555Y-13311984D01*
X12707555Y-13311984D02*
X12688507Y-13321508D01*
X12688507Y-13321508D02*
X12678983Y-13331031D01*
X12678983Y-13331031D02*
X12669460Y-13350079D01*
X12669460Y-13350079D02*
X12669460Y-13397698D01*
X12669460Y-13397698D02*
X12678983Y-13416746D01*
X12678983Y-13416746D02*
X12688507Y-13426269D01*
X12688507Y-13426269D02*
X12707555Y-13435793D01*
X12707555Y-13435793D02*
X12745650Y-13435793D01*
X12745650Y-13435793D02*
X12764698Y-13426269D01*
X12764698Y-13426269D02*
X12774221Y-13416746D01*
X12774221Y-13416746D02*
X12783745Y-13397698D01*
X12850412Y-13311984D02*
X12983745Y-13311984D01*
X12983745Y-13311984D02*
X12898031Y-13511984D01*
X13050412Y-13311984D02*
X13050412Y-13350079D01*
X13126602Y-13311984D02*
X13126602Y-13350079D01*
X13421841Y-13588174D02*
X13412317Y-13578650D01*
X13412317Y-13578650D02*
X13393269Y-13550079D01*
X13393269Y-13550079D02*
X13383745Y-13531031D01*
X13383745Y-13531031D02*
X13374222Y-13502460D01*
X13374222Y-13502460D02*
X13364698Y-13454841D01*
X13364698Y-13454841D02*
X13364698Y-13416746D01*
X13364698Y-13416746D02*
X13374222Y-13369127D01*
X13374222Y-13369127D02*
X13383745Y-13340555D01*
X13383745Y-13340555D02*
X13393269Y-13321508D01*
X13393269Y-13321508D02*
X13412317Y-13292936D01*
X13412317Y-13292936D02*
X13421841Y-13283412D01*
X13602793Y-13511984D02*
X13488507Y-13511984D01*
X13545650Y-13511984D02*
X13545650Y-13311984D01*
X13545650Y-13311984D02*
X13526602Y-13340555D01*
X13526602Y-13340555D02*
X13507555Y-13359603D01*
X13507555Y-13359603D02*
X13488507Y-13369127D01*
X13793269Y-13511984D02*
X13678983Y-13511984D01*
X13736126Y-13511984D02*
X13736126Y-13311984D01*
X13736126Y-13311984D02*
X13717079Y-13340555D01*
X13717079Y-13340555D02*
X13698031Y-13359603D01*
X13698031Y-13359603D02*
X13678983Y-13369127D01*
X14031364Y-13511984D02*
X14031364Y-13311984D01*
X14117079Y-13511984D02*
X14117079Y-13407222D01*
X14117079Y-13407222D02*
X14107555Y-13388174D01*
X14107555Y-13388174D02*
X14088507Y-13378650D01*
X14088507Y-13378650D02*
X14059936Y-13378650D01*
X14059936Y-13378650D02*
X14040888Y-13388174D01*
X14040888Y-13388174D02*
X14031364Y-13397698D01*
X14240888Y-13511984D02*
X14221841Y-13502460D01*
X14221841Y-13502460D02*
X14212317Y-13492936D01*
X14212317Y-13492936D02*
X14202793Y-13473888D01*
X14202793Y-13473888D02*
X14202793Y-13416746D01*
X14202793Y-13416746D02*
X14212317Y-13397698D01*
X14212317Y-13397698D02*
X14221841Y-13388174D01*
X14221841Y-13388174D02*
X14240888Y-13378650D01*
X14240888Y-13378650D02*
X14269460Y-13378650D01*
X14269460Y-13378650D02*
X14288507Y-13388174D01*
X14288507Y-13388174D02*
X14298031Y-13397698D01*
X14298031Y-13397698D02*
X14307555Y-13416746D01*
X14307555Y-13416746D02*
X14307555Y-13473888D01*
X14307555Y-13473888D02*
X14298031Y-13492936D01*
X14298031Y-13492936D02*
X14288507Y-13502460D01*
X14288507Y-13502460D02*
X14269460Y-13511984D01*
X14269460Y-13511984D02*
X14240888Y-13511984D01*
X14421841Y-13511984D02*
X14402793Y-13502460D01*
X14402793Y-13502460D02*
X14393269Y-13483412D01*
X14393269Y-13483412D02*
X14393269Y-13311984D01*
X14574222Y-13502460D02*
X14555174Y-13511984D01*
X14555174Y-13511984D02*
X14517079Y-13511984D01*
X14517079Y-13511984D02*
X14498031Y-13502460D01*
X14498031Y-13502460D02*
X14488507Y-13483412D01*
X14488507Y-13483412D02*
X14488507Y-13407222D01*
X14488507Y-13407222D02*
X14498031Y-13388174D01*
X14498031Y-13388174D02*
X14517079Y-13378650D01*
X14517079Y-13378650D02*
X14555174Y-13378650D01*
X14555174Y-13378650D02*
X14574222Y-13388174D01*
X14574222Y-13388174D02*
X14583745Y-13407222D01*
X14583745Y-13407222D02*
X14583745Y-13426269D01*
X14583745Y-13426269D02*
X14488507Y-13445317D01*
X14659936Y-13502460D02*
X14678984Y-13511984D01*
X14678984Y-13511984D02*
X14717079Y-13511984D01*
X14717079Y-13511984D02*
X14736126Y-13502460D01*
X14736126Y-13502460D02*
X14745650Y-13483412D01*
X14745650Y-13483412D02*
X14745650Y-13473888D01*
X14745650Y-13473888D02*
X14736126Y-13454841D01*
X14736126Y-13454841D02*
X14717079Y-13445317D01*
X14717079Y-13445317D02*
X14688507Y-13445317D01*
X14688507Y-13445317D02*
X14669460Y-13435793D01*
X14669460Y-13435793D02*
X14659936Y-13416746D01*
X14659936Y-13416746D02*
X14659936Y-13407222D01*
X14659936Y-13407222D02*
X14669460Y-13388174D01*
X14669460Y-13388174D02*
X14688507Y-13378650D01*
X14688507Y-13378650D02*
X14717079Y-13378650D01*
X14717079Y-13378650D02*
X14736126Y-13388174D01*
X14812317Y-13588174D02*
X14821841Y-13578650D01*
X14821841Y-13578650D02*
X14840888Y-13550079D01*
X14840888Y-13550079D02*
X14850412Y-13531031D01*
X14850412Y-13531031D02*
X14859936Y-13502460D01*
X14859936Y-13502460D02*
X14869460Y-13454841D01*
X14869460Y-13454841D02*
X14869460Y-13416746D01*
X14869460Y-13416746D02*
X14859936Y-13369127D01*
X14859936Y-13369127D02*
X14850412Y-13340555D01*
X14850412Y-13340555D02*
X14840888Y-13321508D01*
X14840888Y-13321508D02*
X14821841Y-13292936D01*
X14821841Y-13292936D02*
X14812317Y-13283412D01*
D12*
X9836527Y-13709249D02*
X9836527Y-13659751D01*
X9787029Y-13659751D01*
X9787029Y-13709249D01*
X9836527Y-13709249D01*
D11*
X10145650Y-13575984D02*
X10164698Y-13575984D01*
X10164698Y-13575984D02*
X10183745Y-13585508D01*
X10183745Y-13585508D02*
X10193269Y-13595031D01*
X10193269Y-13595031D02*
X10202793Y-13614079D01*
X10202793Y-13614079D02*
X10212317Y-13652174D01*
X10212317Y-13652174D02*
X10212317Y-13699793D01*
X10212317Y-13699793D02*
X10202793Y-13737888D01*
X10202793Y-13737888D02*
X10193269Y-13756936D01*
X10193269Y-13756936D02*
X10183745Y-13766460D01*
X10183745Y-13766460D02*
X10164698Y-13775984D01*
X10164698Y-13775984D02*
X10145650Y-13775984D01*
X10145650Y-13775984D02*
X10126602Y-13766460D01*
X10126602Y-13766460D02*
X10117078Y-13756936D01*
X10117078Y-13756936D02*
X10107555Y-13737888D01*
X10107555Y-13737888D02*
X10098031Y-13699793D01*
X10098031Y-13699793D02*
X10098031Y-13652174D01*
X10098031Y-13652174D02*
X10107555Y-13614079D01*
X10107555Y-13614079D02*
X10117078Y-13595031D01*
X10117078Y-13595031D02*
X10126602Y-13585508D01*
X10126602Y-13585508D02*
X10145650Y-13575984D01*
X10298031Y-13756936D02*
X10307555Y-13766460D01*
X10307555Y-13766460D02*
X10298031Y-13775984D01*
X10298031Y-13775984D02*
X10288507Y-13766460D01*
X10288507Y-13766460D02*
X10298031Y-13756936D01*
X10298031Y-13756936D02*
X10298031Y-13775984D01*
X10374221Y-13575984D02*
X10507555Y-13575984D01*
X10507555Y-13575984D02*
X10421840Y-13775984D01*
X10621840Y-13575984D02*
X10640888Y-13575984D01*
X10640888Y-13575984D02*
X10659936Y-13585508D01*
X10659936Y-13585508D02*
X10669459Y-13595031D01*
X10669459Y-13595031D02*
X10678983Y-13614079D01*
X10678983Y-13614079D02*
X10688507Y-13652174D01*
X10688507Y-13652174D02*
X10688507Y-13699793D01*
X10688507Y-13699793D02*
X10678983Y-13737888D01*
X10678983Y-13737888D02*
X10669459Y-13756936D01*
X10669459Y-13756936D02*
X10659936Y-13766460D01*
X10659936Y-13766460D02*
X10640888Y-13775984D01*
X10640888Y-13775984D02*
X10621840Y-13775984D01*
X10621840Y-13775984D02*
X10602793Y-13766460D01*
X10602793Y-13766460D02*
X10593269Y-13756936D01*
X10593269Y-13756936D02*
X10583745Y-13737888D01*
X10583745Y-13737888D02*
X10574221Y-13699793D01*
X10574221Y-13699793D02*
X10574221Y-13652174D01*
X10574221Y-13652174D02*
X10583745Y-13614079D01*
X10583745Y-13614079D02*
X10593269Y-13595031D01*
X10593269Y-13595031D02*
X10602793Y-13585508D01*
X10602793Y-13585508D02*
X10621840Y-13575984D01*
X10812317Y-13575984D02*
X10831364Y-13575984D01*
X10831364Y-13575984D02*
X10850412Y-13585508D01*
X10850412Y-13585508D02*
X10859936Y-13595031D01*
X10859936Y-13595031D02*
X10869459Y-13614079D01*
X10869459Y-13614079D02*
X10878983Y-13652174D01*
X10878983Y-13652174D02*
X10878983Y-13699793D01*
X10878983Y-13699793D02*
X10869459Y-13737888D01*
X10869459Y-13737888D02*
X10859936Y-13756936D01*
X10859936Y-13756936D02*
X10850412Y-13766460D01*
X10850412Y-13766460D02*
X10831364Y-13775984D01*
X10831364Y-13775984D02*
X10812317Y-13775984D01*
X10812317Y-13775984D02*
X10793269Y-13766460D01*
X10793269Y-13766460D02*
X10783745Y-13756936D01*
X10783745Y-13756936D02*
X10774221Y-13737888D01*
X10774221Y-13737888D02*
X10764698Y-13699793D01*
X10764698Y-13699793D02*
X10764698Y-13652174D01*
X10764698Y-13652174D02*
X10774221Y-13614079D01*
X10774221Y-13614079D02*
X10783745Y-13595031D01*
X10783745Y-13595031D02*
X10793269Y-13585508D01*
X10793269Y-13585508D02*
X10812317Y-13575984D01*
X10964698Y-13775984D02*
X10964698Y-13642650D01*
X10964698Y-13661698D02*
X10974221Y-13652174D01*
X10974221Y-13652174D02*
X10993269Y-13642650D01*
X10993269Y-13642650D02*
X11021840Y-13642650D01*
X11021840Y-13642650D02*
X11040888Y-13652174D01*
X11040888Y-13652174D02*
X11050412Y-13671222D01*
X11050412Y-13671222D02*
X11050412Y-13775984D01*
X11050412Y-13671222D02*
X11059936Y-13652174D01*
X11059936Y-13652174D02*
X11078983Y-13642650D01*
X11078983Y-13642650D02*
X11107555Y-13642650D01*
X11107555Y-13642650D02*
X11126602Y-13652174D01*
X11126602Y-13652174D02*
X11136126Y-13671222D01*
X11136126Y-13671222D02*
X11136126Y-13775984D01*
X11231364Y-13775984D02*
X11231364Y-13642650D01*
X11231364Y-13661698D02*
X11240888Y-13652174D01*
X11240888Y-13652174D02*
X11259936Y-13642650D01*
X11259936Y-13642650D02*
X11288507Y-13642650D01*
X11288507Y-13642650D02*
X11307555Y-13652174D01*
X11307555Y-13652174D02*
X11317078Y-13671222D01*
X11317078Y-13671222D02*
X11317078Y-13775984D01*
X11317078Y-13671222D02*
X11326602Y-13652174D01*
X11326602Y-13652174D02*
X11345650Y-13642650D01*
X11345650Y-13642650D02*
X11374221Y-13642650D01*
X11374221Y-13642650D02*
X11393269Y-13652174D01*
X11393269Y-13652174D02*
X11402793Y-13671222D01*
X11402793Y-13671222D02*
X11402793Y-13775984D01*
X11793269Y-13566460D02*
X11621840Y-13823603D01*
X12050412Y-13575984D02*
X12069460Y-13575984D01*
X12069460Y-13575984D02*
X12088507Y-13585508D01*
X12088507Y-13585508D02*
X12098031Y-13595031D01*
X12098031Y-13595031D02*
X12107555Y-13614079D01*
X12107555Y-13614079D02*
X12117079Y-13652174D01*
X12117079Y-13652174D02*
X12117079Y-13699793D01*
X12117079Y-13699793D02*
X12107555Y-13737888D01*
X12107555Y-13737888D02*
X12098031Y-13756936D01*
X12098031Y-13756936D02*
X12088507Y-13766460D01*
X12088507Y-13766460D02*
X12069460Y-13775984D01*
X12069460Y-13775984D02*
X12050412Y-13775984D01*
X12050412Y-13775984D02*
X12031364Y-13766460D01*
X12031364Y-13766460D02*
X12021840Y-13756936D01*
X12021840Y-13756936D02*
X12012317Y-13737888D01*
X12012317Y-13737888D02*
X12002793Y-13699793D01*
X12002793Y-13699793D02*
X12002793Y-13652174D01*
X12002793Y-13652174D02*
X12012317Y-13614079D01*
X12012317Y-13614079D02*
X12021840Y-13595031D01*
X12021840Y-13595031D02*
X12031364Y-13585508D01*
X12031364Y-13585508D02*
X12050412Y-13575984D01*
X12202793Y-13756936D02*
X12212317Y-13766460D01*
X12212317Y-13766460D02*
X12202793Y-13775984D01*
X12202793Y-13775984D02*
X12193269Y-13766460D01*
X12193269Y-13766460D02*
X12202793Y-13756936D01*
X12202793Y-13756936D02*
X12202793Y-13775984D01*
X12336126Y-13575984D02*
X12355174Y-13575984D01*
X12355174Y-13575984D02*
X12374221Y-13585508D01*
X12374221Y-13585508D02*
X12383745Y-13595031D01*
X12383745Y-13595031D02*
X12393269Y-13614079D01*
X12393269Y-13614079D02*
X12402793Y-13652174D01*
X12402793Y-13652174D02*
X12402793Y-13699793D01*
X12402793Y-13699793D02*
X12393269Y-13737888D01*
X12393269Y-13737888D02*
X12383745Y-13756936D01*
X12383745Y-13756936D02*
X12374221Y-13766460D01*
X12374221Y-13766460D02*
X12355174Y-13775984D01*
X12355174Y-13775984D02*
X12336126Y-13775984D01*
X12336126Y-13775984D02*
X12317079Y-13766460D01*
X12317079Y-13766460D02*
X12307555Y-13756936D01*
X12307555Y-13756936D02*
X12298031Y-13737888D01*
X12298031Y-13737888D02*
X12288507Y-13699793D01*
X12288507Y-13699793D02*
X12288507Y-13652174D01*
X12288507Y-13652174D02*
X12298031Y-13614079D01*
X12298031Y-13614079D02*
X12307555Y-13595031D01*
X12307555Y-13595031D02*
X12317079Y-13585508D01*
X12317079Y-13585508D02*
X12336126Y-13575984D01*
X12478983Y-13595031D02*
X12488507Y-13585508D01*
X12488507Y-13585508D02*
X12507555Y-13575984D01*
X12507555Y-13575984D02*
X12555174Y-13575984D01*
X12555174Y-13575984D02*
X12574221Y-13585508D01*
X12574221Y-13585508D02*
X12583745Y-13595031D01*
X12583745Y-13595031D02*
X12593269Y-13614079D01*
X12593269Y-13614079D02*
X12593269Y-13633127D01*
X12593269Y-13633127D02*
X12583745Y-13661698D01*
X12583745Y-13661698D02*
X12469460Y-13775984D01*
X12469460Y-13775984D02*
X12593269Y-13775984D01*
X12659936Y-13575984D02*
X12793269Y-13575984D01*
X12793269Y-13575984D02*
X12707555Y-13775984D01*
X12955174Y-13575984D02*
X12917079Y-13575984D01*
X12917079Y-13575984D02*
X12898031Y-13585508D01*
X12898031Y-13585508D02*
X12888507Y-13595031D01*
X12888507Y-13595031D02*
X12869460Y-13623603D01*
X12869460Y-13623603D02*
X12859936Y-13661698D01*
X12859936Y-13661698D02*
X12859936Y-13737888D01*
X12859936Y-13737888D02*
X12869460Y-13756936D01*
X12869460Y-13756936D02*
X12878983Y-13766460D01*
X12878983Y-13766460D02*
X12898031Y-13775984D01*
X12898031Y-13775984D02*
X12936126Y-13775984D01*
X12936126Y-13775984D02*
X12955174Y-13766460D01*
X12955174Y-13766460D02*
X12964698Y-13756936D01*
X12964698Y-13756936D02*
X12974221Y-13737888D01*
X12974221Y-13737888D02*
X12974221Y-13690269D01*
X12974221Y-13690269D02*
X12964698Y-13671222D01*
X12964698Y-13671222D02*
X12955174Y-13661698D01*
X12955174Y-13661698D02*
X12936126Y-13652174D01*
X12936126Y-13652174D02*
X12898031Y-13652174D01*
X12898031Y-13652174D02*
X12878983Y-13661698D01*
X12878983Y-13661698D02*
X12869460Y-13671222D01*
X12869460Y-13671222D02*
X12859936Y-13690269D01*
X13050412Y-13575984D02*
X13050412Y-13614079D01*
X13126602Y-13575984D02*
X13126602Y-13614079D01*
X13421841Y-13852174D02*
X13412317Y-13842650D01*
X13412317Y-13842650D02*
X13393269Y-13814079D01*
X13393269Y-13814079D02*
X13383745Y-13795031D01*
X13383745Y-13795031D02*
X13374222Y-13766460D01*
X13374222Y-13766460D02*
X13364698Y-13718841D01*
X13364698Y-13718841D02*
X13364698Y-13680746D01*
X13364698Y-13680746D02*
X13374222Y-13633127D01*
X13374222Y-13633127D02*
X13383745Y-13604555D01*
X13383745Y-13604555D02*
X13393269Y-13585508D01*
X13393269Y-13585508D02*
X13412317Y-13556936D01*
X13412317Y-13556936D02*
X13421841Y-13547412D01*
X13583745Y-13642650D02*
X13583745Y-13775984D01*
X13536126Y-13566460D02*
X13488507Y-13709317D01*
X13488507Y-13709317D02*
X13612317Y-13709317D01*
X13840888Y-13775984D02*
X13840888Y-13575984D01*
X13926603Y-13775984D02*
X13926603Y-13671222D01*
X13926603Y-13671222D02*
X13917079Y-13652174D01*
X13917079Y-13652174D02*
X13898031Y-13642650D01*
X13898031Y-13642650D02*
X13869460Y-13642650D01*
X13869460Y-13642650D02*
X13850412Y-13652174D01*
X13850412Y-13652174D02*
X13840888Y-13661698D01*
X14050412Y-13775984D02*
X14031364Y-13766460D01*
X14031364Y-13766460D02*
X14021841Y-13756936D01*
X14021841Y-13756936D02*
X14012317Y-13737888D01*
X14012317Y-13737888D02*
X14012317Y-13680746D01*
X14012317Y-13680746D02*
X14021841Y-13661698D01*
X14021841Y-13661698D02*
X14031364Y-13652174D01*
X14031364Y-13652174D02*
X14050412Y-13642650D01*
X14050412Y-13642650D02*
X14078984Y-13642650D01*
X14078984Y-13642650D02*
X14098031Y-13652174D01*
X14098031Y-13652174D02*
X14107555Y-13661698D01*
X14107555Y-13661698D02*
X14117079Y-13680746D01*
X14117079Y-13680746D02*
X14117079Y-13737888D01*
X14117079Y-13737888D02*
X14107555Y-13756936D01*
X14107555Y-13756936D02*
X14098031Y-13766460D01*
X14098031Y-13766460D02*
X14078984Y-13775984D01*
X14078984Y-13775984D02*
X14050412Y-13775984D01*
X14231364Y-13775984D02*
X14212317Y-13766460D01*
X14212317Y-13766460D02*
X14202793Y-13747412D01*
X14202793Y-13747412D02*
X14202793Y-13575984D01*
X14383745Y-13766460D02*
X14364698Y-13775984D01*
X14364698Y-13775984D02*
X14326603Y-13775984D01*
X14326603Y-13775984D02*
X14307555Y-13766460D01*
X14307555Y-13766460D02*
X14298031Y-13747412D01*
X14298031Y-13747412D02*
X14298031Y-13671222D01*
X14298031Y-13671222D02*
X14307555Y-13652174D01*
X14307555Y-13652174D02*
X14326603Y-13642650D01*
X14326603Y-13642650D02*
X14364698Y-13642650D01*
X14364698Y-13642650D02*
X14383745Y-13652174D01*
X14383745Y-13652174D02*
X14393269Y-13671222D01*
X14393269Y-13671222D02*
X14393269Y-13690269D01*
X14393269Y-13690269D02*
X14298031Y-13709317D01*
X14469460Y-13766460D02*
X14488507Y-13775984D01*
X14488507Y-13775984D02*
X14526603Y-13775984D01*
X14526603Y-13775984D02*
X14545650Y-13766460D01*
X14545650Y-13766460D02*
X14555174Y-13747412D01*
X14555174Y-13747412D02*
X14555174Y-13737888D01*
X14555174Y-13737888D02*
X14545650Y-13718841D01*
X14545650Y-13718841D02*
X14526603Y-13709317D01*
X14526603Y-13709317D02*
X14498031Y-13709317D01*
X14498031Y-13709317D02*
X14478984Y-13699793D01*
X14478984Y-13699793D02*
X14469460Y-13680746D01*
X14469460Y-13680746D02*
X14469460Y-13671222D01*
X14469460Y-13671222D02*
X14478984Y-13652174D01*
X14478984Y-13652174D02*
X14498031Y-13642650D01*
X14498031Y-13642650D02*
X14526603Y-13642650D01*
X14526603Y-13642650D02*
X14545650Y-13652174D01*
X14621841Y-13852174D02*
X14631365Y-13842650D01*
X14631365Y-13842650D02*
X14650412Y-13814079D01*
X14650412Y-13814079D02*
X14659936Y-13795031D01*
X14659936Y-13795031D02*
X14669460Y-13766460D01*
X14669460Y-13766460D02*
X14678984Y-13718841D01*
X14678984Y-13718841D02*
X14678984Y-13680746D01*
X14678984Y-13680746D02*
X14669460Y-13633127D01*
X14669460Y-13633127D02*
X14659936Y-13604555D01*
X14659936Y-13604555D02*
X14650412Y-13585508D01*
X14650412Y-13585508D02*
X14631365Y-13556936D01*
X14631365Y-13556936D02*
X14621841Y-13547412D01*
D12*
X9796778Y-13998500D02*
X9846778Y-13948500D01*
X9796778Y-13898500D01*
X9746778Y-13948500D01*
X9796778Y-13998500D01*
D11*
X10212317Y-14039984D02*
X10098031Y-14039984D01*
X10155174Y-14039984D02*
X10155174Y-13839984D01*
X10155174Y-13839984D02*
X10136126Y-13868555D01*
X10136126Y-13868555D02*
X10117078Y-13887603D01*
X10117078Y-13887603D02*
X10098031Y-13897127D01*
X10298031Y-14020936D02*
X10307555Y-14030460D01*
X10307555Y-14030460D02*
X10298031Y-14039984D01*
X10298031Y-14039984D02*
X10288507Y-14030460D01*
X10288507Y-14030460D02*
X10298031Y-14020936D01*
X10298031Y-14020936D02*
X10298031Y-14039984D01*
X10431364Y-13839984D02*
X10450412Y-13839984D01*
X10450412Y-13839984D02*
X10469459Y-13849508D01*
X10469459Y-13849508D02*
X10478983Y-13859031D01*
X10478983Y-13859031D02*
X10488507Y-13878079D01*
X10488507Y-13878079D02*
X10498031Y-13916174D01*
X10498031Y-13916174D02*
X10498031Y-13963793D01*
X10498031Y-13963793D02*
X10488507Y-14001888D01*
X10488507Y-14001888D02*
X10478983Y-14020936D01*
X10478983Y-14020936D02*
X10469459Y-14030460D01*
X10469459Y-14030460D02*
X10450412Y-14039984D01*
X10450412Y-14039984D02*
X10431364Y-14039984D01*
X10431364Y-14039984D02*
X10412317Y-14030460D01*
X10412317Y-14030460D02*
X10402793Y-14020936D01*
X10402793Y-14020936D02*
X10393269Y-14001888D01*
X10393269Y-14001888D02*
X10383745Y-13963793D01*
X10383745Y-13963793D02*
X10383745Y-13916174D01*
X10383745Y-13916174D02*
X10393269Y-13878079D01*
X10393269Y-13878079D02*
X10402793Y-13859031D01*
X10402793Y-13859031D02*
X10412317Y-13849508D01*
X10412317Y-13849508D02*
X10431364Y-13839984D01*
X10621840Y-13839984D02*
X10640888Y-13839984D01*
X10640888Y-13839984D02*
X10659936Y-13849508D01*
X10659936Y-13849508D02*
X10669459Y-13859031D01*
X10669459Y-13859031D02*
X10678983Y-13878079D01*
X10678983Y-13878079D02*
X10688507Y-13916174D01*
X10688507Y-13916174D02*
X10688507Y-13963793D01*
X10688507Y-13963793D02*
X10678983Y-14001888D01*
X10678983Y-14001888D02*
X10669459Y-14020936D01*
X10669459Y-14020936D02*
X10659936Y-14030460D01*
X10659936Y-14030460D02*
X10640888Y-14039984D01*
X10640888Y-14039984D02*
X10621840Y-14039984D01*
X10621840Y-14039984D02*
X10602793Y-14030460D01*
X10602793Y-14030460D02*
X10593269Y-14020936D01*
X10593269Y-14020936D02*
X10583745Y-14001888D01*
X10583745Y-14001888D02*
X10574221Y-13963793D01*
X10574221Y-13963793D02*
X10574221Y-13916174D01*
X10574221Y-13916174D02*
X10583745Y-13878079D01*
X10583745Y-13878079D02*
X10593269Y-13859031D01*
X10593269Y-13859031D02*
X10602793Y-13849508D01*
X10602793Y-13849508D02*
X10621840Y-13839984D01*
X10812317Y-13839984D02*
X10831364Y-13839984D01*
X10831364Y-13839984D02*
X10850412Y-13849508D01*
X10850412Y-13849508D02*
X10859936Y-13859031D01*
X10859936Y-13859031D02*
X10869459Y-13878079D01*
X10869459Y-13878079D02*
X10878983Y-13916174D01*
X10878983Y-13916174D02*
X10878983Y-13963793D01*
X10878983Y-13963793D02*
X10869459Y-14001888D01*
X10869459Y-14001888D02*
X10859936Y-14020936D01*
X10859936Y-14020936D02*
X10850412Y-14030460D01*
X10850412Y-14030460D02*
X10831364Y-14039984D01*
X10831364Y-14039984D02*
X10812317Y-14039984D01*
X10812317Y-14039984D02*
X10793269Y-14030460D01*
X10793269Y-14030460D02*
X10783745Y-14020936D01*
X10783745Y-14020936D02*
X10774221Y-14001888D01*
X10774221Y-14001888D02*
X10764698Y-13963793D01*
X10764698Y-13963793D02*
X10764698Y-13916174D01*
X10764698Y-13916174D02*
X10774221Y-13878079D01*
X10774221Y-13878079D02*
X10783745Y-13859031D01*
X10783745Y-13859031D02*
X10793269Y-13849508D01*
X10793269Y-13849508D02*
X10812317Y-13839984D01*
X10964698Y-14039984D02*
X10964698Y-13906650D01*
X10964698Y-13925698D02*
X10974221Y-13916174D01*
X10974221Y-13916174D02*
X10993269Y-13906650D01*
X10993269Y-13906650D02*
X11021840Y-13906650D01*
X11021840Y-13906650D02*
X11040888Y-13916174D01*
X11040888Y-13916174D02*
X11050412Y-13935222D01*
X11050412Y-13935222D02*
X11050412Y-14039984D01*
X11050412Y-13935222D02*
X11059936Y-13916174D01*
X11059936Y-13916174D02*
X11078983Y-13906650D01*
X11078983Y-13906650D02*
X11107555Y-13906650D01*
X11107555Y-13906650D02*
X11126602Y-13916174D01*
X11126602Y-13916174D02*
X11136126Y-13935222D01*
X11136126Y-13935222D02*
X11136126Y-14039984D01*
X11231364Y-14039984D02*
X11231364Y-13906650D01*
X11231364Y-13925698D02*
X11240888Y-13916174D01*
X11240888Y-13916174D02*
X11259936Y-13906650D01*
X11259936Y-13906650D02*
X11288507Y-13906650D01*
X11288507Y-13906650D02*
X11307555Y-13916174D01*
X11307555Y-13916174D02*
X11317078Y-13935222D01*
X11317078Y-13935222D02*
X11317078Y-14039984D01*
X11317078Y-13935222D02*
X11326602Y-13916174D01*
X11326602Y-13916174D02*
X11345650Y-13906650D01*
X11345650Y-13906650D02*
X11374221Y-13906650D01*
X11374221Y-13906650D02*
X11393269Y-13916174D01*
X11393269Y-13916174D02*
X11402793Y-13935222D01*
X11402793Y-13935222D02*
X11402793Y-14039984D01*
X11793269Y-13830460D02*
X11621840Y-14087603D01*
X12050412Y-13839984D02*
X12069460Y-13839984D01*
X12069460Y-13839984D02*
X12088507Y-13849508D01*
X12088507Y-13849508D02*
X12098031Y-13859031D01*
X12098031Y-13859031D02*
X12107555Y-13878079D01*
X12107555Y-13878079D02*
X12117079Y-13916174D01*
X12117079Y-13916174D02*
X12117079Y-13963793D01*
X12117079Y-13963793D02*
X12107555Y-14001888D01*
X12107555Y-14001888D02*
X12098031Y-14020936D01*
X12098031Y-14020936D02*
X12088507Y-14030460D01*
X12088507Y-14030460D02*
X12069460Y-14039984D01*
X12069460Y-14039984D02*
X12050412Y-14039984D01*
X12050412Y-14039984D02*
X12031364Y-14030460D01*
X12031364Y-14030460D02*
X12021840Y-14020936D01*
X12021840Y-14020936D02*
X12012317Y-14001888D01*
X12012317Y-14001888D02*
X12002793Y-13963793D01*
X12002793Y-13963793D02*
X12002793Y-13916174D01*
X12002793Y-13916174D02*
X12012317Y-13878079D01*
X12012317Y-13878079D02*
X12021840Y-13859031D01*
X12021840Y-13859031D02*
X12031364Y-13849508D01*
X12031364Y-13849508D02*
X12050412Y-13839984D01*
X12202793Y-14020936D02*
X12212317Y-14030460D01*
X12212317Y-14030460D02*
X12202793Y-14039984D01*
X12202793Y-14039984D02*
X12193269Y-14030460D01*
X12193269Y-14030460D02*
X12202793Y-14020936D01*
X12202793Y-14020936D02*
X12202793Y-14039984D01*
X12336126Y-13839984D02*
X12355174Y-13839984D01*
X12355174Y-13839984D02*
X12374221Y-13849508D01*
X12374221Y-13849508D02*
X12383745Y-13859031D01*
X12383745Y-13859031D02*
X12393269Y-13878079D01*
X12393269Y-13878079D02*
X12402793Y-13916174D01*
X12402793Y-13916174D02*
X12402793Y-13963793D01*
X12402793Y-13963793D02*
X12393269Y-14001888D01*
X12393269Y-14001888D02*
X12383745Y-14020936D01*
X12383745Y-14020936D02*
X12374221Y-14030460D01*
X12374221Y-14030460D02*
X12355174Y-14039984D01*
X12355174Y-14039984D02*
X12336126Y-14039984D01*
X12336126Y-14039984D02*
X12317079Y-14030460D01*
X12317079Y-14030460D02*
X12307555Y-14020936D01*
X12307555Y-14020936D02*
X12298031Y-14001888D01*
X12298031Y-14001888D02*
X12288507Y-13963793D01*
X12288507Y-13963793D02*
X12288507Y-13916174D01*
X12288507Y-13916174D02*
X12298031Y-13878079D01*
X12298031Y-13878079D02*
X12307555Y-13859031D01*
X12307555Y-13859031D02*
X12317079Y-13849508D01*
X12317079Y-13849508D02*
X12336126Y-13839984D01*
X12469460Y-13839984D02*
X12593269Y-13839984D01*
X12593269Y-13839984D02*
X12526602Y-13916174D01*
X12526602Y-13916174D02*
X12555174Y-13916174D01*
X12555174Y-13916174D02*
X12574221Y-13925698D01*
X12574221Y-13925698D02*
X12583745Y-13935222D01*
X12583745Y-13935222D02*
X12593269Y-13954269D01*
X12593269Y-13954269D02*
X12593269Y-14001888D01*
X12593269Y-14001888D02*
X12583745Y-14020936D01*
X12583745Y-14020936D02*
X12574221Y-14030460D01*
X12574221Y-14030460D02*
X12555174Y-14039984D01*
X12555174Y-14039984D02*
X12498031Y-14039984D01*
X12498031Y-14039984D02*
X12478983Y-14030460D01*
X12478983Y-14030460D02*
X12469460Y-14020936D01*
X12688507Y-14039984D02*
X12726602Y-14039984D01*
X12726602Y-14039984D02*
X12745650Y-14030460D01*
X12745650Y-14030460D02*
X12755174Y-14020936D01*
X12755174Y-14020936D02*
X12774221Y-13992365D01*
X12774221Y-13992365D02*
X12783745Y-13954269D01*
X12783745Y-13954269D02*
X12783745Y-13878079D01*
X12783745Y-13878079D02*
X12774221Y-13859031D01*
X12774221Y-13859031D02*
X12764698Y-13849508D01*
X12764698Y-13849508D02*
X12745650Y-13839984D01*
X12745650Y-13839984D02*
X12707555Y-13839984D01*
X12707555Y-13839984D02*
X12688507Y-13849508D01*
X12688507Y-13849508D02*
X12678983Y-13859031D01*
X12678983Y-13859031D02*
X12669460Y-13878079D01*
X12669460Y-13878079D02*
X12669460Y-13925698D01*
X12669460Y-13925698D02*
X12678983Y-13944746D01*
X12678983Y-13944746D02*
X12688507Y-13954269D01*
X12688507Y-13954269D02*
X12707555Y-13963793D01*
X12707555Y-13963793D02*
X12745650Y-13963793D01*
X12745650Y-13963793D02*
X12764698Y-13954269D01*
X12764698Y-13954269D02*
X12774221Y-13944746D01*
X12774221Y-13944746D02*
X12783745Y-13925698D01*
X12955174Y-13906650D02*
X12955174Y-14039984D01*
X12907555Y-13830460D02*
X12859936Y-13973317D01*
X12859936Y-13973317D02*
X12983745Y-13973317D01*
X13050412Y-13839984D02*
X13050412Y-13878079D01*
X13126602Y-13839984D02*
X13126602Y-13878079D01*
X13421841Y-14116174D02*
X13412317Y-14106650D01*
X13412317Y-14106650D02*
X13393269Y-14078079D01*
X13393269Y-14078079D02*
X13383745Y-14059031D01*
X13383745Y-14059031D02*
X13374222Y-14030460D01*
X13374222Y-14030460D02*
X13364698Y-13982841D01*
X13364698Y-13982841D02*
X13364698Y-13944746D01*
X13364698Y-13944746D02*
X13374222Y-13897127D01*
X13374222Y-13897127D02*
X13383745Y-13868555D01*
X13383745Y-13868555D02*
X13393269Y-13849508D01*
X13393269Y-13849508D02*
X13412317Y-13820936D01*
X13412317Y-13820936D02*
X13421841Y-13811412D01*
X13478983Y-13839984D02*
X13602793Y-13839984D01*
X13602793Y-13839984D02*
X13536126Y-13916174D01*
X13536126Y-13916174D02*
X13564698Y-13916174D01*
X13564698Y-13916174D02*
X13583745Y-13925698D01*
X13583745Y-13925698D02*
X13593269Y-13935222D01*
X13593269Y-13935222D02*
X13602793Y-13954269D01*
X13602793Y-13954269D02*
X13602793Y-14001888D01*
X13602793Y-14001888D02*
X13593269Y-14020936D01*
X13593269Y-14020936D02*
X13583745Y-14030460D01*
X13583745Y-14030460D02*
X13564698Y-14039984D01*
X13564698Y-14039984D02*
X13507555Y-14039984D01*
X13507555Y-14039984D02*
X13488507Y-14030460D01*
X13488507Y-14030460D02*
X13478983Y-14020936D01*
X13840888Y-14039984D02*
X13840888Y-13839984D01*
X13926603Y-14039984D02*
X13926603Y-13935222D01*
X13926603Y-13935222D02*
X13917079Y-13916174D01*
X13917079Y-13916174D02*
X13898031Y-13906650D01*
X13898031Y-13906650D02*
X13869460Y-13906650D01*
X13869460Y-13906650D02*
X13850412Y-13916174D01*
X13850412Y-13916174D02*
X13840888Y-13925698D01*
X14050412Y-14039984D02*
X14031364Y-14030460D01*
X14031364Y-14030460D02*
X14021841Y-14020936D01*
X14021841Y-14020936D02*
X14012317Y-14001888D01*
X14012317Y-14001888D02*
X14012317Y-13944746D01*
X14012317Y-13944746D02*
X14021841Y-13925698D01*
X14021841Y-13925698D02*
X14031364Y-13916174D01*
X14031364Y-13916174D02*
X14050412Y-13906650D01*
X14050412Y-13906650D02*
X14078984Y-13906650D01*
X14078984Y-13906650D02*
X14098031Y-13916174D01*
X14098031Y-13916174D02*
X14107555Y-13925698D01*
X14107555Y-13925698D02*
X14117079Y-13944746D01*
X14117079Y-13944746D02*
X14117079Y-14001888D01*
X14117079Y-14001888D02*
X14107555Y-14020936D01*
X14107555Y-14020936D02*
X14098031Y-14030460D01*
X14098031Y-14030460D02*
X14078984Y-14039984D01*
X14078984Y-14039984D02*
X14050412Y-14039984D01*
X14231364Y-14039984D02*
X14212317Y-14030460D01*
X14212317Y-14030460D02*
X14202793Y-14011412D01*
X14202793Y-14011412D02*
X14202793Y-13839984D01*
X14383745Y-14030460D02*
X14364698Y-14039984D01*
X14364698Y-14039984D02*
X14326603Y-14039984D01*
X14326603Y-14039984D02*
X14307555Y-14030460D01*
X14307555Y-14030460D02*
X14298031Y-14011412D01*
X14298031Y-14011412D02*
X14298031Y-13935222D01*
X14298031Y-13935222D02*
X14307555Y-13916174D01*
X14307555Y-13916174D02*
X14326603Y-13906650D01*
X14326603Y-13906650D02*
X14364698Y-13906650D01*
X14364698Y-13906650D02*
X14383745Y-13916174D01*
X14383745Y-13916174D02*
X14393269Y-13935222D01*
X14393269Y-13935222D02*
X14393269Y-13954269D01*
X14393269Y-13954269D02*
X14298031Y-13973317D01*
X14469460Y-14030460D02*
X14488507Y-14039984D01*
X14488507Y-14039984D02*
X14526603Y-14039984D01*
X14526603Y-14039984D02*
X14545650Y-14030460D01*
X14545650Y-14030460D02*
X14555174Y-14011412D01*
X14555174Y-14011412D02*
X14555174Y-14001888D01*
X14555174Y-14001888D02*
X14545650Y-13982841D01*
X14545650Y-13982841D02*
X14526603Y-13973317D01*
X14526603Y-13973317D02*
X14498031Y-13973317D01*
X14498031Y-13973317D02*
X14478984Y-13963793D01*
X14478984Y-13963793D02*
X14469460Y-13944746D01*
X14469460Y-13944746D02*
X14469460Y-13935222D01*
X14469460Y-13935222D02*
X14478984Y-13916174D01*
X14478984Y-13916174D02*
X14498031Y-13906650D01*
X14498031Y-13906650D02*
X14526603Y-13906650D01*
X14526603Y-13906650D02*
X14545650Y-13916174D01*
X14621841Y-14116174D02*
X14631365Y-14106650D01*
X14631365Y-14106650D02*
X14650412Y-14078079D01*
X14650412Y-14078079D02*
X14659936Y-14059031D01*
X14659936Y-14059031D02*
X14669460Y-14030460D01*
X14669460Y-14030460D02*
X14678984Y-13982841D01*
X14678984Y-13982841D02*
X14678984Y-13944746D01*
X14678984Y-13944746D02*
X14669460Y-13897127D01*
X14669460Y-13897127D02*
X14659936Y-13868555D01*
X14659936Y-13868555D02*
X14650412Y-13849508D01*
X14650412Y-13849508D02*
X14631365Y-13820936D01*
X14631365Y-13820936D02*
X14621841Y-13811412D01*
D12*
X9746778Y-14162500D02*
X9846778Y-14262500D01*
X9846778Y-14162500D02*
X9746778Y-14262500D01*
X9846778Y-14212500D02*
G75*
G02*
X9746778Y-14212500I-50000J0D01*
G01*
X9746778Y-14212500D02*
G75*
G02*
X9846778Y-14212500I50000J0D01*
G01*
D11*
X10212317Y-14303984D02*
X10098031Y-14303984D01*
X10155174Y-14303984D02*
X10155174Y-14103984D01*
X10155174Y-14103984D02*
X10136126Y-14132555D01*
X10136126Y-14132555D02*
X10117078Y-14151603D01*
X10117078Y-14151603D02*
X10098031Y-14161127D01*
X10298031Y-14284936D02*
X10307555Y-14294460D01*
X10307555Y-14294460D02*
X10298031Y-14303984D01*
X10298031Y-14303984D02*
X10288507Y-14294460D01*
X10288507Y-14294460D02*
X10298031Y-14284936D01*
X10298031Y-14284936D02*
X10298031Y-14303984D01*
X10431364Y-14103984D02*
X10450412Y-14103984D01*
X10450412Y-14103984D02*
X10469459Y-14113508D01*
X10469459Y-14113508D02*
X10478983Y-14123031D01*
X10478983Y-14123031D02*
X10488507Y-14142079D01*
X10488507Y-14142079D02*
X10498031Y-14180174D01*
X10498031Y-14180174D02*
X10498031Y-14227793D01*
X10498031Y-14227793D02*
X10488507Y-14265888D01*
X10488507Y-14265888D02*
X10478983Y-14284936D01*
X10478983Y-14284936D02*
X10469459Y-14294460D01*
X10469459Y-14294460D02*
X10450412Y-14303984D01*
X10450412Y-14303984D02*
X10431364Y-14303984D01*
X10431364Y-14303984D02*
X10412317Y-14294460D01*
X10412317Y-14294460D02*
X10402793Y-14284936D01*
X10402793Y-14284936D02*
X10393269Y-14265888D01*
X10393269Y-14265888D02*
X10383745Y-14227793D01*
X10383745Y-14227793D02*
X10383745Y-14180174D01*
X10383745Y-14180174D02*
X10393269Y-14142079D01*
X10393269Y-14142079D02*
X10402793Y-14123031D01*
X10402793Y-14123031D02*
X10412317Y-14113508D01*
X10412317Y-14113508D02*
X10431364Y-14103984D01*
X10621840Y-14103984D02*
X10640888Y-14103984D01*
X10640888Y-14103984D02*
X10659936Y-14113508D01*
X10659936Y-14113508D02*
X10669459Y-14123031D01*
X10669459Y-14123031D02*
X10678983Y-14142079D01*
X10678983Y-14142079D02*
X10688507Y-14180174D01*
X10688507Y-14180174D02*
X10688507Y-14227793D01*
X10688507Y-14227793D02*
X10678983Y-14265888D01*
X10678983Y-14265888D02*
X10669459Y-14284936D01*
X10669459Y-14284936D02*
X10659936Y-14294460D01*
X10659936Y-14294460D02*
X10640888Y-14303984D01*
X10640888Y-14303984D02*
X10621840Y-14303984D01*
X10621840Y-14303984D02*
X10602793Y-14294460D01*
X10602793Y-14294460D02*
X10593269Y-14284936D01*
X10593269Y-14284936D02*
X10583745Y-14265888D01*
X10583745Y-14265888D02*
X10574221Y-14227793D01*
X10574221Y-14227793D02*
X10574221Y-14180174D01*
X10574221Y-14180174D02*
X10583745Y-14142079D01*
X10583745Y-14142079D02*
X10593269Y-14123031D01*
X10593269Y-14123031D02*
X10602793Y-14113508D01*
X10602793Y-14113508D02*
X10621840Y-14103984D01*
X10812317Y-14103984D02*
X10831364Y-14103984D01*
X10831364Y-14103984D02*
X10850412Y-14113508D01*
X10850412Y-14113508D02*
X10859936Y-14123031D01*
X10859936Y-14123031D02*
X10869459Y-14142079D01*
X10869459Y-14142079D02*
X10878983Y-14180174D01*
X10878983Y-14180174D02*
X10878983Y-14227793D01*
X10878983Y-14227793D02*
X10869459Y-14265888D01*
X10869459Y-14265888D02*
X10859936Y-14284936D01*
X10859936Y-14284936D02*
X10850412Y-14294460D01*
X10850412Y-14294460D02*
X10831364Y-14303984D01*
X10831364Y-14303984D02*
X10812317Y-14303984D01*
X10812317Y-14303984D02*
X10793269Y-14294460D01*
X10793269Y-14294460D02*
X10783745Y-14284936D01*
X10783745Y-14284936D02*
X10774221Y-14265888D01*
X10774221Y-14265888D02*
X10764698Y-14227793D01*
X10764698Y-14227793D02*
X10764698Y-14180174D01*
X10764698Y-14180174D02*
X10774221Y-14142079D01*
X10774221Y-14142079D02*
X10783745Y-14123031D01*
X10783745Y-14123031D02*
X10793269Y-14113508D01*
X10793269Y-14113508D02*
X10812317Y-14103984D01*
X10964698Y-14303984D02*
X10964698Y-14170650D01*
X10964698Y-14189698D02*
X10974221Y-14180174D01*
X10974221Y-14180174D02*
X10993269Y-14170650D01*
X10993269Y-14170650D02*
X11021840Y-14170650D01*
X11021840Y-14170650D02*
X11040888Y-14180174D01*
X11040888Y-14180174D02*
X11050412Y-14199222D01*
X11050412Y-14199222D02*
X11050412Y-14303984D01*
X11050412Y-14199222D02*
X11059936Y-14180174D01*
X11059936Y-14180174D02*
X11078983Y-14170650D01*
X11078983Y-14170650D02*
X11107555Y-14170650D01*
X11107555Y-14170650D02*
X11126602Y-14180174D01*
X11126602Y-14180174D02*
X11136126Y-14199222D01*
X11136126Y-14199222D02*
X11136126Y-14303984D01*
X11231364Y-14303984D02*
X11231364Y-14170650D01*
X11231364Y-14189698D02*
X11240888Y-14180174D01*
X11240888Y-14180174D02*
X11259936Y-14170650D01*
X11259936Y-14170650D02*
X11288507Y-14170650D01*
X11288507Y-14170650D02*
X11307555Y-14180174D01*
X11307555Y-14180174D02*
X11317078Y-14199222D01*
X11317078Y-14199222D02*
X11317078Y-14303984D01*
X11317078Y-14199222D02*
X11326602Y-14180174D01*
X11326602Y-14180174D02*
X11345650Y-14170650D01*
X11345650Y-14170650D02*
X11374221Y-14170650D01*
X11374221Y-14170650D02*
X11393269Y-14180174D01*
X11393269Y-14180174D02*
X11402793Y-14199222D01*
X11402793Y-14199222D02*
X11402793Y-14303984D01*
X11793269Y-14094460D02*
X11621840Y-14351603D01*
X12050412Y-14103984D02*
X12069460Y-14103984D01*
X12069460Y-14103984D02*
X12088507Y-14113508D01*
X12088507Y-14113508D02*
X12098031Y-14123031D01*
X12098031Y-14123031D02*
X12107555Y-14142079D01*
X12107555Y-14142079D02*
X12117079Y-14180174D01*
X12117079Y-14180174D02*
X12117079Y-14227793D01*
X12117079Y-14227793D02*
X12107555Y-14265888D01*
X12107555Y-14265888D02*
X12098031Y-14284936D01*
X12098031Y-14284936D02*
X12088507Y-14294460D01*
X12088507Y-14294460D02*
X12069460Y-14303984D01*
X12069460Y-14303984D02*
X12050412Y-14303984D01*
X12050412Y-14303984D02*
X12031364Y-14294460D01*
X12031364Y-14294460D02*
X12021840Y-14284936D01*
X12021840Y-14284936D02*
X12012317Y-14265888D01*
X12012317Y-14265888D02*
X12002793Y-14227793D01*
X12002793Y-14227793D02*
X12002793Y-14180174D01*
X12002793Y-14180174D02*
X12012317Y-14142079D01*
X12012317Y-14142079D02*
X12021840Y-14123031D01*
X12021840Y-14123031D02*
X12031364Y-14113508D01*
X12031364Y-14113508D02*
X12050412Y-14103984D01*
X12202793Y-14284936D02*
X12212317Y-14294460D01*
X12212317Y-14294460D02*
X12202793Y-14303984D01*
X12202793Y-14303984D02*
X12193269Y-14294460D01*
X12193269Y-14294460D02*
X12202793Y-14284936D01*
X12202793Y-14284936D02*
X12202793Y-14303984D01*
X12336126Y-14103984D02*
X12355174Y-14103984D01*
X12355174Y-14103984D02*
X12374221Y-14113508D01*
X12374221Y-14113508D02*
X12383745Y-14123031D01*
X12383745Y-14123031D02*
X12393269Y-14142079D01*
X12393269Y-14142079D02*
X12402793Y-14180174D01*
X12402793Y-14180174D02*
X12402793Y-14227793D01*
X12402793Y-14227793D02*
X12393269Y-14265888D01*
X12393269Y-14265888D02*
X12383745Y-14284936D01*
X12383745Y-14284936D02*
X12374221Y-14294460D01*
X12374221Y-14294460D02*
X12355174Y-14303984D01*
X12355174Y-14303984D02*
X12336126Y-14303984D01*
X12336126Y-14303984D02*
X12317079Y-14294460D01*
X12317079Y-14294460D02*
X12307555Y-14284936D01*
X12307555Y-14284936D02*
X12298031Y-14265888D01*
X12298031Y-14265888D02*
X12288507Y-14227793D01*
X12288507Y-14227793D02*
X12288507Y-14180174D01*
X12288507Y-14180174D02*
X12298031Y-14142079D01*
X12298031Y-14142079D02*
X12307555Y-14123031D01*
X12307555Y-14123031D02*
X12317079Y-14113508D01*
X12317079Y-14113508D02*
X12336126Y-14103984D01*
X12469460Y-14103984D02*
X12593269Y-14103984D01*
X12593269Y-14103984D02*
X12526602Y-14180174D01*
X12526602Y-14180174D02*
X12555174Y-14180174D01*
X12555174Y-14180174D02*
X12574221Y-14189698D01*
X12574221Y-14189698D02*
X12583745Y-14199222D01*
X12583745Y-14199222D02*
X12593269Y-14218269D01*
X12593269Y-14218269D02*
X12593269Y-14265888D01*
X12593269Y-14265888D02*
X12583745Y-14284936D01*
X12583745Y-14284936D02*
X12574221Y-14294460D01*
X12574221Y-14294460D02*
X12555174Y-14303984D01*
X12555174Y-14303984D02*
X12498031Y-14303984D01*
X12498031Y-14303984D02*
X12478983Y-14294460D01*
X12478983Y-14294460D02*
X12469460Y-14284936D01*
X12688507Y-14303984D02*
X12726602Y-14303984D01*
X12726602Y-14303984D02*
X12745650Y-14294460D01*
X12745650Y-14294460D02*
X12755174Y-14284936D01*
X12755174Y-14284936D02*
X12774221Y-14256365D01*
X12774221Y-14256365D02*
X12783745Y-14218269D01*
X12783745Y-14218269D02*
X12783745Y-14142079D01*
X12783745Y-14142079D02*
X12774221Y-14123031D01*
X12774221Y-14123031D02*
X12764698Y-14113508D01*
X12764698Y-14113508D02*
X12745650Y-14103984D01*
X12745650Y-14103984D02*
X12707555Y-14103984D01*
X12707555Y-14103984D02*
X12688507Y-14113508D01*
X12688507Y-14113508D02*
X12678983Y-14123031D01*
X12678983Y-14123031D02*
X12669460Y-14142079D01*
X12669460Y-14142079D02*
X12669460Y-14189698D01*
X12669460Y-14189698D02*
X12678983Y-14208746D01*
X12678983Y-14208746D02*
X12688507Y-14218269D01*
X12688507Y-14218269D02*
X12707555Y-14227793D01*
X12707555Y-14227793D02*
X12745650Y-14227793D01*
X12745650Y-14227793D02*
X12764698Y-14218269D01*
X12764698Y-14218269D02*
X12774221Y-14208746D01*
X12774221Y-14208746D02*
X12783745Y-14189698D01*
X12955174Y-14170650D02*
X12955174Y-14303984D01*
X12907555Y-14094460D02*
X12859936Y-14237317D01*
X12859936Y-14237317D02*
X12983745Y-14237317D01*
X13050412Y-14103984D02*
X13050412Y-14142079D01*
X13126602Y-14103984D02*
X13126602Y-14142079D01*
X13421841Y-14380174D02*
X13412317Y-14370650D01*
X13412317Y-14370650D02*
X13393269Y-14342079D01*
X13393269Y-14342079D02*
X13383745Y-14323031D01*
X13383745Y-14323031D02*
X13374222Y-14294460D01*
X13374222Y-14294460D02*
X13364698Y-14246841D01*
X13364698Y-14246841D02*
X13364698Y-14208746D01*
X13364698Y-14208746D02*
X13374222Y-14161127D01*
X13374222Y-14161127D02*
X13383745Y-14132555D01*
X13383745Y-14132555D02*
X13393269Y-14113508D01*
X13393269Y-14113508D02*
X13412317Y-14084936D01*
X13412317Y-14084936D02*
X13421841Y-14075412D01*
X13602793Y-14303984D02*
X13488507Y-14303984D01*
X13545650Y-14303984D02*
X13545650Y-14103984D01*
X13545650Y-14103984D02*
X13526602Y-14132555D01*
X13526602Y-14132555D02*
X13507555Y-14151603D01*
X13507555Y-14151603D02*
X13488507Y-14161127D01*
X13717079Y-14189698D02*
X13698031Y-14180174D01*
X13698031Y-14180174D02*
X13688507Y-14170650D01*
X13688507Y-14170650D02*
X13678983Y-14151603D01*
X13678983Y-14151603D02*
X13678983Y-14142079D01*
X13678983Y-14142079D02*
X13688507Y-14123031D01*
X13688507Y-14123031D02*
X13698031Y-14113508D01*
X13698031Y-14113508D02*
X13717079Y-14103984D01*
X13717079Y-14103984D02*
X13755174Y-14103984D01*
X13755174Y-14103984D02*
X13774222Y-14113508D01*
X13774222Y-14113508D02*
X13783745Y-14123031D01*
X13783745Y-14123031D02*
X13793269Y-14142079D01*
X13793269Y-14142079D02*
X13793269Y-14151603D01*
X13793269Y-14151603D02*
X13783745Y-14170650D01*
X13783745Y-14170650D02*
X13774222Y-14180174D01*
X13774222Y-14180174D02*
X13755174Y-14189698D01*
X13755174Y-14189698D02*
X13717079Y-14189698D01*
X13717079Y-14189698D02*
X13698031Y-14199222D01*
X13698031Y-14199222D02*
X13688507Y-14208746D01*
X13688507Y-14208746D02*
X13678983Y-14227793D01*
X13678983Y-14227793D02*
X13678983Y-14265888D01*
X13678983Y-14265888D02*
X13688507Y-14284936D01*
X13688507Y-14284936D02*
X13698031Y-14294460D01*
X13698031Y-14294460D02*
X13717079Y-14303984D01*
X13717079Y-14303984D02*
X13755174Y-14303984D01*
X13755174Y-14303984D02*
X13774222Y-14294460D01*
X13774222Y-14294460D02*
X13783745Y-14284936D01*
X13783745Y-14284936D02*
X13793269Y-14265888D01*
X13793269Y-14265888D02*
X13793269Y-14227793D01*
X13793269Y-14227793D02*
X13783745Y-14208746D01*
X13783745Y-14208746D02*
X13774222Y-14199222D01*
X13774222Y-14199222D02*
X13755174Y-14189698D01*
X14031364Y-14303984D02*
X14031364Y-14103984D01*
X14117079Y-14303984D02*
X14117079Y-14199222D01*
X14117079Y-14199222D02*
X14107555Y-14180174D01*
X14107555Y-14180174D02*
X14088507Y-14170650D01*
X14088507Y-14170650D02*
X14059936Y-14170650D01*
X14059936Y-14170650D02*
X14040888Y-14180174D01*
X14040888Y-14180174D02*
X14031364Y-14189698D01*
X14240888Y-14303984D02*
X14221841Y-14294460D01*
X14221841Y-14294460D02*
X14212317Y-14284936D01*
X14212317Y-14284936D02*
X14202793Y-14265888D01*
X14202793Y-14265888D02*
X14202793Y-14208746D01*
X14202793Y-14208746D02*
X14212317Y-14189698D01*
X14212317Y-14189698D02*
X14221841Y-14180174D01*
X14221841Y-14180174D02*
X14240888Y-14170650D01*
X14240888Y-14170650D02*
X14269460Y-14170650D01*
X14269460Y-14170650D02*
X14288507Y-14180174D01*
X14288507Y-14180174D02*
X14298031Y-14189698D01*
X14298031Y-14189698D02*
X14307555Y-14208746D01*
X14307555Y-14208746D02*
X14307555Y-14265888D01*
X14307555Y-14265888D02*
X14298031Y-14284936D01*
X14298031Y-14284936D02*
X14288507Y-14294460D01*
X14288507Y-14294460D02*
X14269460Y-14303984D01*
X14269460Y-14303984D02*
X14240888Y-14303984D01*
X14421841Y-14303984D02*
X14402793Y-14294460D01*
X14402793Y-14294460D02*
X14393269Y-14275412D01*
X14393269Y-14275412D02*
X14393269Y-14103984D01*
X14574222Y-14294460D02*
X14555174Y-14303984D01*
X14555174Y-14303984D02*
X14517079Y-14303984D01*
X14517079Y-14303984D02*
X14498031Y-14294460D01*
X14498031Y-14294460D02*
X14488507Y-14275412D01*
X14488507Y-14275412D02*
X14488507Y-14199222D01*
X14488507Y-14199222D02*
X14498031Y-14180174D01*
X14498031Y-14180174D02*
X14517079Y-14170650D01*
X14517079Y-14170650D02*
X14555174Y-14170650D01*
X14555174Y-14170650D02*
X14574222Y-14180174D01*
X14574222Y-14180174D02*
X14583745Y-14199222D01*
X14583745Y-14199222D02*
X14583745Y-14218269D01*
X14583745Y-14218269D02*
X14488507Y-14237317D01*
X14659936Y-14294460D02*
X14678984Y-14303984D01*
X14678984Y-14303984D02*
X14717079Y-14303984D01*
X14717079Y-14303984D02*
X14736126Y-14294460D01*
X14736126Y-14294460D02*
X14745650Y-14275412D01*
X14745650Y-14275412D02*
X14745650Y-14265888D01*
X14745650Y-14265888D02*
X14736126Y-14246841D01*
X14736126Y-14246841D02*
X14717079Y-14237317D01*
X14717079Y-14237317D02*
X14688507Y-14237317D01*
X14688507Y-14237317D02*
X14669460Y-14227793D01*
X14669460Y-14227793D02*
X14659936Y-14208746D01*
X14659936Y-14208746D02*
X14659936Y-14199222D01*
X14659936Y-14199222D02*
X14669460Y-14180174D01*
X14669460Y-14180174D02*
X14688507Y-14170650D01*
X14688507Y-14170650D02*
X14717079Y-14170650D01*
X14717079Y-14170650D02*
X14736126Y-14180174D01*
X14812317Y-14380174D02*
X14821841Y-14370650D01*
X14821841Y-14370650D02*
X14840888Y-14342079D01*
X14840888Y-14342079D02*
X14850412Y-14323031D01*
X14850412Y-14323031D02*
X14859936Y-14294460D01*
X14859936Y-14294460D02*
X14869460Y-14246841D01*
X14869460Y-14246841D02*
X14869460Y-14208746D01*
X14869460Y-14208746D02*
X14859936Y-14161127D01*
X14859936Y-14161127D02*
X14850412Y-14132555D01*
X14850412Y-14132555D02*
X14840888Y-14113508D01*
X14840888Y-14113508D02*
X14821841Y-14084936D01*
X14821841Y-14084936D02*
X14812317Y-14075412D01*
D13*
X9666778Y-14386500D02*
X9846778Y-14566500D01*
X9846778Y-14386500D02*
X9666778Y-14566500D01*
X9756778Y-14386500D02*
X9756778Y-14566500D01*
X9666778Y-14476500D02*
X9846778Y-14476500D01*
D11*
X10212317Y-14567984D02*
X10098031Y-14567984D01*
X10155174Y-14567984D02*
X10155174Y-14367984D01*
X10155174Y-14367984D02*
X10136126Y-14396555D01*
X10136126Y-14396555D02*
X10117078Y-14415603D01*
X10117078Y-14415603D02*
X10098031Y-14425127D01*
X10298031Y-14548936D02*
X10307555Y-14558460D01*
X10307555Y-14558460D02*
X10298031Y-14567984D01*
X10298031Y-14567984D02*
X10288507Y-14558460D01*
X10288507Y-14558460D02*
X10298031Y-14548936D01*
X10298031Y-14548936D02*
X10298031Y-14567984D01*
X10421840Y-14453698D02*
X10402793Y-14444174D01*
X10402793Y-14444174D02*
X10393269Y-14434650D01*
X10393269Y-14434650D02*
X10383745Y-14415603D01*
X10383745Y-14415603D02*
X10383745Y-14406079D01*
X10383745Y-14406079D02*
X10393269Y-14387031D01*
X10393269Y-14387031D02*
X10402793Y-14377508D01*
X10402793Y-14377508D02*
X10421840Y-14367984D01*
X10421840Y-14367984D02*
X10459936Y-14367984D01*
X10459936Y-14367984D02*
X10478983Y-14377508D01*
X10478983Y-14377508D02*
X10488507Y-14387031D01*
X10488507Y-14387031D02*
X10498031Y-14406079D01*
X10498031Y-14406079D02*
X10498031Y-14415603D01*
X10498031Y-14415603D02*
X10488507Y-14434650D01*
X10488507Y-14434650D02*
X10478983Y-14444174D01*
X10478983Y-14444174D02*
X10459936Y-14453698D01*
X10459936Y-14453698D02*
X10421840Y-14453698D01*
X10421840Y-14453698D02*
X10402793Y-14463222D01*
X10402793Y-14463222D02*
X10393269Y-14472746D01*
X10393269Y-14472746D02*
X10383745Y-14491793D01*
X10383745Y-14491793D02*
X10383745Y-14529888D01*
X10383745Y-14529888D02*
X10393269Y-14548936D01*
X10393269Y-14548936D02*
X10402793Y-14558460D01*
X10402793Y-14558460D02*
X10421840Y-14567984D01*
X10421840Y-14567984D02*
X10459936Y-14567984D01*
X10459936Y-14567984D02*
X10478983Y-14558460D01*
X10478983Y-14558460D02*
X10488507Y-14548936D01*
X10488507Y-14548936D02*
X10498031Y-14529888D01*
X10498031Y-14529888D02*
X10498031Y-14491793D01*
X10498031Y-14491793D02*
X10488507Y-14472746D01*
X10488507Y-14472746D02*
X10478983Y-14463222D01*
X10478983Y-14463222D02*
X10459936Y-14453698D01*
X10621840Y-14367984D02*
X10640888Y-14367984D01*
X10640888Y-14367984D02*
X10659936Y-14377508D01*
X10659936Y-14377508D02*
X10669459Y-14387031D01*
X10669459Y-14387031D02*
X10678983Y-14406079D01*
X10678983Y-14406079D02*
X10688507Y-14444174D01*
X10688507Y-14444174D02*
X10688507Y-14491793D01*
X10688507Y-14491793D02*
X10678983Y-14529888D01*
X10678983Y-14529888D02*
X10669459Y-14548936D01*
X10669459Y-14548936D02*
X10659936Y-14558460D01*
X10659936Y-14558460D02*
X10640888Y-14567984D01*
X10640888Y-14567984D02*
X10621840Y-14567984D01*
X10621840Y-14567984D02*
X10602793Y-14558460D01*
X10602793Y-14558460D02*
X10593269Y-14548936D01*
X10593269Y-14548936D02*
X10583745Y-14529888D01*
X10583745Y-14529888D02*
X10574221Y-14491793D01*
X10574221Y-14491793D02*
X10574221Y-14444174D01*
X10574221Y-14444174D02*
X10583745Y-14406079D01*
X10583745Y-14406079D02*
X10593269Y-14387031D01*
X10593269Y-14387031D02*
X10602793Y-14377508D01*
X10602793Y-14377508D02*
X10621840Y-14367984D01*
X10812317Y-14367984D02*
X10831364Y-14367984D01*
X10831364Y-14367984D02*
X10850412Y-14377508D01*
X10850412Y-14377508D02*
X10859936Y-14387031D01*
X10859936Y-14387031D02*
X10869459Y-14406079D01*
X10869459Y-14406079D02*
X10878983Y-14444174D01*
X10878983Y-14444174D02*
X10878983Y-14491793D01*
X10878983Y-14491793D02*
X10869459Y-14529888D01*
X10869459Y-14529888D02*
X10859936Y-14548936D01*
X10859936Y-14548936D02*
X10850412Y-14558460D01*
X10850412Y-14558460D02*
X10831364Y-14567984D01*
X10831364Y-14567984D02*
X10812317Y-14567984D01*
X10812317Y-14567984D02*
X10793269Y-14558460D01*
X10793269Y-14558460D02*
X10783745Y-14548936D01*
X10783745Y-14548936D02*
X10774221Y-14529888D01*
X10774221Y-14529888D02*
X10764698Y-14491793D01*
X10764698Y-14491793D02*
X10764698Y-14444174D01*
X10764698Y-14444174D02*
X10774221Y-14406079D01*
X10774221Y-14406079D02*
X10783745Y-14387031D01*
X10783745Y-14387031D02*
X10793269Y-14377508D01*
X10793269Y-14377508D02*
X10812317Y-14367984D01*
X10964698Y-14567984D02*
X10964698Y-14434650D01*
X10964698Y-14453698D02*
X10974221Y-14444174D01*
X10974221Y-14444174D02*
X10993269Y-14434650D01*
X10993269Y-14434650D02*
X11021840Y-14434650D01*
X11021840Y-14434650D02*
X11040888Y-14444174D01*
X11040888Y-14444174D02*
X11050412Y-14463222D01*
X11050412Y-14463222D02*
X11050412Y-14567984D01*
X11050412Y-14463222D02*
X11059936Y-14444174D01*
X11059936Y-14444174D02*
X11078983Y-14434650D01*
X11078983Y-14434650D02*
X11107555Y-14434650D01*
X11107555Y-14434650D02*
X11126602Y-14444174D01*
X11126602Y-14444174D02*
X11136126Y-14463222D01*
X11136126Y-14463222D02*
X11136126Y-14567984D01*
X11231364Y-14567984D02*
X11231364Y-14434650D01*
X11231364Y-14453698D02*
X11240888Y-14444174D01*
X11240888Y-14444174D02*
X11259936Y-14434650D01*
X11259936Y-14434650D02*
X11288507Y-14434650D01*
X11288507Y-14434650D02*
X11307555Y-14444174D01*
X11307555Y-14444174D02*
X11317078Y-14463222D01*
X11317078Y-14463222D02*
X11317078Y-14567984D01*
X11317078Y-14463222D02*
X11326602Y-14444174D01*
X11326602Y-14444174D02*
X11345650Y-14434650D01*
X11345650Y-14434650D02*
X11374221Y-14434650D01*
X11374221Y-14434650D02*
X11393269Y-14444174D01*
X11393269Y-14444174D02*
X11402793Y-14463222D01*
X11402793Y-14463222D02*
X11402793Y-14567984D01*
X11793269Y-14358460D02*
X11621840Y-14615603D01*
X12050412Y-14367984D02*
X12069460Y-14367984D01*
X12069460Y-14367984D02*
X12088507Y-14377508D01*
X12088507Y-14377508D02*
X12098031Y-14387031D01*
X12098031Y-14387031D02*
X12107555Y-14406079D01*
X12107555Y-14406079D02*
X12117079Y-14444174D01*
X12117079Y-14444174D02*
X12117079Y-14491793D01*
X12117079Y-14491793D02*
X12107555Y-14529888D01*
X12107555Y-14529888D02*
X12098031Y-14548936D01*
X12098031Y-14548936D02*
X12088507Y-14558460D01*
X12088507Y-14558460D02*
X12069460Y-14567984D01*
X12069460Y-14567984D02*
X12050412Y-14567984D01*
X12050412Y-14567984D02*
X12031364Y-14558460D01*
X12031364Y-14558460D02*
X12021840Y-14548936D01*
X12021840Y-14548936D02*
X12012317Y-14529888D01*
X12012317Y-14529888D02*
X12002793Y-14491793D01*
X12002793Y-14491793D02*
X12002793Y-14444174D01*
X12002793Y-14444174D02*
X12012317Y-14406079D01*
X12012317Y-14406079D02*
X12021840Y-14387031D01*
X12021840Y-14387031D02*
X12031364Y-14377508D01*
X12031364Y-14377508D02*
X12050412Y-14367984D01*
X12202793Y-14548936D02*
X12212317Y-14558460D01*
X12212317Y-14558460D02*
X12202793Y-14567984D01*
X12202793Y-14567984D02*
X12193269Y-14558460D01*
X12193269Y-14558460D02*
X12202793Y-14548936D01*
X12202793Y-14548936D02*
X12202793Y-14567984D01*
X12336126Y-14367984D02*
X12355174Y-14367984D01*
X12355174Y-14367984D02*
X12374221Y-14377508D01*
X12374221Y-14377508D02*
X12383745Y-14387031D01*
X12383745Y-14387031D02*
X12393269Y-14406079D01*
X12393269Y-14406079D02*
X12402793Y-14444174D01*
X12402793Y-14444174D02*
X12402793Y-14491793D01*
X12402793Y-14491793D02*
X12393269Y-14529888D01*
X12393269Y-14529888D02*
X12383745Y-14548936D01*
X12383745Y-14548936D02*
X12374221Y-14558460D01*
X12374221Y-14558460D02*
X12355174Y-14567984D01*
X12355174Y-14567984D02*
X12336126Y-14567984D01*
X12336126Y-14567984D02*
X12317079Y-14558460D01*
X12317079Y-14558460D02*
X12307555Y-14548936D01*
X12307555Y-14548936D02*
X12298031Y-14529888D01*
X12298031Y-14529888D02*
X12288507Y-14491793D01*
X12288507Y-14491793D02*
X12288507Y-14444174D01*
X12288507Y-14444174D02*
X12298031Y-14406079D01*
X12298031Y-14406079D02*
X12307555Y-14387031D01*
X12307555Y-14387031D02*
X12317079Y-14377508D01*
X12317079Y-14377508D02*
X12336126Y-14367984D01*
X12469460Y-14367984D02*
X12602793Y-14367984D01*
X12602793Y-14367984D02*
X12517079Y-14567984D01*
X12717079Y-14367984D02*
X12736126Y-14367984D01*
X12736126Y-14367984D02*
X12755174Y-14377508D01*
X12755174Y-14377508D02*
X12764698Y-14387031D01*
X12764698Y-14387031D02*
X12774221Y-14406079D01*
X12774221Y-14406079D02*
X12783745Y-14444174D01*
X12783745Y-14444174D02*
X12783745Y-14491793D01*
X12783745Y-14491793D02*
X12774221Y-14529888D01*
X12774221Y-14529888D02*
X12764698Y-14548936D01*
X12764698Y-14548936D02*
X12755174Y-14558460D01*
X12755174Y-14558460D02*
X12736126Y-14567984D01*
X12736126Y-14567984D02*
X12717079Y-14567984D01*
X12717079Y-14567984D02*
X12698031Y-14558460D01*
X12698031Y-14558460D02*
X12688507Y-14548936D01*
X12688507Y-14548936D02*
X12678983Y-14529888D01*
X12678983Y-14529888D02*
X12669460Y-14491793D01*
X12669460Y-14491793D02*
X12669460Y-14444174D01*
X12669460Y-14444174D02*
X12678983Y-14406079D01*
X12678983Y-14406079D02*
X12688507Y-14387031D01*
X12688507Y-14387031D02*
X12698031Y-14377508D01*
X12698031Y-14377508D02*
X12717079Y-14367984D01*
X12878983Y-14567984D02*
X12917079Y-14567984D01*
X12917079Y-14567984D02*
X12936126Y-14558460D01*
X12936126Y-14558460D02*
X12945650Y-14548936D01*
X12945650Y-14548936D02*
X12964698Y-14520365D01*
X12964698Y-14520365D02*
X12974221Y-14482269D01*
X12974221Y-14482269D02*
X12974221Y-14406079D01*
X12974221Y-14406079D02*
X12964698Y-14387031D01*
X12964698Y-14387031D02*
X12955174Y-14377508D01*
X12955174Y-14377508D02*
X12936126Y-14367984D01*
X12936126Y-14367984D02*
X12898031Y-14367984D01*
X12898031Y-14367984D02*
X12878983Y-14377508D01*
X12878983Y-14377508D02*
X12869460Y-14387031D01*
X12869460Y-14387031D02*
X12859936Y-14406079D01*
X12859936Y-14406079D02*
X12859936Y-14453698D01*
X12859936Y-14453698D02*
X12869460Y-14472746D01*
X12869460Y-14472746D02*
X12878983Y-14482269D01*
X12878983Y-14482269D02*
X12898031Y-14491793D01*
X12898031Y-14491793D02*
X12936126Y-14491793D01*
X12936126Y-14491793D02*
X12955174Y-14482269D01*
X12955174Y-14482269D02*
X12964698Y-14472746D01*
X12964698Y-14472746D02*
X12974221Y-14453698D01*
X13050412Y-14367984D02*
X13050412Y-14406079D01*
X13126602Y-14367984D02*
X13126602Y-14406079D01*
X13421841Y-14644174D02*
X13412317Y-14634650D01*
X13412317Y-14634650D02*
X13393269Y-14606079D01*
X13393269Y-14606079D02*
X13383745Y-14587031D01*
X13383745Y-14587031D02*
X13374222Y-14558460D01*
X13374222Y-14558460D02*
X13364698Y-14510841D01*
X13364698Y-14510841D02*
X13364698Y-14472746D01*
X13364698Y-14472746D02*
X13374222Y-14425127D01*
X13374222Y-14425127D02*
X13383745Y-14396555D01*
X13383745Y-14396555D02*
X13393269Y-14377508D01*
X13393269Y-14377508D02*
X13412317Y-14348936D01*
X13412317Y-14348936D02*
X13421841Y-14339412D01*
X13488507Y-14387031D02*
X13498031Y-14377508D01*
X13498031Y-14377508D02*
X13517079Y-14367984D01*
X13517079Y-14367984D02*
X13564698Y-14367984D01*
X13564698Y-14367984D02*
X13583745Y-14377508D01*
X13583745Y-14377508D02*
X13593269Y-14387031D01*
X13593269Y-14387031D02*
X13602793Y-14406079D01*
X13602793Y-14406079D02*
X13602793Y-14425127D01*
X13602793Y-14425127D02*
X13593269Y-14453698D01*
X13593269Y-14453698D02*
X13478983Y-14567984D01*
X13478983Y-14567984D02*
X13602793Y-14567984D01*
X13840888Y-14567984D02*
X13840888Y-14367984D01*
X13926603Y-14567984D02*
X13926603Y-14463222D01*
X13926603Y-14463222D02*
X13917079Y-14444174D01*
X13917079Y-14444174D02*
X13898031Y-14434650D01*
X13898031Y-14434650D02*
X13869460Y-14434650D01*
X13869460Y-14434650D02*
X13850412Y-14444174D01*
X13850412Y-14444174D02*
X13840888Y-14453698D01*
X14050412Y-14567984D02*
X14031364Y-14558460D01*
X14031364Y-14558460D02*
X14021841Y-14548936D01*
X14021841Y-14548936D02*
X14012317Y-14529888D01*
X14012317Y-14529888D02*
X14012317Y-14472746D01*
X14012317Y-14472746D02*
X14021841Y-14453698D01*
X14021841Y-14453698D02*
X14031364Y-14444174D01*
X14031364Y-14444174D02*
X14050412Y-14434650D01*
X14050412Y-14434650D02*
X14078984Y-14434650D01*
X14078984Y-14434650D02*
X14098031Y-14444174D01*
X14098031Y-14444174D02*
X14107555Y-14453698D01*
X14107555Y-14453698D02*
X14117079Y-14472746D01*
X14117079Y-14472746D02*
X14117079Y-14529888D01*
X14117079Y-14529888D02*
X14107555Y-14548936D01*
X14107555Y-14548936D02*
X14098031Y-14558460D01*
X14098031Y-14558460D02*
X14078984Y-14567984D01*
X14078984Y-14567984D02*
X14050412Y-14567984D01*
X14231364Y-14567984D02*
X14212317Y-14558460D01*
X14212317Y-14558460D02*
X14202793Y-14539412D01*
X14202793Y-14539412D02*
X14202793Y-14367984D01*
X14383745Y-14558460D02*
X14364698Y-14567984D01*
X14364698Y-14567984D02*
X14326603Y-14567984D01*
X14326603Y-14567984D02*
X14307555Y-14558460D01*
X14307555Y-14558460D02*
X14298031Y-14539412D01*
X14298031Y-14539412D02*
X14298031Y-14463222D01*
X14298031Y-14463222D02*
X14307555Y-14444174D01*
X14307555Y-14444174D02*
X14326603Y-14434650D01*
X14326603Y-14434650D02*
X14364698Y-14434650D01*
X14364698Y-14434650D02*
X14383745Y-14444174D01*
X14383745Y-14444174D02*
X14393269Y-14463222D01*
X14393269Y-14463222D02*
X14393269Y-14482269D01*
X14393269Y-14482269D02*
X14298031Y-14501317D01*
X14469460Y-14558460D02*
X14488507Y-14567984D01*
X14488507Y-14567984D02*
X14526603Y-14567984D01*
X14526603Y-14567984D02*
X14545650Y-14558460D01*
X14545650Y-14558460D02*
X14555174Y-14539412D01*
X14555174Y-14539412D02*
X14555174Y-14529888D01*
X14555174Y-14529888D02*
X14545650Y-14510841D01*
X14545650Y-14510841D02*
X14526603Y-14501317D01*
X14526603Y-14501317D02*
X14498031Y-14501317D01*
X14498031Y-14501317D02*
X14478984Y-14491793D01*
X14478984Y-14491793D02*
X14469460Y-14472746D01*
X14469460Y-14472746D02*
X14469460Y-14463222D01*
X14469460Y-14463222D02*
X14478984Y-14444174D01*
X14478984Y-14444174D02*
X14498031Y-14434650D01*
X14498031Y-14434650D02*
X14526603Y-14434650D01*
X14526603Y-14434650D02*
X14545650Y-14444174D01*
X14621841Y-14644174D02*
X14631365Y-14634650D01*
X14631365Y-14634650D02*
X14650412Y-14606079D01*
X14650412Y-14606079D02*
X14659936Y-14587031D01*
X14659936Y-14587031D02*
X14669460Y-14558460D01*
X14669460Y-14558460D02*
X14678984Y-14510841D01*
X14678984Y-14510841D02*
X14678984Y-14472746D01*
X14678984Y-14472746D02*
X14669460Y-14425127D01*
X14669460Y-14425127D02*
X14659936Y-14396555D01*
X14659936Y-14396555D02*
X14650412Y-14377508D01*
X14650412Y-14377508D02*
X14631365Y-14348936D01*
X14631365Y-14348936D02*
X14621841Y-14339412D01*
X9646778Y-14676500D02*
X9846778Y-14876500D01*
X9846778Y-14676500D02*
X9646778Y-14876500D01*
X9817489Y-14847211D02*
X9817489Y-14705789D01*
X9676066Y-14705789D01*
X9676066Y-14847211D01*
X9817489Y-14847211D01*
X10098031Y-14687031D02*
X10107555Y-14677508D01*
X10107555Y-14677508D02*
X10126602Y-14667984D01*
X10126602Y-14667984D02*
X10174221Y-14667984D01*
X10174221Y-14667984D02*
X10193269Y-14677508D01*
X10193269Y-14677508D02*
X10202793Y-14687031D01*
X10202793Y-14687031D02*
X10212317Y-14706079D01*
X10212317Y-14706079D02*
X10212317Y-14725127D01*
X10212317Y-14725127D02*
X10202793Y-14753698D01*
X10202793Y-14753698D02*
X10088507Y-14867984D01*
X10088507Y-14867984D02*
X10212317Y-14867984D01*
X10298031Y-14848936D02*
X10307555Y-14858460D01*
X10307555Y-14858460D02*
X10298031Y-14867984D01*
X10298031Y-14867984D02*
X10288507Y-14858460D01*
X10288507Y-14858460D02*
X10298031Y-14848936D01*
X10298031Y-14848936D02*
X10298031Y-14867984D01*
X10374221Y-14667984D02*
X10507555Y-14667984D01*
X10507555Y-14667984D02*
X10421840Y-14867984D01*
X10621840Y-14667984D02*
X10640888Y-14667984D01*
X10640888Y-14667984D02*
X10659936Y-14677508D01*
X10659936Y-14677508D02*
X10669459Y-14687031D01*
X10669459Y-14687031D02*
X10678983Y-14706079D01*
X10678983Y-14706079D02*
X10688507Y-14744174D01*
X10688507Y-14744174D02*
X10688507Y-14791793D01*
X10688507Y-14791793D02*
X10678983Y-14829888D01*
X10678983Y-14829888D02*
X10669459Y-14848936D01*
X10669459Y-14848936D02*
X10659936Y-14858460D01*
X10659936Y-14858460D02*
X10640888Y-14867984D01*
X10640888Y-14867984D02*
X10621840Y-14867984D01*
X10621840Y-14867984D02*
X10602793Y-14858460D01*
X10602793Y-14858460D02*
X10593269Y-14848936D01*
X10593269Y-14848936D02*
X10583745Y-14829888D01*
X10583745Y-14829888D02*
X10574221Y-14791793D01*
X10574221Y-14791793D02*
X10574221Y-14744174D01*
X10574221Y-14744174D02*
X10583745Y-14706079D01*
X10583745Y-14706079D02*
X10593269Y-14687031D01*
X10593269Y-14687031D02*
X10602793Y-14677508D01*
X10602793Y-14677508D02*
X10621840Y-14667984D01*
X10812317Y-14667984D02*
X10831364Y-14667984D01*
X10831364Y-14667984D02*
X10850412Y-14677508D01*
X10850412Y-14677508D02*
X10859936Y-14687031D01*
X10859936Y-14687031D02*
X10869459Y-14706079D01*
X10869459Y-14706079D02*
X10878983Y-14744174D01*
X10878983Y-14744174D02*
X10878983Y-14791793D01*
X10878983Y-14791793D02*
X10869459Y-14829888D01*
X10869459Y-14829888D02*
X10859936Y-14848936D01*
X10859936Y-14848936D02*
X10850412Y-14858460D01*
X10850412Y-14858460D02*
X10831364Y-14867984D01*
X10831364Y-14867984D02*
X10812317Y-14867984D01*
X10812317Y-14867984D02*
X10793269Y-14858460D01*
X10793269Y-14858460D02*
X10783745Y-14848936D01*
X10783745Y-14848936D02*
X10774221Y-14829888D01*
X10774221Y-14829888D02*
X10764698Y-14791793D01*
X10764698Y-14791793D02*
X10764698Y-14744174D01*
X10764698Y-14744174D02*
X10774221Y-14706079D01*
X10774221Y-14706079D02*
X10783745Y-14687031D01*
X10783745Y-14687031D02*
X10793269Y-14677508D01*
X10793269Y-14677508D02*
X10812317Y-14667984D01*
X10964698Y-14867984D02*
X10964698Y-14734650D01*
X10964698Y-14753698D02*
X10974221Y-14744174D01*
X10974221Y-14744174D02*
X10993269Y-14734650D01*
X10993269Y-14734650D02*
X11021840Y-14734650D01*
X11021840Y-14734650D02*
X11040888Y-14744174D01*
X11040888Y-14744174D02*
X11050412Y-14763222D01*
X11050412Y-14763222D02*
X11050412Y-14867984D01*
X11050412Y-14763222D02*
X11059936Y-14744174D01*
X11059936Y-14744174D02*
X11078983Y-14734650D01*
X11078983Y-14734650D02*
X11107555Y-14734650D01*
X11107555Y-14734650D02*
X11126602Y-14744174D01*
X11126602Y-14744174D02*
X11136126Y-14763222D01*
X11136126Y-14763222D02*
X11136126Y-14867984D01*
X11231364Y-14867984D02*
X11231364Y-14734650D01*
X11231364Y-14753698D02*
X11240888Y-14744174D01*
X11240888Y-14744174D02*
X11259936Y-14734650D01*
X11259936Y-14734650D02*
X11288507Y-14734650D01*
X11288507Y-14734650D02*
X11307555Y-14744174D01*
X11307555Y-14744174D02*
X11317078Y-14763222D01*
X11317078Y-14763222D02*
X11317078Y-14867984D01*
X11317078Y-14763222D02*
X11326602Y-14744174D01*
X11326602Y-14744174D02*
X11345650Y-14734650D01*
X11345650Y-14734650D02*
X11374221Y-14734650D01*
X11374221Y-14734650D02*
X11393269Y-14744174D01*
X11393269Y-14744174D02*
X11402793Y-14763222D01*
X11402793Y-14763222D02*
X11402793Y-14867984D01*
X11793269Y-14658460D02*
X11621840Y-14915603D01*
X12050412Y-14667984D02*
X12069460Y-14667984D01*
X12069460Y-14667984D02*
X12088507Y-14677508D01*
X12088507Y-14677508D02*
X12098031Y-14687031D01*
X12098031Y-14687031D02*
X12107555Y-14706079D01*
X12107555Y-14706079D02*
X12117079Y-14744174D01*
X12117079Y-14744174D02*
X12117079Y-14791793D01*
X12117079Y-14791793D02*
X12107555Y-14829888D01*
X12107555Y-14829888D02*
X12098031Y-14848936D01*
X12098031Y-14848936D02*
X12088507Y-14858460D01*
X12088507Y-14858460D02*
X12069460Y-14867984D01*
X12069460Y-14867984D02*
X12050412Y-14867984D01*
X12050412Y-14867984D02*
X12031364Y-14858460D01*
X12031364Y-14858460D02*
X12021840Y-14848936D01*
X12021840Y-14848936D02*
X12012317Y-14829888D01*
X12012317Y-14829888D02*
X12002793Y-14791793D01*
X12002793Y-14791793D02*
X12002793Y-14744174D01*
X12002793Y-14744174D02*
X12012317Y-14706079D01*
X12012317Y-14706079D02*
X12021840Y-14687031D01*
X12021840Y-14687031D02*
X12031364Y-14677508D01*
X12031364Y-14677508D02*
X12050412Y-14667984D01*
X12202793Y-14848936D02*
X12212317Y-14858460D01*
X12212317Y-14858460D02*
X12202793Y-14867984D01*
X12202793Y-14867984D02*
X12193269Y-14858460D01*
X12193269Y-14858460D02*
X12202793Y-14848936D01*
X12202793Y-14848936D02*
X12202793Y-14867984D01*
X12402793Y-14867984D02*
X12288507Y-14867984D01*
X12345650Y-14867984D02*
X12345650Y-14667984D01*
X12345650Y-14667984D02*
X12326602Y-14696555D01*
X12326602Y-14696555D02*
X12307555Y-14715603D01*
X12307555Y-14715603D02*
X12288507Y-14725127D01*
X12526602Y-14667984D02*
X12545650Y-14667984D01*
X12545650Y-14667984D02*
X12564698Y-14677508D01*
X12564698Y-14677508D02*
X12574221Y-14687031D01*
X12574221Y-14687031D02*
X12583745Y-14706079D01*
X12583745Y-14706079D02*
X12593269Y-14744174D01*
X12593269Y-14744174D02*
X12593269Y-14791793D01*
X12593269Y-14791793D02*
X12583745Y-14829888D01*
X12583745Y-14829888D02*
X12574221Y-14848936D01*
X12574221Y-14848936D02*
X12564698Y-14858460D01*
X12564698Y-14858460D02*
X12545650Y-14867984D01*
X12545650Y-14867984D02*
X12526602Y-14867984D01*
X12526602Y-14867984D02*
X12507555Y-14858460D01*
X12507555Y-14858460D02*
X12498031Y-14848936D01*
X12498031Y-14848936D02*
X12488507Y-14829888D01*
X12488507Y-14829888D02*
X12478983Y-14791793D01*
X12478983Y-14791793D02*
X12478983Y-14744174D01*
X12478983Y-14744174D02*
X12488507Y-14706079D01*
X12488507Y-14706079D02*
X12498031Y-14687031D01*
X12498031Y-14687031D02*
X12507555Y-14677508D01*
X12507555Y-14677508D02*
X12526602Y-14667984D01*
X12764698Y-14667984D02*
X12726602Y-14667984D01*
X12726602Y-14667984D02*
X12707555Y-14677508D01*
X12707555Y-14677508D02*
X12698031Y-14687031D01*
X12698031Y-14687031D02*
X12678983Y-14715603D01*
X12678983Y-14715603D02*
X12669460Y-14753698D01*
X12669460Y-14753698D02*
X12669460Y-14829888D01*
X12669460Y-14829888D02*
X12678983Y-14848936D01*
X12678983Y-14848936D02*
X12688507Y-14858460D01*
X12688507Y-14858460D02*
X12707555Y-14867984D01*
X12707555Y-14867984D02*
X12745650Y-14867984D01*
X12745650Y-14867984D02*
X12764698Y-14858460D01*
X12764698Y-14858460D02*
X12774221Y-14848936D01*
X12774221Y-14848936D02*
X12783745Y-14829888D01*
X12783745Y-14829888D02*
X12783745Y-14782269D01*
X12783745Y-14782269D02*
X12774221Y-14763222D01*
X12774221Y-14763222D02*
X12764698Y-14753698D01*
X12764698Y-14753698D02*
X12745650Y-14744174D01*
X12745650Y-14744174D02*
X12707555Y-14744174D01*
X12707555Y-14744174D02*
X12688507Y-14753698D01*
X12688507Y-14753698D02*
X12678983Y-14763222D01*
X12678983Y-14763222D02*
X12669460Y-14782269D01*
X12850412Y-14667984D02*
X12974221Y-14667984D01*
X12974221Y-14667984D02*
X12907555Y-14744174D01*
X12907555Y-14744174D02*
X12936126Y-14744174D01*
X12936126Y-14744174D02*
X12955174Y-14753698D01*
X12955174Y-14753698D02*
X12964698Y-14763222D01*
X12964698Y-14763222D02*
X12974221Y-14782269D01*
X12974221Y-14782269D02*
X12974221Y-14829888D01*
X12974221Y-14829888D02*
X12964698Y-14848936D01*
X12964698Y-14848936D02*
X12955174Y-14858460D01*
X12955174Y-14858460D02*
X12936126Y-14867984D01*
X12936126Y-14867984D02*
X12878983Y-14867984D01*
X12878983Y-14867984D02*
X12859936Y-14858460D01*
X12859936Y-14858460D02*
X12850412Y-14848936D01*
X13050412Y-14667984D02*
X13050412Y-14706079D01*
X13126602Y-14667984D02*
X13126602Y-14706079D01*
X13421841Y-14944174D02*
X13412317Y-14934650D01*
X13412317Y-14934650D02*
X13393269Y-14906079D01*
X13393269Y-14906079D02*
X13383745Y-14887031D01*
X13383745Y-14887031D02*
X13374222Y-14858460D01*
X13374222Y-14858460D02*
X13364698Y-14810841D01*
X13364698Y-14810841D02*
X13364698Y-14772746D01*
X13364698Y-14772746D02*
X13374222Y-14725127D01*
X13374222Y-14725127D02*
X13383745Y-14696555D01*
X13383745Y-14696555D02*
X13393269Y-14677508D01*
X13393269Y-14677508D02*
X13412317Y-14648936D01*
X13412317Y-14648936D02*
X13421841Y-14639412D01*
X13583745Y-14734650D02*
X13583745Y-14867984D01*
X13536126Y-14658460D02*
X13488507Y-14801317D01*
X13488507Y-14801317D02*
X13612317Y-14801317D01*
X13840888Y-14867984D02*
X13840888Y-14667984D01*
X13926603Y-14867984D02*
X13926603Y-14763222D01*
X13926603Y-14763222D02*
X13917079Y-14744174D01*
X13917079Y-14744174D02*
X13898031Y-14734650D01*
X13898031Y-14734650D02*
X13869460Y-14734650D01*
X13869460Y-14734650D02*
X13850412Y-14744174D01*
X13850412Y-14744174D02*
X13840888Y-14753698D01*
X14050412Y-14867984D02*
X14031364Y-14858460D01*
X14031364Y-14858460D02*
X14021841Y-14848936D01*
X14021841Y-14848936D02*
X14012317Y-14829888D01*
X14012317Y-14829888D02*
X14012317Y-14772746D01*
X14012317Y-14772746D02*
X14021841Y-14753698D01*
X14021841Y-14753698D02*
X14031364Y-14744174D01*
X14031364Y-14744174D02*
X14050412Y-14734650D01*
X14050412Y-14734650D02*
X14078984Y-14734650D01*
X14078984Y-14734650D02*
X14098031Y-14744174D01*
X14098031Y-14744174D02*
X14107555Y-14753698D01*
X14107555Y-14753698D02*
X14117079Y-14772746D01*
X14117079Y-14772746D02*
X14117079Y-14829888D01*
X14117079Y-14829888D02*
X14107555Y-14848936D01*
X14107555Y-14848936D02*
X14098031Y-14858460D01*
X14098031Y-14858460D02*
X14078984Y-14867984D01*
X14078984Y-14867984D02*
X14050412Y-14867984D01*
X14231364Y-14867984D02*
X14212317Y-14858460D01*
X14212317Y-14858460D02*
X14202793Y-14839412D01*
X14202793Y-14839412D02*
X14202793Y-14667984D01*
X14383745Y-14858460D02*
X14364698Y-14867984D01*
X14364698Y-14867984D02*
X14326603Y-14867984D01*
X14326603Y-14867984D02*
X14307555Y-14858460D01*
X14307555Y-14858460D02*
X14298031Y-14839412D01*
X14298031Y-14839412D02*
X14298031Y-14763222D01*
X14298031Y-14763222D02*
X14307555Y-14744174D01*
X14307555Y-14744174D02*
X14326603Y-14734650D01*
X14326603Y-14734650D02*
X14364698Y-14734650D01*
X14364698Y-14734650D02*
X14383745Y-14744174D01*
X14383745Y-14744174D02*
X14393269Y-14763222D01*
X14393269Y-14763222D02*
X14393269Y-14782269D01*
X14393269Y-14782269D02*
X14298031Y-14801317D01*
X14469460Y-14858460D02*
X14488507Y-14867984D01*
X14488507Y-14867984D02*
X14526603Y-14867984D01*
X14526603Y-14867984D02*
X14545650Y-14858460D01*
X14545650Y-14858460D02*
X14555174Y-14839412D01*
X14555174Y-14839412D02*
X14555174Y-14829888D01*
X14555174Y-14829888D02*
X14545650Y-14810841D01*
X14545650Y-14810841D02*
X14526603Y-14801317D01*
X14526603Y-14801317D02*
X14498031Y-14801317D01*
X14498031Y-14801317D02*
X14478984Y-14791793D01*
X14478984Y-14791793D02*
X14469460Y-14772746D01*
X14469460Y-14772746D02*
X14469460Y-14763222D01*
X14469460Y-14763222D02*
X14478984Y-14744174D01*
X14478984Y-14744174D02*
X14498031Y-14734650D01*
X14498031Y-14734650D02*
X14526603Y-14734650D01*
X14526603Y-14734650D02*
X14545650Y-14744174D01*
X14621841Y-14944174D02*
X14631365Y-14934650D01*
X14631365Y-14934650D02*
X14650412Y-14906079D01*
X14650412Y-14906079D02*
X14659936Y-14887031D01*
X14659936Y-14887031D02*
X14669460Y-14858460D01*
X14669460Y-14858460D02*
X14678984Y-14810841D01*
X14678984Y-14810841D02*
X14678984Y-14772746D01*
X14678984Y-14772746D02*
X14669460Y-14725127D01*
X14669460Y-14725127D02*
X14659936Y-14696555D01*
X14659936Y-14696555D02*
X14650412Y-14677508D01*
X14650412Y-14677508D02*
X14631365Y-14648936D01*
X14631365Y-14648936D02*
X14621841Y-14639412D01*
X9646778Y-14996500D02*
X9846778Y-15196500D01*
X9846778Y-14996500D02*
X9646778Y-15196500D01*
X9746778Y-15196500D02*
X9846778Y-15096500D01*
X9746778Y-14996500D01*
X9646778Y-15096500D01*
X9746778Y-15196500D01*
X10088507Y-14987984D02*
X10212317Y-14987984D01*
X10212317Y-14987984D02*
X10145650Y-15064174D01*
X10145650Y-15064174D02*
X10174221Y-15064174D01*
X10174221Y-15064174D02*
X10193269Y-15073698D01*
X10193269Y-15073698D02*
X10202793Y-15083222D01*
X10202793Y-15083222D02*
X10212317Y-15102269D01*
X10212317Y-15102269D02*
X10212317Y-15149888D01*
X10212317Y-15149888D02*
X10202793Y-15168936D01*
X10202793Y-15168936D02*
X10193269Y-15178460D01*
X10193269Y-15178460D02*
X10174221Y-15187984D01*
X10174221Y-15187984D02*
X10117078Y-15187984D01*
X10117078Y-15187984D02*
X10098031Y-15178460D01*
X10098031Y-15178460D02*
X10088507Y-15168936D01*
X10298031Y-15168936D02*
X10307555Y-15178460D01*
X10307555Y-15178460D02*
X10298031Y-15187984D01*
X10298031Y-15187984D02*
X10288507Y-15178460D01*
X10288507Y-15178460D02*
X10298031Y-15168936D01*
X10298031Y-15168936D02*
X10298031Y-15187984D01*
X10383745Y-15007031D02*
X10393269Y-14997508D01*
X10393269Y-14997508D02*
X10412317Y-14987984D01*
X10412317Y-14987984D02*
X10459936Y-14987984D01*
X10459936Y-14987984D02*
X10478983Y-14997508D01*
X10478983Y-14997508D02*
X10488507Y-15007031D01*
X10488507Y-15007031D02*
X10498031Y-15026079D01*
X10498031Y-15026079D02*
X10498031Y-15045127D01*
X10498031Y-15045127D02*
X10488507Y-15073698D01*
X10488507Y-15073698D02*
X10374221Y-15187984D01*
X10374221Y-15187984D02*
X10498031Y-15187984D01*
X10621840Y-14987984D02*
X10640888Y-14987984D01*
X10640888Y-14987984D02*
X10659936Y-14997508D01*
X10659936Y-14997508D02*
X10669459Y-15007031D01*
X10669459Y-15007031D02*
X10678983Y-15026079D01*
X10678983Y-15026079D02*
X10688507Y-15064174D01*
X10688507Y-15064174D02*
X10688507Y-15111793D01*
X10688507Y-15111793D02*
X10678983Y-15149888D01*
X10678983Y-15149888D02*
X10669459Y-15168936D01*
X10669459Y-15168936D02*
X10659936Y-15178460D01*
X10659936Y-15178460D02*
X10640888Y-15187984D01*
X10640888Y-15187984D02*
X10621840Y-15187984D01*
X10621840Y-15187984D02*
X10602793Y-15178460D01*
X10602793Y-15178460D02*
X10593269Y-15168936D01*
X10593269Y-15168936D02*
X10583745Y-15149888D01*
X10583745Y-15149888D02*
X10574221Y-15111793D01*
X10574221Y-15111793D02*
X10574221Y-15064174D01*
X10574221Y-15064174D02*
X10583745Y-15026079D01*
X10583745Y-15026079D02*
X10593269Y-15007031D01*
X10593269Y-15007031D02*
X10602793Y-14997508D01*
X10602793Y-14997508D02*
X10621840Y-14987984D01*
X10812317Y-14987984D02*
X10831364Y-14987984D01*
X10831364Y-14987984D02*
X10850412Y-14997508D01*
X10850412Y-14997508D02*
X10859936Y-15007031D01*
X10859936Y-15007031D02*
X10869459Y-15026079D01*
X10869459Y-15026079D02*
X10878983Y-15064174D01*
X10878983Y-15064174D02*
X10878983Y-15111793D01*
X10878983Y-15111793D02*
X10869459Y-15149888D01*
X10869459Y-15149888D02*
X10859936Y-15168936D01*
X10859936Y-15168936D02*
X10850412Y-15178460D01*
X10850412Y-15178460D02*
X10831364Y-15187984D01*
X10831364Y-15187984D02*
X10812317Y-15187984D01*
X10812317Y-15187984D02*
X10793269Y-15178460D01*
X10793269Y-15178460D02*
X10783745Y-15168936D01*
X10783745Y-15168936D02*
X10774221Y-15149888D01*
X10774221Y-15149888D02*
X10764698Y-15111793D01*
X10764698Y-15111793D02*
X10764698Y-15064174D01*
X10764698Y-15064174D02*
X10774221Y-15026079D01*
X10774221Y-15026079D02*
X10783745Y-15007031D01*
X10783745Y-15007031D02*
X10793269Y-14997508D01*
X10793269Y-14997508D02*
X10812317Y-14987984D01*
X10964698Y-15187984D02*
X10964698Y-15054650D01*
X10964698Y-15073698D02*
X10974221Y-15064174D01*
X10974221Y-15064174D02*
X10993269Y-15054650D01*
X10993269Y-15054650D02*
X11021840Y-15054650D01*
X11021840Y-15054650D02*
X11040888Y-15064174D01*
X11040888Y-15064174D02*
X11050412Y-15083222D01*
X11050412Y-15083222D02*
X11050412Y-15187984D01*
X11050412Y-15083222D02*
X11059936Y-15064174D01*
X11059936Y-15064174D02*
X11078983Y-15054650D01*
X11078983Y-15054650D02*
X11107555Y-15054650D01*
X11107555Y-15054650D02*
X11126602Y-15064174D01*
X11126602Y-15064174D02*
X11136126Y-15083222D01*
X11136126Y-15083222D02*
X11136126Y-15187984D01*
X11231364Y-15187984D02*
X11231364Y-15054650D01*
X11231364Y-15073698D02*
X11240888Y-15064174D01*
X11240888Y-15064174D02*
X11259936Y-15054650D01*
X11259936Y-15054650D02*
X11288507Y-15054650D01*
X11288507Y-15054650D02*
X11307555Y-15064174D01*
X11307555Y-15064174D02*
X11317078Y-15083222D01*
X11317078Y-15083222D02*
X11317078Y-15187984D01*
X11317078Y-15083222D02*
X11326602Y-15064174D01*
X11326602Y-15064174D02*
X11345650Y-15054650D01*
X11345650Y-15054650D02*
X11374221Y-15054650D01*
X11374221Y-15054650D02*
X11393269Y-15064174D01*
X11393269Y-15064174D02*
X11402793Y-15083222D01*
X11402793Y-15083222D02*
X11402793Y-15187984D01*
X11793269Y-14978460D02*
X11621840Y-15235603D01*
X12050412Y-14987984D02*
X12069460Y-14987984D01*
X12069460Y-14987984D02*
X12088507Y-14997508D01*
X12088507Y-14997508D02*
X12098031Y-15007031D01*
X12098031Y-15007031D02*
X12107555Y-15026079D01*
X12107555Y-15026079D02*
X12117079Y-15064174D01*
X12117079Y-15064174D02*
X12117079Y-15111793D01*
X12117079Y-15111793D02*
X12107555Y-15149888D01*
X12107555Y-15149888D02*
X12098031Y-15168936D01*
X12098031Y-15168936D02*
X12088507Y-15178460D01*
X12088507Y-15178460D02*
X12069460Y-15187984D01*
X12069460Y-15187984D02*
X12050412Y-15187984D01*
X12050412Y-15187984D02*
X12031364Y-15178460D01*
X12031364Y-15178460D02*
X12021840Y-15168936D01*
X12021840Y-15168936D02*
X12012317Y-15149888D01*
X12012317Y-15149888D02*
X12002793Y-15111793D01*
X12002793Y-15111793D02*
X12002793Y-15064174D01*
X12002793Y-15064174D02*
X12012317Y-15026079D01*
X12012317Y-15026079D02*
X12021840Y-15007031D01*
X12021840Y-15007031D02*
X12031364Y-14997508D01*
X12031364Y-14997508D02*
X12050412Y-14987984D01*
X12202793Y-15168936D02*
X12212317Y-15178460D01*
X12212317Y-15178460D02*
X12202793Y-15187984D01*
X12202793Y-15187984D02*
X12193269Y-15178460D01*
X12193269Y-15178460D02*
X12202793Y-15168936D01*
X12202793Y-15168936D02*
X12202793Y-15187984D01*
X12402793Y-15187984D02*
X12288507Y-15187984D01*
X12345650Y-15187984D02*
X12345650Y-14987984D01*
X12345650Y-14987984D02*
X12326602Y-15016555D01*
X12326602Y-15016555D02*
X12307555Y-15035603D01*
X12307555Y-15035603D02*
X12288507Y-15045127D01*
X12478983Y-15007031D02*
X12488507Y-14997508D01*
X12488507Y-14997508D02*
X12507555Y-14987984D01*
X12507555Y-14987984D02*
X12555174Y-14987984D01*
X12555174Y-14987984D02*
X12574221Y-14997508D01*
X12574221Y-14997508D02*
X12583745Y-15007031D01*
X12583745Y-15007031D02*
X12593269Y-15026079D01*
X12593269Y-15026079D02*
X12593269Y-15045127D01*
X12593269Y-15045127D02*
X12583745Y-15073698D01*
X12583745Y-15073698D02*
X12469460Y-15187984D01*
X12469460Y-15187984D02*
X12593269Y-15187984D01*
X12764698Y-14987984D02*
X12726602Y-14987984D01*
X12726602Y-14987984D02*
X12707555Y-14997508D01*
X12707555Y-14997508D02*
X12698031Y-15007031D01*
X12698031Y-15007031D02*
X12678983Y-15035603D01*
X12678983Y-15035603D02*
X12669460Y-15073698D01*
X12669460Y-15073698D02*
X12669460Y-15149888D01*
X12669460Y-15149888D02*
X12678983Y-15168936D01*
X12678983Y-15168936D02*
X12688507Y-15178460D01*
X12688507Y-15178460D02*
X12707555Y-15187984D01*
X12707555Y-15187984D02*
X12745650Y-15187984D01*
X12745650Y-15187984D02*
X12764698Y-15178460D01*
X12764698Y-15178460D02*
X12774221Y-15168936D01*
X12774221Y-15168936D02*
X12783745Y-15149888D01*
X12783745Y-15149888D02*
X12783745Y-15102269D01*
X12783745Y-15102269D02*
X12774221Y-15083222D01*
X12774221Y-15083222D02*
X12764698Y-15073698D01*
X12764698Y-15073698D02*
X12745650Y-15064174D01*
X12745650Y-15064174D02*
X12707555Y-15064174D01*
X12707555Y-15064174D02*
X12688507Y-15073698D01*
X12688507Y-15073698D02*
X12678983Y-15083222D01*
X12678983Y-15083222D02*
X12669460Y-15102269D01*
X12907555Y-14987984D02*
X12926602Y-14987984D01*
X12926602Y-14987984D02*
X12945650Y-14997508D01*
X12945650Y-14997508D02*
X12955174Y-15007031D01*
X12955174Y-15007031D02*
X12964698Y-15026079D01*
X12964698Y-15026079D02*
X12974221Y-15064174D01*
X12974221Y-15064174D02*
X12974221Y-15111793D01*
X12974221Y-15111793D02*
X12964698Y-15149888D01*
X12964698Y-15149888D02*
X12955174Y-15168936D01*
X12955174Y-15168936D02*
X12945650Y-15178460D01*
X12945650Y-15178460D02*
X12926602Y-15187984D01*
X12926602Y-15187984D02*
X12907555Y-15187984D01*
X12907555Y-15187984D02*
X12888507Y-15178460D01*
X12888507Y-15178460D02*
X12878983Y-15168936D01*
X12878983Y-15168936D02*
X12869460Y-15149888D01*
X12869460Y-15149888D02*
X12859936Y-15111793D01*
X12859936Y-15111793D02*
X12859936Y-15064174D01*
X12859936Y-15064174D02*
X12869460Y-15026079D01*
X12869460Y-15026079D02*
X12878983Y-15007031D01*
X12878983Y-15007031D02*
X12888507Y-14997508D01*
X12888507Y-14997508D02*
X12907555Y-14987984D01*
X13050412Y-14987984D02*
X13050412Y-15026079D01*
X13126602Y-14987984D02*
X13126602Y-15026079D01*
X13421841Y-15264174D02*
X13412317Y-15254650D01*
X13412317Y-15254650D02*
X13393269Y-15226079D01*
X13393269Y-15226079D02*
X13383745Y-15207031D01*
X13383745Y-15207031D02*
X13374222Y-15178460D01*
X13374222Y-15178460D02*
X13364698Y-15130841D01*
X13364698Y-15130841D02*
X13364698Y-15092746D01*
X13364698Y-15092746D02*
X13374222Y-15045127D01*
X13374222Y-15045127D02*
X13383745Y-15016555D01*
X13383745Y-15016555D02*
X13393269Y-14997508D01*
X13393269Y-14997508D02*
X13412317Y-14968936D01*
X13412317Y-14968936D02*
X13421841Y-14959412D01*
X13583745Y-15054650D02*
X13583745Y-15187984D01*
X13536126Y-14978460D02*
X13488507Y-15121317D01*
X13488507Y-15121317D02*
X13612317Y-15121317D01*
X13840888Y-15187984D02*
X13840888Y-14987984D01*
X13926603Y-15187984D02*
X13926603Y-15083222D01*
X13926603Y-15083222D02*
X13917079Y-15064174D01*
X13917079Y-15064174D02*
X13898031Y-15054650D01*
X13898031Y-15054650D02*
X13869460Y-15054650D01*
X13869460Y-15054650D02*
X13850412Y-15064174D01*
X13850412Y-15064174D02*
X13840888Y-15073698D01*
X14050412Y-15187984D02*
X14031364Y-15178460D01*
X14031364Y-15178460D02*
X14021841Y-15168936D01*
X14021841Y-15168936D02*
X14012317Y-15149888D01*
X14012317Y-15149888D02*
X14012317Y-15092746D01*
X14012317Y-15092746D02*
X14021841Y-15073698D01*
X14021841Y-15073698D02*
X14031364Y-15064174D01*
X14031364Y-15064174D02*
X14050412Y-15054650D01*
X14050412Y-15054650D02*
X14078984Y-15054650D01*
X14078984Y-15054650D02*
X14098031Y-15064174D01*
X14098031Y-15064174D02*
X14107555Y-15073698D01*
X14107555Y-15073698D02*
X14117079Y-15092746D01*
X14117079Y-15092746D02*
X14117079Y-15149888D01*
X14117079Y-15149888D02*
X14107555Y-15168936D01*
X14107555Y-15168936D02*
X14098031Y-15178460D01*
X14098031Y-15178460D02*
X14078984Y-15187984D01*
X14078984Y-15187984D02*
X14050412Y-15187984D01*
X14231364Y-15187984D02*
X14212317Y-15178460D01*
X14212317Y-15178460D02*
X14202793Y-15159412D01*
X14202793Y-15159412D02*
X14202793Y-14987984D01*
X14383745Y-15178460D02*
X14364698Y-15187984D01*
X14364698Y-15187984D02*
X14326603Y-15187984D01*
X14326603Y-15187984D02*
X14307555Y-15178460D01*
X14307555Y-15178460D02*
X14298031Y-15159412D01*
X14298031Y-15159412D02*
X14298031Y-15083222D01*
X14298031Y-15083222D02*
X14307555Y-15064174D01*
X14307555Y-15064174D02*
X14326603Y-15054650D01*
X14326603Y-15054650D02*
X14364698Y-15054650D01*
X14364698Y-15054650D02*
X14383745Y-15064174D01*
X14383745Y-15064174D02*
X14393269Y-15083222D01*
X14393269Y-15083222D02*
X14393269Y-15102269D01*
X14393269Y-15102269D02*
X14298031Y-15121317D01*
X14469460Y-15178460D02*
X14488507Y-15187984D01*
X14488507Y-15187984D02*
X14526603Y-15187984D01*
X14526603Y-15187984D02*
X14545650Y-15178460D01*
X14545650Y-15178460D02*
X14555174Y-15159412D01*
X14555174Y-15159412D02*
X14555174Y-15149888D01*
X14555174Y-15149888D02*
X14545650Y-15130841D01*
X14545650Y-15130841D02*
X14526603Y-15121317D01*
X14526603Y-15121317D02*
X14498031Y-15121317D01*
X14498031Y-15121317D02*
X14478984Y-15111793D01*
X14478984Y-15111793D02*
X14469460Y-15092746D01*
X14469460Y-15092746D02*
X14469460Y-15083222D01*
X14469460Y-15083222D02*
X14478984Y-15064174D01*
X14478984Y-15064174D02*
X14498031Y-15054650D01*
X14498031Y-15054650D02*
X14526603Y-15054650D01*
X14526603Y-15054650D02*
X14545650Y-15064174D01*
X14621841Y-15264174D02*
X14631365Y-15254650D01*
X14631365Y-15254650D02*
X14650412Y-15226079D01*
X14650412Y-15226079D02*
X14659936Y-15207031D01*
X14659936Y-15207031D02*
X14669460Y-15178460D01*
X14669460Y-15178460D02*
X14678984Y-15130841D01*
X14678984Y-15130841D02*
X14678984Y-15092746D01*
X14678984Y-15092746D02*
X14669460Y-15045127D01*
X14669460Y-15045127D02*
X14659936Y-15016555D01*
X14659936Y-15016555D02*
X14650412Y-14997508D01*
X14650412Y-14997508D02*
X14631365Y-14968936D01*
X14631365Y-14968936D02*
X14621841Y-14959412D01*
M02*
