%TF.GenerationSoftware,KiCad,Pcbnew,10.0.3*%
%TF.CreationDate,2026-06-02T14:34:24-04:00*%
%TF.ProjectId,Esp32 Can+IMU,45737033-3220-4436-916e-2b494d552e6b,rev?*%
%TF.SameCoordinates,Original*%
%TF.FileFunction,Copper,L2,Bot*%
%TF.FilePolarity,Positive*%
%FSLAX46Y46*%
G04 Gerber Fmt 4.6, Leading zero omitted, Abs format (unit mm)*
G04 Created by KiCad (PCBNEW 10.0.3) date 2026-06-02 14:34:24*
%MOMM*%
%LPD*%
G01*
G04 APERTURE LIST*
G04 Aperture macros list*
%AMRoundRect*
0 Rectangle with rounded corners*
0 $1 Rounding radius*
0 $2 $3 $4 $5 $6 $7 $8 $9 X,Y pos of 4 corners*
0 Add a 4 corners polygon primitive as box body*
4,1,4,$2,$3,$4,$5,$6,$7,$8,$9,$2,$3,0*
0 Add four circle primitives for the rounded corners*
1,1,$1+$1,$2,$3*
1,1,$1+$1,$4,$5*
1,1,$1+$1,$6,$7*
1,1,$1+$1,$8,$9*
0 Add four rect primitives between the rounded corners*
20,1,$1+$1,$2,$3,$4,$5,0*
20,1,$1+$1,$4,$5,$6,$7,0*
20,1,$1+$1,$6,$7,$8,$9,0*
20,1,$1+$1,$8,$9,$2,$3,0*%
%AMFreePoly0*
4,1,23,0.500000,-0.750000,0.000000,-0.750000,0.000000,-0.745722,-0.065263,-0.745722,-0.191342,-0.711940,-0.304381,-0.646677,-0.396677,-0.554381,-0.461940,-0.441342,-0.495722,-0.315263,-0.495722,-0.250000,-0.500000,-0.250000,-0.500000,0.250000,-0.495722,0.250000,-0.495722,0.315263,-0.461940,0.441342,-0.396677,0.554381,-0.304381,0.646677,-0.191342,0.711940,-0.065263,0.745722,0.000000,0.745722,
0.000000,0.750000,0.500000,0.750000,0.500000,-0.750000,0.500000,-0.750000,$1*%
%AMFreePoly1*
4,1,23,0.000000,0.745722,0.065263,0.745722,0.191342,0.711940,0.304381,0.646677,0.396677,0.554381,0.461940,0.441342,0.495722,0.315263,0.495722,0.250000,0.500000,0.250000,0.500000,-0.250000,0.495722,-0.250000,0.495722,-0.315263,0.461940,-0.441342,0.396677,-0.554381,0.304381,-0.646677,0.191342,-0.711940,0.065263,-0.745722,0.000000,-0.745722,0.000000,-0.750000,-0.500000,-0.750000,
-0.500000,0.750000,0.000000,0.750000,0.000000,0.745722,0.000000,0.745722,$1*%
G04 Aperture macros list end*
%TA.AperFunction,ComponentPad*%
%ADD10R,1.000000X1.000000*%
%TD*%
%TA.AperFunction,ComponentPad*%
%ADD11R,1.700000X1.700000*%
%TD*%
%TA.AperFunction,ComponentPad*%
%ADD12C,1.700000*%
%TD*%
%TA.AperFunction,ComponentPad*%
%ADD13RoundRect,0.750000X0.750000X-0.750000X0.750000X0.750000X-0.750000X0.750000X-0.750000X-0.750000X0*%
%TD*%
%TA.AperFunction,ComponentPad*%
%ADD14C,3.000000*%
%TD*%
%TA.AperFunction,ComponentPad*%
%ADD15C,5.700000*%
%TD*%
%TA.AperFunction,HeatsinkPad*%
%ADD16C,0.600000*%
%TD*%
%TA.AperFunction,ComponentPad*%
%ADD17C,1.100000*%
%TD*%
%TA.AperFunction,SMDPad,CuDef*%
%ADD18FreePoly0,0.000000*%
%TD*%
%TA.AperFunction,SMDPad,CuDef*%
%ADD19FreePoly1,0.000000*%
%TD*%
%TA.AperFunction,SMDPad,CuDef*%
%ADD20FreePoly0,180.000000*%
%TD*%
%TA.AperFunction,SMDPad,CuDef*%
%ADD21FreePoly1,180.000000*%
%TD*%
%TA.AperFunction,ViaPad*%
%ADD22C,0.600000*%
%TD*%
%TA.AperFunction,ViaPad*%
%ADD23C,1.200000*%
%TD*%
%TA.AperFunction,Conductor*%
%ADD24C,1.000000*%
%TD*%
%TA.AperFunction,Conductor*%
%ADD25C,0.400000*%
%TD*%
%TA.AperFunction,Conductor*%
%ADD26C,0.600000*%
%TD*%
%TA.AperFunction,Conductor*%
%ADD27C,0.200000*%
%TD*%
%TA.AperFunction,Conductor*%
%ADD28C,4.500000*%
%TD*%
%TA.AperFunction,Conductor*%
%ADD29C,3.000000*%
%TD*%
G04 APERTURE END LIST*
D10*
%TO.P,TP_3v3,1,1_1*%
%TO.N,+3.3V*%
X150218900Y-70310550D03*
%TD*%
D11*
%TO.P,J7,1*%
%TO.N,Net-(J7-Pad1)*%
X152500000Y-101910550D03*
D12*
%TO.P,J7,2*%
%TO.N,+5V*%
X152500000Y-99370550D03*
%TO.P,J7,3*%
%TO.N,GND*%
X152500000Y-96830550D03*
%TD*%
D10*
%TO.P,TP_INT2,1,1_1*%
%TO.N,INT2*%
X123218900Y-116543850D03*
%TD*%
D13*
%TO.P,XT30M1,1,Pin_1_1*%
%TO.N,GND*%
X143890000Y-69120000D03*
D14*
%TO.P,XT30M1,2,Pin_2_2*%
%TO.N,Net-(D_TVS1-A)*%
X143890000Y-64120000D03*
%TD*%
D11*
%TO.P,J6,1*%
%TO.N,Net-(JP4-B)*%
X130918900Y-101870550D03*
D12*
%TO.P,J6,2*%
%TO.N,+5V*%
X130918900Y-99330550D03*
%TO.P,J6,3*%
%TO.N,GND*%
X130918900Y-96790550D03*
%TD*%
D11*
%TO.P,J5,1*%
%TO.N,Net-(JP3-B)*%
X134918900Y-101870550D03*
D12*
%TO.P,J5,2*%
%TO.N,+5V*%
X134918900Y-99330550D03*
%TO.P,J5,3*%
%TO.N,GND*%
X134918900Y-96790550D03*
%TD*%
D13*
%TO.P,XT30F1,1,Pin_1_1*%
%TO.N,GND*%
X131400000Y-69100000D03*
D14*
%TO.P,XT30F1,2,Pin_2_2*%
%TO.N,Net-(D_TVS1-A)*%
X131400000Y-64100000D03*
%TD*%
D10*
%TO.P,CAND1,1,1_1*%
%TO.N,CAN_D*%
X119618900Y-79510550D03*
%TD*%
D11*
%TO.P,J8,1*%
%TO.N,Net-(J8-Pad1)*%
X148500000Y-101910550D03*
D12*
%TO.P,J8,2*%
%TO.N,+5V*%
X148500000Y-99370550D03*
%TO.P,J8,3*%
%TO.N,GND*%
X148500000Y-96830550D03*
%TD*%
D15*
%TO.P,H4,1,1_1*%
%TO.N,GND*%
X102000000Y-64000000D03*
%TD*%
D16*
%TO.P,U1,41,GND_41*%
%TO.N,GND*%
X113618900Y-94610550D03*
X115018900Y-94610550D03*
X112918900Y-93910550D03*
X114318900Y-93910550D03*
X115718900Y-93910550D03*
X113618900Y-93210550D03*
X115018900Y-93210550D03*
X112918900Y-92510550D03*
X114318900Y-92510550D03*
X115718900Y-92510550D03*
X113618900Y-91810550D03*
X115018900Y-91810550D03*
%TD*%
D11*
%TO.P,J4,1*%
%TO.N,Net-(JP2-B)*%
X138918900Y-101870550D03*
D12*
%TO.P,J4,2*%
%TO.N,+5V*%
X138918900Y-99330550D03*
%TO.P,J4,3*%
%TO.N,GND*%
X138918900Y-96790550D03*
%TD*%
D10*
%TO.P,CANR1,1,1_1*%
%TO.N,CAN_R*%
X119618900Y-77500000D03*
%TD*%
D15*
%TO.P,H2,1,1_1*%
%TO.N,GND*%
X102000000Y-119000000D03*
%TD*%
D10*
%TO.P,TP_GND1,1,1_1*%
%TO.N,GND*%
X135018900Y-82310550D03*
%TD*%
%TO.P,TP_INT1,1,1_1*%
%TO.N,INT1*%
X123218900Y-114543850D03*
%TD*%
D15*
%TO.P,H3,1,1_1*%
%TO.N,GND*%
X152000000Y-64000000D03*
%TD*%
D11*
%TO.P,J9,1*%
%TO.N,Net-(J9-Pad1)*%
X144500000Y-101870550D03*
D12*
%TO.P,J9,2*%
%TO.N,+5V*%
X144500000Y-99330550D03*
%TO.P,J9,3*%
%TO.N,GND*%
X144500000Y-96790550D03*
%TD*%
D10*
%TO.P,TP_SCL1,1,1_1*%
%TO.N,SCL*%
X130618900Y-116743850D03*
%TD*%
D13*
%TO.P,XT30F2,1,Pin_1_1*%
%TO.N,GND*%
X137648900Y-69110550D03*
D14*
%TO.P,XT30F2,2,Pin_2_2*%
%TO.N,Net-(D_TVS1-A)*%
X137648900Y-64110550D03*
%TD*%
D17*
%TO.P,J12,SH,SHIELD_SH*%
%TO.N,GND*%
X108930000Y-104930000D03*
X108930000Y-109230000D03*
X113730000Y-104930000D03*
X113730000Y-109230000D03*
%TD*%
D10*
%TO.P,TP_5v1,1,1_1*%
%TO.N,+5V*%
X144418900Y-73910550D03*
%TD*%
%TO.P,TP_CS1,1,1_1*%
%TO.N,CS*%
X130618900Y-114743850D03*
%TD*%
%TO.P,3v3/2,1,1_1*%
%TO.N,unconnected-(3v3/2-Pad1)*%
X119418900Y-71110550D03*
%TD*%
D15*
%TO.P,H1,1,1_1*%
%TO.N,GND*%
X152000000Y-119000000D03*
%TD*%
D10*
%TO.P,TP_SDA1,1,1_1*%
%TO.N,SDA*%
X132818900Y-116743850D03*
%TD*%
D18*
%TO.P,JP4,1,A_1*%
%TO.N,ADC_3*%
X130118900Y-106020550D03*
D19*
%TO.P,JP4,2,B_2*%
%TO.N,Net-(JP4-B)*%
X131418900Y-106020550D03*
%TD*%
D18*
%TO.P,JP2,1,A_1*%
%TO.N,ADC_1*%
X138300000Y-106000000D03*
D19*
%TO.P,JP2,2,B_2*%
%TO.N,Net-(JP2-B)*%
X139600000Y-106000000D03*
%TD*%
D20*
%TO.P,CAN_TERM1,1,A_1*%
%TO.N,Net-(CAN_TERM1-A)*%
X116118900Y-72335550D03*
D21*
%TO.P,CAN_TERM1,2,B_2*%
%TO.N,CANH*%
X114818900Y-72335550D03*
%TD*%
D18*
%TO.P,JP3,1,A_1*%
%TO.N,AD2_1*%
X134268900Y-106020550D03*
D19*
%TO.P,JP3,2,B_2*%
%TO.N,Net-(JP3-B)*%
X135568900Y-106020550D03*
%TD*%
D22*
%TO.N,+3.3V*%
X110618900Y-73710550D03*
X114929050Y-77970950D03*
X137218900Y-109110550D03*
X108018900Y-99310550D03*
X136618900Y-113910550D03*
X124723900Y-109110550D03*
X108675000Y-102905000D03*
X108338900Y-98800421D03*
X125650000Y-119800000D03*
%TO.N,SCL0*%
X121753214Y-96976236D03*
X121800000Y-103060000D03*
%TO.N,+5V*%
X109500000Y-115500000D03*
X112500000Y-113140000D03*
D23*
X123818900Y-75510550D03*
D22*
X142000000Y-75710550D03*
X111000000Y-84500000D03*
X117480000Y-113210000D03*
X140000000Y-75710550D03*
X115897650Y-84490000D03*
%TO.N,GND*%
X117040000Y-69590000D03*
X123000000Y-61500000D03*
X111550000Y-116870000D03*
X108418900Y-71510550D03*
X137950000Y-89750000D03*
X112500000Y-61500000D03*
X140700000Y-81600000D03*
X110900000Y-102100000D03*
X115300000Y-87100000D03*
X123700000Y-71000000D03*
X109650000Y-111750000D03*
X118500000Y-61500000D03*
X121200000Y-71900000D03*
X106075000Y-95225000D03*
X115500000Y-61500000D03*
X108000000Y-61500000D03*
X106784175Y-87275825D03*
X137950000Y-87750000D03*
X110300000Y-97400000D03*
X115400000Y-97400000D03*
X139450000Y-89750000D03*
X150600000Y-84600000D03*
X146400000Y-77500000D03*
X126700000Y-62325000D03*
X127300000Y-117100000D03*
X125500000Y-70000000D03*
X109343900Y-78310550D03*
X139450000Y-87750000D03*
X126600000Y-117100000D03*
X109900000Y-84700000D03*
X120390000Y-97110000D03*
X121850000Y-75275000D03*
X137950000Y-88750000D03*
X128000000Y-91700000D03*
X125450000Y-72150000D03*
X121900000Y-71000000D03*
X106950000Y-114000000D03*
X112818900Y-78589300D03*
X122900000Y-86800000D03*
X108418900Y-73910550D03*
X118718900Y-64535550D03*
X128200000Y-118900000D03*
X113018900Y-69660000D03*
X127037800Y-118850000D03*
X114900000Y-112200000D03*
X133700000Y-76898050D03*
X113430000Y-67240000D03*
X124750000Y-118700000D03*
X122870000Y-84590000D03*
X139450000Y-88750000D03*
X106750000Y-105100000D03*
X121850000Y-77650000D03*
X132900000Y-85700000D03*
X121750000Y-108950000D03*
X119300000Y-75150000D03*
X138200000Y-113700000D03*
X120250000Y-92500000D03*
X120950000Y-108100000D03*
X151800000Y-76300000D03*
X124900000Y-81525000D03*
X148618900Y-73660550D03*
X106500000Y-78500000D03*
X147600000Y-85600000D03*
X121100000Y-114400000D03*
X131600000Y-89600000D03*
%TO.N,SDO{slash}TA0*%
X126912580Y-114144151D03*
X120418937Y-88672109D03*
%TO.N,INT1*%
X126118899Y-114043797D03*
X119619150Y-88720850D03*
%TO.N,INT2*%
X124655735Y-116707014D03*
X119808464Y-90041536D03*
X129018900Y-117343850D03*
%TO.N,CS*%
X122618900Y-87910550D03*
X128638225Y-114354030D03*
%TO.N,SCL*%
X127318901Y-113263951D03*
X121118900Y-86410550D03*
%TO.N,SDA*%
X126497339Y-115279626D03*
X121838900Y-85710550D03*
%TO.N,CANH*%
X110818900Y-67535550D03*
X121343900Y-67535550D03*
X114618900Y-70710550D03*
%TO.N,ADC_1*%
X138118900Y-104410550D03*
X122400000Y-106950000D03*
X120218900Y-94310550D03*
%TO.N,Net-(JP2-B)*%
X139438900Y-104310550D03*
%TO.N,ADC_3*%
X130218900Y-104510550D03*
%TO.N,Net-(JP4-B)*%
X131328900Y-104110550D03*
%TO.N,Net-(J12-CC1)*%
X110279999Y-103829999D03*
X114990000Y-111220000D03*
%TO.N,Net-(D8-K)*%
X137000000Y-84840550D03*
X141341500Y-84840550D03*
%TO.N,Net-(JP3-B)*%
X135408900Y-104310550D03*
%TO.N,CAN_D*%
X116860000Y-97500000D03*
%TO.N,Net-(U1-EN)*%
X108938900Y-94020000D03*
X111543900Y-78900000D03*
%TO.N,PWM_1*%
X110410000Y-99300000D03*
X116650000Y-111510550D03*
%TO.N,PWM_2*%
X116618900Y-110710550D03*
X111680000Y-98910000D03*
%TO.N,PWM_3*%
X112880000Y-98900000D03*
X116818900Y-109910550D03*
%TO.N,Net-(U1-IO15)*%
X115060000Y-105790000D03*
X115050000Y-103300000D03*
%TO.N,CAN_R*%
X117710000Y-97450000D03*
%TO.N,USB_D-*%
X112393107Y-114318367D03*
X119218900Y-99110550D03*
%TO.N,USB_D+*%
X112460000Y-115110550D03*
X119850000Y-98250000D03*
%TO.N,AD2_1*%
X134018900Y-104310550D03*
X121018900Y-93910550D03*
X123423959Y-106799658D03*
%TO.N,Net-(J12-D--PadA7)*%
X111550000Y-110360000D03*
X109870000Y-110350000D03*
X111010000Y-104280000D03*
%TO.N,Net-(CAN_TERM1-A)*%
X117000000Y-72100000D03*
%TD*%
%TO.N,+3.3V*%
D24*
X150218900Y-70310550D02*
X148229450Y-72300000D01*
D25*
X108287142Y-99310550D02*
X108018900Y-99310550D01*
D26*
X150218900Y-81406100D02*
X145925000Y-85700000D01*
D24*
X124523064Y-73810550D02*
X122523064Y-73810550D01*
X122162514Y-73450000D02*
X118679450Y-73450000D01*
D27*
X124750000Y-119800000D02*
X125650000Y-119800000D01*
D25*
X108700000Y-102880000D02*
X108700000Y-99723408D01*
D24*
X108390000Y-96340000D02*
X109938900Y-94791100D01*
D26*
X114897650Y-77939550D02*
X114929050Y-77970950D01*
D25*
X108675000Y-102905000D02*
X108700000Y-102880000D01*
D26*
X141050000Y-95875000D02*
X141050000Y-108300000D01*
D24*
X148229450Y-72300000D02*
X143450000Y-72300000D01*
X125223064Y-74510550D02*
X124523064Y-73810550D01*
X142121844Y-74510550D02*
X136652226Y-74510550D01*
D26*
X110668650Y-73710550D02*
X110618900Y-73710550D01*
D27*
X124060735Y-109449815D02*
X124060735Y-119110735D01*
D24*
X136652226Y-74510550D02*
X135639726Y-73498050D01*
X143450000Y-72300000D02*
X142121844Y-73628156D01*
D27*
X124400000Y-109110550D02*
X124060735Y-109449815D01*
D24*
X113000001Y-87329449D02*
X113000000Y-80500000D01*
D26*
X145925000Y-91000000D02*
X141050000Y-95875000D01*
D24*
X109938900Y-90390550D02*
X113000001Y-87329449D01*
D26*
X141050000Y-108300000D02*
X140239450Y-109110550D01*
X136618900Y-109710550D02*
X137218900Y-109110550D01*
D24*
X113000000Y-80500000D02*
X114897650Y-78602350D01*
X109938900Y-94791100D02*
X109938900Y-90390550D01*
D27*
X124060735Y-119110735D02*
X124750000Y-119800000D01*
D24*
X118679450Y-73450000D02*
X114897650Y-77231800D01*
D27*
X124723900Y-109110550D02*
X124400000Y-109110550D01*
D24*
X108338900Y-98324764D02*
X108390000Y-98273664D01*
D26*
X150218900Y-70310550D02*
X150218900Y-81406100D01*
D24*
X131810574Y-74510550D02*
X125223064Y-74510550D01*
X108018900Y-99120421D02*
X108338900Y-98800421D01*
X135639726Y-73498050D02*
X132823074Y-73498050D01*
X114897650Y-78602350D02*
X114897650Y-77939550D01*
X132823074Y-73498050D02*
X131810574Y-74510550D01*
D25*
X108700000Y-99723408D02*
X108287142Y-99310550D01*
D26*
X140239450Y-109110550D02*
X137218900Y-109110550D01*
D24*
X122523064Y-73810550D02*
X122162514Y-73450000D01*
D26*
X114929050Y-77970950D02*
X110668650Y-73710550D01*
D24*
X108018900Y-99310550D02*
X108018900Y-99120421D01*
X142121844Y-73628156D02*
X142121844Y-74510550D01*
X108390000Y-98273664D02*
X108390000Y-96340000D01*
X114897650Y-77231800D02*
X114897650Y-77939550D01*
D26*
X145925000Y-85700000D02*
X145925000Y-91000000D01*
X136618900Y-113910550D02*
X136618900Y-109710550D01*
D24*
X108338900Y-98800421D02*
X108338900Y-98324764D01*
%TO.N,SCL0*%
D26*
X121800000Y-103060000D02*
X121800000Y-97023022D01*
X121800000Y-97023022D02*
X121753214Y-96976236D01*
%TO.N,+5V*%
D24*
X144418900Y-73910550D02*
X142618900Y-75710550D01*
D25*
X122829450Y-76500000D02*
X123818900Y-75510550D01*
D26*
X106994861Y-111375139D02*
X106994861Y-110905139D01*
D24*
X124018900Y-75710550D02*
X123818900Y-75510550D01*
D26*
X107018900Y-99724764D02*
X107604686Y-100310550D01*
D25*
X113410000Y-113140000D02*
X117410000Y-113140000D01*
X116160000Y-81979500D02*
X118500000Y-79639500D01*
D26*
X106994861Y-111494861D02*
X108640000Y-113140000D01*
X108460000Y-106715492D02*
X108460000Y-107444508D01*
X107880000Y-107960000D02*
X107880000Y-108248351D01*
D24*
X132307630Y-75710550D02*
X124018900Y-75710550D01*
D25*
X117410000Y-113140000D02*
X117480000Y-113210000D01*
D26*
X108138900Y-89590550D02*
X111000000Y-86729450D01*
D24*
X135142670Y-74698050D02*
X133320130Y-74698050D01*
X140000000Y-75710550D02*
X136155170Y-75710550D01*
D26*
X112500000Y-113140000D02*
X113410000Y-113140000D01*
D25*
X118818900Y-76500000D02*
X122829450Y-76500000D01*
D26*
X107880000Y-106200000D02*
X107944508Y-106200000D01*
X107370000Y-95120000D02*
X107370000Y-97879450D01*
D24*
X130918900Y-99330550D02*
X129368900Y-97780550D01*
X142618900Y-75710550D02*
X142000000Y-75710550D01*
X129368900Y-81060550D02*
X123818900Y-75510550D01*
D26*
X106994861Y-109133490D02*
X106994861Y-111375139D01*
X111000000Y-114000000D02*
X109500000Y-115500000D01*
X108138900Y-89590550D02*
X108138900Y-94288900D01*
D25*
X118500000Y-76818900D02*
X118818900Y-76500000D01*
D26*
X111000000Y-113140000D02*
X111000000Y-114000000D01*
X107018899Y-98706208D02*
X107018900Y-99724764D01*
X111000000Y-113140000D02*
X112500000Y-113140000D01*
X107944508Y-106200000D02*
X108460000Y-106715492D01*
X107370000Y-97879450D02*
X107338899Y-97910551D01*
X108640000Y-113140000D02*
X111000000Y-113140000D01*
X108460000Y-107444508D02*
X107944508Y-107960000D01*
X107880000Y-100310550D02*
X107880000Y-106200000D01*
D24*
X129368900Y-97780550D02*
X129368900Y-81060550D01*
X142000000Y-75710550D02*
X140000000Y-75710550D01*
D26*
X107338900Y-98386207D02*
X107018899Y-98706208D01*
X107338899Y-97910551D02*
X107338900Y-98386207D01*
X106994861Y-110905139D02*
X106994861Y-111494861D01*
X107944508Y-107960000D02*
X107880000Y-107960000D01*
X107880000Y-108248351D02*
X106994861Y-109133490D01*
D25*
X116160000Y-84227650D02*
X116160000Y-81979500D01*
D26*
X108138900Y-94288900D02*
X108170000Y-94320000D01*
D25*
X115897650Y-84490000D02*
X116160000Y-84227650D01*
D26*
X107604686Y-100310550D02*
X107880000Y-100310550D01*
D24*
X136155170Y-75710550D02*
X135142670Y-74698050D01*
D26*
X108170000Y-94320000D02*
X107370000Y-95120000D01*
X111000000Y-84500000D02*
X111000000Y-86729450D01*
D25*
X118500000Y-79639500D02*
X118500000Y-76818900D01*
D24*
X133320130Y-74698050D02*
X132307630Y-75710550D01*
%TO.N,GND*%
D25*
X108930000Y-104930000D02*
X109480000Y-104380000D01*
D26*
X114460000Y-109230000D02*
X113730000Y-109230000D01*
X115785000Y-110555000D02*
X114460000Y-109230000D01*
D25*
X109480000Y-103520000D02*
X110900000Y-102100000D01*
D26*
X114900000Y-112200000D02*
X115134300Y-112200000D01*
X115134300Y-112200000D02*
X115785000Y-111549300D01*
X115785000Y-111549300D02*
X115785000Y-110555000D01*
D25*
X109480000Y-104380000D02*
X109480000Y-103520000D01*
%TO.N,SDO{slash}TA0*%
X126618900Y-95013494D02*
X126618900Y-113553848D01*
X120418937Y-88813531D02*
X126618900Y-95013494D01*
X126818899Y-114050470D02*
X126912580Y-114144151D01*
X126818899Y-113753847D02*
X126818899Y-114050470D01*
X126618900Y-113553848D02*
X126818899Y-113753847D01*
X120418937Y-88672109D02*
X120418937Y-88813531D01*
%TO.N,INT1*%
X126018900Y-95262022D02*
X126018900Y-113943798D01*
X126018900Y-113943798D02*
X126118899Y-114043797D01*
X119619150Y-88720850D02*
X119619150Y-88862272D01*
X119619150Y-88862272D02*
X126018900Y-95262022D01*
%TO.N,INT2*%
D27*
X126467677Y-115950000D02*
X126656527Y-116138850D01*
D25*
X125418900Y-95510550D02*
X119949886Y-90041536D01*
D27*
X127813900Y-116138850D02*
X129018900Y-117343850D01*
X124655735Y-116707014D02*
X125412750Y-115950000D01*
D25*
X124655735Y-116707014D02*
X125418900Y-115943850D01*
D27*
X126656527Y-116138850D02*
X127813900Y-116138850D01*
D25*
X119949886Y-90041536D02*
X119808464Y-90041536D01*
X125418900Y-115943850D02*
X125418900Y-95510550D01*
D27*
X125412750Y-115950000D02*
X126467677Y-115950000D01*
%TO.N,CS*%
D25*
X128638225Y-114224522D02*
X128918900Y-113943847D01*
X128718900Y-111523544D02*
X128718900Y-111475016D01*
X128638225Y-114354030D02*
X130229080Y-114354030D01*
X128638225Y-114354030D02*
X128638225Y-114224522D01*
X128418900Y-94267910D02*
X128218900Y-94067910D01*
X130229080Y-114354030D02*
X130618900Y-114743850D01*
X128918900Y-111723544D02*
X128718900Y-111523544D01*
X128218900Y-94067910D02*
X128218900Y-93510550D01*
X128218900Y-93510550D02*
X122618900Y-87910550D01*
X128918900Y-113943847D02*
X128918900Y-111723544D01*
X128418900Y-111175016D02*
X128418900Y-94267910D01*
X128718900Y-111475016D02*
X128418900Y-111175016D01*
%TO.N,SCL*%
X127218900Y-113110550D02*
X127218900Y-94764966D01*
X127318901Y-113210551D02*
X127218900Y-113110550D01*
X127218900Y-94764966D02*
X121118900Y-88664966D01*
X121118900Y-88664966D02*
X121118900Y-86410550D01*
X127318901Y-113263951D02*
X127318901Y-113210551D01*
%TO.N,SDA*%
X121818900Y-85730550D02*
X121818900Y-88516438D01*
X126861563Y-115643850D02*
X128018936Y-115643850D01*
X126767055Y-115279626D02*
X126497339Y-115279626D01*
X127818900Y-111423544D02*
X128018900Y-111623544D01*
X121818900Y-88516438D02*
X127818900Y-94516438D01*
X127818900Y-94516438D02*
X127818900Y-111423544D01*
X128018900Y-114027781D02*
X126767055Y-115279626D01*
X126497339Y-115279626D02*
X126861563Y-115643850D01*
X128018936Y-115643850D02*
X128025086Y-115650000D01*
X131725050Y-115650000D02*
X132818900Y-116743850D01*
X121838900Y-85710550D02*
X121818900Y-85730550D01*
X128018900Y-111623544D02*
X128018900Y-114027781D01*
X128025086Y-115650000D02*
X131725050Y-115650000D01*
%TO.N,CANH*%
D26*
X121343900Y-68385550D02*
X121331400Y-68398050D01*
X121343900Y-67535550D02*
X121343900Y-68385550D01*
X110818900Y-68335550D02*
X110818900Y-67535550D01*
X114218900Y-68398050D02*
X110881400Y-68398050D01*
X114818900Y-70910550D02*
X114618900Y-70710550D01*
X114618900Y-68798050D02*
X114218900Y-68398050D01*
X114818900Y-72335550D02*
X114818900Y-70910550D01*
X121331400Y-68398050D02*
X114218900Y-68398050D01*
X110881400Y-68398050D02*
X110818900Y-68335550D01*
X114618900Y-70710550D02*
X114618900Y-68798050D01*
%TO.N,ADC_1*%
X122550000Y-96641650D02*
X122550000Y-96648722D01*
X138218900Y-104510550D02*
X138118900Y-104410550D01*
X122595000Y-102220700D02*
X122600000Y-102225700D01*
X122550000Y-96648722D02*
X122595000Y-96693722D01*
X122600000Y-106750000D02*
X122400000Y-106950000D01*
X122595000Y-96693722D02*
X122595000Y-102220700D01*
X138218900Y-106310550D02*
X138218900Y-104510550D01*
X122600000Y-102225700D02*
X122600000Y-106750000D01*
X120218900Y-94310550D02*
X122550000Y-96641650D01*
%TO.N,Net-(JP2-B)*%
X139518900Y-106310550D02*
X139518900Y-104390550D01*
X139518900Y-104390550D02*
X139438900Y-104310550D01*
%TO.N,Net-(D_TVS1-A)*%
D28*
X131400000Y-64100000D02*
X143870000Y-64100000D01*
D29*
X143870000Y-64100000D02*
X143890000Y-64120000D01*
%TO.N,ADC_3*%
D26*
X130218900Y-104510550D02*
X130218900Y-105920550D01*
%TO.N,Net-(JP4-B)*%
X131328900Y-104110550D02*
X131328900Y-105930550D01*
%TO.N,Net-(J12-CC1)*%
D27*
X112060000Y-104764314D02*
X112410000Y-105114315D01*
X111277918Y-103680000D02*
X112060000Y-104462082D01*
X110279999Y-103829999D02*
X110429998Y-103680000D01*
X112410000Y-109112082D02*
X114517918Y-111220000D01*
X114517918Y-111220000D02*
X114990000Y-111220000D01*
X112410000Y-105114315D02*
X112410000Y-109112082D01*
X110429998Y-103680000D02*
X111277918Y-103680000D01*
X112060000Y-104462082D02*
X112060000Y-104764314D01*
%TO.N,Net-(D8-K)*%
D24*
X137000000Y-84840550D02*
X141341500Y-84840550D01*
%TO.N,Net-(JP3-B)*%
D26*
X135568900Y-106020550D02*
X135568900Y-104470550D01*
X135568900Y-104470550D02*
X135408900Y-104310550D01*
%TO.N,CAN_D*%
X116860000Y-97500000D02*
X116860000Y-83140000D01*
X116860000Y-83140000D02*
X119618900Y-80381100D01*
X119618900Y-80381100D02*
X119618900Y-79510550D01*
%TO.N,Net-(U1-EN)*%
X111600000Y-78956100D02*
X111600000Y-81891650D01*
X112000000Y-86915236D02*
X108938900Y-89976336D01*
X111543900Y-78900000D02*
X111600000Y-78956100D01*
X111600000Y-81891650D02*
X112000000Y-82291650D01*
X108938900Y-89976336D02*
X108938900Y-94020000D01*
X112000000Y-82291650D02*
X112000000Y-86915236D01*
%TO.N,PWM_1*%
D25*
X110410000Y-99300000D02*
X110490000Y-99220000D01*
X113869847Y-97500000D02*
X118460000Y-102090153D01*
X118460000Y-102090153D02*
X118460000Y-110338528D01*
X111780000Y-97500000D02*
X113869847Y-97500000D01*
X117287978Y-111510550D02*
X116650000Y-111510550D01*
X110490000Y-98790000D02*
X111780000Y-97500000D01*
X118460000Y-110338528D02*
X117287978Y-111510550D01*
X110490000Y-99220000D02*
X110490000Y-98790000D01*
%TO.N,PWM_2*%
X117239450Y-110710550D02*
X116618900Y-110710550D01*
X111680000Y-98910000D02*
X112490000Y-98100000D01*
X112490000Y-98100000D02*
X113621319Y-98100000D01*
X117860000Y-110090000D02*
X117239450Y-110710550D01*
X113621319Y-98100000D02*
X117860000Y-102338681D01*
X117860000Y-102338681D02*
X117860000Y-110090000D01*
%TO.N,PWM_3*%
X113431370Y-98900000D02*
X117160000Y-102628630D01*
X117160000Y-109569450D02*
X116818900Y-109910550D01*
X117160000Y-102628630D02*
X117160000Y-109569450D01*
X112880000Y-98900000D02*
X113431370Y-98900000D01*
%TO.N,Net-(U1-IO15)*%
D27*
X115050000Y-103520000D02*
X115100000Y-103570000D01*
X115050000Y-103300000D02*
X115050000Y-103520000D01*
X115100000Y-103570000D02*
X115100000Y-104700000D01*
X115060000Y-104740000D02*
X115060000Y-105790000D01*
X115100000Y-104700000D02*
X115060000Y-104740000D01*
%TO.N,CAN_R*%
D26*
X118000000Y-86198079D02*
X118000000Y-83379179D01*
X120818900Y-80560279D02*
X120818900Y-78700000D01*
X120818900Y-78700000D02*
X119618900Y-77500000D01*
X117710000Y-97450000D02*
X117710000Y-86488079D01*
X118000000Y-83379179D02*
X120818900Y-80560279D01*
X117710000Y-86488079D02*
X118000000Y-86198079D01*
%TO.N,USB_D-*%
D27*
X119218900Y-103528929D02*
X119218900Y-99110550D01*
X119553206Y-106527675D02*
X119553206Y-106261981D01*
X119101749Y-107894828D02*
X119386053Y-107894828D01*
X119101749Y-106094828D02*
X119386053Y-106094828D01*
X119553206Y-107727675D02*
X119553206Y-107461981D01*
X119550698Y-104128929D02*
X119550698Y-103860727D01*
X119218900Y-113481100D02*
X119218900Y-110469828D01*
X119101749Y-109094828D02*
X119386053Y-109094828D01*
X119553206Y-105327675D02*
X119553206Y-105061981D01*
X119101749Y-105494828D02*
X119386053Y-105494828D01*
X118984599Y-107177678D02*
X118984599Y-106811978D01*
X119101749Y-106694828D02*
X119386053Y-106694828D01*
X118984599Y-105977678D02*
X118984599Y-105611978D01*
X119553206Y-108927675D02*
X119553206Y-108661981D01*
X112393107Y-114318367D02*
X118381633Y-114318367D01*
X118984599Y-109577678D02*
X118984599Y-109211978D01*
X119101749Y-104294828D02*
X119384799Y-104294828D01*
X119101749Y-107294828D02*
X119386053Y-107294828D01*
X119550678Y-110138050D02*
X119550678Y-109860717D01*
X118984599Y-104777678D02*
X118984599Y-104411978D01*
X119101749Y-109694828D02*
X119384789Y-109694828D01*
X119101749Y-108494828D02*
X119386053Y-108494828D01*
X119101749Y-104894828D02*
X119386053Y-104894828D01*
X118984599Y-108377678D02*
X118984599Y-108011978D01*
X118381633Y-114318367D02*
X119218900Y-113481100D01*
X118984599Y-105611978D02*
G75*
G02*
X119101749Y-105494899I117101J-22D01*
G01*
X119384789Y-110303939D02*
G75*
G03*
X119550739Y-110138050I11J165939D01*
G01*
X119384799Y-104294828D02*
G75*
G03*
X119550728Y-104128929I1J165928D01*
G01*
X119553206Y-105061981D02*
G75*
G03*
X119386053Y-104894894I-167106J-19D01*
G01*
X119101749Y-107294828D02*
G75*
G02*
X118984572Y-107177678I-49J117128D01*
G01*
X119101749Y-108494828D02*
G75*
G02*
X118984572Y-108377678I-49J117128D01*
G01*
X119101749Y-106094828D02*
G75*
G02*
X118984572Y-105977678I-49J117128D01*
G01*
X119384799Y-103694828D02*
G75*
G02*
X119218872Y-103528929I1J165928D01*
G01*
X119386053Y-109094828D02*
G75*
G03*
X119553228Y-108927675I47J167128D01*
G01*
X119386053Y-106694828D02*
G75*
G03*
X119553228Y-106527675I47J167128D01*
G01*
X118984599Y-106811978D02*
G75*
G02*
X119101749Y-106694899I117101J-22D01*
G01*
X118984599Y-109211978D02*
G75*
G02*
X119101749Y-109094899I117101J-22D01*
G01*
X119218900Y-110469828D02*
G75*
G02*
X119384789Y-110303900I165900J28D01*
G01*
X119550698Y-103860727D02*
G75*
G03*
X119384799Y-103694802I-165898J27D01*
G01*
X119553206Y-107461981D02*
G75*
G03*
X119386053Y-107294894I-167106J-19D01*
G01*
X119101749Y-109694828D02*
G75*
G02*
X118984572Y-109577678I-49J117128D01*
G01*
X119553206Y-108661981D02*
G75*
G03*
X119386053Y-108494894I-167106J-19D01*
G01*
X119553206Y-106261981D02*
G75*
G03*
X119386053Y-106094894I-167106J-19D01*
G01*
X118984599Y-104411978D02*
G75*
G02*
X119101749Y-104294899I117101J-22D01*
G01*
X119550678Y-109860717D02*
G75*
G03*
X119384789Y-109694822I-165878J17D01*
G01*
X119101749Y-104894828D02*
G75*
G02*
X118984572Y-104777678I-49J117128D01*
G01*
X119386053Y-105494828D02*
G75*
G03*
X119553228Y-105327675I47J167128D01*
G01*
X119386053Y-107894828D02*
G75*
G03*
X119553228Y-107727675I47J167128D01*
G01*
X118984599Y-108011978D02*
G75*
G02*
X119101749Y-107894899I117101J-22D01*
G01*
%TO.N,USB_D+*%
X119850000Y-98250000D02*
X119850000Y-98479450D01*
X120000000Y-98629450D02*
X120000000Y-114070000D01*
X118959450Y-115110550D02*
X112460000Y-115110550D01*
X120000000Y-114070000D02*
X118959450Y-115110550D01*
X119850000Y-98479450D02*
X120000000Y-98629450D01*
%TO.N,AD2_1*%
D26*
X134018900Y-105770550D02*
X134268900Y-106020550D01*
X123423959Y-96315609D02*
X121018900Y-93910550D01*
X123423959Y-106799658D02*
X123423959Y-96315609D01*
X134018900Y-104310550D02*
X134018900Y-105770550D01*
%TO.N,Net-(J12-D--PadA7)*%
D25*
X111550000Y-110360000D02*
X109880000Y-110360000D01*
X109880000Y-110360000D02*
X109870000Y-110350000D01*
D27*
X112010000Y-105280000D02*
X111010000Y-104280000D01*
X111550000Y-110360000D02*
X112010000Y-109900000D01*
X112010000Y-109900000D02*
X112010000Y-105280000D01*
%TO.N,Net-(CAN_TERM1-A)*%
D26*
X116654450Y-72445550D02*
X116228900Y-72445550D01*
X117000000Y-72100000D02*
X116654450Y-72445550D01*
%TD*%
%TA.AperFunction,Conductor*%
%TO.N,GND*%
G36*
X153504418Y-60920816D02*
G01*
X153715945Y-60935944D01*
X153733450Y-60938461D01*
X153936334Y-60982596D01*
X153953299Y-60987577D01*
X154147844Y-61060138D01*
X154163927Y-61067484D01*
X154346160Y-61166990D01*
X154361043Y-61176555D01*
X154527253Y-61300978D01*
X154540624Y-61312564D01*
X154687435Y-61459375D01*
X154699021Y-61472746D01*
X154823444Y-61638956D01*
X154833009Y-61653839D01*
X154932513Y-61836067D01*
X154939863Y-61852161D01*
X155012420Y-62046695D01*
X155017404Y-62063670D01*
X155061537Y-62266546D01*
X155064055Y-62284058D01*
X155079184Y-62495581D01*
X155079500Y-62504427D01*
X155079500Y-120495572D01*
X155079184Y-120504418D01*
X155064055Y-120715941D01*
X155061537Y-120733453D01*
X155017404Y-120936329D01*
X155012420Y-120953304D01*
X154939863Y-121147838D01*
X154932513Y-121163932D01*
X154833009Y-121346160D01*
X154823444Y-121361043D01*
X154699021Y-121527253D01*
X154687435Y-121540624D01*
X154540624Y-121687435D01*
X154527253Y-121699021D01*
X154361043Y-121823444D01*
X154346160Y-121833009D01*
X154163932Y-121932513D01*
X154147838Y-121939863D01*
X153953304Y-122012420D01*
X153936329Y-122017404D01*
X153733453Y-122061537D01*
X153715941Y-122064055D01*
X153504418Y-122079184D01*
X153495572Y-122079500D01*
X100504428Y-122079500D01*
X100495582Y-122079184D01*
X100284058Y-122064055D01*
X100266546Y-122061537D01*
X100063670Y-122017404D01*
X100046695Y-122012420D01*
X99852161Y-121939863D01*
X99836067Y-121932513D01*
X99653839Y-121833009D01*
X99638956Y-121823444D01*
X99472746Y-121699021D01*
X99459375Y-121687435D01*
X99312564Y-121540624D01*
X99300978Y-121527253D01*
X99176555Y-121361043D01*
X99166990Y-121346160D01*
X99067486Y-121163932D01*
X99060138Y-121147844D01*
X98987577Y-120953299D01*
X98982595Y-120936329D01*
X98938462Y-120733453D01*
X98935944Y-120715941D01*
X98930971Y-120646413D01*
X98920816Y-120504418D01*
X98920500Y-120495572D01*
X98920500Y-117714427D01*
X98920816Y-117705581D01*
X98927163Y-117616837D01*
X98935944Y-117494052D01*
X98938462Y-117476546D01*
X98982597Y-117273662D01*
X98987576Y-117256703D01*
X99060140Y-117062150D01*
X99067481Y-117046077D01*
X99166994Y-116863831D01*
X99176550Y-116848962D01*
X99300983Y-116682739D01*
X99312557Y-116669382D01*
X99459382Y-116522557D01*
X99472739Y-116510983D01*
X99638962Y-116386550D01*
X99653831Y-116376994D01*
X99836077Y-116277481D01*
X99852150Y-116270140D01*
X100046703Y-116197576D01*
X100063662Y-116192597D01*
X100266551Y-116148461D01*
X100284052Y-116145944D01*
X100495582Y-116130816D01*
X100504428Y-116130500D01*
X103256416Y-116130500D01*
X103328180Y-116121786D01*
X103547105Y-116095204D01*
X103831422Y-116025126D01*
X104105220Y-115921288D01*
X104364505Y-115785205D01*
X104439412Y-115733501D01*
X104440862Y-115732500D01*
X104507217Y-115710617D01*
X104511302Y-115710550D01*
X105108900Y-115710550D01*
X105108900Y-115113692D01*
X105128585Y-115046653D01*
X105130850Y-115043252D01*
X105185201Y-114964511D01*
X105185201Y-114964510D01*
X105185205Y-114964505D01*
X105321288Y-114705220D01*
X105425126Y-114431422D01*
X105495204Y-114147105D01*
X105525166Y-113900339D01*
X105530500Y-113856415D01*
X105530500Y-109054643D01*
X106194361Y-109054643D01*
X106194361Y-111573707D01*
X106225122Y-111728350D01*
X106225125Y-111728362D01*
X106285463Y-111874033D01*
X106285470Y-111874046D01*
X106373071Y-112005149D01*
X106373074Y-112005153D01*
X108018211Y-113650289D01*
X108077922Y-113710000D01*
X108129712Y-113761790D01*
X108260814Y-113849390D01*
X108260827Y-113849397D01*
X108406498Y-113909735D01*
X108406503Y-113909737D01*
X108540380Y-113936367D01*
X108561153Y-113940499D01*
X108561156Y-113940500D01*
X108561158Y-113940500D01*
X109628060Y-113940500D01*
X109695099Y-113960185D01*
X109740854Y-114012989D01*
X109750798Y-114082147D01*
X109721773Y-114145703D01*
X109715741Y-114152181D01*
X108878213Y-114989707D01*
X108878210Y-114989711D01*
X108790609Y-115120814D01*
X108790602Y-115120827D01*
X108730264Y-115266498D01*
X108730261Y-115266510D01*
X108699500Y-115421153D01*
X108699500Y-115578846D01*
X108730261Y-115733489D01*
X108730264Y-115733501D01*
X108790602Y-115879172D01*
X108790609Y-115879185D01*
X108878210Y-116010288D01*
X108878213Y-116010292D01*
X108989707Y-116121786D01*
X108989711Y-116121789D01*
X109120814Y-116209390D01*
X109120827Y-116209397D01*
X109266498Y-116269735D01*
X109266503Y-116269737D01*
X109421153Y-116300499D01*
X109421156Y-116300500D01*
X109421158Y-116300500D01*
X109578844Y-116300500D01*
X109578845Y-116300499D01*
X109733497Y-116269737D01*
X109879179Y-116209394D01*
X110010289Y-116121789D01*
X111479505Y-114652571D01*
X111501368Y-114640633D01*
X111520929Y-114625204D01*
X111531503Y-114624178D01*
X111540828Y-114619087D01*
X111565675Y-114620864D01*
X111590472Y-114618459D01*
X111599922Y-114623313D01*
X111610519Y-114624071D01*
X111630462Y-114639000D01*
X111652622Y-114650383D01*
X111659977Y-114661095D01*
X111666453Y-114665943D01*
X111674481Y-114678094D01*
X111678602Y-114685208D01*
X111683713Y-114697546D01*
X111699033Y-114720475D01*
X111701026Y-114723914D01*
X111708409Y-114754151D01*
X111717711Y-114783859D01*
X111716815Y-114788580D01*
X111717599Y-114791789D01*
X111714502Y-114800779D01*
X111708293Y-114833523D01*
X111690281Y-114877011D01*
X111690262Y-114877056D01*
X111690260Y-114877061D01*
X111659500Y-115031703D01*
X111659500Y-115189396D01*
X111690261Y-115344039D01*
X111690264Y-115344051D01*
X111750602Y-115489722D01*
X111750609Y-115489735D01*
X111838210Y-115620838D01*
X111838213Y-115620842D01*
X111949707Y-115732336D01*
X111949711Y-115732339D01*
X112080814Y-115819940D01*
X112080827Y-115819947D01*
X112226498Y-115880285D01*
X112226503Y-115880287D01*
X112381153Y-115911049D01*
X112381156Y-115911050D01*
X112381158Y-115911050D01*
X112538844Y-115911050D01*
X112538845Y-115911049D01*
X112693497Y-115880287D01*
X112839179Y-115819944D01*
X112866754Y-115801519D01*
X112970875Y-115731948D01*
X113037553Y-115711070D01*
X113039766Y-115711050D01*
X118872781Y-115711050D01*
X118872797Y-115711051D01*
X118880393Y-115711051D01*
X119038504Y-115711051D01*
X119038507Y-115711051D01*
X119191235Y-115670127D01*
X119252431Y-115634795D01*
X119328166Y-115591070D01*
X119439970Y-115479266D01*
X119439970Y-115479264D01*
X119450174Y-115469061D01*
X119450178Y-115469056D01*
X120358506Y-114560728D01*
X120358511Y-114560724D01*
X120368714Y-114550520D01*
X120368716Y-114550520D01*
X120480520Y-114438716D01*
X120554804Y-114310052D01*
X120554805Y-114310051D01*
X120556740Y-114306697D01*
X120559577Y-114301785D01*
X120600501Y-114149057D01*
X120600501Y-113990943D01*
X120600501Y-113983348D01*
X120600500Y-113983330D01*
X120600500Y-98718508D01*
X120600500Y-98708509D01*
X120600501Y-98708507D01*
X120600501Y-98554597D01*
X120609941Y-98507146D01*
X120616729Y-98490758D01*
X120619737Y-98483497D01*
X120650500Y-98328842D01*
X120650500Y-98171158D01*
X120650500Y-98171155D01*
X120650499Y-98171153D01*
X120630734Y-98071789D01*
X120619737Y-98016503D01*
X120589758Y-97944126D01*
X120559397Y-97870827D01*
X120559390Y-97870814D01*
X120471789Y-97739711D01*
X120471786Y-97739707D01*
X120360292Y-97628213D01*
X120360288Y-97628210D01*
X120229185Y-97540609D01*
X120229172Y-97540602D01*
X120083501Y-97480264D01*
X120083489Y-97480261D01*
X119928845Y-97449500D01*
X119928842Y-97449500D01*
X119771158Y-97449500D01*
X119771155Y-97449500D01*
X119616510Y-97480261D01*
X119616498Y-97480264D01*
X119470827Y-97540602D01*
X119470814Y-97540609D01*
X119339711Y-97628210D01*
X119339707Y-97628213D01*
X119228213Y-97739707D01*
X119228210Y-97739711D01*
X119140609Y-97870814D01*
X119140602Y-97870827D01*
X119080264Y-98016498D01*
X119080261Y-98016510D01*
X119049500Y-98171153D01*
X119049500Y-98231409D01*
X119029815Y-98298448D01*
X118977011Y-98344203D01*
X118972952Y-98345970D01*
X118839727Y-98401152D01*
X118839714Y-98401159D01*
X118708611Y-98488760D01*
X118708607Y-98488763D01*
X118597113Y-98600257D01*
X118597110Y-98600261D01*
X118509509Y-98731364D01*
X118509502Y-98731377D01*
X118449164Y-98877048D01*
X118449161Y-98877060D01*
X118418400Y-99031703D01*
X118418400Y-99189396D01*
X118449161Y-99344039D01*
X118449164Y-99344051D01*
X118509502Y-99489722D01*
X118509509Y-99489735D01*
X118558116Y-99562479D01*
X118596147Y-99619397D01*
X118597502Y-99621424D01*
X118618380Y-99688101D01*
X118618400Y-99690315D01*
X118618400Y-100958533D01*
X118598715Y-101025572D01*
X118545911Y-101071327D01*
X118476753Y-101081271D01*
X118413197Y-101052246D01*
X118406719Y-101046214D01*
X114316392Y-96955887D01*
X114201654Y-96879222D01*
X114074179Y-96826421D01*
X114074169Y-96826418D01*
X113938843Y-96799500D01*
X113938841Y-96799500D01*
X113938840Y-96799500D01*
X111711007Y-96799500D01*
X111711003Y-96799500D01*
X111602590Y-96821065D01*
X111602589Y-96821065D01*
X111589131Y-96823742D01*
X111575673Y-96826419D01*
X111549268Y-96837356D01*
X111522866Y-96848292D01*
X111522864Y-96848293D01*
X111522863Y-96848292D01*
X111448191Y-96879223D01*
X111350165Y-96944723D01*
X111333460Y-96955884D01*
X111333454Y-96955889D01*
X109945888Y-98343453D01*
X109945887Y-98343454D01*
X109869222Y-98458192D01*
X109816421Y-98585667D01*
X109816418Y-98585679D01*
X109793166Y-98702576D01*
X109793165Y-98702580D01*
X109791639Y-98710256D01*
X109789500Y-98721007D01*
X109789500Y-98754541D01*
X109789193Y-98758893D01*
X109778473Y-98787718D01*
X109769815Y-98817205D01*
X109768602Y-98819057D01*
X109700609Y-98920814D01*
X109700602Y-98920827D01*
X109640264Y-99066498D01*
X109640261Y-99066510D01*
X109609500Y-99221153D01*
X109609500Y-99378846D01*
X109640261Y-99533489D01*
X109640264Y-99533501D01*
X109700602Y-99679172D01*
X109700609Y-99679185D01*
X109788210Y-99810288D01*
X109788213Y-99810292D01*
X109899707Y-99921786D01*
X109899711Y-99921789D01*
X110030814Y-100009390D01*
X110030827Y-100009397D01*
X110159818Y-100062826D01*
X110176503Y-100069737D01*
X110331153Y-100100499D01*
X110331156Y-100100500D01*
X110331158Y-100100500D01*
X110488844Y-100100500D01*
X110488845Y-100100499D01*
X110643497Y-100069737D01*
X110789179Y-100009394D01*
X110920289Y-99921789D01*
X111031789Y-99810289D01*
X111119394Y-99679179D01*
X111120293Y-99677006D01*
X111121067Y-99676046D01*
X111122264Y-99673808D01*
X111122688Y-99674034D01*
X111164128Y-99622602D01*
X111230421Y-99600531D01*
X111295169Y-99617051D01*
X111295451Y-99616524D01*
X111297596Y-99617670D01*
X111298122Y-99617805D01*
X111299657Y-99618772D01*
X111300822Y-99619395D01*
X111437592Y-99676046D01*
X111446503Y-99679737D01*
X111601153Y-99710499D01*
X111601156Y-99710500D01*
X111601158Y-99710500D01*
X111758844Y-99710500D01*
X111758845Y-99710499D01*
X111913497Y-99679737D01*
X112054278Y-99621424D01*
X112059172Y-99619397D01*
X112059172Y-99619396D01*
X112059179Y-99619394D01*
X112190289Y-99531789D01*
X112197314Y-99524763D01*
X112258630Y-99491276D01*
X112328322Y-99496254D01*
X112363979Y-99519168D01*
X112365001Y-99517924D01*
X112369711Y-99521789D01*
X112500814Y-99609390D01*
X112500827Y-99609397D01*
X112609512Y-99654415D01*
X112646503Y-99669737D01*
X112797262Y-99699725D01*
X112801153Y-99700499D01*
X112801156Y-99700500D01*
X112801158Y-99700500D01*
X112958844Y-99700500D01*
X112958845Y-99700499D01*
X113113497Y-99669737D01*
X113113516Y-99669728D01*
X113116745Y-99668750D01*
X113118543Y-99668733D01*
X113119472Y-99668549D01*
X113119507Y-99668724D01*
X113186612Y-99668117D01*
X113240438Y-99699725D01*
X116423181Y-102882468D01*
X116456666Y-102943791D01*
X116459500Y-102970149D01*
X116459500Y-109121660D01*
X116439815Y-109188699D01*
X116404391Y-109224762D01*
X116308611Y-109288760D01*
X116308607Y-109288763D01*
X116197113Y-109400257D01*
X116197110Y-109400261D01*
X116109509Y-109531364D01*
X116109502Y-109531377D01*
X116049164Y-109677048D01*
X116049161Y-109677060D01*
X116018400Y-109831703D01*
X116018400Y-109989396D01*
X116036922Y-110082513D01*
X116030695Y-110152105D01*
X116002991Y-110194381D01*
X115997108Y-110200264D01*
X115909509Y-110331364D01*
X115909502Y-110331377D01*
X115849164Y-110477048D01*
X115849161Y-110477060D01*
X115817211Y-110637682D01*
X115815564Y-110637354D01*
X115792418Y-110694676D01*
X115735384Y-110735035D01*
X115665583Y-110738152D01*
X115607495Y-110705416D01*
X115500292Y-110598213D01*
X115500288Y-110598210D01*
X115369185Y-110510609D01*
X115369172Y-110510602D01*
X115223501Y-110450264D01*
X115223489Y-110450261D01*
X115068845Y-110419500D01*
X115068842Y-110419500D01*
X114911158Y-110419500D01*
X114911155Y-110419500D01*
X114756511Y-110450260D01*
X114756506Y-110450262D01*
X114756504Y-110450262D01*
X114756503Y-110450263D01*
X114756501Y-110450264D01*
X114720554Y-110465153D01*
X114651085Y-110472619D01*
X114588606Y-110441342D01*
X114585424Y-110438271D01*
X113046819Y-108899666D01*
X113013334Y-108838343D01*
X113010500Y-108811985D01*
X113010500Y-107010017D01*
X114159500Y-107010017D01*
X114159500Y-107149982D01*
X114186802Y-107287237D01*
X114186805Y-107287249D01*
X114240361Y-107416546D01*
X114240363Y-107416550D01*
X114318114Y-107532912D01*
X114318120Y-107532920D01*
X114417079Y-107631879D01*
X114417087Y-107631885D01*
X114533449Y-107709636D01*
X114533453Y-107709638D01*
X114632104Y-107750500D01*
X114662755Y-107763196D01*
X114800017Y-107790499D01*
X114800021Y-107790500D01*
X114800022Y-107790500D01*
X115359979Y-107790500D01*
X115359980Y-107790499D01*
X115497245Y-107763196D01*
X115602162Y-107719738D01*
X115626546Y-107709638D01*
X115626550Y-107709636D01*
X115701748Y-107659390D01*
X115742917Y-107631882D01*
X115841882Y-107532917D01*
X115919637Y-107416548D01*
X115973196Y-107287245D01*
X116000500Y-107149978D01*
X116000500Y-107010022D01*
X115973196Y-106872755D01*
X115972535Y-106871158D01*
X115919638Y-106743453D01*
X115919636Y-106743449D01*
X115841885Y-106627087D01*
X115841879Y-106627079D01*
X115742920Y-106528120D01*
X115742916Y-106528117D01*
X115695330Y-106496321D01*
X115650525Y-106442709D01*
X115641818Y-106373384D01*
X115671972Y-106310356D01*
X115676525Y-106305552D01*
X115681789Y-106300289D01*
X115769394Y-106169179D01*
X115829737Y-106023497D01*
X115860500Y-105868842D01*
X115860500Y-105711158D01*
X115860500Y-105711155D01*
X115860499Y-105711153D01*
X115856631Y-105691708D01*
X115829737Y-105556503D01*
X115818235Y-105528735D01*
X115769397Y-105410827D01*
X115769390Y-105410814D01*
X115681398Y-105279125D01*
X115660520Y-105212447D01*
X115660500Y-105210234D01*
X115660500Y-104944663D01*
X115664729Y-104912556D01*
X115665133Y-104911050D01*
X115700501Y-104779057D01*
X115700501Y-104620942D01*
X115700501Y-104613347D01*
X115700500Y-104613329D01*
X115700500Y-103804935D01*
X115720185Y-103737896D01*
X115721366Y-103736090D01*
X115759394Y-103679179D01*
X115819737Y-103533497D01*
X115850500Y-103378842D01*
X115850500Y-103221158D01*
X115850500Y-103221155D01*
X115850499Y-103221153D01*
X115841174Y-103174272D01*
X115819737Y-103066503D01*
X115785498Y-102983842D01*
X115759397Y-102920827D01*
X115759390Y-102920814D01*
X115671789Y-102789711D01*
X115671786Y-102789707D01*
X115560292Y-102678213D01*
X115560288Y-102678210D01*
X115429185Y-102590609D01*
X115429172Y-102590602D01*
X115283501Y-102530264D01*
X115283489Y-102530261D01*
X115128845Y-102499500D01*
X115128842Y-102499500D01*
X114971158Y-102499500D01*
X114971155Y-102499500D01*
X114816510Y-102530261D01*
X114816498Y-102530264D01*
X114670827Y-102590602D01*
X114670814Y-102590609D01*
X114539711Y-102678210D01*
X114539707Y-102678213D01*
X114428213Y-102789707D01*
X114428210Y-102789711D01*
X114340609Y-102920814D01*
X114340602Y-102920827D01*
X114280264Y-103066498D01*
X114280261Y-103066510D01*
X114249500Y-103221153D01*
X114249500Y-103378846D01*
X114280261Y-103533489D01*
X114280264Y-103533501D01*
X114340602Y-103679172D01*
X114340609Y-103679185D01*
X114428210Y-103810288D01*
X114428213Y-103810292D01*
X114463180Y-103845258D01*
X114496666Y-103906580D01*
X114499500Y-103932940D01*
X114499500Y-104495332D01*
X114495275Y-104527425D01*
X114459499Y-104660943D01*
X114459499Y-104829046D01*
X114459500Y-104829059D01*
X114459500Y-105210234D01*
X114439815Y-105277273D01*
X114438602Y-105279125D01*
X114350609Y-105410814D01*
X114350602Y-105410827D01*
X114290264Y-105556498D01*
X114290261Y-105556510D01*
X114259500Y-105711153D01*
X114259500Y-105868846D01*
X114290261Y-106023489D01*
X114290264Y-106023501D01*
X114350602Y-106169172D01*
X114350609Y-106169185D01*
X114438210Y-106300288D01*
X114438213Y-106300292D01*
X114459481Y-106321560D01*
X114492966Y-106382883D01*
X114487982Y-106452575D01*
X114446110Y-106508508D01*
X114440691Y-106512343D01*
X114417083Y-106528117D01*
X114417079Y-106528120D01*
X114318120Y-106627079D01*
X114318114Y-106627087D01*
X114240363Y-106743449D01*
X114240361Y-106743453D01*
X114186805Y-106872750D01*
X114186802Y-106872762D01*
X114159500Y-107010017D01*
X113010500Y-107010017D01*
X113010500Y-105035260D01*
X113010500Y-105035258D01*
X112969577Y-104882531D01*
X112938698Y-104829046D01*
X112890524Y-104745605D01*
X112890518Y-104745597D01*
X112758250Y-104613329D01*
X112696819Y-104551897D01*
X112683457Y-104527425D01*
X112663334Y-104490573D01*
X112663334Y-104490567D01*
X112660501Y-104464216D01*
X112660501Y-104383027D01*
X112660501Y-104383025D01*
X112619577Y-104230297D01*
X112605538Y-104205982D01*
X112586362Y-104172767D01*
X112586362Y-104172766D01*
X112540524Y-104093372D01*
X112540521Y-104093368D01*
X112540520Y-104093366D01*
X112428716Y-103981562D01*
X112428715Y-103981561D01*
X112424385Y-103977231D01*
X112424374Y-103977221D01*
X111765508Y-103318355D01*
X111765506Y-103318352D01*
X111646635Y-103199481D01*
X111646634Y-103199480D01*
X111541605Y-103138842D01*
X111541604Y-103138841D01*
X111509701Y-103120422D01*
X111453799Y-103105443D01*
X111356975Y-103079499D01*
X111198861Y-103079499D01*
X111191265Y-103079499D01*
X111191249Y-103079500D01*
X110584605Y-103079500D01*
X110537154Y-103070061D01*
X110513496Y-103060262D01*
X110513488Y-103060260D01*
X110358844Y-103029499D01*
X110358841Y-103029499D01*
X110201157Y-103029499D01*
X110201154Y-103029499D01*
X110046509Y-103060260D01*
X110046497Y-103060263D01*
X109900826Y-103120601D01*
X109900813Y-103120608D01*
X109769710Y-103208209D01*
X109769706Y-103208212D01*
X109658212Y-103319706D01*
X109658209Y-103319710D01*
X109597146Y-103411096D01*
X109597065Y-103411218D01*
X109570605Y-103450820D01*
X109569625Y-103453184D01*
X109569622Y-103453190D01*
X109510263Y-103596497D01*
X109510260Y-103596509D01*
X109479499Y-103751152D01*
X109479499Y-103908845D01*
X109510260Y-104063488D01*
X109510263Y-104063500D01*
X109570601Y-104209171D01*
X109570608Y-104209184D01*
X109658209Y-104340287D01*
X109658212Y-104340291D01*
X109769706Y-104451785D01*
X109769710Y-104451788D01*
X109900813Y-104539389D01*
X109900826Y-104539396D01*
X110046497Y-104599734D01*
X110046502Y-104599736D01*
X110201152Y-104630498D01*
X110201155Y-104630499D01*
X110201157Y-104630499D01*
X110215163Y-104630499D01*
X110282202Y-104650184D01*
X110318265Y-104685608D01*
X110388210Y-104790288D01*
X110388213Y-104790292D01*
X110499707Y-104901786D01*
X110499711Y-104901789D01*
X110630814Y-104989390D01*
X110630827Y-104989397D01*
X110776498Y-105049735D01*
X110776503Y-105049737D01*
X110841147Y-105062595D01*
X110931849Y-105080638D01*
X110993760Y-105113023D01*
X110995339Y-105114574D01*
X111373181Y-105492416D01*
X111406666Y-105553739D01*
X111409500Y-105580097D01*
X111409500Y-109470087D01*
X111403759Y-109489638D01*
X111402902Y-109509996D01*
X111394115Y-109522479D01*
X111389815Y-109537126D01*
X111374416Y-109550468D01*
X111362688Y-109567133D01*
X111343663Y-109577116D01*
X111337011Y-109582881D01*
X111332221Y-109584949D01*
X111321696Y-109589229D01*
X111316503Y-109590263D01*
X111171686Y-109650247D01*
X111171405Y-109650362D01*
X111169815Y-109650522D01*
X111124684Y-109659500D01*
X110315071Y-109659500D01*
X110255361Y-109641967D01*
X110254553Y-109643479D01*
X110249181Y-109640607D01*
X110249179Y-109640606D01*
X110249176Y-109640605D01*
X110249171Y-109640602D01*
X110103501Y-109580264D01*
X110103489Y-109580261D01*
X109948845Y-109549500D01*
X109948842Y-109549500D01*
X109791158Y-109549500D01*
X109791155Y-109549500D01*
X109636510Y-109580261D01*
X109636498Y-109580264D01*
X109490827Y-109640602D01*
X109490814Y-109640609D01*
X109359711Y-109728210D01*
X109359707Y-109728213D01*
X109248213Y-109839707D01*
X109248210Y-109839711D01*
X109160609Y-109970814D01*
X109160602Y-109970827D01*
X109100264Y-110116498D01*
X109100261Y-110116510D01*
X109069500Y-110271153D01*
X109069500Y-110428846D01*
X109100261Y-110583489D01*
X109100264Y-110583501D01*
X109160602Y-110729172D01*
X109160609Y-110729185D01*
X109248210Y-110860288D01*
X109248213Y-110860292D01*
X109359707Y-110971786D01*
X109359711Y-110971789D01*
X109490814Y-111059390D01*
X109490827Y-111059397D01*
X109617633Y-111111921D01*
X109636503Y-111119737D01*
X109754484Y-111143205D01*
X109791153Y-111150499D01*
X109791156Y-111150500D01*
X109791158Y-111150500D01*
X109948844Y-111150500D01*
X109948845Y-111150499D01*
X110053234Y-111129735D01*
X110103488Y-111119739D01*
X110103490Y-111119738D01*
X110103497Y-111119737D01*
X110223721Y-111069938D01*
X110271173Y-111060500D01*
X111124684Y-111060500D01*
X111172136Y-111069939D01*
X111316498Y-111129735D01*
X111316503Y-111129737D01*
X111456182Y-111157521D01*
X111471153Y-111160499D01*
X111471156Y-111160500D01*
X111471158Y-111160500D01*
X111628844Y-111160500D01*
X111628845Y-111160499D01*
X111783497Y-111129737D01*
X111929179Y-111069394D01*
X112060289Y-110981789D01*
X112171789Y-110870289D01*
X112259394Y-110739179D01*
X112261111Y-110735035D01*
X112301571Y-110637354D01*
X112319737Y-110593497D01*
X112350500Y-110438842D01*
X112350500Y-110438840D01*
X112350637Y-110438152D01*
X112358648Y-110422627D01*
X112361749Y-110406087D01*
X112380528Y-110380229D01*
X112382075Y-110377233D01*
X112383283Y-110375952D01*
X112490520Y-110268716D01*
X112500018Y-110252264D01*
X112509971Y-110241719D01*
X112528114Y-110231119D01*
X112543321Y-110216618D01*
X112557675Y-110213850D01*
X112570300Y-110206475D01*
X112591296Y-110207367D01*
X112611927Y-110203390D01*
X112625498Y-110208821D01*
X112640107Y-110209443D01*
X112657285Y-110221544D01*
X112676794Y-110229352D01*
X112687831Y-110239148D01*
X114033057Y-111584374D01*
X114033067Y-111584385D01*
X114037397Y-111588715D01*
X114037398Y-111588716D01*
X114149202Y-111700520D01*
X114224594Y-111744047D01*
X114286133Y-111779577D01*
X114435130Y-111819500D01*
X114473952Y-111839442D01*
X114474646Y-111838405D01*
X114610814Y-111929390D01*
X114610827Y-111929397D01*
X114756498Y-111989735D01*
X114756503Y-111989737D01*
X114911153Y-112020499D01*
X114911156Y-112020500D01*
X114911158Y-112020500D01*
X115068844Y-112020500D01*
X115068845Y-112020499D01*
X115223497Y-111989737D01*
X115369179Y-111929394D01*
X115500289Y-111841789D01*
X115611789Y-111730289D01*
X115650249Y-111672730D01*
X115703861Y-111627925D01*
X115773186Y-111619218D01*
X115836213Y-111649372D01*
X115872933Y-111708815D01*
X115874968Y-111717430D01*
X115880261Y-111744039D01*
X115880263Y-111744047D01*
X115940602Y-111889722D01*
X115940609Y-111889735D01*
X116028210Y-112020838D01*
X116028213Y-112020842D01*
X116139707Y-112132336D01*
X116139711Y-112132339D01*
X116259527Y-112212398D01*
X116304332Y-112266010D01*
X116313039Y-112335335D01*
X116282885Y-112398363D01*
X116223442Y-112435082D01*
X116190636Y-112439500D01*
X113835316Y-112439500D01*
X113787864Y-112430061D01*
X113643501Y-112370264D01*
X113643489Y-112370261D01*
X113488845Y-112339500D01*
X113488842Y-112339500D01*
X112578842Y-112339500D01*
X111078842Y-112339500D01*
X109022940Y-112339500D01*
X108955901Y-112319815D01*
X108935259Y-112303181D01*
X107831680Y-111199602D01*
X107798195Y-111138279D01*
X107795361Y-111111921D01*
X107795361Y-109516430D01*
X107815046Y-109449391D01*
X107831680Y-109428749D01*
X108501786Y-108758643D01*
X108501789Y-108758640D01*
X108589394Y-108627530D01*
X108649738Y-108481848D01*
X108665988Y-108400147D01*
X108698372Y-108338240D01*
X108699813Y-108336771D01*
X109081789Y-107954797D01*
X109169394Y-107823687D01*
X109229738Y-107678005D01*
X109260500Y-107523350D01*
X109260500Y-107365665D01*
X109260500Y-106636650D01*
X109253863Y-106603282D01*
X109247407Y-106570827D01*
X109235774Y-106512343D01*
X109229738Y-106481995D01*
X109169394Y-106336313D01*
X109169392Y-106336310D01*
X109169390Y-106336306D01*
X109081789Y-106205203D01*
X109081786Y-106205199D01*
X108716819Y-105840232D01*
X108683334Y-105778909D01*
X108680500Y-105752551D01*
X108680500Y-103821853D01*
X108700185Y-103754814D01*
X108752989Y-103709059D01*
X108780309Y-103700236D01*
X108847389Y-103686892D01*
X108908497Y-103674737D01*
X109054179Y-103614394D01*
X109185289Y-103526789D01*
X109296789Y-103415289D01*
X109384394Y-103284179D01*
X109444737Y-103138497D01*
X109475500Y-102983842D01*
X109475500Y-102826158D01*
X109475500Y-102826155D01*
X109475499Y-102826153D01*
X109444739Y-102671511D01*
X109444736Y-102671501D01*
X109409939Y-102587492D01*
X109400500Y-102540040D01*
X109400500Y-99654412D01*
X109377225Y-99537406D01*
X109373580Y-99519080D01*
X109371839Y-99514878D01*
X109334993Y-99425922D01*
X109320775Y-99391597D01*
X109268818Y-99313838D01*
X109247940Y-99247161D01*
X109257359Y-99197496D01*
X109276616Y-99151006D01*
X109300951Y-99092257D01*
X109339400Y-98898962D01*
X109339400Y-98701881D01*
X109339400Y-98620706D01*
X109348839Y-98573253D01*
X109352051Y-98565500D01*
X109390500Y-98372205D01*
X109390500Y-98175124D01*
X109390500Y-96805782D01*
X109410185Y-96738743D01*
X109426819Y-96718101D01*
X110062802Y-96082119D01*
X110716039Y-95428882D01*
X110758917Y-95364711D01*
X110825532Y-95265014D01*
X110830421Y-95253212D01*
X110834302Y-95243838D01*
X110885391Y-95120500D01*
X110900951Y-95082936D01*
X110939400Y-94889641D01*
X110939400Y-94692560D01*
X110939400Y-90856332D01*
X110959085Y-90789293D01*
X110975719Y-90768651D01*
X113777138Y-87967233D01*
X113777138Y-87967232D01*
X113777141Y-87967230D01*
X113886633Y-87803363D01*
X113962053Y-87621284D01*
X114000502Y-87427989D01*
X114000502Y-87230908D01*
X114000502Y-87220925D01*
X114000500Y-87220899D01*
X114000500Y-80965782D01*
X114020185Y-80898743D01*
X114036819Y-80878101D01*
X115674784Y-79240137D01*
X115674787Y-79240134D01*
X115674787Y-79240133D01*
X115674789Y-79240132D01*
X115708555Y-79189597D01*
X115784282Y-79076264D01*
X115830754Y-78964069D01*
X115859701Y-78894186D01*
X115898150Y-78700891D01*
X115898150Y-78503810D01*
X115898150Y-77841009D01*
X115898150Y-77697582D01*
X115917835Y-77630543D01*
X115934469Y-77609901D01*
X119057551Y-74486819D01*
X119118874Y-74453334D01*
X119145232Y-74450500D01*
X121696731Y-74450500D01*
X121763770Y-74470185D01*
X121784407Y-74486814D01*
X121885283Y-74587690D01*
X121885284Y-74587691D01*
X122049143Y-74697178D01*
X122049149Y-74697181D01*
X122049150Y-74697182D01*
X122231229Y-74772602D01*
X122392453Y-74804671D01*
X122424521Y-74811049D01*
X122424522Y-74811050D01*
X122424523Y-74811050D01*
X122424524Y-74811050D01*
X122621604Y-74811050D01*
X122737843Y-74811050D01*
X122804882Y-74830735D01*
X122850637Y-74883539D01*
X122860581Y-74952697D01*
X122848328Y-74991344D01*
X122799029Y-75088099D01*
X122745497Y-75252852D01*
X122718400Y-75423939D01*
X122718400Y-75569030D01*
X122709754Y-75598473D01*
X122703232Y-75628456D01*
X122699477Y-75633471D01*
X122698715Y-75636069D01*
X122682085Y-75656706D01*
X122575610Y-75763182D01*
X122514290Y-75796666D01*
X122487931Y-75799500D01*
X118749904Y-75799500D01*
X118614577Y-75826418D01*
X118614567Y-75826421D01*
X118487092Y-75879222D01*
X118372354Y-75955887D01*
X117955890Y-76372351D01*
X117955884Y-76372358D01*
X117916698Y-76431006D01*
X117916698Y-76431007D01*
X117897961Y-76459048D01*
X117879225Y-76487088D01*
X117879221Y-76487095D01*
X117826421Y-76614567D01*
X117826418Y-76614577D01*
X117799500Y-76749904D01*
X117799500Y-79297980D01*
X117779815Y-79365019D01*
X117763181Y-79385661D01*
X115615888Y-81532953D01*
X115615887Y-81532954D01*
X115539223Y-81647692D01*
X115486421Y-81775168D01*
X115486418Y-81775180D01*
X115473984Y-81837690D01*
X115473984Y-81837691D01*
X115459500Y-81910504D01*
X115459500Y-83753729D01*
X115439815Y-83820768D01*
X115404393Y-83856830D01*
X115387359Y-83868211D01*
X115275863Y-83979707D01*
X115275860Y-83979711D01*
X115188259Y-84110814D01*
X115188252Y-84110827D01*
X115127914Y-84256498D01*
X115127911Y-84256510D01*
X115097150Y-84411153D01*
X115097150Y-84568846D01*
X115127911Y-84723489D01*
X115127914Y-84723501D01*
X115188252Y-84869172D01*
X115188259Y-84869185D01*
X115275860Y-85000288D01*
X115275863Y-85000292D01*
X115387357Y-85111786D01*
X115387361Y-85111789D01*
X115518464Y-85199390D01*
X115518477Y-85199397D01*
X115664148Y-85259735D01*
X115664153Y-85259737D01*
X115818803Y-85290499D01*
X115818806Y-85290500D01*
X115935500Y-85290500D01*
X116002539Y-85310185D01*
X116048294Y-85362989D01*
X116059500Y-85414500D01*
X116059500Y-97578846D01*
X116090261Y-97733489D01*
X116090264Y-97733501D01*
X116150602Y-97879172D01*
X116150609Y-97879185D01*
X116238210Y-98010288D01*
X116238213Y-98010292D01*
X116349707Y-98121786D01*
X116349711Y-98121789D01*
X116480814Y-98209390D01*
X116480827Y-98209397D01*
X116580060Y-98250500D01*
X116626503Y-98269737D01*
X116770842Y-98298448D01*
X116781153Y-98300499D01*
X116781156Y-98300500D01*
X116781158Y-98300500D01*
X116938844Y-98300500D01*
X116938845Y-98300499D01*
X117093497Y-98269737D01*
X117239179Y-98209394D01*
X117265333Y-98191917D01*
X117332008Y-98171040D01*
X117381675Y-98180459D01*
X117466271Y-98215499D01*
X117476503Y-98219737D01*
X117631153Y-98250499D01*
X117631156Y-98250500D01*
X117631158Y-98250500D01*
X117788844Y-98250500D01*
X117788845Y-98250499D01*
X117943497Y-98219737D01*
X118089179Y-98159394D01*
X118220289Y-98071789D01*
X118331789Y-97960289D01*
X118419394Y-97829179D01*
X118479737Y-97683497D01*
X118510500Y-97528842D01*
X118510500Y-94231703D01*
X119418400Y-94231703D01*
X119418400Y-94389396D01*
X119449161Y-94544039D01*
X119449164Y-94544051D01*
X119509502Y-94689722D01*
X119509509Y-94689735D01*
X119597110Y-94820838D01*
X119597113Y-94820842D01*
X121103844Y-96327572D01*
X121137329Y-96388895D01*
X121132345Y-96458587D01*
X121119265Y-96484143D01*
X121043826Y-96597045D01*
X121043816Y-96597063D01*
X120983478Y-96742734D01*
X120983475Y-96742746D01*
X120952714Y-96897389D01*
X120952714Y-97055082D01*
X120983475Y-97209725D01*
X120983477Y-97209733D01*
X120990061Y-97225630D01*
X120999500Y-97273080D01*
X120999500Y-103138843D01*
X121030261Y-103293489D01*
X121030264Y-103293501D01*
X121090602Y-103439172D01*
X121090609Y-103439185D01*
X121178210Y-103570288D01*
X121178213Y-103570292D01*
X121289707Y-103681786D01*
X121289711Y-103681789D01*
X121420814Y-103769390D01*
X121420827Y-103769397D01*
X121541245Y-103819275D01*
X121566503Y-103829737D01*
X121676987Y-103851713D01*
X121699691Y-103856230D01*
X121761602Y-103888615D01*
X121796176Y-103949330D01*
X121799500Y-103977847D01*
X121799500Y-106370234D01*
X121779815Y-106437273D01*
X121778602Y-106439125D01*
X121690609Y-106570814D01*
X121690602Y-106570827D01*
X121630264Y-106716498D01*
X121630261Y-106716510D01*
X121599500Y-106871153D01*
X121599500Y-107028846D01*
X121630261Y-107183489D01*
X121630264Y-107183501D01*
X121690602Y-107329172D01*
X121690609Y-107329185D01*
X121778210Y-107460288D01*
X121778213Y-107460292D01*
X121889707Y-107571786D01*
X121889711Y-107571789D01*
X122020814Y-107659390D01*
X122020827Y-107659397D01*
X122166498Y-107719735D01*
X122166503Y-107719737D01*
X122321153Y-107750499D01*
X122321156Y-107750500D01*
X122321158Y-107750500D01*
X122478844Y-107750500D01*
X122478845Y-107750499D01*
X122633497Y-107719737D01*
X122779179Y-107659394D01*
X122910289Y-107571789D01*
X122935456Y-107546620D01*
X122996776Y-107513137D01*
X123066468Y-107518120D01*
X123070571Y-107519735D01*
X123190462Y-107569395D01*
X123345112Y-107600157D01*
X123345115Y-107600158D01*
X123345117Y-107600158D01*
X123502803Y-107600158D01*
X123502804Y-107600157D01*
X123657456Y-107569395D01*
X123803138Y-107509052D01*
X123934248Y-107421447D01*
X124045748Y-107309947D01*
X124133353Y-107178837D01*
X124193696Y-107033155D01*
X124224459Y-106878500D01*
X124224459Y-96236767D01*
X124224459Y-96236764D01*
X124224458Y-96236762D01*
X124215336Y-96190901D01*
X124193696Y-96082112D01*
X124193694Y-96082107D01*
X124133356Y-95936436D01*
X124133349Y-95936423D01*
X124045749Y-95805321D01*
X124004816Y-95764388D01*
X123934248Y-95693820D01*
X122738639Y-94498211D01*
X121529192Y-93288763D01*
X121529188Y-93288760D01*
X121398085Y-93201159D01*
X121398072Y-93201152D01*
X121252401Y-93140814D01*
X121252389Y-93140811D01*
X121097745Y-93110050D01*
X121097742Y-93110050D01*
X120940058Y-93110050D01*
X120940055Y-93110050D01*
X120785410Y-93140811D01*
X120785398Y-93140814D01*
X120639727Y-93201152D01*
X120639714Y-93201159D01*
X120508611Y-93288760D01*
X120508607Y-93288763D01*
X120397117Y-93400254D01*
X120397114Y-93400256D01*
X120360573Y-93454943D01*
X120306960Y-93499747D01*
X120257472Y-93510050D01*
X120140055Y-93510050D01*
X119985410Y-93540811D01*
X119985398Y-93540814D01*
X119839727Y-93601152D01*
X119839714Y-93601159D01*
X119708611Y-93688760D01*
X119708607Y-93688763D01*
X119597113Y-93800257D01*
X119597110Y-93800261D01*
X119509509Y-93931364D01*
X119509502Y-93931377D01*
X119449164Y-94077048D01*
X119449161Y-94077060D01*
X119418400Y-94231703D01*
X118510500Y-94231703D01*
X118510500Y-86871019D01*
X118530185Y-86803980D01*
X118546814Y-86783342D01*
X118621789Y-86708368D01*
X118709394Y-86577258D01*
X118769737Y-86431576D01*
X118800500Y-86276921D01*
X118800500Y-86119237D01*
X118800500Y-83762119D01*
X118820185Y-83695080D01*
X118836819Y-83674438D01*
X121440686Y-81070571D01*
X121440689Y-81070568D01*
X121528294Y-80939458D01*
X121588638Y-80793776D01*
X121619400Y-80639121D01*
X121619400Y-80481436D01*
X121619400Y-78621158D01*
X121614485Y-78596451D01*
X121610602Y-78576928D01*
X121588639Y-78466510D01*
X121588636Y-78466501D01*
X121580066Y-78445812D01*
X121556827Y-78389707D01*
X121528297Y-78320827D01*
X121528290Y-78320814D01*
X121440689Y-78189711D01*
X121440686Y-78189707D01*
X121324870Y-78073891D01*
X121324847Y-78073870D01*
X120663159Y-77412181D01*
X120629674Y-77350858D01*
X120634658Y-77281166D01*
X120676530Y-77225233D01*
X120741994Y-77200816D01*
X120750840Y-77200500D01*
X122898446Y-77200500D01*
X122989490Y-77182389D01*
X123033778Y-77173580D01*
X123097519Y-77147177D01*
X123161257Y-77120777D01*
X123161258Y-77120776D01*
X123161261Y-77120775D01*
X123275993Y-77044114D01*
X123519088Y-76801017D01*
X123580409Y-76767534D01*
X123650101Y-76772518D01*
X123694449Y-76801019D01*
X128332081Y-81438651D01*
X128365566Y-81499974D01*
X128368400Y-81526332D01*
X128368400Y-92370031D01*
X128348715Y-92437070D01*
X128295911Y-92482825D01*
X128226753Y-92492769D01*
X128163197Y-92463744D01*
X128156719Y-92457712D01*
X123414971Y-87715964D01*
X123388091Y-87675735D01*
X123328297Y-87531377D01*
X123328290Y-87531364D01*
X123240689Y-87400261D01*
X123240686Y-87400257D01*
X123129192Y-87288763D01*
X123129188Y-87288760D01*
X122998085Y-87201159D01*
X122998072Y-87201152D01*
X122852401Y-87140814D01*
X122852389Y-87140811D01*
X122697745Y-87110050D01*
X122697742Y-87110050D01*
X122643400Y-87110050D01*
X122576361Y-87090365D01*
X122530606Y-87037561D01*
X122519400Y-86986050D01*
X122519400Y-86170586D01*
X122539085Y-86103547D01*
X122540246Y-86101772D01*
X122548294Y-86089729D01*
X122608637Y-85944047D01*
X122639400Y-85789392D01*
X122639400Y-85631708D01*
X122639400Y-85631705D01*
X122639399Y-85631703D01*
X122635092Y-85610050D01*
X122608637Y-85477053D01*
X122561391Y-85362989D01*
X122548297Y-85331377D01*
X122548290Y-85331364D01*
X122460689Y-85200261D01*
X122460686Y-85200257D01*
X122349192Y-85088763D01*
X122349188Y-85088760D01*
X122218085Y-85001159D01*
X122218072Y-85001152D01*
X122072401Y-84940814D01*
X122072389Y-84940811D01*
X121917745Y-84910050D01*
X121917742Y-84910050D01*
X121760058Y-84910050D01*
X121760055Y-84910050D01*
X121605410Y-84940811D01*
X121605398Y-84940814D01*
X121459727Y-85001152D01*
X121459714Y-85001159D01*
X121328611Y-85088760D01*
X121328607Y-85088763D01*
X121217113Y-85200257D01*
X121217110Y-85200261D01*
X121129509Y-85331364D01*
X121129502Y-85331377D01*
X121069164Y-85477048D01*
X121069161Y-85477058D01*
X121058981Y-85528239D01*
X121026596Y-85590150D01*
X120965880Y-85624724D01*
X120961557Y-85625664D01*
X120885407Y-85640812D01*
X120885398Y-85640814D01*
X120739727Y-85701152D01*
X120739714Y-85701159D01*
X120608611Y-85788760D01*
X120608607Y-85788763D01*
X120497113Y-85900257D01*
X120497110Y-85900261D01*
X120409509Y-86031364D01*
X120409502Y-86031377D01*
X120349164Y-86177048D01*
X120349161Y-86177060D01*
X120318400Y-86331703D01*
X120318400Y-86489396D01*
X120349161Y-86644039D01*
X120349164Y-86644051D01*
X120408961Y-86788414D01*
X120418400Y-86835866D01*
X120418400Y-87754268D01*
X120398715Y-87821307D01*
X120345911Y-87867062D01*
X120318592Y-87875885D01*
X120185445Y-87902370D01*
X120185435Y-87902373D01*
X120039765Y-87962711D01*
X120039751Y-87962719D01*
X120033979Y-87966576D01*
X119967301Y-87987452D01*
X119917639Y-87978033D01*
X119852651Y-87951114D01*
X119852639Y-87951111D01*
X119697995Y-87920350D01*
X119697992Y-87920350D01*
X119540308Y-87920350D01*
X119540305Y-87920350D01*
X119385660Y-87951111D01*
X119385648Y-87951114D01*
X119239977Y-88011452D01*
X119239964Y-88011459D01*
X119108861Y-88099060D01*
X119108857Y-88099063D01*
X118997363Y-88210557D01*
X118997360Y-88210561D01*
X118909759Y-88341664D01*
X118909752Y-88341677D01*
X118849414Y-88487348D01*
X118849411Y-88487360D01*
X118818650Y-88642003D01*
X118818650Y-88799696D01*
X118849411Y-88954339D01*
X118849414Y-88954351D01*
X118909752Y-89100022D01*
X118909759Y-89100035D01*
X118997359Y-89231137D01*
X118997360Y-89231138D01*
X118997361Y-89231139D01*
X119075033Y-89308811D01*
X119075036Y-89308815D01*
X119115503Y-89349282D01*
X119159094Y-89392874D01*
X119192579Y-89454197D01*
X119190658Y-89481050D01*
X119187594Y-89523888D01*
X119174515Y-89549444D01*
X119099072Y-89662352D01*
X119099066Y-89662363D01*
X119038728Y-89808034D01*
X119038725Y-89808046D01*
X119007964Y-89962689D01*
X119007964Y-90120382D01*
X119038725Y-90275025D01*
X119038728Y-90275037D01*
X119099066Y-90420708D01*
X119099073Y-90420721D01*
X119186674Y-90551824D01*
X119186677Y-90551828D01*
X119298171Y-90663322D01*
X119298175Y-90663325D01*
X119429278Y-90750926D01*
X119429291Y-90750933D01*
X119521902Y-90789293D01*
X119574967Y-90811273D01*
X119639611Y-90824131D01*
X119730313Y-90842174D01*
X119792224Y-90874559D01*
X119793803Y-90876110D01*
X124682081Y-95764388D01*
X124715566Y-95825711D01*
X124718400Y-95852069D01*
X124718400Y-108193696D01*
X124698715Y-108260735D01*
X124645911Y-108306490D01*
X124618592Y-108315313D01*
X124490408Y-108340811D01*
X124490398Y-108340814D01*
X124344727Y-108401152D01*
X124344714Y-108401159D01*
X124213614Y-108488758D01*
X124213609Y-108488762D01*
X124139968Y-108562402D01*
X124114290Y-108582105D01*
X124043112Y-108623201D01*
X124031284Y-108630030D01*
X124031281Y-108630032D01*
X123580216Y-109081097D01*
X123580214Y-109081100D01*
X123562836Y-109111200D01*
X123545457Y-109141302D01*
X123501158Y-109218030D01*
X123460234Y-109370758D01*
X123460234Y-109370760D01*
X123460234Y-109538861D01*
X123460235Y-109538874D01*
X123460235Y-113419350D01*
X123440550Y-113486389D01*
X123387746Y-113532144D01*
X123336235Y-113543350D01*
X122671029Y-113543350D01*
X122671023Y-113543351D01*
X122611416Y-113549758D01*
X122476571Y-113600052D01*
X122476564Y-113600056D01*
X122361355Y-113686302D01*
X122361352Y-113686305D01*
X122275106Y-113801514D01*
X122275102Y-113801521D01*
X122224808Y-113936367D01*
X122218401Y-113995966D01*
X122218400Y-113995985D01*
X122218400Y-115091720D01*
X122218401Y-115091726D01*
X122224808Y-115151333D01*
X122275102Y-115286178D01*
X122275106Y-115286185D01*
X122361352Y-115401394D01*
X122361353Y-115401394D01*
X122361354Y-115401396D01*
X122387746Y-115421153D01*
X122419045Y-115444584D01*
X122460915Y-115500518D01*
X122465899Y-115570210D01*
X122432413Y-115631533D01*
X122419045Y-115643116D01*
X122361352Y-115686305D01*
X122275106Y-115801514D01*
X122275102Y-115801521D01*
X122224808Y-115936367D01*
X122218401Y-115995966D01*
X122218400Y-115995985D01*
X122218400Y-117091720D01*
X122218401Y-117091726D01*
X122224808Y-117151333D01*
X122275102Y-117286178D01*
X122275106Y-117286185D01*
X122361352Y-117401394D01*
X122361355Y-117401397D01*
X122476564Y-117487643D01*
X122476571Y-117487647D01*
X122611417Y-117537941D01*
X122611416Y-117537941D01*
X122618344Y-117538685D01*
X122671027Y-117544350D01*
X123336235Y-117544349D01*
X123403274Y-117564033D01*
X123449029Y-117616837D01*
X123460235Y-117668349D01*
X123460235Y-119024065D01*
X123460234Y-119024083D01*
X123460234Y-119189789D01*
X123460233Y-119189789D01*
X123460234Y-119189792D01*
X123501158Y-119342520D01*
X123525875Y-119385331D01*
X123580212Y-119479447D01*
X123580216Y-119479452D01*
X123699084Y-119598320D01*
X123699090Y-119598325D01*
X124265139Y-120164374D01*
X124265149Y-120164385D01*
X124269479Y-120168715D01*
X124269480Y-120168716D01*
X124381284Y-120280520D01*
X124432845Y-120310288D01*
X124468095Y-120330639D01*
X124468097Y-120330641D01*
X124506151Y-120352611D01*
X124518215Y-120359577D01*
X124670943Y-120400501D01*
X124670946Y-120400501D01*
X124836653Y-120400501D01*
X124836669Y-120400500D01*
X125070234Y-120400500D01*
X125137273Y-120420185D01*
X125139125Y-120421398D01*
X125270814Y-120509390D01*
X125270827Y-120509397D01*
X125416498Y-120569735D01*
X125416503Y-120569737D01*
X125571153Y-120600499D01*
X125571156Y-120600500D01*
X125571158Y-120600500D01*
X125728844Y-120600500D01*
X125728845Y-120600499D01*
X125883497Y-120569737D01*
X126029179Y-120509394D01*
X126160289Y-120421789D01*
X126271789Y-120310289D01*
X126359394Y-120179179D01*
X126419737Y-120033497D01*
X126450500Y-119878842D01*
X126450500Y-119721158D01*
X126450500Y-119721155D01*
X126450499Y-119721153D01*
X126426066Y-119598320D01*
X126419737Y-119566503D01*
X126383679Y-119479451D01*
X126359397Y-119420827D01*
X126359390Y-119420814D01*
X126271789Y-119289711D01*
X126271786Y-119289707D01*
X126160292Y-119178213D01*
X126160288Y-119178210D01*
X126029185Y-119090609D01*
X126029172Y-119090602D01*
X125883501Y-119030264D01*
X125883489Y-119030261D01*
X125728845Y-118999500D01*
X125728842Y-118999500D01*
X125571158Y-118999500D01*
X125571155Y-118999500D01*
X125416510Y-119030261D01*
X125416498Y-119030264D01*
X125270827Y-119090602D01*
X125270814Y-119090609D01*
X125139125Y-119178602D01*
X125121078Y-119184252D01*
X125105169Y-119194477D01*
X125074207Y-119198928D01*
X125072447Y-119199480D01*
X125070234Y-119199500D01*
X125050097Y-119199500D01*
X124983058Y-119179815D01*
X124962416Y-119163181D01*
X124697554Y-118898319D01*
X124664069Y-118836996D01*
X124661235Y-118810638D01*
X124661235Y-117623867D01*
X124680920Y-117556828D01*
X124733724Y-117511073D01*
X124761044Y-117502250D01*
X124834454Y-117487647D01*
X124889232Y-117476751D01*
X125034914Y-117416408D01*
X125166024Y-117328803D01*
X125277524Y-117217303D01*
X125365129Y-117086193D01*
X125365130Y-117086190D01*
X125365132Y-117086187D01*
X125424927Y-116941826D01*
X125451802Y-116901602D01*
X125766589Y-116586817D01*
X125827911Y-116553334D01*
X125854269Y-116550500D01*
X126167579Y-116550500D01*
X126234618Y-116570185D01*
X126239084Y-116573194D01*
X126247755Y-116579314D01*
X126287811Y-116619370D01*
X126374622Y-116669489D01*
X126379510Y-116672311D01*
X126379514Y-116672314D01*
X126424740Y-116698426D01*
X126424742Y-116698427D01*
X126577469Y-116739350D01*
X126577470Y-116739350D01*
X127513803Y-116739350D01*
X127580842Y-116759035D01*
X127601484Y-116775669D01*
X128184325Y-117358510D01*
X128217810Y-117419833D01*
X128218261Y-117421999D01*
X128249161Y-117577341D01*
X128249164Y-117577351D01*
X128309502Y-117723022D01*
X128309509Y-117723035D01*
X128397110Y-117854138D01*
X128397113Y-117854142D01*
X128508607Y-117965636D01*
X128508611Y-117965639D01*
X128639714Y-118053240D01*
X128639727Y-118053247D01*
X128785398Y-118113585D01*
X128785403Y-118113587D01*
X128940053Y-118144349D01*
X128940056Y-118144350D01*
X128940058Y-118144350D01*
X129097744Y-118144350D01*
X129097745Y-118144349D01*
X129252397Y-118113587D01*
X129398079Y-118053244D01*
X129529189Y-117965639D01*
X129640689Y-117854139D01*
X129722292Y-117732010D01*
X129775902Y-117687207D01*
X129845227Y-117678500D01*
X129868726Y-117684721D01*
X130011417Y-117737941D01*
X130011416Y-117737941D01*
X130018344Y-117738685D01*
X130071027Y-117744350D01*
X131166772Y-117744349D01*
X131226383Y-117737941D01*
X131361231Y-117687646D01*
X131476446Y-117601396D01*
X131562696Y-117486181D01*
X131588721Y-117416404D01*
X131602718Y-117378877D01*
X131644589Y-117322943D01*
X131710053Y-117298526D01*
X131778326Y-117313377D01*
X131827732Y-117362782D01*
X131835082Y-117378877D01*
X131875102Y-117486178D01*
X131875106Y-117486185D01*
X131961352Y-117601394D01*
X131961355Y-117601397D01*
X132076564Y-117687643D01*
X132076571Y-117687647D01*
X132211417Y-117737941D01*
X132211416Y-117737941D01*
X132218344Y-117738685D01*
X132271027Y-117744350D01*
X133366772Y-117744349D01*
X133426383Y-117737941D01*
X133561231Y-117687646D01*
X133676446Y-117601396D01*
X133762696Y-117486181D01*
X133812991Y-117351333D01*
X133819400Y-117291723D01*
X133819399Y-116195978D01*
X133814089Y-116146577D01*
X133812991Y-116136366D01*
X133762697Y-116001521D01*
X133762693Y-116001514D01*
X133676447Y-115886305D01*
X133676444Y-115886302D01*
X133561235Y-115800056D01*
X133561228Y-115800052D01*
X133426382Y-115749758D01*
X133426383Y-115749758D01*
X133366783Y-115743351D01*
X133366781Y-115743350D01*
X133366773Y-115743350D01*
X133366765Y-115743350D01*
X132860419Y-115743350D01*
X132793380Y-115723665D01*
X132772738Y-115707031D01*
X132171596Y-115105888D01*
X132171595Y-115105887D01*
X132056857Y-115029222D01*
X131929382Y-114976421D01*
X131929372Y-114976418D01*
X131794046Y-114949500D01*
X131794044Y-114949500D01*
X131794043Y-114949500D01*
X131743400Y-114949500D01*
X131676361Y-114929815D01*
X131630606Y-114877011D01*
X131619400Y-114825500D01*
X131619399Y-114195979D01*
X131619398Y-114195973D01*
X131612991Y-114136366D01*
X131562697Y-114001521D01*
X131562693Y-114001514D01*
X131476447Y-113886305D01*
X131476444Y-113886302D01*
X131361235Y-113800056D01*
X131361228Y-113800052D01*
X131226382Y-113749758D01*
X131226383Y-113749758D01*
X131166783Y-113743351D01*
X131166781Y-113743350D01*
X131166773Y-113743350D01*
X131166765Y-113743350D01*
X130609927Y-113743350D01*
X130562474Y-113733911D01*
X130560892Y-113733255D01*
X130560891Y-113733255D01*
X130433408Y-113680450D01*
X130433402Y-113680448D01*
X130298076Y-113653530D01*
X130298074Y-113653530D01*
X130298073Y-113653530D01*
X129743400Y-113653530D01*
X129676361Y-113633845D01*
X129630606Y-113581041D01*
X129619400Y-113529530D01*
X129619400Y-111654550D01*
X129612837Y-111621560D01*
X129612837Y-111621557D01*
X129592481Y-111519223D01*
X129592480Y-111519216D01*
X129572155Y-111470146D01*
X129539677Y-111391736D01*
X129533482Y-111382465D01*
X129463014Y-111277001D01*
X129364505Y-111178492D01*
X129347662Y-111157521D01*
X129341799Y-111148335D01*
X129339675Y-111143205D01*
X129314830Y-111106022D01*
X129263014Y-111028473D01*
X129263012Y-111028470D01*
X129155719Y-110921177D01*
X129122234Y-110859854D01*
X129119400Y-110833496D01*
X129119400Y-106984963D01*
X129139085Y-106917924D01*
X129191889Y-106872169D01*
X129261047Y-106862225D01*
X129324603Y-106891250D01*
X129341770Y-106909471D01*
X129361359Y-106934999D01*
X129454451Y-107028091D01*
X129454455Y-107028094D01*
X129559132Y-107108417D01*
X129559136Y-107108419D01*
X129559143Y-107108425D01*
X129559150Y-107108429D01*
X129673148Y-107174246D01*
X129673149Y-107174247D01*
X129673152Y-107174248D01*
X129673157Y-107174251D01*
X129795071Y-107224750D01*
X129922238Y-107258825D01*
X130053074Y-107276050D01*
X130053081Y-107276050D01*
X130618900Y-107276050D01*
X130690840Y-107270905D01*
X130728159Y-107259946D01*
X130780741Y-107256186D01*
X130918900Y-107276050D01*
X130918903Y-107276050D01*
X131484719Y-107276050D01*
X131484726Y-107276050D01*
X131615562Y-107258825D01*
X131742729Y-107224750D01*
X131864643Y-107174251D01*
X131978657Y-107108425D01*
X132083349Y-107028091D01*
X132176441Y-106934999D01*
X132256775Y-106830307D01*
X132322601Y-106716293D01*
X132373100Y-106594379D01*
X132407175Y-106467212D01*
X132424400Y-106336376D01*
X132424400Y-105704724D01*
X132407175Y-105573888D01*
X132373100Y-105446721D01*
X132322601Y-105324807D01*
X132322598Y-105324802D01*
X132322597Y-105324799D01*
X132322596Y-105324798D01*
X132256779Y-105210800D01*
X132256775Y-105210793D01*
X132245022Y-105195477D01*
X132182943Y-105114574D01*
X132176441Y-105106101D01*
X132165719Y-105095379D01*
X132132234Y-105034056D01*
X132129400Y-105007698D01*
X132129400Y-104231703D01*
X133218400Y-104231703D01*
X133218400Y-105849396D01*
X133249161Y-106004039D01*
X133249163Y-106004047D01*
X133253961Y-106015630D01*
X133263400Y-106063083D01*
X133263400Y-106336383D01*
X133280624Y-106467208D01*
X133280625Y-106467212D01*
X133292718Y-106512343D01*
X133314700Y-106594379D01*
X133365202Y-106716300D01*
X133365203Y-106716301D01*
X133431020Y-106830299D01*
X133431032Y-106830317D01*
X133511355Y-106934994D01*
X133511359Y-106934999D01*
X133604451Y-107028091D01*
X133604455Y-107028094D01*
X133709132Y-107108417D01*
X133709136Y-107108419D01*
X133709143Y-107108425D01*
X133709150Y-107108429D01*
X133823148Y-107174246D01*
X133823149Y-107174247D01*
X133823152Y-107174248D01*
X133823157Y-107174251D01*
X133945071Y-107224750D01*
X134072238Y-107258825D01*
X134203074Y-107276050D01*
X134203081Y-107276050D01*
X134768900Y-107276050D01*
X134840840Y-107270905D01*
X134878159Y-107259946D01*
X134930741Y-107256186D01*
X135068900Y-107276050D01*
X135068903Y-107276050D01*
X135634719Y-107276050D01*
X135634726Y-107276050D01*
X135765562Y-107258825D01*
X135892729Y-107224750D01*
X136014643Y-107174251D01*
X136128657Y-107108425D01*
X136233349Y-107028091D01*
X136326441Y-106934999D01*
X136406775Y-106830307D01*
X136472601Y-106716293D01*
X136523100Y-106594379D01*
X136557175Y-106467212D01*
X136574400Y-106336376D01*
X136574400Y-105704724D01*
X136557175Y-105573888D01*
X136523100Y-105446721D01*
X136472601Y-105324807D01*
X136406775Y-105210793D01*
X136395023Y-105195477D01*
X136369830Y-105130308D01*
X136369400Y-105119992D01*
X136369400Y-104391887D01*
X136369400Y-104391708D01*
X136368939Y-104389392D01*
X136338637Y-104237053D01*
X136320249Y-104192661D01*
X136316814Y-104184368D01*
X136316813Y-104184364D01*
X136294859Y-104131364D01*
X136278294Y-104091371D01*
X136278292Y-104091369D01*
X136278292Y-104091367D01*
X136190690Y-103960262D01*
X136136446Y-103906018D01*
X136079189Y-103848761D01*
X135919189Y-103688761D01*
X135919188Y-103688760D01*
X135919187Y-103688759D01*
X135788085Y-103601159D01*
X135788072Y-103601152D01*
X135642401Y-103540814D01*
X135642389Y-103540811D01*
X135487745Y-103510050D01*
X135487742Y-103510050D01*
X135330058Y-103510050D01*
X135330055Y-103510050D01*
X135175410Y-103540811D01*
X135175398Y-103540814D01*
X135029727Y-103601152D01*
X135029714Y-103601159D01*
X134898611Y-103688760D01*
X134898607Y-103688763D01*
X134801581Y-103785790D01*
X134740258Y-103819275D01*
X134670566Y-103814291D01*
X134626219Y-103785790D01*
X134529192Y-103688763D01*
X134529188Y-103688760D01*
X134398085Y-103601159D01*
X134398072Y-103601152D01*
X134252401Y-103540814D01*
X134252389Y-103540811D01*
X134097745Y-103510050D01*
X134097742Y-103510050D01*
X133940058Y-103510050D01*
X133940055Y-103510050D01*
X133785410Y-103540811D01*
X133785398Y-103540814D01*
X133639727Y-103601152D01*
X133639714Y-103601159D01*
X133508611Y-103688760D01*
X133508607Y-103688763D01*
X133397113Y-103800257D01*
X133397110Y-103800261D01*
X133309509Y-103931364D01*
X133309502Y-103931377D01*
X133249164Y-104077048D01*
X133249161Y-104077060D01*
X133218400Y-104231703D01*
X132129400Y-104231703D01*
X132129400Y-104031705D01*
X132129399Y-104031703D01*
X132113014Y-103949330D01*
X132098637Y-103877053D01*
X132079038Y-103829737D01*
X132038297Y-103731377D01*
X132038290Y-103731364D01*
X131950689Y-103600261D01*
X131950686Y-103600257D01*
X131839192Y-103488763D01*
X131839188Y-103488760D01*
X131775102Y-103445939D01*
X131730297Y-103392327D01*
X131721590Y-103323002D01*
X131751744Y-103259974D01*
X131811187Y-103223255D01*
X131830736Y-103219547D01*
X131876383Y-103214641D01*
X132011231Y-103164346D01*
X132126446Y-103078096D01*
X132212696Y-102962881D01*
X132262991Y-102828033D01*
X132269400Y-102768423D01*
X132269399Y-100972678D01*
X132262991Y-100913067D01*
X132212696Y-100778219D01*
X132212695Y-100778218D01*
X132212693Y-100778214D01*
X132126447Y-100663005D01*
X132126444Y-100663002D01*
X132011235Y-100576756D01*
X132011228Y-100576752D01*
X131879817Y-100527739D01*
X131823883Y-100485868D01*
X131799466Y-100420403D01*
X131814318Y-100352130D01*
X131835463Y-100323882D01*
X131949004Y-100210342D01*
X132073951Y-100038366D01*
X132170457Y-99848962D01*
X132236146Y-99646793D01*
X132269400Y-99436837D01*
X132269400Y-99224263D01*
X133568400Y-99224263D01*
X133568400Y-99436836D01*
X133597314Y-99619395D01*
X133601654Y-99646793D01*
X133654778Y-99810292D01*
X133667344Y-99848964D01*
X133763851Y-100038370D01*
X133888790Y-100210336D01*
X134002330Y-100323876D01*
X134035815Y-100385199D01*
X134030831Y-100454891D01*
X133988959Y-100510824D01*
X133957983Y-100527739D01*
X133826569Y-100576753D01*
X133826564Y-100576756D01*
X133711355Y-100663002D01*
X133711352Y-100663005D01*
X133625106Y-100778214D01*
X133625102Y-100778221D01*
X133574808Y-100913067D01*
X133568816Y-100968804D01*
X133568401Y-100972673D01*
X133568400Y-100972685D01*
X133568400Y-102768420D01*
X133568401Y-102768426D01*
X133574808Y-102828033D01*
X133625102Y-102962878D01*
X133625106Y-102962885D01*
X133711352Y-103078094D01*
X133711355Y-103078097D01*
X133826564Y-103164343D01*
X133826571Y-103164347D01*
X133961417Y-103214641D01*
X133961416Y-103214641D01*
X133968344Y-103215385D01*
X134021027Y-103221050D01*
X135816772Y-103221049D01*
X135876383Y-103214641D01*
X136011231Y-103164346D01*
X136126446Y-103078096D01*
X136212696Y-102962881D01*
X136262991Y-102828033D01*
X136269400Y-102768423D01*
X136269399Y-100972678D01*
X136262991Y-100913067D01*
X136212696Y-100778219D01*
X136212695Y-100778218D01*
X136212693Y-100778214D01*
X136126447Y-100663005D01*
X136126444Y-100663002D01*
X136011235Y-100576756D01*
X136011228Y-100576752D01*
X135879817Y-100527739D01*
X135823883Y-100485868D01*
X135799466Y-100420403D01*
X135814318Y-100352130D01*
X135835463Y-100323882D01*
X135949004Y-100210342D01*
X136073951Y-100038366D01*
X136170457Y-99848962D01*
X136236146Y-99646793D01*
X136269400Y-99436837D01*
X136269400Y-99224263D01*
X136236146Y-99014307D01*
X136170457Y-98812138D01*
X136073951Y-98622734D01*
X136073949Y-98622731D01*
X136073948Y-98622729D01*
X135949009Y-98450763D01*
X135798686Y-98300440D01*
X135626720Y-98175501D01*
X135437314Y-98078994D01*
X135437313Y-98078993D01*
X135437312Y-98078993D01*
X135235143Y-98013304D01*
X135235141Y-98013303D01*
X135235140Y-98013303D01*
X135073857Y-97987758D01*
X135025187Y-97980050D01*
X134812613Y-97980050D01*
X134763942Y-97987758D01*
X134602660Y-98013303D01*
X134400485Y-98078994D01*
X134211079Y-98175501D01*
X134039113Y-98300440D01*
X133888790Y-98450763D01*
X133763851Y-98622729D01*
X133667344Y-98812135D01*
X133601653Y-99014310D01*
X133568400Y-99224263D01*
X132269400Y-99224263D01*
X132236146Y-99014307D01*
X132170457Y-98812138D01*
X132073951Y-98622734D01*
X132073949Y-98622731D01*
X132073948Y-98622729D01*
X131949009Y-98450763D01*
X131798686Y-98300440D01*
X131626720Y-98175501D01*
X131437314Y-98078994D01*
X131437313Y-98078993D01*
X131437312Y-98078993D01*
X131235143Y-98013304D01*
X131235141Y-98013303D01*
X131235140Y-98013303D01*
X131068444Y-97986901D01*
X131025187Y-97980050D01*
X131025186Y-97980050D01*
X131020375Y-97979288D01*
X131020541Y-97978233D01*
X130960051Y-97955172D01*
X130947396Y-97944126D01*
X130405719Y-97402449D01*
X130372234Y-97341126D01*
X130369400Y-97314768D01*
X130369400Y-84939093D01*
X135999499Y-84939093D01*
X136037947Y-85132379D01*
X136037950Y-85132389D01*
X136113364Y-85314457D01*
X136113371Y-85314470D01*
X136222860Y-85478331D01*
X136222863Y-85478335D01*
X136362214Y-85617686D01*
X136362218Y-85617689D01*
X136526079Y-85727178D01*
X136526092Y-85727185D01*
X136676275Y-85789392D01*
X136708165Y-85802601D01*
X136708169Y-85802601D01*
X136708170Y-85802602D01*
X136901456Y-85841050D01*
X136901459Y-85841050D01*
X141440043Y-85841050D01*
X141570082Y-85815182D01*
X141633335Y-85802601D01*
X141815414Y-85727182D01*
X141979282Y-85617689D01*
X142118639Y-85478332D01*
X142228132Y-85314464D01*
X142303551Y-85132385D01*
X142329654Y-85001159D01*
X142342000Y-84939093D01*
X142342000Y-84742006D01*
X142303552Y-84548720D01*
X142303551Y-84548719D01*
X142303551Y-84548715D01*
X142250714Y-84421153D01*
X142228135Y-84366642D01*
X142228128Y-84366629D01*
X142118639Y-84202768D01*
X142118636Y-84202764D01*
X141979285Y-84063413D01*
X141979281Y-84063410D01*
X141815420Y-83953921D01*
X141815407Y-83953914D01*
X141633339Y-83878500D01*
X141633329Y-83878497D01*
X141440043Y-83840050D01*
X141440041Y-83840050D01*
X136901459Y-83840050D01*
X136901457Y-83840050D01*
X136708170Y-83878497D01*
X136708160Y-83878500D01*
X136526092Y-83953914D01*
X136526079Y-83953921D01*
X136362218Y-84063410D01*
X136362214Y-84063413D01*
X136222863Y-84202764D01*
X136222860Y-84202768D01*
X136113371Y-84366629D01*
X136113364Y-84366642D01*
X136037950Y-84548710D01*
X136037947Y-84548720D01*
X135999500Y-84742006D01*
X135999500Y-84742009D01*
X135999500Y-84939091D01*
X135999500Y-84939093D01*
X135999499Y-84939093D01*
X130369400Y-84939093D01*
X130369400Y-80962006D01*
X130330952Y-80768720D01*
X130330951Y-80768719D01*
X130330951Y-80768715D01*
X130330949Y-80768710D01*
X130255535Y-80586642D01*
X130255528Y-80586629D01*
X130146040Y-80422769D01*
X130146039Y-80422768D01*
X130006682Y-80283411D01*
X130006681Y-80283410D01*
X126646000Y-76922730D01*
X126612516Y-76861408D01*
X126617500Y-76791716D01*
X126659372Y-76735783D01*
X126724836Y-76711366D01*
X126733682Y-76711050D01*
X132406172Y-76711050D01*
X132419410Y-76708416D01*
X132502818Y-76691825D01*
X132599466Y-76672601D01*
X132672247Y-76642454D01*
X132781544Y-76597182D01*
X132945412Y-76487689D01*
X133084769Y-76348332D01*
X133084771Y-76348329D01*
X133091836Y-76341264D01*
X133091838Y-76341260D01*
X133698231Y-75734869D01*
X133759554Y-75701384D01*
X133785912Y-75698550D01*
X134676888Y-75698550D01*
X134743927Y-75718235D01*
X134764569Y-75734869D01*
X135374905Y-76345205D01*
X135374934Y-76345236D01*
X135517384Y-76487686D01*
X135517388Y-76487689D01*
X135681249Y-76597178D01*
X135681256Y-76597182D01*
X135790553Y-76642454D01*
X135863334Y-76672601D01*
X135959982Y-76691825D01*
X136008418Y-76701459D01*
X136056628Y-76711050D01*
X136056629Y-76711050D01*
X142717442Y-76711050D01*
X142730680Y-76708416D01*
X142814088Y-76691825D01*
X142910736Y-76672601D01*
X142983517Y-76642454D01*
X143092814Y-76597182D01*
X143256682Y-76487689D01*
X143396039Y-76348332D01*
X143396039Y-76348330D01*
X143406247Y-76338123D01*
X143406248Y-76338120D01*
X144797002Y-74947368D01*
X144858325Y-74913883D01*
X144884683Y-74911049D01*
X144966771Y-74911049D01*
X144966772Y-74911049D01*
X145026383Y-74904641D01*
X145161231Y-74854346D01*
X145276446Y-74768096D01*
X145362696Y-74652881D01*
X145412991Y-74518033D01*
X145419400Y-74458423D01*
X145419400Y-73919992D01*
X145419400Y-73812010D01*
X145419400Y-73802021D01*
X145419399Y-73802007D01*
X145419399Y-73424500D01*
X145439084Y-73357461D01*
X145491888Y-73311706D01*
X145543399Y-73300500D01*
X148327993Y-73300500D01*
X148361309Y-73293872D01*
X148467403Y-73272769D01*
X148521286Y-73262051D01*
X148603574Y-73227966D01*
X148703364Y-73186632D01*
X148867232Y-73077139D01*
X149006589Y-72937782D01*
X149006590Y-72937780D01*
X149013656Y-72930714D01*
X149013658Y-72930710D01*
X149206720Y-72737649D01*
X149268042Y-72704165D01*
X149337734Y-72709149D01*
X149393667Y-72751021D01*
X149418084Y-72816485D01*
X149418400Y-72825331D01*
X149418400Y-81023160D01*
X149398715Y-81090199D01*
X149382081Y-81110841D01*
X145414711Y-85078211D01*
X145381136Y-85111786D01*
X145303209Y-85189712D01*
X145215609Y-85320814D01*
X145215602Y-85320827D01*
X145155264Y-85466498D01*
X145155261Y-85466510D01*
X145124500Y-85621153D01*
X145124500Y-90617060D01*
X145104815Y-90684099D01*
X145088181Y-90704741D01*
X140539711Y-95253211D01*
X140428211Y-95364711D01*
X140428210Y-95364711D01*
X140340609Y-95495814D01*
X140340602Y-95495827D01*
X140280264Y-95641498D01*
X140280261Y-95641510D01*
X140249500Y-95796153D01*
X140249500Y-98482722D01*
X140229815Y-98549761D01*
X140177011Y-98595516D01*
X140107853Y-98605460D01*
X140044297Y-98576435D01*
X140025182Y-98555607D01*
X139949009Y-98450764D01*
X139949005Y-98450759D01*
X139798686Y-98300440D01*
X139626720Y-98175501D01*
X139437314Y-98078994D01*
X139437313Y-98078993D01*
X139437312Y-98078993D01*
X139235143Y-98013304D01*
X139235141Y-98013303D01*
X139235140Y-98013303D01*
X139073857Y-97987758D01*
X139025187Y-97980050D01*
X138812613Y-97980050D01*
X138763942Y-97987758D01*
X138602660Y-98013303D01*
X138400485Y-98078994D01*
X138211079Y-98175501D01*
X138039113Y-98300440D01*
X137888790Y-98450763D01*
X137763851Y-98622729D01*
X137667344Y-98812135D01*
X137601653Y-99014310D01*
X137568400Y-99224263D01*
X137568400Y-99436836D01*
X137597314Y-99619395D01*
X137601654Y-99646793D01*
X137654778Y-99810292D01*
X137667344Y-99848964D01*
X137763851Y-100038370D01*
X137888790Y-100210336D01*
X138002330Y-100323876D01*
X138035815Y-100385199D01*
X138030831Y-100454891D01*
X137988959Y-100510824D01*
X137957983Y-100527739D01*
X137826569Y-100576753D01*
X137826564Y-100576756D01*
X137711355Y-100663002D01*
X137711352Y-100663005D01*
X137625106Y-100778214D01*
X137625102Y-100778221D01*
X137574808Y-100913067D01*
X137568816Y-100968804D01*
X137568401Y-100972673D01*
X137568400Y-100972685D01*
X137568400Y-102768420D01*
X137568401Y-102768426D01*
X137574808Y-102828033D01*
X137625102Y-102962878D01*
X137625106Y-102962885D01*
X137711352Y-103078094D01*
X137711355Y-103078097D01*
X137826564Y-103164343D01*
X137826571Y-103164347D01*
X137961417Y-103214641D01*
X137961416Y-103214641D01*
X137968344Y-103215385D01*
X138021027Y-103221050D01*
X139816772Y-103221049D01*
X139876383Y-103214641D01*
X140011231Y-103164346D01*
X140051188Y-103134433D01*
X140116653Y-103110016D01*
X140184926Y-103124867D01*
X140234332Y-103174272D01*
X140249500Y-103233700D01*
X140249500Y-103689709D01*
X140243262Y-103710951D01*
X140241684Y-103733036D01*
X140233610Y-103743822D01*
X140229815Y-103756748D01*
X140213084Y-103771244D01*
X140199816Y-103788972D01*
X140187191Y-103793681D01*
X140177011Y-103802503D01*
X140155099Y-103805653D01*
X140134353Y-103813393D01*
X140121187Y-103810529D01*
X140107853Y-103812447D01*
X140087715Y-103803250D01*
X140066079Y-103798545D01*
X140048345Y-103785271D01*
X140044297Y-103783422D01*
X140037824Y-103777395D01*
X140029194Y-103768766D01*
X140029189Y-103768761D01*
X139949189Y-103688761D01*
X139949188Y-103688760D01*
X139949187Y-103688759D01*
X139818085Y-103601159D01*
X139818072Y-103601152D01*
X139672401Y-103540814D01*
X139672389Y-103540811D01*
X139517745Y-103510050D01*
X139517742Y-103510050D01*
X139360058Y-103510050D01*
X139360055Y-103510050D01*
X139205410Y-103540811D01*
X139205398Y-103540814D01*
X139059727Y-103601152D01*
X139059714Y-103601159D01*
X138928611Y-103688760D01*
X138816580Y-103800791D01*
X138755257Y-103834275D01*
X138685565Y-103829291D01*
X138641217Y-103800789D01*
X138629189Y-103788761D01*
X138629188Y-103788760D01*
X138629187Y-103788759D01*
X138498085Y-103701159D01*
X138498072Y-103701152D01*
X138352401Y-103640814D01*
X138352389Y-103640811D01*
X138197745Y-103610050D01*
X138197742Y-103610050D01*
X138040058Y-103610050D01*
X138040055Y-103610050D01*
X137885410Y-103640811D01*
X137885398Y-103640814D01*
X137739727Y-103701152D01*
X137739714Y-103701159D01*
X137608611Y-103788760D01*
X137608607Y-103788763D01*
X137497113Y-103900257D01*
X137497110Y-103900261D01*
X137409509Y-104031364D01*
X137409502Y-104031377D01*
X137349164Y-104177048D01*
X137349161Y-104177060D01*
X137318400Y-104331703D01*
X137318400Y-104489396D01*
X137349161Y-104644039D01*
X137349164Y-104644051D01*
X137408961Y-104788414D01*
X137418400Y-104835866D01*
X137418400Y-105232750D01*
X137401790Y-105294745D01*
X137396301Y-105304252D01*
X137396296Y-105304263D01*
X137345800Y-105426170D01*
X137311724Y-105553341D01*
X137294500Y-105684166D01*
X137294500Y-106315833D01*
X137311724Y-106446658D01*
X137311725Y-106446662D01*
X137321192Y-106481994D01*
X137345800Y-106573829D01*
X137396302Y-106695750D01*
X137396303Y-106695751D01*
X137462120Y-106809749D01*
X137462132Y-106809767D01*
X137538644Y-106909477D01*
X137542459Y-106914449D01*
X137635551Y-107007541D01*
X137635555Y-107007544D01*
X137740232Y-107087867D01*
X137740236Y-107087869D01*
X137740243Y-107087875D01*
X137740250Y-107087879D01*
X137854248Y-107153696D01*
X137854249Y-107153697D01*
X137854252Y-107153698D01*
X137854257Y-107153701D01*
X137976171Y-107204200D01*
X138103338Y-107238275D01*
X138234174Y-107255500D01*
X138234181Y-107255500D01*
X138800000Y-107255500D01*
X138871940Y-107250355D01*
X138909259Y-107239396D01*
X138961841Y-107235636D01*
X139100000Y-107255500D01*
X139100003Y-107255500D01*
X139665819Y-107255500D01*
X139665826Y-107255500D01*
X139796662Y-107238275D01*
X139923829Y-107204200D01*
X140045743Y-107153701D01*
X140063498Y-107143449D01*
X140131398Y-107126976D01*
X140197425Y-107149827D01*
X140240617Y-107204747D01*
X140249500Y-107250836D01*
X140249500Y-107917060D01*
X140229815Y-107984099D01*
X140213181Y-108004741D01*
X139944191Y-108273731D01*
X139882868Y-108307216D01*
X139856510Y-108310050D01*
X137140054Y-108310050D01*
X136993622Y-108339177D01*
X136993623Y-108339178D01*
X136985405Y-108340812D01*
X136985399Y-108340814D01*
X136839727Y-108401152D01*
X136839714Y-108401159D01*
X136718957Y-108481848D01*
X136718955Y-108481849D01*
X136708612Y-108488759D01*
X136708607Y-108488763D01*
X136228079Y-108969293D01*
X136108611Y-109088761D01*
X136075712Y-109121660D01*
X135997109Y-109200262D01*
X135909509Y-109331364D01*
X135909502Y-109331377D01*
X135849164Y-109477048D01*
X135849161Y-109477060D01*
X135818400Y-109631703D01*
X135818400Y-113989396D01*
X135849161Y-114144039D01*
X135849164Y-114144051D01*
X135909502Y-114289722D01*
X135909509Y-114289735D01*
X135997110Y-114420838D01*
X135997113Y-114420842D01*
X136108607Y-114532336D01*
X136108611Y-114532339D01*
X136239714Y-114619940D01*
X136239727Y-114619947D01*
X136385398Y-114680285D01*
X136385403Y-114680287D01*
X136510749Y-114705220D01*
X136540053Y-114711049D01*
X136540056Y-114711050D01*
X136540058Y-114711050D01*
X136697744Y-114711050D01*
X136697745Y-114711049D01*
X136852397Y-114680287D01*
X136987857Y-114624178D01*
X136998072Y-114619947D01*
X136998072Y-114619946D01*
X136998079Y-114619944D01*
X137129189Y-114532339D01*
X137240689Y-114420839D01*
X137328294Y-114289729D01*
X137388637Y-114144047D01*
X137419400Y-113989392D01*
X137419400Y-110093490D01*
X137428044Y-110064049D01*
X137434568Y-110034063D01*
X137438322Y-110029047D01*
X137439085Y-110026451D01*
X137455719Y-110005809D01*
X137514159Y-109947369D01*
X137575482Y-109913884D01*
X137601840Y-109911050D01*
X140318294Y-109911050D01*
X140318295Y-109911049D01*
X140472947Y-109880287D01*
X140618629Y-109819944D01*
X140749739Y-109732339D01*
X141671789Y-108810289D01*
X141759394Y-108679179D01*
X141819737Y-108533497D01*
X141850500Y-108378842D01*
X141850500Y-108221157D01*
X141850500Y-99224263D01*
X143149500Y-99224263D01*
X143149500Y-99436836D01*
X143178414Y-99619395D01*
X143182754Y-99646793D01*
X143235878Y-99810292D01*
X143248444Y-99848964D01*
X143344951Y-100038370D01*
X143469890Y-100210336D01*
X143583430Y-100323876D01*
X143616915Y-100385199D01*
X143611931Y-100454891D01*
X143570059Y-100510824D01*
X143539083Y-100527739D01*
X143407669Y-100576753D01*
X143407664Y-100576756D01*
X143292455Y-100663002D01*
X143292452Y-100663005D01*
X143206206Y-100778214D01*
X143206202Y-100778221D01*
X143155908Y-100913067D01*
X143149916Y-100968804D01*
X143149501Y-100972673D01*
X143149500Y-100972685D01*
X143149500Y-102768420D01*
X143149501Y-102768426D01*
X143155908Y-102828033D01*
X143206202Y-102962878D01*
X143206206Y-102962885D01*
X143292452Y-103078094D01*
X143292455Y-103078097D01*
X143407664Y-103164343D01*
X143407671Y-103164347D01*
X143542517Y-103214641D01*
X143542516Y-103214641D01*
X143549444Y-103215385D01*
X143602127Y-103221050D01*
X145397872Y-103221049D01*
X145457483Y-103214641D01*
X145592331Y-103164346D01*
X145707546Y-103078096D01*
X145793796Y-102962881D01*
X145844091Y-102828033D01*
X145850500Y-102768423D01*
X145850499Y-100972678D01*
X145844091Y-100913067D01*
X145793796Y-100778219D01*
X145793795Y-100778218D01*
X145793793Y-100778214D01*
X145707547Y-100663005D01*
X145707544Y-100663002D01*
X145592335Y-100576756D01*
X145592328Y-100576752D01*
X145460917Y-100527739D01*
X145404983Y-100485868D01*
X145380566Y-100420403D01*
X145395418Y-100352130D01*
X145416563Y-100323882D01*
X145530104Y-100210342D01*
X145655051Y-100038366D01*
X145751557Y-99848962D01*
X145817246Y-99646793D01*
X145850500Y-99436837D01*
X145850500Y-99264263D01*
X147149500Y-99264263D01*
X147149500Y-99476836D01*
X147181636Y-99679738D01*
X147182754Y-99686793D01*
X147222881Y-99810292D01*
X147248444Y-99888964D01*
X147344951Y-100078370D01*
X147469890Y-100250336D01*
X147583430Y-100363876D01*
X147616915Y-100425199D01*
X147611931Y-100494891D01*
X147570059Y-100550824D01*
X147539083Y-100567739D01*
X147407669Y-100616753D01*
X147407664Y-100616756D01*
X147292455Y-100703002D01*
X147292452Y-100703005D01*
X147206206Y-100818214D01*
X147206202Y-100818221D01*
X147155908Y-100953067D01*
X147149501Y-101012666D01*
X147149501Y-101012673D01*
X147149500Y-101012685D01*
X147149500Y-102808420D01*
X147149501Y-102808426D01*
X147155908Y-102868033D01*
X147206202Y-103002878D01*
X147206206Y-103002885D01*
X147292452Y-103118094D01*
X147292455Y-103118097D01*
X147407664Y-103204343D01*
X147407671Y-103204347D01*
X147542517Y-103254641D01*
X147542516Y-103254641D01*
X147549444Y-103255385D01*
X147602127Y-103261050D01*
X149397872Y-103261049D01*
X149457483Y-103254641D01*
X149592331Y-103204346D01*
X149707546Y-103118096D01*
X149793796Y-103002881D01*
X149844091Y-102868033D01*
X149850500Y-102808423D01*
X149850499Y-101012678D01*
X149844091Y-100953067D01*
X149793796Y-100818219D01*
X149793795Y-100818218D01*
X149793793Y-100818214D01*
X149707547Y-100703005D01*
X149707544Y-100703002D01*
X149592335Y-100616756D01*
X149592328Y-100616752D01*
X149460917Y-100567739D01*
X149404983Y-100525868D01*
X149380566Y-100460403D01*
X149395418Y-100392130D01*
X149416563Y-100363882D01*
X149530104Y-100250342D01*
X149559166Y-100210342D01*
X149638970Y-100100500D01*
X149655051Y-100078366D01*
X149751557Y-99888962D01*
X149817246Y-99686793D01*
X149850500Y-99476837D01*
X149850500Y-99264263D01*
X151149500Y-99264263D01*
X151149500Y-99476836D01*
X151181636Y-99679738D01*
X151182754Y-99686793D01*
X151222881Y-99810292D01*
X151248444Y-99888964D01*
X151344951Y-100078370D01*
X151469890Y-100250336D01*
X151583430Y-100363876D01*
X151616915Y-100425199D01*
X151611931Y-100494891D01*
X151570059Y-100550824D01*
X151539083Y-100567739D01*
X151407669Y-100616753D01*
X151407664Y-100616756D01*
X151292455Y-100703002D01*
X151292452Y-100703005D01*
X151206206Y-100818214D01*
X151206202Y-100818221D01*
X151155908Y-100953067D01*
X151149501Y-101012666D01*
X151149501Y-101012673D01*
X151149500Y-101012685D01*
X151149500Y-102808420D01*
X151149501Y-102808426D01*
X151155908Y-102868033D01*
X151206202Y-103002878D01*
X151206206Y-103002885D01*
X151292452Y-103118094D01*
X151292455Y-103118097D01*
X151407664Y-103204343D01*
X151407671Y-103204347D01*
X151542517Y-103254641D01*
X151542516Y-103254641D01*
X151549444Y-103255385D01*
X151602127Y-103261050D01*
X153397872Y-103261049D01*
X153457483Y-103254641D01*
X153592331Y-103204346D01*
X153707546Y-103118096D01*
X153793796Y-103002881D01*
X153844091Y-102868033D01*
X153850500Y-102808423D01*
X153850499Y-101012678D01*
X153844091Y-100953067D01*
X153793796Y-100818219D01*
X153793795Y-100818218D01*
X153793793Y-100818214D01*
X153707547Y-100703005D01*
X153707544Y-100703002D01*
X153592335Y-100616756D01*
X153592328Y-100616752D01*
X153460917Y-100567739D01*
X153404983Y-100525868D01*
X153380566Y-100460403D01*
X153395418Y-100392130D01*
X153416563Y-100363882D01*
X153530104Y-100250342D01*
X153559166Y-100210342D01*
X153638970Y-100100500D01*
X153655051Y-100078366D01*
X153751557Y-99888962D01*
X153817246Y-99686793D01*
X153850500Y-99476837D01*
X153850500Y-99264263D01*
X153817246Y-99054307D01*
X153751557Y-98852138D01*
X153655051Y-98662734D01*
X153655049Y-98662731D01*
X153655048Y-98662729D01*
X153530109Y-98490763D01*
X153379786Y-98340440D01*
X153207820Y-98215501D01*
X153018414Y-98118994D01*
X153018413Y-98118993D01*
X153018412Y-98118993D01*
X152816243Y-98053304D01*
X152816241Y-98053303D01*
X152816240Y-98053303D01*
X152654957Y-98027758D01*
X152606287Y-98020050D01*
X152393713Y-98020050D01*
X152345042Y-98027758D01*
X152183760Y-98053303D01*
X151981585Y-98118994D01*
X151792179Y-98215501D01*
X151620213Y-98340440D01*
X151469890Y-98490763D01*
X151344951Y-98662729D01*
X151248444Y-98852135D01*
X151182753Y-99054310D01*
X151149500Y-99264263D01*
X149850500Y-99264263D01*
X149817246Y-99054307D01*
X149751557Y-98852138D01*
X149655051Y-98662734D01*
X149655049Y-98662731D01*
X149655048Y-98662729D01*
X149530109Y-98490763D01*
X149379786Y-98340440D01*
X149207820Y-98215501D01*
X149018414Y-98118994D01*
X149018413Y-98118993D01*
X149018412Y-98118993D01*
X148816243Y-98053304D01*
X148816241Y-98053303D01*
X148816240Y-98053303D01*
X148654957Y-98027758D01*
X148606287Y-98020050D01*
X148393713Y-98020050D01*
X148345042Y-98027758D01*
X148183760Y-98053303D01*
X147981585Y-98118994D01*
X147792179Y-98215501D01*
X147620213Y-98340440D01*
X147469890Y-98490763D01*
X147344951Y-98662729D01*
X147248444Y-98852135D01*
X147182753Y-99054310D01*
X147149500Y-99264263D01*
X145850500Y-99264263D01*
X145850500Y-99224263D01*
X145817246Y-99014307D01*
X145751557Y-98812138D01*
X145655051Y-98622734D01*
X145655049Y-98622731D01*
X145655048Y-98622729D01*
X145530109Y-98450763D01*
X145379786Y-98300440D01*
X145207820Y-98175501D01*
X145018414Y-98078994D01*
X145018413Y-98078993D01*
X145018412Y-98078993D01*
X144816243Y-98013304D01*
X144816241Y-98013303D01*
X144816240Y-98013303D01*
X144654957Y-97987758D01*
X144606287Y-97980050D01*
X144393713Y-97980050D01*
X144345042Y-97987758D01*
X144183760Y-98013303D01*
X143981585Y-98078994D01*
X143792179Y-98175501D01*
X143620213Y-98300440D01*
X143469890Y-98450763D01*
X143344951Y-98622729D01*
X143248444Y-98812135D01*
X143182753Y-99014310D01*
X143149500Y-99224263D01*
X141850500Y-99224263D01*
X141850500Y-96257940D01*
X141870185Y-96190901D01*
X141886819Y-96170259D01*
X146546786Y-91510292D01*
X146546789Y-91510289D01*
X146634394Y-91379179D01*
X146694737Y-91233497D01*
X146725500Y-91078842D01*
X146725500Y-86082940D01*
X146745185Y-86015901D01*
X146761819Y-85995259D01*
X150840686Y-81916392D01*
X150840689Y-81916389D01*
X150928294Y-81785279D01*
X150988638Y-81639597D01*
X151019400Y-81484942D01*
X151019400Y-81327257D01*
X151019400Y-71272870D01*
X151039085Y-71205831D01*
X151069092Y-71173601D01*
X151076446Y-71168096D01*
X151162696Y-71052881D01*
X151212991Y-70918033D01*
X151219400Y-70858423D01*
X151219400Y-70331371D01*
X151219400Y-70212010D01*
X151219400Y-70202021D01*
X151219399Y-70202007D01*
X151219399Y-69762679D01*
X151219398Y-69762673D01*
X151219397Y-69762666D01*
X151212991Y-69703067D01*
X151162696Y-69568219D01*
X151162695Y-69568218D01*
X151162693Y-69568214D01*
X151076447Y-69453005D01*
X151076444Y-69453002D01*
X150961235Y-69366756D01*
X150961228Y-69366752D01*
X150826382Y-69316458D01*
X150826383Y-69316458D01*
X150766783Y-69310051D01*
X150766781Y-69310050D01*
X150766773Y-69310050D01*
X150317442Y-69310050D01*
X150317440Y-69310050D01*
X150120360Y-69310050D01*
X150120357Y-69310050D01*
X149671029Y-69310050D01*
X149671023Y-69310051D01*
X149611416Y-69316458D01*
X149476571Y-69366752D01*
X149476564Y-69366756D01*
X149361355Y-69453002D01*
X149361352Y-69453005D01*
X149275106Y-69568214D01*
X149275102Y-69568221D01*
X149224808Y-69703067D01*
X149218401Y-69762666D01*
X149218401Y-69762673D01*
X149218400Y-69762685D01*
X149218400Y-69844767D01*
X149198715Y-69911806D01*
X149182081Y-69932448D01*
X147851349Y-71263181D01*
X147790026Y-71296666D01*
X147763668Y-71299500D01*
X143351458Y-71299500D01*
X143338536Y-71302070D01*
X143325614Y-71304641D01*
X143325613Y-71304641D01*
X143158167Y-71337947D01*
X143158159Y-71337950D01*
X143104834Y-71360037D01*
X143104834Y-71360038D01*
X143059315Y-71378892D01*
X142976089Y-71413366D01*
X142976079Y-71413371D01*
X142812219Y-71522859D01*
X142745372Y-71589707D01*
X142672861Y-71662218D01*
X142672858Y-71662221D01*
X141484065Y-72851014D01*
X141484062Y-72851017D01*
X141425700Y-72909379D01*
X141344703Y-72990375D01*
X141235215Y-73154236D01*
X141235210Y-73154245D01*
X141188539Y-73266920D01*
X141188537Y-73266926D01*
X141186117Y-73272769D01*
X141159793Y-73336320D01*
X141155313Y-73358844D01*
X141143947Y-73415980D01*
X141142270Y-73421589D01*
X141126296Y-73446169D01*
X141112705Y-73472152D01*
X141107476Y-73475129D01*
X141104198Y-73480174D01*
X141077466Y-73492218D01*
X141051989Y-73506726D01*
X141042920Y-73507782D01*
X141040495Y-73508876D01*
X141037443Y-73508421D01*
X141023472Y-73510050D01*
X137118008Y-73510050D01*
X137050969Y-73490365D01*
X137030327Y-73473731D01*
X136421205Y-72864609D01*
X136421185Y-72864587D01*
X136277511Y-72720913D01*
X136277507Y-72720910D01*
X136113646Y-72611421D01*
X136113637Y-72611416D01*
X136030459Y-72576963D01*
X135984891Y-72558088D01*
X135931562Y-72535999D01*
X135824329Y-72514669D01*
X135801043Y-72510037D01*
X135738269Y-72497550D01*
X135738267Y-72497550D01*
X132724533Y-72497550D01*
X132724531Y-72497550D01*
X132667158Y-72508962D01*
X132638471Y-72514669D01*
X132531241Y-72535997D01*
X132531233Y-72536000D01*
X132477908Y-72558087D01*
X132477908Y-72558088D01*
X132432389Y-72576942D01*
X132349163Y-72611416D01*
X132349153Y-72611421D01*
X132185293Y-72720909D01*
X132132472Y-72773731D01*
X132045935Y-72860268D01*
X132045932Y-72860271D01*
X131726365Y-73179839D01*
X131432473Y-73473731D01*
X131371150Y-73507216D01*
X131344792Y-73510050D01*
X125688847Y-73510050D01*
X125621808Y-73490365D01*
X125601166Y-73473731D01*
X125307273Y-73179839D01*
X125307270Y-73179835D01*
X125307270Y-73179836D01*
X125300203Y-73172769D01*
X125300203Y-73172768D01*
X125160846Y-73033411D01*
X125160845Y-73033410D01*
X125160844Y-73033409D01*
X124996984Y-72923921D01*
X124996975Y-72923916D01*
X124875636Y-72873656D01*
X124875635Y-72873655D01*
X124868229Y-72870588D01*
X124814900Y-72848499D01*
X124695400Y-72824729D01*
X124691302Y-72823913D01*
X124691299Y-72823913D01*
X124621607Y-72810050D01*
X124621605Y-72810050D01*
X122988847Y-72810050D01*
X122921808Y-72790365D01*
X122901170Y-72773735D01*
X122800296Y-72672861D01*
X122800295Y-72672860D01*
X122800294Y-72672859D01*
X122636434Y-72563371D01*
X122636425Y-72563366D01*
X122546142Y-72525970D01*
X122507679Y-72510038D01*
X122454350Y-72487949D01*
X122454346Y-72487948D01*
X122454342Y-72487946D01*
X122357702Y-72468724D01*
X122261058Y-72449500D01*
X122261055Y-72449500D01*
X118580909Y-72449500D01*
X118580905Y-72449500D01*
X118484262Y-72468724D01*
X118387617Y-72487947D01*
X118387611Y-72487949D01*
X118334284Y-72510037D01*
X118334284Y-72510038D01*
X118288765Y-72528892D01*
X118205539Y-72563366D01*
X118205529Y-72563371D01*
X118041669Y-72672859D01*
X118005380Y-72709149D01*
X117902311Y-72812218D01*
X117902310Y-72812218D01*
X117902309Y-72812219D01*
X114490035Y-76224494D01*
X114428712Y-76257979D01*
X114359020Y-76252995D01*
X114314673Y-76224494D01*
X111178942Y-73088763D01*
X111178938Y-73088760D01*
X111047835Y-73001159D01*
X111047822Y-73001152D01*
X110902151Y-72940814D01*
X110902139Y-72940811D01*
X110747495Y-72910050D01*
X110747492Y-72910050D01*
X110540058Y-72910050D01*
X110540055Y-72910050D01*
X110385410Y-72940811D01*
X110385398Y-72940814D01*
X110239727Y-73001152D01*
X110239714Y-73001159D01*
X110108611Y-73088760D01*
X110108607Y-73088763D01*
X109997113Y-73200257D01*
X109997110Y-73200261D01*
X109909509Y-73331364D01*
X109909502Y-73331377D01*
X109849164Y-73477048D01*
X109849161Y-73477060D01*
X109818400Y-73631703D01*
X109818400Y-73789396D01*
X109849161Y-73944039D01*
X109849164Y-73944051D01*
X109909502Y-74089722D01*
X109909509Y-74089735D01*
X109997110Y-74220838D01*
X109997113Y-74220842D01*
X110108610Y-74332339D01*
X110244787Y-74423329D01*
X110244360Y-74423966D01*
X110266144Y-74440122D01*
X113860831Y-78034809D01*
X113875534Y-78061736D01*
X113892127Y-78087555D01*
X113893018Y-78093755D01*
X113894316Y-78096132D01*
X113897150Y-78122490D01*
X113897150Y-78136567D01*
X113877465Y-78203606D01*
X113860831Y-78224248D01*
X112612181Y-79472898D01*
X112550858Y-79506383D01*
X112481166Y-79501399D01*
X112425233Y-79459527D01*
X112400816Y-79394063D01*
X112400500Y-79385217D01*
X112400500Y-78877256D01*
X112400499Y-78877254D01*
X112393442Y-78841775D01*
X112392280Y-78835931D01*
X112369737Y-78722602D01*
X112327717Y-78621158D01*
X112309394Y-78576921D01*
X112271909Y-78520821D01*
X112221790Y-78445812D01*
X112221789Y-78445811D01*
X112110289Y-78334311D01*
X112054189Y-78278211D01*
X112054188Y-78278210D01*
X112054187Y-78278209D01*
X111923085Y-78190609D01*
X111923072Y-78190602D01*
X111777401Y-78130264D01*
X111777389Y-78130261D01*
X111622745Y-78099500D01*
X111622742Y-78099500D01*
X111465058Y-78099500D01*
X111465055Y-78099500D01*
X111310410Y-78130261D01*
X111310398Y-78130264D01*
X111164727Y-78190602D01*
X111164714Y-78190609D01*
X111033611Y-78278210D01*
X111033607Y-78278213D01*
X110922113Y-78389707D01*
X110922110Y-78389711D01*
X110834509Y-78520814D01*
X110834502Y-78520827D01*
X110774164Y-78666498D01*
X110774161Y-78666510D01*
X110743400Y-78821153D01*
X110743400Y-78978846D01*
X110774161Y-79133489D01*
X110774164Y-79133501D01*
X110790061Y-79171879D01*
X110799500Y-79219331D01*
X110799500Y-81970496D01*
X110830261Y-82125139D01*
X110830264Y-82125151D01*
X110890602Y-82270822D01*
X110890609Y-82270835D01*
X110978210Y-82401938D01*
X110978213Y-82401942D01*
X111163181Y-82586909D01*
X111196666Y-82648232D01*
X111199500Y-82674590D01*
X111199500Y-83575500D01*
X111179815Y-83642539D01*
X111127011Y-83688294D01*
X111075500Y-83699500D01*
X110921155Y-83699500D01*
X110766510Y-83730261D01*
X110766498Y-83730264D01*
X110620827Y-83790602D01*
X110620814Y-83790609D01*
X110489711Y-83878210D01*
X110489707Y-83878213D01*
X110378213Y-83989707D01*
X110378210Y-83989711D01*
X110290609Y-84120814D01*
X110290602Y-84120827D01*
X110230264Y-84266498D01*
X110230261Y-84266510D01*
X110199500Y-84421153D01*
X110199500Y-86346510D01*
X110179815Y-86413549D01*
X110163181Y-86434191D01*
X107628611Y-88968761D01*
X107572860Y-89024512D01*
X107517109Y-89080262D01*
X107429509Y-89211364D01*
X107429502Y-89211377D01*
X107369164Y-89357048D01*
X107369161Y-89357060D01*
X107338400Y-89511703D01*
X107338400Y-93968160D01*
X107318715Y-94035199D01*
X107302081Y-94055841D01*
X106859711Y-94498211D01*
X106813883Y-94544039D01*
X106748209Y-94609712D01*
X106660609Y-94740814D01*
X106660602Y-94740827D01*
X106600264Y-94886498D01*
X106600261Y-94886510D01*
X106569500Y-95041153D01*
X106569500Y-97663139D01*
X106567117Y-97687330D01*
X106538990Y-97828737D01*
X106538490Y-97830962D01*
X106538399Y-97831709D01*
X106538399Y-98003266D01*
X106518714Y-98070305D01*
X106502081Y-98090947D01*
X106397109Y-98195919D01*
X106309508Y-98327022D01*
X106309501Y-98327035D01*
X106249162Y-98472709D01*
X106249160Y-98472718D01*
X106219323Y-98622723D01*
X106219320Y-98622740D01*
X106218399Y-98627365D01*
X106218399Y-99803609D01*
X106218400Y-99803611D01*
X106249161Y-99958254D01*
X106249164Y-99958266D01*
X106309503Y-100103939D01*
X106309507Y-100103946D01*
X106320847Y-100120916D01*
X106320848Y-100120921D01*
X106320850Y-100120921D01*
X106397110Y-100235052D01*
X106397113Y-100235056D01*
X107043181Y-100881123D01*
X107076666Y-100942446D01*
X107079500Y-100968804D01*
X107079500Y-106278846D01*
X107110261Y-106433489D01*
X107110264Y-106433501D01*
X107170602Y-106579171D01*
X107170604Y-106579175D01*
X107170606Y-106579179D01*
X107180977Y-106594700D01*
X107201855Y-106661377D01*
X107183371Y-106728757D01*
X107165560Y-106751269D01*
X107159494Y-106757334D01*
X107090313Y-106877161D01*
X107090312Y-106877164D01*
X107054500Y-107010817D01*
X107054500Y-107149183D01*
X107088494Y-107276049D01*
X107090312Y-107282835D01*
X107090313Y-107282838D01*
X107159492Y-107402661D01*
X107159496Y-107402666D01*
X107165556Y-107408726D01*
X107199041Y-107470049D01*
X107194057Y-107539741D01*
X107180980Y-107565294D01*
X107170609Y-107580816D01*
X107170602Y-107580828D01*
X107110264Y-107726498D01*
X107110261Y-107726510D01*
X107078311Y-107887132D01*
X107075874Y-107886647D01*
X107053762Y-107941341D01*
X107044235Y-107952037D01*
X106735538Y-108260735D01*
X106484572Y-108511701D01*
X106433871Y-108562402D01*
X106373070Y-108623202D01*
X106285470Y-108754304D01*
X106285463Y-108754317D01*
X106225125Y-108899988D01*
X106225122Y-108900000D01*
X106194361Y-109054643D01*
X105530500Y-109054643D01*
X105530500Y-69563584D01*
X105517073Y-69453004D01*
X105495204Y-69272895D01*
X105425126Y-68988578D01*
X105321288Y-68714780D01*
X105321264Y-68714735D01*
X105299623Y-68673501D01*
X105185205Y-68455495D01*
X105130850Y-68376747D01*
X105108967Y-68310392D01*
X105108900Y-68306307D01*
X105108900Y-67710550D01*
X104512896Y-67710550D01*
X104445857Y-67690865D01*
X104442456Y-67688600D01*
X104364513Y-67634800D01*
X104364509Y-67634798D01*
X104364505Y-67634795D01*
X104222778Y-67560411D01*
X104222777Y-67560410D01*
X104105227Y-67498715D01*
X104105222Y-67498713D01*
X104105220Y-67498712D01*
X103994457Y-67456705D01*
X103994452Y-67456703D01*
X110018400Y-67456703D01*
X110018400Y-68414396D01*
X110049161Y-68569039D01*
X110049164Y-68569051D01*
X110109502Y-68714722D01*
X110109509Y-68714735D01*
X110197109Y-68845837D01*
X110197110Y-68845838D01*
X110197111Y-68845839D01*
X110259611Y-68908339D01*
X110339844Y-68988572D01*
X110371112Y-69019840D01*
X110502216Y-69107441D01*
X110502217Y-69107441D01*
X110502221Y-69107444D01*
X110571283Y-69136050D01*
X110647902Y-69167787D01*
X110802552Y-69198549D01*
X110802555Y-69198550D01*
X110802557Y-69198550D01*
X110802558Y-69198550D01*
X113694400Y-69198550D01*
X113761439Y-69218235D01*
X113807194Y-69271039D01*
X113818400Y-69322550D01*
X113818400Y-70789396D01*
X113849161Y-70944039D01*
X113849164Y-70944051D01*
X113909502Y-71089722D01*
X113909509Y-71089735D01*
X113997502Y-71221424D01*
X114003152Y-71239470D01*
X114013377Y-71255380D01*
X114017828Y-71286339D01*
X114018380Y-71288101D01*
X114018400Y-71290315D01*
X114018400Y-71434992D01*
X113998715Y-71502031D01*
X113992777Y-71510477D01*
X113981029Y-71525786D01*
X113915201Y-71639802D01*
X113864700Y-71761720D01*
X113830624Y-71888891D01*
X113813400Y-72019716D01*
X113813400Y-72651383D01*
X113829508Y-72773731D01*
X113830625Y-72782212D01*
X113864700Y-72909379D01*
X113870721Y-72923916D01*
X113915202Y-73031300D01*
X113915203Y-73031301D01*
X113981020Y-73145299D01*
X113981032Y-73145317D01*
X114061355Y-73249994D01*
X114061359Y-73249999D01*
X114154451Y-73343091D01*
X114154455Y-73343094D01*
X114259132Y-73423417D01*
X114259136Y-73423419D01*
X114259143Y-73423425D01*
X114259150Y-73423429D01*
X114373148Y-73489246D01*
X114373149Y-73489247D01*
X114373152Y-73489248D01*
X114373157Y-73489251D01*
X114495071Y-73539750D01*
X114622238Y-73573825D01*
X114753074Y-73591050D01*
X114753081Y-73591050D01*
X115318900Y-73591050D01*
X115390840Y-73585905D01*
X115428159Y-73574946D01*
X115480741Y-73571186D01*
X115618900Y-73591050D01*
X115618903Y-73591050D01*
X116184719Y-73591050D01*
X116184726Y-73591050D01*
X116315562Y-73573825D01*
X116442729Y-73539750D01*
X116564643Y-73489251D01*
X116678657Y-73423425D01*
X116783349Y-73343091D01*
X116876441Y-73249999D01*
X116889899Y-73232459D01*
X116940821Y-73193385D01*
X117033629Y-73154944D01*
X117164739Y-73067339D01*
X117621788Y-72610290D01*
X117621789Y-72610289D01*
X117709394Y-72479179D01*
X117769737Y-72333497D01*
X117800500Y-72178842D01*
X117800500Y-72021158D01*
X117800500Y-72021155D01*
X117800499Y-72021153D01*
X117774190Y-71888891D01*
X117769737Y-71866503D01*
X117764093Y-71852878D01*
X117709397Y-71720827D01*
X117709390Y-71720814D01*
X117621789Y-71589711D01*
X117621786Y-71589707D01*
X117510292Y-71478213D01*
X117510288Y-71478210D01*
X117379185Y-71390609D01*
X117379172Y-71390602D01*
X117233501Y-71330264D01*
X117233489Y-71330261D01*
X117078845Y-71299500D01*
X117078842Y-71299500D01*
X116921157Y-71299500D01*
X116921152Y-71299500D01*
X116837317Y-71316176D01*
X116767725Y-71309949D01*
X116737639Y-71292934D01*
X116678667Y-71247682D01*
X116678649Y-71247670D01*
X116564651Y-71181853D01*
X116564650Y-71181852D01*
X116442729Y-71131350D01*
X116315558Y-71097274D01*
X116184733Y-71080050D01*
X116184726Y-71080050D01*
X115743400Y-71080050D01*
X115676361Y-71060365D01*
X115630606Y-71007561D01*
X115619400Y-70956050D01*
X115619400Y-70831709D01*
X115610003Y-70784464D01*
X115610003Y-70784463D01*
X115588639Y-70677060D01*
X115588638Y-70677053D01*
X115588636Y-70677048D01*
X115559542Y-70606808D01*
X115541265Y-70562685D01*
X118418400Y-70562685D01*
X118418400Y-71658420D01*
X118418401Y-71658426D01*
X118424808Y-71718033D01*
X118475102Y-71852878D01*
X118475106Y-71852885D01*
X118561352Y-71968094D01*
X118561355Y-71968097D01*
X118676564Y-72054343D01*
X118676571Y-72054347D01*
X118811417Y-72104641D01*
X118811416Y-72104641D01*
X118818344Y-72105385D01*
X118871027Y-72111050D01*
X119966772Y-72111049D01*
X120026383Y-72104641D01*
X120161231Y-72054346D01*
X120276446Y-71968096D01*
X120362696Y-71852881D01*
X120412991Y-71718033D01*
X120419400Y-71658423D01*
X120419399Y-70562678D01*
X120412991Y-70503067D01*
X120374428Y-70399675D01*
X120362697Y-70368221D01*
X120362693Y-70368214D01*
X120276447Y-70253005D01*
X120276444Y-70253002D01*
X120161235Y-70166756D01*
X120161228Y-70166752D01*
X120026382Y-70116458D01*
X120026383Y-70116458D01*
X119966783Y-70110051D01*
X119966781Y-70110050D01*
X119966773Y-70110050D01*
X119966764Y-70110050D01*
X118871029Y-70110050D01*
X118871023Y-70110051D01*
X118811416Y-70116458D01*
X118676571Y-70166752D01*
X118676564Y-70166756D01*
X118561355Y-70253002D01*
X118561352Y-70253005D01*
X118475106Y-70368214D01*
X118475102Y-70368221D01*
X118424808Y-70503067D01*
X118418401Y-70562666D01*
X118418401Y-70562673D01*
X118418400Y-70562685D01*
X115541265Y-70562685D01*
X115528295Y-70531374D01*
X115528294Y-70531371D01*
X115528292Y-70531368D01*
X115528290Y-70531364D01*
X115440298Y-70399675D01*
X115419420Y-70332997D01*
X115419400Y-70330784D01*
X115419400Y-69322550D01*
X115439085Y-69255511D01*
X115491889Y-69209756D01*
X115543400Y-69198550D01*
X121410244Y-69198550D01*
X121410245Y-69198549D01*
X121564897Y-69167787D01*
X121710579Y-69107444D01*
X121841689Y-69019839D01*
X121965689Y-68895839D01*
X122053294Y-68764729D01*
X122113638Y-68619047D01*
X122144400Y-68464392D01*
X122144400Y-68306707D01*
X122144400Y-67456708D01*
X122144400Y-67456705D01*
X122144399Y-67456703D01*
X122137790Y-67423478D01*
X122113637Y-67302053D01*
X122113635Y-67302048D01*
X122053297Y-67156377D01*
X122053290Y-67156364D01*
X121965689Y-67025261D01*
X121965686Y-67025257D01*
X121854192Y-66913763D01*
X121854188Y-66913760D01*
X121723085Y-66826159D01*
X121723072Y-66826152D01*
X121577401Y-66765814D01*
X121577389Y-66765811D01*
X121422745Y-66735050D01*
X121422742Y-66735050D01*
X121265058Y-66735050D01*
X121265055Y-66735050D01*
X121110410Y-66765811D01*
X121110398Y-66765814D01*
X120964727Y-66826152D01*
X120964714Y-66826159D01*
X120833611Y-66913760D01*
X120833607Y-66913763D01*
X120722113Y-67025257D01*
X120722110Y-67025261D01*
X120634509Y-67156364D01*
X120634502Y-67156377D01*
X120574164Y-67302048D01*
X120574161Y-67302060D01*
X120543400Y-67456703D01*
X120543400Y-67473550D01*
X120523715Y-67540589D01*
X120470911Y-67586344D01*
X120419400Y-67597550D01*
X111743400Y-67597550D01*
X111676361Y-67577865D01*
X111630606Y-67525061D01*
X111619400Y-67473550D01*
X111619400Y-67456705D01*
X111619399Y-67456703D01*
X111612790Y-67423478D01*
X111588637Y-67302053D01*
X111588635Y-67302048D01*
X111528297Y-67156377D01*
X111528290Y-67156364D01*
X111440689Y-67025261D01*
X111440686Y-67025257D01*
X111329192Y-66913763D01*
X111329188Y-66913760D01*
X111198085Y-66826159D01*
X111198072Y-66826152D01*
X111052401Y-66765814D01*
X111052389Y-66765811D01*
X110897745Y-66735050D01*
X110897742Y-66735050D01*
X110740058Y-66735050D01*
X110740055Y-66735050D01*
X110585410Y-66765811D01*
X110585398Y-66765814D01*
X110439727Y-66826152D01*
X110439714Y-66826159D01*
X110308611Y-66913760D01*
X110308607Y-66913763D01*
X110197113Y-67025257D01*
X110197110Y-67025261D01*
X110109509Y-67156364D01*
X110109502Y-67156377D01*
X110049164Y-67302048D01*
X110049161Y-67302060D01*
X110018400Y-67456703D01*
X103994452Y-67456703D01*
X103831427Y-67394875D01*
X103763436Y-67378117D01*
X103547105Y-67324796D01*
X103401759Y-67307148D01*
X103256416Y-67289500D01*
X103256413Y-67289500D01*
X103165360Y-67289500D01*
X100497214Y-67289500D01*
X100488358Y-67289183D01*
X100417790Y-67284130D01*
X100276658Y-67274024D01*
X100259132Y-67271502D01*
X100056082Y-67227288D01*
X100039093Y-67222295D01*
X99844407Y-67149608D01*
X99828304Y-67142246D01*
X99645965Y-67042576D01*
X99631073Y-67032994D01*
X99464783Y-66908362D01*
X99451408Y-66896758D01*
X99304576Y-66749722D01*
X99292990Y-66736331D01*
X99168586Y-66569864D01*
X99159026Y-66554960D01*
X99135127Y-66511095D01*
X99059605Y-66372477D01*
X99052271Y-66356377D01*
X98979847Y-66161570D01*
X98974884Y-66144594D01*
X98930951Y-65941481D01*
X98928454Y-65923963D01*
X98913587Y-65712213D01*
X98913284Y-65703359D01*
X98913297Y-65694140D01*
X98915722Y-63945528D01*
X128649500Y-63945528D01*
X128649500Y-64254471D01*
X128684086Y-64561437D01*
X128684089Y-64561455D01*
X128752831Y-64862635D01*
X128752835Y-64862647D01*
X128854862Y-65154222D01*
X128854868Y-65154236D01*
X128988903Y-65432562D01*
X128988905Y-65432565D01*
X129153265Y-65694143D01*
X129345880Y-65935674D01*
X129564326Y-66154120D01*
X129805857Y-66346735D01*
X130067435Y-66511095D01*
X130345771Y-66645135D01*
X130345777Y-66645137D01*
X130637352Y-66747164D01*
X130637364Y-66747168D01*
X130938548Y-66815911D01*
X130938554Y-66815911D01*
X130938562Y-66815913D01*
X131143206Y-66838970D01*
X131245529Y-66850499D01*
X131245532Y-66850500D01*
X131245535Y-66850500D01*
X144024468Y-66850500D01*
X144024469Y-66850499D01*
X144181356Y-66832822D01*
X144331437Y-66815913D01*
X144331442Y-66815912D01*
X144331452Y-66815911D01*
X144632636Y-66747168D01*
X144924229Y-66645135D01*
X145202565Y-66511095D01*
X145464143Y-66346735D01*
X145705674Y-66154120D01*
X145924120Y-65935674D01*
X146116735Y-65694143D01*
X146281095Y-65432565D01*
X146415135Y-65154229D01*
X146517168Y-64862636D01*
X146585911Y-64561452D01*
X146620500Y-64254465D01*
X146620500Y-63945535D01*
X146585911Y-63638548D01*
X146517168Y-63337364D01*
X146415135Y-63045771D01*
X146281095Y-62767435D01*
X146116735Y-62505857D01*
X145924120Y-62264326D01*
X145705674Y-62045880D01*
X145704560Y-62044992D01*
X145644334Y-61996963D01*
X145464143Y-61853265D01*
X145202565Y-61688905D01*
X145202562Y-61688903D01*
X144924236Y-61554868D01*
X144924222Y-61554862D01*
X144632647Y-61452835D01*
X144632635Y-61452831D01*
X144331455Y-61384089D01*
X144331437Y-61384086D01*
X144024471Y-61349500D01*
X144024465Y-61349500D01*
X131245535Y-61349500D01*
X131245528Y-61349500D01*
X130938562Y-61384086D01*
X130938544Y-61384089D01*
X130637364Y-61452831D01*
X130637352Y-61452835D01*
X130345777Y-61554862D01*
X130345763Y-61554868D01*
X130067437Y-61688903D01*
X129805858Y-61853264D01*
X129564326Y-62045879D01*
X129345879Y-62264326D01*
X129153264Y-62505858D01*
X128988903Y-62767437D01*
X128854868Y-63045763D01*
X128854862Y-63045777D01*
X128752835Y-63337352D01*
X128752831Y-63337364D01*
X128684089Y-63638544D01*
X128684086Y-63638562D01*
X128649500Y-63945528D01*
X98915722Y-63945528D01*
X98915727Y-63941884D01*
X98917673Y-62538302D01*
X98917673Y-62538106D01*
X98917723Y-62502213D01*
X98918050Y-62493419D01*
X98933448Y-62282078D01*
X98935986Y-62264589D01*
X98980323Y-62061947D01*
X98985322Y-62044992D01*
X99057070Y-61853264D01*
X99058028Y-61850702D01*
X99065385Y-61834636D01*
X99164981Y-61652650D01*
X99174536Y-61637812D01*
X99299000Y-61471831D01*
X99310576Y-61458492D01*
X99457366Y-61311906D01*
X99470730Y-61300341D01*
X99636878Y-61176111D01*
X99651726Y-61166579D01*
X99833862Y-61067229D01*
X99849920Y-61059903D01*
X100044315Y-60987466D01*
X100061272Y-60982490D01*
X100263991Y-60938431D01*
X100281468Y-60935920D01*
X100480816Y-60921673D01*
X100492825Y-60920815D01*
X100501664Y-60920500D01*
X153439542Y-60920500D01*
X153495572Y-60920500D01*
X153504418Y-60920816D01*
G37*
%TD.AperFunction*%
%TD*%
M02*
