%TF.GenerationSoftware,KiCad,Pcbnew,10.0.3*%
%TF.CreationDate,2026-06-02T14:34:24-04:00*%
%TF.ProjectId,Esp32 Can+IMU,45737033-3220-4436-916e-2b494d552e6b,rev?*%
%TF.SameCoordinates,Original*%
%TF.FileFunction,Paste,Top*%
%TF.FilePolarity,Positive*%
%FSLAX46Y46*%
G04 Gerber Fmt 4.6, Leading zero omitted, Abs format (unit mm)*
G04 Created by KiCad (PCBNEW 10.0.3) date 2026-06-02 14:34:24*
%MOMM*%
%LPD*%
G01*
G04 APERTURE LIST*
G04 Aperture macros list*
%AMRoundRect*
0 Rectangle with rounded corners*
0 $1 Rounding radius*
0 $2 $3 $4 $5 $6 $7 $8 $9 X,Y pos of 4 corners*
0 Add a 4 corners polygon primitive as box body*
4,1,4,$2,$3,$4,$5,$6,$7,$8,$9,$2,$3,0*
0 Add four circle primitives for the rounded corners*
1,1,$1+$1,$2,$3*
1,1,$1+$1,$4,$5*
1,1,$1+$1,$6,$7*
1,1,$1+$1,$8,$9*
0 Add four rect primitives between the rounded corners*
20,1,$1+$1,$2,$3,$4,$5,0*
20,1,$1+$1,$4,$5,$6,$7,0*
20,1,$1+$1,$6,$7,$8,$9,0*
20,1,$1+$1,$8,$9,$2,$3,0*%
G04 Aperture macros list end*
%ADD10C,0.000000*%
%ADD11RoundRect,0.135000X0.185000X-0.135000X0.185000X0.135000X-0.185000X0.135000X-0.185000X-0.135000X0*%
%ADD12RoundRect,0.135000X0.135000X0.185000X-0.135000X0.185000X-0.135000X-0.185000X0.135000X-0.185000X0*%
%ADD13RoundRect,0.150000X-0.512500X-0.150000X0.512500X-0.150000X0.512500X0.150000X-0.512500X0.150000X0*%
%ADD14R,0.533400X0.304800*%
%ADD15R,0.304800X0.533400*%
%ADD16RoundRect,0.250000X-1.000000X-0.650000X1.000000X-0.650000X1.000000X0.650000X-1.000000X0.650000X0*%
%ADD17RoundRect,0.150000X0.150000X0.700000X-0.150000X0.700000X-0.150000X-0.700000X0.150000X-0.700000X0*%
%ADD18RoundRect,0.250000X0.250000X1.100000X-0.250000X1.100000X-0.250000X-1.100000X0.250000X-1.100000X0*%
%ADD19RoundRect,0.135000X-0.185000X0.135000X-0.185000X-0.135000X0.185000X-0.135000X0.185000X0.135000X0*%
%ADD20RoundRect,0.135000X-0.135000X-0.185000X0.135000X-0.185000X0.135000X0.185000X-0.135000X0.185000X0*%
%ADD21RoundRect,0.250000X1.000000X0.650000X-1.000000X0.650000X-1.000000X-0.650000X1.000000X-0.650000X0*%
%ADD22RoundRect,0.140000X0.170000X-0.140000X0.170000X0.140000X-0.170000X0.140000X-0.170000X-0.140000X0*%
%ADD23RoundRect,0.250000X-0.650000X0.325000X-0.650000X-0.325000X0.650000X-0.325000X0.650000X0.325000X0*%
%ADD24RoundRect,0.140000X-0.170000X0.140000X-0.170000X-0.140000X0.170000X-0.140000X0.170000X0.140000X0*%
%ADD25RoundRect,0.218750X0.256250X-0.218750X0.256250X0.218750X-0.256250X0.218750X-0.256250X-0.218750X0*%
%ADD26RoundRect,0.250001X-0.462499X-0.624999X0.462499X-0.624999X0.462499X0.624999X-0.462499X0.624999X0*%
%ADD27RoundRect,0.140000X0.140000X0.170000X-0.140000X0.170000X-0.140000X-0.170000X0.140000X-0.170000X0*%
%ADD28R,0.900000X0.900000*%
%ADD29R,0.900000X1.500000*%
%ADD30R,1.500000X0.900000*%
%ADD31RoundRect,0.250000X-0.300000X-1.600000X0.300000X-1.600000X0.300000X1.600000X-0.300000X1.600000X0*%
%ADD32R,0.700000X1.000000*%
%ADD33R,0.508000X1.257300*%
%ADD34RoundRect,0.250000X0.325000X0.650000X-0.325000X0.650000X-0.325000X-0.650000X0.325000X-0.650000X0*%
%ADD35RoundRect,0.250000X0.650000X-1.000000X0.650000X1.000000X-0.650000X1.000000X-0.650000X-1.000000X0*%
%ADD36RoundRect,0.140000X-0.140000X-0.170000X0.140000X-0.170000X0.140000X0.170000X-0.140000X0.170000X0*%
%ADD37RoundRect,0.150000X0.625000X-0.150000X0.625000X0.150000X-0.625000X0.150000X-0.625000X-0.150000X0*%
%ADD38RoundRect,0.250000X0.650000X-0.350000X0.650000X0.350000X-0.650000X0.350000X-0.650000X-0.350000X0*%
%ADD39RoundRect,0.093750X-0.093750X0.156250X-0.093750X-0.156250X0.093750X-0.156250X0.093750X0.156250X0*%
%ADD40RoundRect,0.075000X-0.075000X0.250000X-0.075000X-0.250000X0.075000X-0.250000X0.075000X0.250000X0*%
%ADD41RoundRect,0.075000X-0.075000X-0.425000X0.075000X-0.425000X0.075000X0.425000X-0.075000X0.425000X0*%
%ADD42C,1.100000*%
%ADD43R,1.257300X0.482600*%
%ADD44RoundRect,0.250000X1.000000X0.900000X-1.000000X0.900000X-1.000000X-0.900000X1.000000X-0.900000X0*%
G04 APERTURE END LIST*
D10*
%TO.C,U4*%
G36*
X139818950Y-88645550D02*
G01*
X137618950Y-88645550D01*
X137618950Y-87295550D01*
X139818950Y-87295550D01*
X139818950Y-88645550D01*
G37*
G36*
X139818950Y-90195550D02*
G01*
X137618950Y-90195550D01*
X137618950Y-88845550D01*
X139818950Y-88845550D01*
X139818950Y-90195550D01*
G37*
%TD*%
D11*
%TO.C,Boot1*%
X107018900Y-74620550D03*
X107018900Y-73600550D03*
%TD*%
D12*
%TO.C,R18*%
X123418900Y-103910550D03*
X122398900Y-103910550D03*
%TD*%
D13*
%TO.C,U5*%
X147481400Y-72960550D03*
X147481400Y-73910550D03*
X147481400Y-74860550D03*
X149756400Y-74860550D03*
X149756400Y-72960550D03*
%TD*%
D14*
%TO.C,U2*%
X125818900Y-116243724D03*
X125818900Y-116743850D03*
X125818900Y-117243976D03*
X125818900Y-117744102D03*
D15*
X126499874Y-117921013D03*
X127000000Y-117921013D03*
X127500126Y-117921013D03*
D14*
X128181100Y-117744102D03*
X128181100Y-117243976D03*
X128181100Y-116743850D03*
X128181100Y-116243724D03*
D15*
X127500126Y-116066813D03*
X127000000Y-116066813D03*
X126499874Y-116066813D03*
%TD*%
D16*
%TO.C,D5*%
X144418900Y-77510550D03*
X148418900Y-77510550D03*
%TD*%
D17*
%TO.C,J1*%
X122593900Y-65885550D03*
X121343900Y-65885550D03*
X120093900Y-65885550D03*
X118843900Y-65885550D03*
D18*
X124443900Y-62685550D03*
X116993900Y-62685550D03*
%TD*%
D19*
%TO.C,R1*%
X132846400Y-87830550D03*
X132846400Y-88850550D03*
%TD*%
D20*
%TO.C,R15*%
X138418900Y-106110550D03*
X139438900Y-106110550D03*
%TD*%
%TO.C,R17*%
X130308900Y-106110550D03*
X131328900Y-106110550D03*
%TD*%
D19*
%TO.C,R7*%
X114080000Y-111110000D03*
X114080000Y-112130000D03*
%TD*%
D21*
%TO.C,D8*%
X143096400Y-82840550D03*
X139096400Y-82840550D03*
%TD*%
D22*
%TO.C,C11*%
X146000000Y-73860000D03*
X146000000Y-72900000D03*
%TD*%
D19*
%TO.C,R22*%
X112500000Y-70890550D03*
X112500000Y-71910550D03*
%TD*%
D23*
%TO.C,C2*%
X127346400Y-86865550D03*
X127346400Y-89815550D03*
%TD*%
D24*
%TO.C,C14*%
X151300000Y-72020000D03*
X151300000Y-72980000D03*
%TD*%
D20*
%TO.C,R19*%
X122398900Y-104910550D03*
X123418900Y-104910550D03*
%TD*%
D25*
%TO.C,D4*%
X115930000Y-115317500D03*
X115930000Y-113742500D03*
%TD*%
D26*
%TO.C,F1*%
X128208900Y-79710550D03*
X131183900Y-79710550D03*
%TD*%
D19*
%TO.C,R5*%
X149596400Y-88340550D03*
X149596400Y-89360550D03*
%TD*%
%TO.C,R2*%
X132846400Y-90340550D03*
X132846400Y-91360550D03*
%TD*%
D22*
%TO.C,C5*%
X143096400Y-89340550D03*
X143096400Y-88380550D03*
%TD*%
D27*
%TO.C,C10*%
X107880000Y-103200000D03*
X106920000Y-103200000D03*
%TD*%
D19*
%TO.C,Reset1*%
X110018900Y-73800550D03*
X110018900Y-74820550D03*
%TD*%
D20*
%TO.C,R12*%
X152000000Y-105870550D03*
X153020000Y-105870550D03*
%TD*%
D28*
%TO.C,U1*%
X112918900Y-94610550D03*
X114318900Y-94610550D03*
X115718900Y-94610550D03*
X112918900Y-93210550D03*
X114318900Y-93210550D03*
X115718900Y-93210550D03*
X112918900Y-91810550D03*
X114318900Y-91810550D03*
X115718900Y-91810550D03*
D29*
X106598900Y-100460550D03*
X107868900Y-100460550D03*
X109138900Y-100460550D03*
X110408900Y-100460550D03*
X111678900Y-100460550D03*
X112948900Y-100460550D03*
X114218900Y-100460550D03*
X115488900Y-100460550D03*
X116758900Y-100460550D03*
X118028900Y-100460550D03*
X119298900Y-100460550D03*
X120568900Y-100460550D03*
X121838900Y-100460550D03*
X123108900Y-100460550D03*
D30*
X124358900Y-98695550D03*
X124358900Y-97425550D03*
X124358900Y-96155550D03*
X124358900Y-94885550D03*
X124358900Y-93615550D03*
X124358900Y-92345550D03*
X124358900Y-91075550D03*
X124358900Y-89805550D03*
X124358900Y-88535550D03*
X124358900Y-87265550D03*
X124358900Y-85995550D03*
X124358900Y-84725550D03*
D29*
X123108900Y-82960550D03*
X121838900Y-82960550D03*
X120568900Y-82960550D03*
X119298900Y-82960550D03*
X118028900Y-82960550D03*
X116758900Y-82960550D03*
X115488900Y-82960550D03*
X114218900Y-82960550D03*
X112948900Y-82960550D03*
X111678900Y-82960550D03*
X110408900Y-82960550D03*
X109138900Y-82960550D03*
X107868900Y-82960550D03*
X106598900Y-82960550D03*
%TD*%
D31*
%TO.C,L1*%
X146096400Y-82340550D03*
X149096400Y-82340550D03*
%TD*%
D32*
%TO.C,SW1*%
X109575000Y-80750000D03*
X109575000Y-76350000D03*
X111775000Y-80750000D03*
X111725000Y-76350000D03*
%TD*%
D33*
%TO.C,U3*%
X113313600Y-79717950D03*
X114583600Y-79717950D03*
X115853600Y-79717950D03*
X117123600Y-79717950D03*
X117123600Y-74472850D03*
X115853600Y-74472850D03*
X114583600Y-74472850D03*
X113313600Y-74472850D03*
%TD*%
D24*
%TO.C,C15*%
X121915000Y-80555000D03*
X121915000Y-81515000D03*
%TD*%
D11*
%TO.C,R23*%
X115810000Y-112590000D03*
X115810000Y-111570000D03*
%TD*%
D34*
%TO.C,C7*%
X141493900Y-79910550D03*
X138543900Y-79910550D03*
%TD*%
D35*
%TO.C,D2*%
X108000000Y-116000000D03*
X108000000Y-112000000D03*
%TD*%
D36*
%TO.C,C13*%
X126338900Y-119743850D03*
X127298900Y-119743850D03*
%TD*%
D17*
%TO.C,J2*%
X112093900Y-65885550D03*
X110843900Y-65885550D03*
X109593900Y-65885550D03*
X108343900Y-65885550D03*
D18*
X113943900Y-62685550D03*
X106493900Y-62685550D03*
%TD*%
D37*
%TO.C,J11*%
X120325000Y-107050000D03*
X120325000Y-106050000D03*
X120325000Y-105050000D03*
X120325000Y-104050000D03*
D38*
X117800000Y-108350000D03*
X117800000Y-102750000D03*
%TD*%
D19*
%TO.C,R8*%
X112790000Y-111230000D03*
X112790000Y-112250000D03*
%TD*%
D22*
%TO.C,C4*%
X136096400Y-85800550D03*
X136096400Y-84840550D03*
%TD*%
D20*
%TO.C,R14*%
X144010000Y-105870550D03*
X145030000Y-105870550D03*
%TD*%
D36*
%TO.C,C12*%
X128418900Y-119743850D03*
X129378900Y-119743850D03*
%TD*%
D16*
%TO.C,D7*%
X127558900Y-83710550D03*
X131558900Y-83710550D03*
%TD*%
D35*
%TO.C,D6*%
X123718900Y-73035550D03*
X123718900Y-69035550D03*
%TD*%
D39*
%TO.C,U6*%
X111515000Y-111430000D03*
D40*
X110977500Y-111355000D03*
D39*
X110440000Y-111430000D03*
X110440000Y-113130000D03*
D40*
X110977500Y-113205000D03*
D39*
X111515000Y-113130000D03*
%TD*%
D41*
%TO.C,J12*%
X108550000Y-106320000D03*
X109340000Y-106320000D03*
X110130000Y-106320000D03*
X110920000Y-106320000D03*
X111710000Y-106320000D03*
X112500000Y-106320000D03*
X113290000Y-106320000D03*
X114080000Y-106320000D03*
X114080000Y-107840000D03*
X113290000Y-107840000D03*
X112500000Y-107840000D03*
X111710000Y-107840000D03*
X110920000Y-107840000D03*
X110130000Y-107840000D03*
X109340000Y-107840000D03*
X108550000Y-107840000D03*
D42*
X108930000Y-104930000D03*
X108930000Y-109230000D03*
X113730000Y-104930000D03*
X113730000Y-109230000D03*
%TD*%
D32*
%TO.C,SW2*%
X108250000Y-76300000D03*
X108250000Y-80700000D03*
X106050000Y-76300000D03*
X106100000Y-80700000D03*
%TD*%
D43*
%TO.C,U4*%
X136096400Y-86840550D03*
X136096400Y-88110550D03*
X136096400Y-89380550D03*
X136096400Y-90650550D03*
X141341500Y-90650550D03*
X141341500Y-89380550D03*
X141341500Y-88110550D03*
X141341500Y-86840550D03*
%TD*%
D27*
%TO.C,C3*%
X110080000Y-102100000D03*
X109120000Y-102100000D03*
%TD*%
D44*
%TO.C,D_TVS1*%
X132168900Y-74835550D03*
X127868900Y-74835550D03*
%TD*%
D19*
%TO.C,R3*%
X134096400Y-90330550D03*
X134096400Y-91350550D03*
%TD*%
D23*
%TO.C,C1*%
X129846400Y-86865550D03*
X129846400Y-89815550D03*
%TD*%
D34*
%TO.C,C6*%
X141493900Y-77510550D03*
X138543900Y-77510550D03*
%TD*%
D12*
%TO.C,R9*%
X116928900Y-71135550D03*
X115908900Y-71135550D03*
%TD*%
D11*
%TO.C,R6*%
X147596400Y-89350550D03*
X147596400Y-88330550D03*
%TD*%
D36*
%TO.C,C9*%
X106920000Y-102100000D03*
X107880000Y-102100000D03*
%TD*%
D20*
%TO.C,R4*%
X144086400Y-89360550D03*
X145106400Y-89360550D03*
%TD*%
%TO.C,R16*%
X134388900Y-106110550D03*
X135408900Y-106110550D03*
%TD*%
%TO.C,R13*%
X148000000Y-105870550D03*
X149020000Y-105870550D03*
%TD*%
D22*
%TO.C,C8*%
X146096400Y-89340550D03*
X146096400Y-88380550D03*
%TD*%
D25*
%TO.C,D3*%
X111218900Y-72158050D03*
X111218900Y-70583050D03*
%TD*%
M02*
