M48
; DRILL file KiCad 10.0.3 date 2026-06-02T14:34:24
; FORMAT={-:-/ absolute / metric / decimal}
; #@! TF.CreationDate,2026-06-02T14:34:24-04:00
; #@! TF.GenerationSoftware,Kicad,Pcbnew,10.0.3
; #@! TF.FileFunction,MixedPlating,1,2
FMAT,2
METRIC
; #@! TA.AperFunction,Plated,PTH,ComponentDrill
T1C0.200
; #@! TA.AperFunction,Plated,PTH,ViaDrill
T2C0.300
; #@! TA.AperFunction,Plated,PTH,ComponentDrill
T3C0.500
; #@! TA.AperFunction,Plated,PTH,ViaDrill
T4C0.600
; #@! TA.AperFunction,Plated,PTH,ComponentDrill
T5C0.700
; #@! TA.AperFunction,Plated,PTH,ComponentDrill
T6C1.000
; #@! TA.AperFunction,Plated,PTH,ComponentDrill
T7C1.800
; #@! TA.AperFunction,Plated,PTH,ComponentDrill
T8C3.200
; #@! TA.AperFunction,NonPlated,NPTH,ComponentDrill
T9C0.580
; #@! TA.AperFunction,NonPlated,NPTH,ComponentDrill
T10C0.660
%
G90
G05
T1
X112.919Y-92.511
X112.919Y-93.911
X113.619Y-91.811
X113.619Y-93.211
X113.619Y-94.611
X114.319Y-92.511
X114.319Y-93.911
X115.019Y-91.811
X115.019Y-93.211
X115.019Y-94.611
X115.719Y-92.511
X115.719Y-93.911
T2
X106.075Y-95.225
X106.5Y-78.5
X106.75Y-105.1
X106.784Y-87.276
X106.95Y-114.0
X108.0Y-61.5
X108.019Y-99.311
X108.339Y-98.8
X108.419Y-71.511
X108.419Y-73.911
X108.675Y-102.905
X108.939Y-94.02
X109.344Y-78.311
X109.5Y-115.5
X109.65Y-111.75
X109.87Y-110.35
X109.9Y-84.7
X110.28Y-103.83
X110.3Y-97.4
X110.41Y-99.3
X110.619Y-73.711
X110.819Y-67.536
X110.9Y-102.1
X111.0Y-84.5
X111.01Y-104.28
X111.544Y-78.9
X111.55Y-110.36
X111.55Y-116.87
X111.68Y-98.91
X112.393Y-114.318
X112.46Y-115.111
X112.5Y-61.5
X112.5Y-113.14
X112.819Y-78.589
X112.88Y-98.9
X113.019Y-69.66
X113.43Y-67.24
X114.619Y-70.711
X114.9Y-112.2
X114.929Y-77.971
X114.99Y-111.22
X115.05Y-103.3
X115.06Y-105.79
X115.3Y-87.1
X115.4Y-97.4
X115.5Y-61.5
X115.898Y-84.49
X116.619Y-110.711
X116.65Y-111.511
X116.819Y-109.911
X116.86Y-97.5
X117.0Y-72.1
X117.04Y-69.59
X117.48Y-113.21
X117.71Y-97.45
X118.5Y-61.5
X118.719Y-64.536
X119.219Y-99.111
X119.3Y-75.15
X119.619Y-88.721
X119.808Y-90.042
X119.85Y-98.25
X120.219Y-94.311
X120.25Y-92.5
X120.39Y-97.11
X120.419Y-88.672
X120.95Y-108.1
X121.019Y-93.911
X121.1Y-114.4
X121.119Y-86.411
X121.2Y-71.9
X121.344Y-67.536
X121.75Y-108.95
X121.753Y-96.976
X121.8Y-103.06
X121.839Y-85.711
X121.85Y-75.275
X121.85Y-77.65
X121.9Y-71.0
X122.4Y-106.95
X122.619Y-87.911
X122.87Y-84.59
X122.9Y-86.8
X123.0Y-61.5
X123.424Y-106.8
X123.7Y-71.0
X124.656Y-116.707
X124.724Y-109.111
X124.75Y-118.7
X124.9Y-81.525
X125.45Y-72.15
X125.5Y-70.0
X125.65Y-119.8
X126.119Y-114.044
X126.497Y-115.28
X126.6Y-117.1
X126.7Y-62.325
X126.913Y-114.144
X127.038Y-118.85
X127.3Y-117.1
X127.319Y-113.264
X128.0Y-91.7
X128.2Y-118.9
X128.638Y-114.354
X129.019Y-117.344
X130.219Y-104.511
X131.329Y-104.111
X131.6Y-89.6
X132.9Y-85.7
X133.7Y-76.898
X134.019Y-104.311
X135.409Y-104.311
X136.619Y-113.911
X137.0Y-84.841
X137.219Y-109.111
X137.95Y-87.75
X137.95Y-88.75
X137.95Y-89.75
X138.119Y-104.411
X138.2Y-113.7
X139.439Y-104.311
X139.45Y-87.75
X139.45Y-88.75
X139.45Y-89.75
X140.0Y-75.711
X140.7Y-81.6
X141.341Y-84.841
X142.0Y-75.711
X146.4Y-77.5
X147.6Y-85.6
X148.619Y-73.661
X150.6Y-84.6
X151.8Y-76.3
T3
X119.419Y-71.111
X119.619Y-77.5
X119.619Y-79.511
X123.219Y-114.544
X123.219Y-116.544
X130.619Y-114.744
X130.619Y-116.744
X132.819Y-116.744
X135.019Y-82.311
X144.419Y-73.911
X150.219Y-70.311
T4
X123.819Y-75.511
T5
X108.93Y-104.93
X108.93Y-109.23
X113.73Y-104.93
X113.73Y-109.23
T6
X130.919Y-96.791
X130.919Y-99.331
X130.919Y-101.871
X134.919Y-96.791
X134.919Y-99.331
X134.919Y-101.871
X138.919Y-96.791
X138.919Y-99.331
X138.919Y-101.871
X144.5Y-96.791
X144.5Y-99.331
X144.5Y-101.871
X148.5Y-96.831
X148.5Y-99.371
X148.5Y-101.911
X152.5Y-96.831
X152.5Y-99.371
X152.5Y-101.911
T7
X131.4Y-64.1
X131.4Y-69.1
X137.649Y-64.111
X137.649Y-69.111
X143.89Y-64.12
X143.89Y-69.12
T8
X102.0Y-64.0
X102.0Y-119.0
X152.0Y-64.0
X152.0Y-119.0
T10
X107.58Y-107.08
T9
X114.87Y-107.08G85X115.29Y-107.08
G05
M30
